<svg xmlns="http://www.w3.org/2000/svg" xmlns:xlink="http://www.w3.org/1999/xlink" viewBox="0 0 520.66 547.8"><defs><style>.a{fill:#fff;}.a,.b,.c,.d{fill-rule:evenodd;}.b{fill:#72d9e0;}.c{fill:#ff0;}.d{fill:#e6eef2;}.e{mask:url(#a);}</style><mask id="a" x="120.4" y="175.82" width="186.56" height="185.97" maskUnits="userSpaceOnUse"><g transform="translate(-14.97 -5.14)"><path class="a" d="M275,318.29c-27.14,21.42-81.84,28.95-103.11,1.73s-1-78.86,26.09-100.29a62.18,62.18,0,0,1,87.63,10.49A63,63,0,0,1,275,318.29Z"/></g></mask></defs><title>pattern illustration 2</title><path class="b" d="M19.36,289.48C29.15,205.64,81.57,142.24,151,118c43.63-15.27,184.52-12.15,251.74,65.75,93.78,108.68,3.58,184.4-95.11,172.25-135.89-16.73-17.17,102.91-104.42,179.39C134,596,150.94,483.16,68,450.29,7,426.1,11.75,354.64,19.36,289.48Z" transform="translate(-14.97 -5.14)"/><path class="c" d="M531.2,409.55c19.14,43.28-25.2,132.72-102.91,133.34s-146.78-79.75-165.92-123,52.62,5.45,117.7-30.94S512.05,366.27,531.2,409.55Z" transform="translate(-14.97 -5.14)"/><path class="d" d="M100.08,21.26C160.93-17,236.82,17.2,274.92,78.33s100.65,188.55-25.24,182.94C151.66,256.91-50.47,116,100.08,21.26Z" transform="translate(-14.97 -5.14)"/><g class="e"><path class="a" d="M142.06,185c0,1.67-2,3-3.69,3a3,3,0,0,1-3-3c0-1.67,1.34-4.08,3-4.08S142.06,183.37,142.06,185Z" transform="translate(-14.97 -5.14)"/><path class="a" d="M155.89,185c0,1.67-2,3-3.68,3a3,3,0,0,1-3-3c0-1.67,1.34-4.08,3-4.08S155.89,183.37,155.89,185Z" transform="translate(-14.97 -5.14)"/><path class="a" d="M169.74,185c0,1.67-2,3-3.69,3a3,3,0,0,1-3-3c0-1.67,1.33-4.08,3-4.08S169.74,183.37,169.74,185Z" transform="translate(-14.97 -5.14)"/><path class="a" d="M183.57,185c0,1.67-2,3-3.68,3a3,3,0,0,1-3-3c0-1.67,1.35-4.08,3-4.08S183.57,183.37,183.57,185Z" transform="translate(-14.97 -5.14)"/><path class="a" d="M197.4,185c0,1.67-2,3-3.68,3a3,3,0,0,1-3-3c0-1.67,1.35-4.08,3-4.08S197.4,183.37,197.4,185Z" transform="translate(-14.97 -5.14)"/><path class="a" d="M211.25,185c0,1.67-2,3-3.7,3a3,3,0,0,1-3-3c0-1.67,1.35-4.08,3-4.08S211.25,183.37,211.25,185Z" transform="translate(-14.97 -5.14)"/><path class="a" d="M225.08,185c0,1.67-2,3-3.68,3a3,3,0,0,1-3-3c0-1.67,1.35-4.08,3-4.08S225.08,183.37,225.08,185Z" transform="translate(-14.97 -5.14)"/><path class="a" d="M238.92,185c0,1.67-2,3-3.69,3a3,3,0,0,1-3-3c0-1.67,1.35-4.08,3-4.08S238.92,183.37,238.92,185Z" transform="translate(-14.97 -5.14)"/><path class="a" d="M252.75,185c0,1.67-2,3-3.68,3a3,3,0,0,1-3-3c0-1.67,1.34-4.08,3-4.08S252.75,183.37,252.75,185Z" transform="translate(-14.97 -5.14)"/><path class="a" d="M266.58,185c0,1.67-2,3-3.68,3a3,3,0,0,1-3-3c0-1.67,1.34-4.08,3-4.08S266.58,183.37,266.58,185Z" transform="translate(-14.97 -5.14)"/><path class="a" d="M280.43,185c0,1.67-2,3-3.69,3a3,3,0,0,1-3-3c0-1.67,1.35-4.08,3-4.08S280.43,183.37,280.43,185Z" transform="translate(-14.97 -5.14)"/><path class="a" d="M294.26,185c0,1.67-2,3-3.68,3a3,3,0,0,1-3-3c0-1.67,1.35-4.08,3-4.08S294.26,183.37,294.26,185Z" transform="translate(-14.97 -5.14)"/><path class="a" d="M308.11,185c0,1.67-2,3-3.7,3a3,3,0,0,1-3-3c0-1.67,1.34-4.08,3-4.08S308.11,183.37,308.11,185Z" transform="translate(-14.97 -5.14)"/><path class="a" d="M321.94,185c0,1.67-2,3-3.68,3a3,3,0,0,1-3-3c0-1.67,1.35-4.08,3-4.08S321.94,183.37,321.94,185Z" transform="translate(-14.97 -5.14)"/><path class="a" d="M142.06,197.82c0,1.67-2,3-3.69,3a3,3,0,0,1-3-3c0-1.67,1.34-4.08,3-4.08S142.06,196.15,142.06,197.82Z" transform="translate(-14.97 -5.14)"/><path class="a" d="M142.06,211.12c0,1.67-2,3-3.69,3a3,3,0,0,1-3-3c0-1.67,1.34-4.08,3-4.08S142.06,209.45,142.06,211.12Z" transform="translate(-14.97 -5.14)"/><path class="a" d="M155.89,197.82c0,1.67-2,3-3.68,3a3,3,0,0,1-3-3c0-1.67,1.34-4.08,3-4.08S155.89,196.15,155.89,197.82Z" transform="translate(-14.97 -5.14)"/><path class="a" d="M169.74,197.82c0,1.67-2,3-3.69,3a3,3,0,0,1-3-3c0-1.67,1.33-4.08,3-4.08S169.74,196.15,169.74,197.82Z" transform="translate(-14.97 -5.14)"/><path class="a" d="M183.57,197.82c0,1.67-2,3-3.68,3a3,3,0,0,1-3-3c0-1.67,1.35-4.08,3-4.08S183.57,196.15,183.57,197.82Z" transform="translate(-14.97 -5.14)"/><path class="a" d="M197.4,197.82c0,1.67-2,3-3.68,3a3,3,0,0,1-3-3c0-1.67,1.35-4.08,3-4.08S197.4,196.15,197.4,197.82Z" transform="translate(-14.97 -5.14)"/><path class="a" d="M211.25,197.82c0,1.67-2,3-3.7,3a3,3,0,0,1-3-3c0-1.67,1.35-4.08,3-4.08S211.25,196.15,211.25,197.82Z" transform="translate(-14.97 -5.14)"/><path class="a" d="M225.08,197.82c0,1.67-2,3-3.68,3a3,3,0,0,1-3-3c0-1.67,1.35-4.08,3-4.08S225.08,196.15,225.08,197.82Z" transform="translate(-14.97 -5.14)"/><path class="a" d="M238.92,197.82c0,1.67-2,3-3.69,3a3,3,0,0,1-3-3c0-1.67,1.35-4.08,3-4.08S238.92,196.15,238.92,197.82Z" transform="translate(-14.97 -5.14)"/><path class="a" d="M252.75,197.82c0,1.67-2,3-3.68,3a3,3,0,0,1-3-3c0-1.67,1.34-4.08,3-4.08S252.75,196.15,252.75,197.82Z" transform="translate(-14.97 -5.14)"/><path class="a" d="M266.58,197.82c0,1.67-2,3-3.68,3a3,3,0,0,1-3-3c0-1.67,1.34-4.08,3-4.08S266.58,196.15,266.58,197.82Z" transform="translate(-14.97 -5.14)"/><path class="a" d="M280.43,197.82c0,1.67-2,3-3.69,3a3,3,0,0,1-3-3c0-1.67,1.35-4.08,3-4.08S280.43,196.15,280.43,197.82Z" transform="translate(-14.97 -5.14)"/><path class="a" d="M294.26,197.82c0,1.67-2,3-3.68,3a3,3,0,0,1-3-3c0-1.67,1.35-4.08,3-4.08S294.26,196.15,294.26,197.82Z" transform="translate(-14.97 -5.14)"/><path class="a" d="M308.11,197.82c0,1.67-2,3-3.7,3a3,3,0,0,1-3-3c0-1.67,1.34-4.08,3-4.08S308.11,196.15,308.11,197.82Z" transform="translate(-14.97 -5.14)"/><path class="a" d="M321.94,197.82c0,1.67-2,3-3.68,3a3,3,0,0,1-3-3c0-1.67,1.35-4.08,3-4.08S321.94,196.15,321.94,197.82Z" transform="translate(-14.97 -5.14)"/><path class="a" d="M155.89,210.6c0,1.66-2,3-3.68,3a3,3,0,0,1-3-3c0-1.67,1.34-4.08,3-4.08S155.89,208.93,155.89,210.6Z" transform="translate(-14.97 -5.14)"/><path class="a" d="M169.74,210.6c0,1.66-2,3-3.69,3a3,3,0,0,1-3-3c0-1.67,1.33-4.08,3-4.08S169.74,208.93,169.74,210.6Z" transform="translate(-14.97 -5.14)"/><path class="a" d="M183.57,210.6c0,1.66-2,3-3.68,3a3,3,0,0,1-3-3c0-1.67,1.35-4.08,3-4.08S183.57,208.93,183.57,210.6Z" transform="translate(-14.97 -5.14)"/><path class="a" d="M197.4,210.6c0,1.66-2,3-3.68,3a3,3,0,0,1-3-3c0-1.67,1.35-4.08,3-4.08S197.4,208.93,197.4,210.6Z" transform="translate(-14.97 -5.14)"/><path class="a" d="M238.92,210.6c0,1.66-2,3-3.69,3a3,3,0,0,1-3-3c0-1.67,1.35-4.08,3-4.08S238.92,208.93,238.92,210.6Z" transform="translate(-14.97 -5.14)"/><path class="a" d="M280.43,210.6c0,1.66-2,3-3.69,3a3,3,0,0,1-3-3c0-1.67,1.35-4.08,3-4.08S280.43,208.93,280.43,210.6Z" transform="translate(-14.97 -5.14)"/><path class="a" d="M294.26,210.6c0,1.66-2,3-3.68,3a3,3,0,0,1-3-3c0-1.67,1.35-4.08,3-4.08S294.26,208.93,294.26,210.6Z" transform="translate(-14.97 -5.14)"/><path class="a" d="M308.11,210.6c0,1.66-2,3-3.7,3a3,3,0,0,1-3-3c0-1.67,1.34-4.08,3-4.08S308.11,208.93,308.11,210.6Z" transform="translate(-14.97 -5.14)"/><path class="a" d="M321.94,210.6c0,1.66-2,3-3.68,3a3,3,0,0,1-3-3c0-1.67,1.35-4.08,3-4.08S321.94,208.93,321.94,210.6Z" transform="translate(-14.97 -5.14)"/><path class="a" d="M142.06,223.37c0,1.67-2,3-3.69,3a3,3,0,0,1-3-3c0-1.67,1.34-4.08,3-4.08S142.06,221.7,142.06,223.37Z" transform="translate(-14.97 -5.14)"/><path class="a" d="M155.89,223.37c0,1.67-2,3-3.68,3a3,3,0,0,1-3-3c0-1.67,1.34-4.08,3-4.08S155.89,221.7,155.89,223.37Z" transform="translate(-14.97 -5.14)"/><path class="a" d="M169.74,223.37c0,1.67-2,3-3.69,3a3,3,0,0,1-3-3c0-1.67,1.33-4.08,3-4.08S169.74,221.7,169.74,223.37Z" transform="translate(-14.97 -5.14)"/><path class="a" d="M183.57,223.37c0,1.67-2,3-3.68,3a3,3,0,0,1-3-3c0-1.67,1.35-4.08,3-4.08S183.57,221.7,183.57,223.37Z" transform="translate(-14.97 -5.14)"/><path class="a" d="M211.25,223.37c0,1.67-2,3-3.7,3a3,3,0,0,1-3-3c0-1.67,1.35-4.08,3-4.08S211.25,221.7,211.25,223.37Z" transform="translate(-14.97 -5.14)"/><path class="a" d="M225.08,223.37c0,1.67-2,3-3.68,3a3,3,0,0,1-3-3c0-1.67,1.35-4.08,3-4.08S225.08,221.7,225.08,223.37Z" transform="translate(-14.97 -5.14)"/><path class="a" d="M238.92,223.37c0,1.67-2,3-3.69,3a3,3,0,0,1-3-3c0-1.67,1.35-4.08,3-4.08S238.92,221.7,238.92,223.37Z" transform="translate(-14.97 -5.14)"/><path class="a" d="M294.26,223.37c0,1.67-2,3-3.68,3a3,3,0,0,1-3-3c0-1.67,1.35-4.08,3-4.08S294.26,221.7,294.26,223.37Z" transform="translate(-14.97 -5.14)"/><path class="a" d="M308.11,223.37c0,1.67-2,3-3.7,3a3,3,0,0,1-3-3c0-1.67,1.34-4.08,3-4.08S308.11,221.7,308.11,223.37Z" transform="translate(-14.97 -5.14)"/><path class="a" d="M321.94,223.37c0,1.67-2,3-3.68,3a3,3,0,0,1-3-3c0-1.67,1.35-4.08,3-4.08S321.94,221.7,321.94,223.37Z" transform="translate(-14.97 -5.14)"/><path class="a" d="M142.06,236.15c0,1.67-2,3-3.69,3a3,3,0,0,1-3-3c0-1.67,1.34-4.08,3-4.08S142.06,234.48,142.06,236.15Z" transform="translate(-14.97 -5.14)"/><path class="a" d="M155.89,236.15c0,1.67-2,3-3.68,3a3,3,0,0,1-3-3c0-1.67,1.34-4.08,3-4.08S155.89,234.48,155.89,236.15Z" transform="translate(-14.97 -5.14)"/><path class="a" d="M169.74,236.15c0,1.67-2,3-3.69,3a3,3,0,0,1-3-3c0-1.67,1.33-4.08,3-4.08S169.74,234.48,169.74,236.15Z" transform="translate(-14.97 -5.14)"/><path class="a" d="M197.4,236.15c0,1.67-2,3-3.68,3a3,3,0,0,1-3-3c0-1.67,1.35-4.08,3-4.08S197.4,234.48,197.4,236.15Z" transform="translate(-14.97 -5.14)"/><path class="a" d="M211.25,236.15c0,1.67-2,3-3.7,3a3,3,0,0,1-3-3c0-1.67,1.35-4.08,3-4.08S211.25,234.48,211.25,236.15Z" transform="translate(-14.97 -5.14)"/><path class="a" d="M225.08,236.15c0,1.67-2,3-3.68,3a3,3,0,0,1-3-3c0-1.67,1.35-4.08,3-4.08S225.08,234.48,225.08,236.15Z" transform="translate(-14.97 -5.14)"/><path class="a" d="M238.92,236.15c0,1.67-2,3-3.69,3a3,3,0,0,1-3-3c0-1.67,1.35-4.08,3-4.08S238.92,234.48,238.92,236.15Z" transform="translate(-14.97 -5.14)"/><path class="a" d="M252.75,236.15c0,1.67-2,3-3.68,3a3,3,0,0,1-3-3c0-1.67,1.34-4.08,3-4.08S252.75,234.48,252.75,236.15Z" transform="translate(-14.97 -5.14)"/><path class="a" d="M266.58,236.15c0,1.67-2,3-3.68,3a3,3,0,0,1-3-3c0-1.67,1.34-4.08,3-4.08S266.58,234.48,266.58,236.15Z" transform="translate(-14.97 -5.14)"/><path class="a" d="M308.11,236.15c0,1.67-2,3-3.7,3a3,3,0,0,1-3-3c0-1.67,1.34-4.08,3-4.08S308.11,234.48,308.11,236.15Z" transform="translate(-14.97 -5.14)"/><path class="a" d="M321.94,236.15c0,1.67-2,3-3.68,3a3,3,0,0,1-3-3c0-1.67,1.35-4.08,3-4.08S321.94,234.48,321.94,236.15Z" transform="translate(-14.97 -5.14)"/><path class="a" d="M142.06,248.93c0,1.66-2,3-3.69,3a3,3,0,0,1-3-3c0-1.67,1.34-4.08,3-4.08S142.06,247.26,142.06,248.93Z" transform="translate(-14.97 -5.14)"/><path class="a" d="M155.89,248.93c0,1.66-2,3-3.68,3a3,3,0,0,1-3-3c0-1.67,1.34-4.08,3-4.08S155.89,247.26,155.89,248.93Z" transform="translate(-14.97 -5.14)"/><path class="a" d="M169.74,248.93c0,1.66-2,3-3.69,3a3,3,0,0,1-3-3c0-1.67,1.33-4.08,3-4.08S169.74,247.26,169.74,248.93Z" transform="translate(-14.97 -5.14)"/><path class="a" d="M183.57,248.93c0,1.66-2,3-3.68,3a3,3,0,0,1-3-3c0-1.67,1.35-4.08,3-4.08S183.57,247.26,183.57,248.93Z" transform="translate(-14.97 -5.14)"/><path class="a" d="M197.4,248.93c0,1.66-2,3-3.68,3a3,3,0,0,1-3-3c0-1.67,1.35-4.08,3-4.08S197.4,247.26,197.4,248.93Z" transform="translate(-14.97 -5.14)"/><path class="a" d="M211.25,248.93c0,1.66-2,3-3.7,3a3,3,0,0,1-3-3c0-1.67,1.35-4.08,3-4.08S211.25,247.26,211.25,248.93Z" transform="translate(-14.97 -5.14)"/><path class="a" d="M225.08,248.93c0,1.66-2,3-3.68,3a3,3,0,0,1-3-3c0-1.67,1.35-4.08,3-4.08S225.08,247.26,225.08,248.93Z" transform="translate(-14.97 -5.14)"/><path class="a" d="M238.92,248.93c0,1.66-2,3-3.69,3a3,3,0,0,1-3-3c0-1.67,1.35-4.08,3-4.08S238.92,247.26,238.92,248.93Z" transform="translate(-14.97 -5.14)"/><path class="a" d="M252.75,248.93c0,1.66-2,3-3.68,3a3,3,0,0,1-3-3c0-1.67,1.34-4.08,3-4.08S252.75,247.26,252.75,248.93Z" transform="translate(-14.97 -5.14)"/><path class="a" d="M266.58,248.93c0,1.66-2,3-3.68,3a3,3,0,0,1-3-3c0-1.67,1.34-4.08,3-4.08S266.58,247.26,266.58,248.93Z" transform="translate(-14.97 -5.14)"/><path class="a" d="M280.43,248.93c0,1.66-2,3-3.69,3a3,3,0,0,1-3-3c0-1.67,1.35-4.08,3-4.08S280.43,247.26,280.43,248.93Z" transform="translate(-14.97 -5.14)"/><path class="a" d="M294.26,248.93c0,1.66-2,3-3.68,3a3,3,0,0,1-3-3c0-1.67,1.35-4.08,3-4.08S294.26,247.26,294.26,248.93Z" transform="translate(-14.97 -5.14)"/><path class="a" d="M321.94,248.93c0,1.66-2,3-3.68,3a3,3,0,0,1-3-3c0-1.67,1.35-4.08,3-4.08S321.94,247.26,321.94,248.93Z" transform="translate(-14.97 -5.14)"/><path class="a" d="M252.75,223.9c0,1.66-2,3-3.68,3a3,3,0,0,1-3-3c0-1.67,1.34-4.08,3-4.08S252.75,222.23,252.75,223.9Z" transform="translate(-14.97 -5.14)"/><path class="a" d="M266.58,223.9c0,1.66-2,3-3.68,3a3,3,0,0,1-3-3c0-1.67,1.34-4.08,3-4.08S266.58,222.23,266.58,223.9Z" transform="translate(-14.97 -5.14)"/><path class="a" d="M280.43,236.67c0,1.67-2,3-3.69,3a3,3,0,0,1-3-3c0-1.66,1.35-4.08,3-4.08S280.43,235,280.43,236.67Z" transform="translate(-14.97 -5.14)"/><path class="a" d="M308.11,249.45c0,1.66-2,3-3.7,3a3,3,0,0,1-3-3c0-1.67,1.34-4.08,3-4.08S308.11,247.78,308.11,249.45Z" transform="translate(-14.97 -5.14)"/><path class="a" d="M321.94,262.23c0,1.66-2,3-3.68,3a3,3,0,0,1-3-3c0-1.67,1.35-4.08,3-4.08S321.94,260.56,321.94,262.23Z" transform="translate(-14.97 -5.14)"/><path class="a" d="M142.06,261.7c0,1.67-2,3-3.69,3a3,3,0,0,1-3-3c0-1.67,1.34-4.08,3-4.08S142.06,260,142.06,261.7Z" transform="translate(-14.97 -5.14)"/><path class="a" d="M155.89,261.7c0,1.67-2,3-3.68,3a3,3,0,0,1-3-3c0-1.67,1.34-4.08,3-4.08S155.89,260,155.89,261.7Z" transform="translate(-14.97 -5.14)"/><path class="a" d="M183.57,261.7c0,1.67-2,3-3.68,3a3,3,0,0,1-3-3c0-1.67,1.35-4.08,3-4.08S183.57,260,183.57,261.7Z" transform="translate(-14.97 -5.14)"/><path class="a" d="M197.4,261.7c0,1.67-2,3-3.68,3a3,3,0,0,1-3-3c0-1.67,1.35-4.08,3-4.08S197.4,260,197.4,261.7Z" transform="translate(-14.97 -5.14)"/><path class="a" d="M211.25,261.7c0,1.67-2,3-3.7,3a3,3,0,0,1-3-3c0-1.67,1.35-4.08,3-4.08S211.25,260,211.25,261.7Z" transform="translate(-14.97 -5.14)"/><path class="a" d="M225.08,261.7c0,1.67-2,3-3.68,3a3,3,0,0,1-3-3c0-1.67,1.35-4.08,3-4.08S225.08,260,225.08,261.7Z" transform="translate(-14.97 -5.14)"/><path class="a" d="M238.92,261.7c0,1.67-2,3-3.69,3a3,3,0,0,1-3-3c0-1.67,1.35-4.08,3-4.08S238.92,260,238.92,261.7Z" transform="translate(-14.97 -5.14)"/><path class="a" d="M252.75,261.7c0,1.67-2,3-3.68,3a3,3,0,0,1-3-3c0-1.67,1.34-4.08,3-4.08S252.75,260,252.75,261.7Z" transform="translate(-14.97 -5.14)"/><path class="a" d="M266.58,261.7c0,1.67-2,3-3.68,3a3,3,0,0,1-3-3c0-1.67,1.34-4.08,3-4.08S266.58,260,266.58,261.7Z" transform="translate(-14.97 -5.14)"/><path class="a" d="M280.43,261.7c0,1.67-2,3-3.69,3a3,3,0,0,1-3-3c0-1.67,1.35-4.08,3-4.08S280.43,260,280.43,261.7Z" transform="translate(-14.97 -5.14)"/><path class="a" d="M294.26,261.7c0,1.67-2,3-3.68,3a3,3,0,0,1-3-3c0-1.67,1.35-4.08,3-4.08S294.26,260,294.26,261.7Z" transform="translate(-14.97 -5.14)"/><path class="a" d="M308.11,261.7c0,1.67-2,3-3.7,3a3,3,0,0,1-3-3c0-1.67,1.34-4.08,3-4.08S308.11,260,308.11,261.7Z" transform="translate(-14.97 -5.14)"/><path class="a" d="M142.06,274.48c0,1.67-2,3-3.69,3a3,3,0,0,1-3-3c0-1.67,1.34-4.08,3-4.08S142.06,272.81,142.06,274.48Z" transform="translate(-14.97 -5.14)"/><path class="a" d="M155.89,274.48c0,1.67-2,3-3.68,3a3,3,0,0,1-3-3c0-1.67,1.34-4.08,3-4.08S155.89,272.81,155.89,274.48Z" transform="translate(-14.97 -5.14)"/><path class="a" d="M183.57,274.48c0,1.67-2,3-3.68,3a3,3,0,0,1-3-3c0-1.67,1.35-4.08,3-4.08S183.57,272.81,183.57,274.48Z" transform="translate(-14.97 -5.14)"/><path class="a" d="M197.4,274.48c0,1.67-2,3-3.68,3a3,3,0,0,1-3-3c0-1.67,1.35-4.08,3-4.08S197.4,272.81,197.4,274.48Z" transform="translate(-14.97 -5.14)"/><path class="a" d="M211.25,274.48c0,1.67-2,3-3.7,3a3,3,0,0,1-3-3c0-1.67,1.35-4.08,3-4.08S211.25,272.81,211.25,274.48Z" transform="translate(-14.97 -5.14)"/><path class="a" d="M225.08,274.48c0,1.67-2,3-3.68,3a3,3,0,0,1-3-3c0-1.67,1.35-4.08,3-4.08S225.08,272.81,225.08,274.48Z" transform="translate(-14.97 -5.14)"/><path class="a" d="M238.92,274.48c0,1.67-2,3-3.69,3a3,3,0,0,1-3-3c0-1.67,1.35-4.08,3-4.08S238.92,272.81,238.92,274.48Z" transform="translate(-14.97 -5.14)"/><path class="a" d="M252.75,274.48c0,1.67-2,3-3.68,3a3,3,0,0,1-3-3c0-1.67,1.34-4.08,3-4.08S252.75,272.81,252.75,274.48Z" transform="translate(-14.97 -5.14)"/><path class="a" d="M266.58,274.48c0,1.67-2,3-3.68,3a3,3,0,0,1-3-3c0-1.67,1.34-4.08,3-4.08S266.58,272.81,266.58,274.48Z" transform="translate(-14.97 -5.14)"/><path class="a" d="M280.43,274.48c0,1.67-2,3-3.69,3a3,3,0,0,1-3-3c0-1.67,1.35-4.08,3-4.08S280.43,272.81,280.43,274.48Z" transform="translate(-14.97 -5.14)"/><path class="a" d="M294.26,274.48c0,1.67-2,3-3.68,3a3,3,0,0,1-3-3c0-1.67,1.35-4.08,3-4.08S294.26,272.81,294.26,274.48Z" transform="translate(-14.97 -5.14)"/><path class="a" d="M308.11,274.48c0,1.67-2,3-3.7,3a3,3,0,0,1-3-3c0-1.67,1.34-4.08,3-4.08S308.11,272.81,308.11,274.48Z" transform="translate(-14.97 -5.14)"/><path class="a" d="M321.94,274.48c0,1.67-2,3-3.68,3a3,3,0,0,1-3-3c0-1.67,1.35-4.08,3-4.08S321.94,272.81,321.94,274.48Z" transform="translate(-14.97 -5.14)"/><path class="a" d="M142.06,287.26c0,1.66-2,3-3.69,3a3,3,0,0,1-3-3c0-1.67,1.34-4.09,3-4.09S142.06,285.59,142.06,287.26Z" transform="translate(-14.97 -5.14)"/><path class="a" d="M155.89,287.26c0,1.66-2,3-3.68,3a3,3,0,0,1-3-3c0-1.67,1.34-4.09,3-4.09S155.89,285.59,155.89,287.26Z" transform="translate(-14.97 -5.14)"/><path class="a" d="M169.74,287.26c0,1.66-2,3-3.69,3a3,3,0,0,1-3-3c0-1.67,1.33-4.09,3-4.09S169.74,285.59,169.74,287.26Z" transform="translate(-14.97 -5.14)"/><path class="a" d="M183.57,287.26c0,1.66-2,3-3.68,3a3,3,0,0,1-3-3c0-1.67,1.35-4.09,3-4.09S183.57,285.59,183.57,287.26Z" transform="translate(-14.97 -5.14)"/><path class="a" d="M197.4,287.26c0,1.66-2,3-3.68,3a3,3,0,0,1-3-3c0-1.67,1.35-4.09,3-4.09S197.4,285.59,197.4,287.26Z" transform="translate(-14.97 -5.14)"/><path class="a" d="M211.25,287.26c0,1.66-2,3-3.7,3a3,3,0,0,1-3-3c0-1.67,1.35-4.09,3-4.09S211.25,285.59,211.25,287.26Z" transform="translate(-14.97 -5.14)"/><path class="a" d="M225.08,287.26c0,1.66-2,3-3.68,3a3,3,0,0,1-3-3c0-1.67,1.35-4.09,3-4.09S225.08,285.59,225.08,287.26Z" transform="translate(-14.97 -5.14)"/><path class="a" d="M238.92,287.26c0,1.66-2,3-3.69,3a3,3,0,0,1-3-3c0-1.67,1.35-4.09,3-4.09S238.92,285.59,238.92,287.26Z" transform="translate(-14.97 -5.14)"/><path class="a" d="M252.75,287.26c0,1.66-2,3-3.68,3a3,3,0,0,1-3-3c0-1.67,1.34-4.09,3-4.09S252.75,285.59,252.75,287.26Z" transform="translate(-14.97 -5.14)"/><path class="a" d="M266.58,287.26c0,1.66-2,3-3.68,3a3,3,0,0,1-3-3c0-1.67,1.34-4.09,3-4.09S266.58,285.59,266.58,287.26Z" transform="translate(-14.97 -5.14)"/><path class="a" d="M280.43,287.26c0,1.66-2,3-3.69,3a3,3,0,0,1-3-3c0-1.67,1.35-4.09,3-4.09S280.43,285.59,280.43,287.26Z" transform="translate(-14.97 -5.14)"/><path class="a" d="M294.26,287.26c0,1.66-2,3-3.68,3a3,3,0,0,1-3-3c0-1.67,1.35-4.09,3-4.09S294.26,285.59,294.26,287.26Z" transform="translate(-14.97 -5.14)"/><path class="a" d="M308.11,287.26c0,1.66-2,3-3.7,3a3,3,0,0,1-3-3c0-1.67,1.34-4.09,3-4.09S308.11,285.59,308.11,287.26Z" transform="translate(-14.97 -5.14)"/><path class="a" d="M321.94,287.26c0,1.66-2,3-3.68,3a3,3,0,0,1-3-3c0-1.67,1.35-4.09,3-4.09S321.94,285.59,321.94,287.26Z" transform="translate(-14.97 -5.14)"/><path class="a" d="M142.06,300c0,1.67-2,3-3.69,3a3,3,0,0,1-3-3c0-1.67,1.34-4.08,3-4.08S142.06,298.36,142.06,300Z" transform="translate(-14.97 -5.14)"/><path class="a" d="M155.89,300c0,1.67-2,3-3.68,3a3,3,0,0,1-3-3c0-1.67,1.34-4.08,3-4.08S155.89,298.36,155.89,300Z" transform="translate(-14.97 -5.14)"/><path class="a" d="M183.57,300c0,1.67-2,3-3.68,3a3,3,0,0,1-3-3c0-1.67,1.35-4.08,3-4.08S183.57,298.36,183.57,300Z" transform="translate(-14.97 -5.14)"/><path class="a" d="M197.4,300c0,1.67-2,3-3.68,3a3,3,0,0,1-3-3c0-1.67,1.35-4.08,3-4.08S197.4,298.36,197.4,300Z" transform="translate(-14.97 -5.14)"/><path class="a" d="M211.25,300c0,1.67-2,3-3.7,3a3,3,0,0,1-3-3c0-1.67,1.35-4.08,3-4.08S211.25,298.36,211.25,300Z" transform="translate(-14.97 -5.14)"/><path class="a" d="M225.08,300c0,1.67-2,3-3.68,3a3,3,0,0,1-3-3c0-1.67,1.35-4.08,3-4.08S225.08,298.36,225.08,300Z" transform="translate(-14.97 -5.14)"/><path class="a" d="M238.92,300c0,1.67-2,3-3.69,3a3,3,0,0,1-3-3c0-1.67,1.35-4.08,3-4.08S238.92,298.36,238.92,300Z" transform="translate(-14.97 -5.14)"/><path class="a" d="M252.75,300c0,1.67-2,3-3.68,3a3,3,0,0,1-3-3c0-1.67,1.34-4.08,3-4.08S252.75,298.36,252.75,300Z" transform="translate(-14.97 -5.14)"/><path class="a" d="M266.58,300c0,1.67-2,3-3.68,3a3,3,0,0,1-3-3c0-1.67,1.34-4.08,3-4.08S266.58,298.36,266.58,300Z" transform="translate(-14.97 -5.14)"/><path class="a" d="M280.43,300c0,1.67-2,3-3.69,3a3,3,0,0,1-3-3c0-1.67,1.35-4.08,3-4.08S280.43,298.36,280.43,300Z" transform="translate(-14.97 -5.14)"/><path class="a" d="M308.11,300c0,1.67-2,3-3.7,3a3,3,0,0,1-3-3c0-1.67,1.34-4.08,3-4.08S308.11,298.36,308.11,300Z" transform="translate(-14.97 -5.14)"/><path class="a" d="M321.94,300c0,1.67-2,3-3.68,3a3,3,0,0,1-3-3c0-1.67,1.35-4.08,3-4.08S321.94,298.36,321.94,300Z" transform="translate(-14.97 -5.14)"/><path class="a" d="M142.06,312.81c0,1.66-2,3-3.69,3a3,3,0,0,1-3-3c0-1.67,1.34-4.08,3-4.08S142.06,311.14,142.06,312.81Z" transform="translate(-14.97 -5.14)"/><path class="a" d="M155.89,312.81c0,1.66-2,3-3.68,3a3,3,0,0,1-3-3c0-1.67,1.34-4.08,3-4.08S155.89,311.14,155.89,312.81Z" transform="translate(-14.97 -5.14)"/><path class="a" d="M183.57,312.81c0,1.66-2,3-3.68,3a3,3,0,0,1-3-3c0-1.67,1.35-4.08,3-4.08S183.57,311.14,183.57,312.81Z" transform="translate(-14.97 -5.14)"/><path class="a" d="M197.4,312.81c0,1.66-2,3-3.68,3a3,3,0,0,1-3-3c0-1.67,1.35-4.08,3-4.08S197.4,311.14,197.4,312.81Z" transform="translate(-14.97 -5.14)"/><path class="a" d="M211.25,312.81c0,1.66-2,3-3.7,3a3,3,0,0,1-3-3c0-1.67,1.35-4.08,3-4.08S211.25,311.14,211.25,312.81Z" transform="translate(-14.97 -5.14)"/><path class="a" d="M225.08,312.81c0,1.66-2,3-3.68,3a3,3,0,0,1-3-3c0-1.67,1.35-4.08,3-4.08S225.08,311.14,225.08,312.81Z" transform="translate(-14.97 -5.14)"/><path class="a" d="M238.92,312.81c0,1.66-2,3-3.69,3a3,3,0,0,1-3-3c0-1.67,1.35-4.08,3-4.08S238.92,311.14,238.92,312.81Z" transform="translate(-14.97 -5.14)"/><path class="a" d="M252.75,312.81c0,1.66-2,3-3.68,3a3,3,0,0,1-3-3c0-1.67,1.34-4.08,3-4.08S252.75,311.14,252.75,312.81Z" transform="translate(-14.97 -5.14)"/><path class="a" d="M266.58,312.81c0,1.66-2,3-3.68,3a3,3,0,0,1-3-3c0-1.67,1.34-4.08,3-4.08S266.58,311.14,266.58,312.81Z" transform="translate(-14.97 -5.14)"/><path class="a" d="M308.11,312.81c0,1.66-2,3-3.7,3a3,3,0,0,1-3-3c0-1.67,1.34-4.08,3-4.08S308.11,311.14,308.11,312.81Z" transform="translate(-14.97 -5.14)"/><path class="a" d="M321.94,312.81c0,1.66-2,3-3.68,3a3,3,0,0,1-3-3c0-1.67,1.35-4.08,3-4.08S321.94,311.14,321.94,312.81Z" transform="translate(-14.97 -5.14)"/><path class="a" d="M142.06,325.58c0,1.67-2,3-3.69,3a3,3,0,0,1-3-3c0-1.66,1.34-4.08,3-4.08S142.06,323.92,142.06,325.58Z" transform="translate(-14.97 -5.14)"/><path class="a" d="M155.89,325.58c0,1.67-2,3-3.68,3a3,3,0,0,1-3-3c0-1.66,1.34-4.08,3-4.08S155.89,323.92,155.89,325.58Z" transform="translate(-14.97 -5.14)"/><path class="a" d="M169.74,325.58c0,1.67-2,3-3.69,3a3,3,0,0,1-3-3c0-1.66,1.33-4.08,3-4.08S169.74,323.92,169.74,325.58Z" transform="translate(-14.97 -5.14)"/><path class="a" d="M197.4,325.58c0,1.67-2,3-3.68,3a3,3,0,0,1-3-3c0-1.66,1.35-4.08,3-4.08S197.4,323.92,197.4,325.58Z" transform="translate(-14.97 -5.14)"/><path class="a" d="M211.25,325.58c0,1.67-2,3-3.7,3a3,3,0,0,1-3-3c0-1.66,1.35-4.08,3-4.08S211.25,323.92,211.25,325.58Z" transform="translate(-14.97 -5.14)"/><path class="a" d="M225.08,325.58c0,1.67-2,3-3.68,3a3,3,0,0,1-3-3c0-1.66,1.35-4.08,3-4.08S225.08,323.92,225.08,325.58Z" transform="translate(-14.97 -5.14)"/><path class="a" d="M238.92,325.58c0,1.67-2,3-3.69,3a3,3,0,0,1-3-3c0-1.66,1.35-4.08,3-4.08S238.92,323.92,238.92,325.58Z" transform="translate(-14.97 -5.14)"/><path class="a" d="M252.75,325.58c0,1.67-2,3-3.68,3a3,3,0,0,1-3-3c0-1.66,1.34-4.08,3-4.08S252.75,323.92,252.75,325.58Z" transform="translate(-14.97 -5.14)"/><path class="a" d="M294.26,325.58c0,1.67-2,3-3.68,3a3,3,0,0,1-3-3c0-1.66,1.35-4.08,3-4.08S294.26,323.92,294.26,325.58Z" transform="translate(-14.97 -5.14)"/><path class="a" d="M308.11,325.58c0,1.67-2,3-3.7,3a3,3,0,0,1-3-3c0-1.66,1.34-4.08,3-4.08S308.11,323.92,308.11,325.58Z" transform="translate(-14.97 -5.14)"/><path class="a" d="M321.94,325.58c0,1.67-2,3-3.68,3a3,3,0,0,1-3-3c0-1.66,1.35-4.08,3-4.08S321.94,323.92,321.94,325.58Z" transform="translate(-14.97 -5.14)"/><path class="a" d="M142.06,338.36c0,1.67-2,3-3.69,3a3,3,0,0,1-3-3c0-1.67,1.34-4.08,3-4.08S142.06,336.69,142.06,338.36Z" transform="translate(-14.97 -5.14)"/><path class="a" d="M155.89,338.36c0,1.67-2,3-3.68,3a3,3,0,0,1-3-3c0-1.67,1.34-4.08,3-4.08S155.89,336.69,155.89,338.36Z" transform="translate(-14.97 -5.14)"/><path class="a" d="M169.74,338.36c0,1.67-2,3-3.69,3a3,3,0,0,1-3-3c0-1.67,1.33-4.08,3-4.08S169.74,336.69,169.74,338.36Z" transform="translate(-14.97 -5.14)"/><path class="a" d="M183.57,338.36c0,1.67-2,3-3.68,3a3,3,0,0,1-3-3c0-1.67,1.35-4.08,3-4.08S183.57,336.69,183.57,338.36Z" transform="translate(-14.97 -5.14)"/><path class="a" d="M197.4,338.36c0,1.67-2,3-3.68,3a3,3,0,0,1-3-3c0-1.67,1.35-4.08,3-4.08S197.4,336.69,197.4,338.36Z" transform="translate(-14.97 -5.14)"/><path class="a" d="M252.75,338.36c0,1.67-2,3-3.68,3a3,3,0,0,1-3-3c0-1.67,1.34-4.08,3-4.08S252.75,336.69,252.75,338.36Z" transform="translate(-14.97 -5.14)"/><path class="a" d="M280.43,338.36c0,1.67-2,3-3.69,3a3,3,0,0,1-3-3c0-1.67,1.35-4.08,3-4.08S280.43,336.69,280.43,338.36Z" transform="translate(-14.97 -5.14)"/><path class="a" d="M294.26,338.36c0,1.67-2,3-3.68,3a3,3,0,0,1-3-3c0-1.67,1.35-4.08,3-4.08S294.26,336.69,294.26,338.36Z" transform="translate(-14.97 -5.14)"/><path class="a" d="M308.11,338.36c0,1.67-2,3-3.7,3a3,3,0,0,1-3-3c0-1.67,1.34-4.08,3-4.08S308.11,336.69,308.11,338.36Z" transform="translate(-14.97 -5.14)"/><path class="a" d="M321.94,338.36c0,1.67-2,3-3.68,3a3,3,0,0,1-3-3c0-1.67,1.35-4.08,3-4.08S321.94,336.69,321.94,338.36Z" transform="translate(-14.97 -5.14)"/><path class="a" d="M142.06,351.14c0,1.66-2,3-3.69,3a3,3,0,0,1-3-3c0-1.67,1.34-4.08,3-4.08S142.06,349.47,142.06,351.14Z" transform="translate(-14.97 -5.14)"/><path class="a" d="M155.89,351.14c0,1.66-2,3-3.68,3a3,3,0,0,1-3-3c0-1.67,1.34-4.08,3-4.08S155.89,349.47,155.89,351.14Z" transform="translate(-14.97 -5.14)"/><path class="a" d="M169.74,351.14c0,1.66-2,3-3.69,3a3,3,0,0,1-3-3c0-1.67,1.33-4.08,3-4.08S169.74,349.47,169.74,351.14Z" transform="translate(-14.97 -5.14)"/><path class="a" d="M183.57,351.14c0,1.66-2,3-3.68,3a3,3,0,0,1-3-3c0-1.67,1.35-4.08,3-4.08S183.57,349.47,183.57,351.14Z" transform="translate(-14.97 -5.14)"/><path class="a" d="M197.4,351.14c0,1.66-2,3-3.68,3a3,3,0,0,1-3-3c0-1.67,1.35-4.08,3-4.08S197.4,349.47,197.4,351.14Z" transform="translate(-14.97 -5.14)"/><path class="a" d="M211.25,351.14c0,1.66-2,3-3.7,3a3,3,0,0,1-3-3c0-1.67,1.35-4.08,3-4.08S211.25,349.47,211.25,351.14Z" transform="translate(-14.97 -5.14)"/><path class="a" d="M225.08,351.14c0,1.66-2,3-3.68,3a3,3,0,0,1-3-3c0-1.67,1.35-4.08,3-4.08S225.08,349.47,225.08,351.14Z" transform="translate(-14.97 -5.14)"/><path class="a" d="M238.92,351.14c0,1.66-2,3-3.69,3a3,3,0,0,1-3-3c0-1.67,1.35-4.08,3-4.08S238.92,349.47,238.92,351.14Z" transform="translate(-14.97 -5.14)"/><path class="a" d="M266.58,351.14c0,1.66-2,3-3.68,3a3,3,0,0,1-3-3c0-1.67,1.34-4.08,3-4.08S266.58,349.47,266.58,351.14Z" transform="translate(-14.97 -5.14)"/><path class="a" d="M280.43,351.14c0,1.66-2,3-3.69,3a3,3,0,0,1-3-3c0-1.67,1.35-4.08,3-4.08S280.43,349.47,280.43,351.14Z" transform="translate(-14.97 -5.14)"/><path class="a" d="M294.26,351.14c0,1.66-2,3-3.68,3a3,3,0,0,1-3-3c0-1.67,1.35-4.08,3-4.08S294.26,349.47,294.26,351.14Z" transform="translate(-14.97 -5.14)"/><path class="a" d="M308.11,351.14c0,1.66-2,3-3.7,3a3,3,0,0,1-3-3c0-1.67,1.34-4.08,3-4.08S308.11,349.47,308.11,351.14Z" transform="translate(-14.97 -5.14)"/><path class="a" d="M321.94,351.14c0,1.66-2,3-3.68,3a3,3,0,0,1-3-3c0-1.67,1.35-4.08,3-4.08S321.94,349.47,321.94,351.14Z" transform="translate(-14.97 -5.14)"/><path class="a" d="M142.06,363.91c0,1.67-2,3-3.69,3a3,3,0,0,1-3-3c0-1.66,1.34-4.08,3-4.08S142.06,362.25,142.06,363.91Z" transform="translate(-14.97 -5.14)"/><path class="a" d="M155.89,363.91c0,1.67-2,3-3.68,3a3,3,0,0,1-3-3c0-1.66,1.34-4.08,3-4.08S155.89,362.25,155.89,363.91Z" transform="translate(-14.97 -5.14)"/><path class="a" d="M169.74,363.91c0,1.67-2,3-3.69,3a3,3,0,0,1-3-3c0-1.66,1.33-4.08,3-4.08S169.74,362.25,169.74,363.91Z" transform="translate(-14.97 -5.14)"/><path class="a" d="M183.57,363.91c0,1.67-2,3-3.68,3a3,3,0,0,1-3-3c0-1.66,1.35-4.08,3-4.08S183.57,362.25,183.57,363.91Z" transform="translate(-14.97 -5.14)"/><path class="a" d="M197.4,363.91c0,1.67-2,3-3.68,3a3,3,0,0,1-3-3c0-1.66,1.35-4.08,3-4.08S197.4,362.25,197.4,363.91Z" transform="translate(-14.97 -5.14)"/><path class="a" d="M211.25,363.91c0,1.67-2,3-3.7,3a3,3,0,0,1-3-3c0-1.66,1.35-4.08,3-4.08S211.25,362.25,211.25,363.91Z" transform="translate(-14.97 -5.14)"/><path class="a" d="M225.08,363.91c0,1.67-2,3-3.68,3a3,3,0,0,1-3-3c0-1.66,1.35-4.08,3-4.08S225.08,362.25,225.08,363.91Z" transform="translate(-14.97 -5.14)"/><path class="a" d="M252.75,363.91c0,1.67-2,3-3.68,3a3,3,0,0,1-3-3c0-1.66,1.34-4.08,3-4.08S252.75,362.25,252.75,363.91Z" transform="translate(-14.97 -5.14)"/><path class="a" d="M266.58,363.91c0,1.67-2,3-3.68,3a3,3,0,0,1-3-3c0-1.66,1.34-4.08,3-4.08S266.58,362.25,266.58,363.91Z" transform="translate(-14.97 -5.14)"/><path class="a" d="M280.43,363.91c0,1.67-2,3-3.69,3a3,3,0,0,1-3-3c0-1.66,1.35-4.08,3-4.08S280.43,362.25,280.43,363.91Z" transform="translate(-14.97 -5.14)"/><path class="a" d="M294.26,363.91c0,1.67-2,3-3.68,3a3,3,0,0,1-3-3c0-1.66,1.35-4.08,3-4.08S294.26,362.25,294.26,363.91Z" transform="translate(-14.97 -5.14)"/><path class="a" d="M308.11,363.91c0,1.67-2,3-3.7,3a3,3,0,0,1-3-3c0-1.66,1.34-4.08,3-4.08S308.11,362.25,308.11,363.91Z" transform="translate(-14.97 -5.14)"/><path class="a" d="M321.94,363.91c0,1.67-2,3-3.68,3a3,3,0,0,1-3-3c0-1.66,1.35-4.08,3-4.08S321.94,362.25,321.94,363.91Z" transform="translate(-14.97 -5.14)"/><path class="a" d="M294.26,311.88c0,1.67-2,3-3.68,3a3,3,0,0,1-3-3c0-1.67,1.35-4.08,3-4.08S294.26,310.21,294.26,311.88Z" transform="translate(-14.97 -5.14)"/><path class="a" d="M280.43,324.66c0,1.66-2,3-3.69,3a3,3,0,0,1-3-3c0-1.67,1.35-4.08,3-4.08S280.43,323,280.43,324.66Z" transform="translate(-14.97 -5.14)"/><path class="a" d="M266.58,337.43c0,1.67-2,3-3.68,3a3,3,0,0,1-3-3c0-1.66,1.34-4.08,3-4.08S266.58,335.77,266.58,337.43Z" transform="translate(-14.97 -5.14)"/><path class="a" d="M252.75,350.21c0,1.67-2,3-3.68,3a3,3,0,0,1-3-3c0-1.67,1.34-4.08,3-4.08S252.75,348.54,252.75,350.21Z" transform="translate(-14.97 -5.14)"/><path class="a" d="M238.92,363c0,1.66-2,3-3.69,3a3,3,0,0,1-3-3c0-1.67,1.35-4.08,3-4.08S238.92,361.32,238.92,363Z" transform="translate(-14.97 -5.14)"/></g></svg>