<svg xmlns="http://www.w3.org/2000/svg" viewBox="0 0 1654.21 1200">
    <defs>
        <style>
            .a{fill:#fff}.a,.b,.c{fill-rule:evenodd}.b{fill:#72d9e0}.c{fill:#ff0}.i,.o{fill:none;stroke:#464646;stroke-miterlimit:10;stroke-width:7.33px}.o{stroke-linecap:round}
        </style>
    </defs>
    <path fill="#efefef" d="M918.43 977.55L351.25 650.59l254.34-147.71 567.18 326.96-254.34 147.71z"/>
    <path class="i" d="M1171.67 443.89l-1.08 380.89a3.19 3.19 0 01-4.79 2.76L604.24 503.32a3.2 3.2 0 01-1.6-2.78l1.08-380.89a3.2 3.2 0 014.8-2.76l561.55 324.22a3.16 3.16 0 011.6 2.78z"/>
    <path class="i" d="M1173.26 441.11l32.33-18.78a3.2 3.2 0 014.81 2.77l-1.08 380.85a3.22 3.22 0 01-1.59 2.76l-32.33 18.79a3.21 3.21 0 01-4.81-2.78l1.08-380.85a3.22 3.22 0 011.59-2.76zM608.51 111.36l32.36-18.81a3.21 3.21 0 013.2 0l561.56 324.21a3.2 3.2 0 010 5.54l-32.35 18.76a3.2 3.2 0 01-3.21 0L608.52 116.89a3.19 3.19 0 01-.01-5.53z"/>
    <g style="isolation:isolate">
        <path class="i" d="M1166.77 833.84l-329.32 191.38a3.2 3.2 0 01-3.21 0L272.69 701.06a3.19 3.19 0 010-5.53L602 504.06a3.18 3.18 0 013.2 0l561.56 324.22a3.19 3.19 0 01.01 5.56z"/>
        <path class="i" d="M1171.53 836.64l-.11 37.39a3.2 3.2 0 01-1.59 2.76l-329.29 191.36a3.19 3.19 0 01-4.8-2.77l.1-37.39a3.22 3.22 0 011.59-2.76l329.29-191.36a3.2 3.2 0 014.81 2.77z"/>
        <path class="i" d="M835.84 1028.06l-.1 37.42a3.2 3.2 0 01-4.8 2.76L269.38 743.98a3.22 3.22 0 01-1.6-2.78l.11-37.43a3.2 3.2 0 014.8-2.76l561.55 324.22a3.18 3.18 0 011.6 2.83z"/>
    </g>
    <path d="M609.01 890.28l-126.36-73a4.13 4.13 0 01.2-7.26l52.54-26.62a22.74 22.74 0 0122.76 0l97.82 56.47a15.84 15.84 0 010 27.44z" fill="#d3d3d3"/>
    <path class="i" d="M588.99 576.44l-33.25-19.19c-2.41-1.4-2.11-3.83.68-5.44l31.9-18.42c2.78-1.61 7-1.78 9.41-.39l33.25 19.2c2.42 1.39 2.12 3.83-.67 5.44l-31.9 18.42c-2.79 1.6-7 1.78-9.42.38zM648.48 610.79l-33.25-19.2c-2.41-1.39-2.11-3.83.68-5.44l31.9-18.41c2.78-1.61 7-1.79 9.41-.39l33.26 19.2c2.41 1.39 2.11 3.82-.68 5.43l-31.9 18.42c-2.79 1.66-7 1.78-9.42.39zM707.97 645.14l-33.25-19.2c-2.41-1.39-2.11-3.83.68-5.44l31.9-18.41c2.78-1.61 7-1.79 9.41-.39l33.26 19.19c2.41 1.4 2.11 3.83-.68 5.44l-31.9 18.42c-2.79 1.61-7 1.78-9.42.39zM767.46 679.48l-33.29-19.19c-2.41-1.4-2.11-3.83.68-5.44l31.9-18.42c2.78-1.61 7-1.78 9.42-.39l33.25 19.2c2.41 1.39 2.11 3.83-.68 5.44l-31.9 18.41c-2.75 1.61-6.96 1.79-9.38.39zM826.95 713.83l-33.25-19.2c-2.41-1.39-2.11-3.83.68-5.43l31.9-18.42c2.78-1.61 7-1.79 9.42-.39l33.25 19.2c2.41 1.39 2.11 3.82-.68 5.43l-31.9 18.42c-2.79 1.62-7 1.78-9.42.39zM886.44 748.18l-33.25-19.2c-2.41-1.39-2.11-3.83.68-5.44l31.9-18.41c2.78-1.61 7-1.79 9.42-.39l33.25 19.19c2.41 1.4 2.11 3.83-.68 5.44l-31.9 18.42c-2.79 1.61-7 1.78-9.42.39zM945.93 782.52l-33.25-19.19c-2.41-1.4-2.11-3.83.68-5.44l31.9-18.42c2.79-1.61 7-1.78 9.42-.39l33.25 19.2c2.41 1.39 2.11 3.83-.68 5.44l-31.9 18.41c-2.79 1.61-7 1.79-9.42.39zM1005.42 816.87l-33.25-19.2c-2.41-1.39-2.11-3.83.68-5.43l31.9-18.42c2.79-1.61 7-1.79 9.42-.39l33.25 19.2c2.41 1.39 2.11 3.82-.68 5.43l-31.9 18.42c-2.78 1.58-7 1.78-9.42.39zM1064.91 851.22l-33.25-19.2c-2.41-1.39-2.11-3.83.68-5.44l31.9-18.41c2.79-1.61 7-1.79 9.42-.39l33.25 19.19c2.41 1.4 2.11 3.83-.68 5.44l-31.9 18.42c-2.78 1.61-7 1.78-9.42.39zM530.38 610.28l-33.21-19.22c-2.42-1.4-2.12-3.83.67-5.44l31.9-18.42c2.79-1.61 7-1.78 9.42-.39l33.21 19.25c2.41 1.39 2.11 3.83-.68 5.44l-31.89 18.41c-2.79 1.59-7.01 1.77-9.42.37zM589.87 644.63l-33.25-19.2c-2.42-1.39-2.11-3.82.67-5.43l31.9-18.42c2.79-1.61 7-1.78 9.42-.39l33.25 19.2c2.41 1.39 2.11 3.83-.68 5.43l-31.89 18.42c-2.79 1.61-7.01 1.82-9.42.39zM649.36 678.98l-33.25-19.2c-2.42-1.39-2.11-3.83.67-5.44l31.9-18.41c2.79-1.61 7-1.79 9.42-.39l33.25 19.19c2.41 1.4 2.11 3.83-.68 5.44l-31.89 18.42c-2.79 1.61-7.01 1.78-9.42.39zM708.85 713.33l-33.25-19.2c-2.42-1.4-2.11-3.83.67-5.44l31.9-18.42c2.79-1.61 7-1.78 9.42-.39l33.25 19.2c2.42 1.39 2.11 3.83-.68 5.44l-31.89 18.41c-2.79 1.61-7.01 1.79-9.42.4zM768.34 747.67l-33.25-19.2c-2.42-1.39-2.11-3.82.67-5.43l31.9-18.42c2.79-1.61 7-1.78 9.42-.39l33.25 19.2c2.42 1.39 2.11 3.83-.67 5.43l-31.9 18.42c-2.79 1.61-7.01 1.78-9.42.39zM827.83 782.06l-33.25-19.2c-2.42-1.39-2.11-3.83.67-5.44l31.9-18.41c2.79-1.61 7-1.79 9.42-.39l33.25 19.19c2.42 1.4 2.11 3.83-.68 5.44l-31.89 18.42c-2.79 1.57-7.01 1.74-9.42.39zM887.32 816.37l-33.25-19.2c-2.42-1.4-2.11-3.83.67-5.44l31.9-18.42c2.79-1.61 7-1.78 9.42-.39l33.25 19.2c2.42 1.39 2.11 3.83-.67 5.44l-31.9 18.41c-2.79 1.61-7.01 1.79-9.42.4zM946.81 850.71l-33.25-19.2c-2.42-1.39-2.11-3.82.67-5.43l31.9-18.42c2.79-1.61 7-1.78 9.42-.39l33.25 19.2c2.42 1.39 2.11 3.83-.67 5.44l-31.9 18.41c-2.79 1.61-7.01 1.79-9.42.39zM1006.3 885.06l-33.25-19.2c-2.42-1.39-2.11-3.83.67-5.44l31.9-18.41c2.79-1.61 7-1.79 9.42-.39l33.25 19.19c2.42 1.4 2.11 3.83-.67 5.44l-31.9 18.42c-2.79 1.61-7.01 1.78-9.42.39zM471.76 644.13l-33.25-19.2c-2.41-1.4-2.11-3.83.68-5.44l31.9-18.42c2.78-1.6 7-1.78 9.41-.39l33.25 19.2c2.42 1.4 2.12 3.83-.67 5.44l-31.91 18.42c-2.78 1.61-7 1.78-9.41.39zM531.25 678.47L498 659.28c-2.41-1.4-2.11-3.83.68-5.44l31.9-18.42c2.78-1.61 7-1.78 9.41-.39l33.26 19.2c2.41 1.39 2.11 3.83-.68 5.44l-31.9 18.39c-2.79 1.63-7 1.81-9.42.41zM590.74 712.82l-33.25-19.2c-2.41-1.39-2.11-3.83.68-5.44l31.9-18.41c2.78-1.61 7-1.79 9.41-.39l33.26 19.2c2.41 1.39 2.11 3.82-.68 5.43l-31.89 18.42c-2.8 1.63-7 1.78-9.43.39zM650.23 747.17l-33.25-19.2c-2.41-1.39-2.11-3.83.68-5.44l31.9-18.42c2.78-1.6 7-1.78 9.42-.39l33.25 19.2c2.41 1.4 2.11 3.83-.68 5.44l-31.9 18.42c-2.79 1.61-7 1.78-9.42.39zM709.72 781.51l-33.25-19.19c-2.41-1.4-2.11-3.83.68-5.44l31.9-18.42c2.78-1.61 7-1.78 9.42-.39l33.25 19.2c2.41 1.39 2.11 3.83-.68 5.44l-31.87 18.41c-2.82 1.61-7 1.79-9.45.39zM769.17 815.86l-33.25-19.2c-2.41-1.39-2.11-3.83.68-5.44l31.9-18.41c2.78-1.61 7-1.79 9.42-.39l33.25 19.2c2.41 1.39 2.11 3.82-.68 5.43l-31.9 18.42c-2.75 1.59-6.96 1.78-9.42.39zM828.7 850.21l-33.25-19.2c-2.41-1.39-2.11-3.83.68-5.44l31.9-18.41c2.78-1.61 7-1.79 9.42-.4l33.25 19.2c2.41 1.4 2.11 3.83-.68 5.44l-31.9 18.42c-2.79 1.61-6.95 1.78-9.42.39zM888.17 884.55l-33.25-19.19c-2.41-1.4-2.11-3.83.68-5.44l31.9-18.42c2.79-1.61 7-1.78 9.42-.39l33.25 19.2c2.41 1.39 2.11 3.83-.68 5.44l-31.9 18.41c-2.76 1.61-6.98 1.79-9.42.39zM947.68 918.9l-33.25-19.2c-2.41-1.39-2.11-3.83.68-5.44l31.9-18.41c2.79-1.61 7-1.79 9.42-.39l33.25 19.2c2.41 1.39 2.11 3.82-.68 5.43l-31.9 18.42c-2.78 1.61-7 1.78-9.42.39zM413.17 677.97l-33.25-19.2c-2.42-1.39-2.12-3.83.67-5.44l31.9-18.41c2.79-1.61 7-1.79 9.42-.39l33.26 19.19c2.41 1.4 2.11 3.83-.68 5.44l-31.89 18.42c-2.82 1.61-7.04 1.78-9.43.39zM472.64 712.31l-33.25-19.19c-2.42-1.4-2.11-3.83.67-5.44l31.9-18.42c2.79-1.61 7-1.78 9.42-.39l33.25 19.2c2.41 1.39 2.11 3.83-.68 5.44l-31.89 18.41c-2.79 1.61-7.01 1.79-9.42.39zM532.17 746.66l-33.25-19.2c-2.42-1.39-2.11-3.82.67-5.43l31.9-18.42c2.79-1.61 7-1.78 9.42-.39l33.25 19.2c2.41 1.39 2.11 3.82-.68 5.43l-31.89 18.42c-2.83 1.61-7.05 1.79-9.42.39zM707.39 847.85l-144.81-83.61c-4.74-2.73-4.15-7.52 1.33-10.68l22.17-12.79c5.47-3.17 13.75-3.51 18.49-.77l144.81 83.6c4.74 2.74 4.15 7.52-1.33 10.68l-22.17 12.8c-5.47 3.16-13.71 3.5-18.49.77zM770.09 884.06l-33.25-19.2c-2.42-1.39-2.11-3.83.67-5.44l31.9-18.41c2.79-1.61 7-1.79 9.42-.39l33.25 19.19c2.42 1.4 2.11 3.83-.67 5.44l-31.9 18.42c-2.79 1.6-7.01 1.77-9.42.39zM829.58 918.39l-33.25-19.19c-2.42-1.4-2.11-3.83.67-5.44l31.9-18.42c2.79-1.61 7-1.78 9.42-.39l33.25 19.2c2.42 1.39 2.11 3.83-.67 5.44L839 918c-2.83 1.61-7.01 1.79-9.42.39zM889.07 952.74l-33.25-19.2c-2.42-1.39-2.11-3.82.67-5.43l31.9-18.42c2.79-1.61 7-1.78 9.42-.39l33.25 19.2c2.42 1.39 2.11 3.83-.67 5.43l-31.9 18.42c-2.79 1.61-7.01 1.79-9.42.39zM599.42 884.75l-116-67a4.6 4.6 0 01.22-8.09l51.77-26.22a22.74 22.74 0 0122.76 0l97.82 56.47a15.84 15.84 0 010 27.44l-37 18.07a20.82 20.82 0 01-19.57-.67z"/>
    <path d="M1131.17 466.26l-.93 306.12a7.09 7.09 0 01-10.63 6.12L632.22 497.06a7.08 7.08 0 01-3.54-6.16l.93-306.12a7.08 7.08 0 0110.62-6.12l487.4 281.4a7.11 7.11 0 013.54 6.2z" stroke-width="7.23" stroke="#464646" stroke-miterlimit="10" fill="none"/>
    <path d="M872.87 298.06l32.48 18.75c2.76 1.59 5-.11 5-3.8h0c0-3.68-2.26-8-5-9.59l-32.48-18.76c-2.76-1.59-5 .12-5 3.8h0c-.03 3.66 2.24 7.98 5 9.6z" fill="#dfffff" stroke-width="6.73" stroke="#464646" stroke-miterlimit="10"/>
    <path d="M978.9 419.46h0c0 5.34-3.74 7.5-8.36 4.83L657.91 240.06c-4.62-2.67-8.36-.51-8.36 4.82v216c0 5.33 3.74 11.81 8.36 14.48l427.61 250.7c4.61 2.67 8.36.51 8.36-4.82V485.85c0-5.34-3.75-11.82-8.36-14.49l-98.26-56.72c-4.61-2.67-8.36-.51-8.36 4.82z" stroke-width="7.23" stroke="#464646" stroke-miterlimit="10" fill="#fff"/>
    <path class="o" d="M1000.85 446.62c0 6 4.21 13.29 9.41 16.29s9.41.57 9.41-5.43-4.21-13.29-9.41-16.29-9.41-.57-9.41 5.43z"/>
    <path d="M1031.17 464.12c0 6 4.22 13.29 9.41 16.29s9.41.57 9.41-5.43-4.21-13.29-9.41-16.29-9.41-.57-9.41 5.43z" fill="none"/>
    <path class="i" d="M1031.17 464.12c0 6 4.22 13.29 9.41 16.29s9.41.57 9.41-5.43-4.21-13.29-9.41-16.29-9.41-.57-9.41 5.43z"/>
    <path class="o" d="M1061.48 481.62c0 6 4.21 13.29 9.4 16.29s9.41.57 9.41-5.43-4.21-13.29-9.41-16.29-9.4-.57-9.4 5.43z"/>
</svg>
