<?xml version="1.0" standalone="no"?>
<!DOCTYPE svg PUBLIC "-//W3C//DTD SVG 1.1//EN" "http://www.w3.org/Graphics/SVG/1.1/DTD/svg11.dtd" >
<svg xmlns="http://www.w3.org/2000/svg" xmlns:xlink="http://www.w3.org/1999/xlink" version="1.1">
<metadata></metadata>
<defs>
<font id="permanent_markerregular" horiz-adv-x="1524" >
<font-face units-per-em="2048" ascent="1638" descent="-410" />
<missing-glyph horiz-adv-x="758" />
<glyph horiz-adv-x="0" />
<glyph horiz-adv-x="682" />
<glyph unicode=" "  horiz-adv-x="758" />
<glyph unicode="&#x09;" horiz-adv-x="758" />
<glyph unicode="&#xa0;" horiz-adv-x="758" />
<glyph unicode="!" horiz-adv-x="534" d="M0 130l24 18l-24 38q24 18 36 26t21 17t19 23t32 46l18 26l24 -14q10 -6 37 -11t47 -9q32 -10 63 -15t49 -21l8 -16q4 -16 6 -30t4 -30q-12 -42 -26 -76q-6 -14 -8 -18t-2 -6t2 -5t2 -17l-10 -24q-10 -14 -23 -22t-27 -14q-6 -4 -13 -7t-11 -7l-6 -24l-28 -4 q-32 -8 -58 -8h-22q-24 22 -38 34t-32 22q-22 38 -26 66q-4 26 -10 34zM143 621q5 55 13 115t16 115t12 93q20 22 28 36t11 30t5 40t10 68q4 22 -3 39t-3 33q4 8 13 12t11 14q8 26 4 41t6 37q10 16 25 51t11 73q18 14 34 32t33 33t38 25t51 10q16 -22 24 -42t15 -38t19 -34 t36 -28q0 -18 -5 -44t-9 -52t-2 -47t18 -27q-36 -106 -49 -178t-22 -137t-23 -137t-50 -176q-22 -64 -54 -89t-68 -25t-74 20t-70 44q-6 38 -1 93z" />
<glyph unicode="&#x22;" horiz-adv-x="1008" d="M164 773q2 41 9 82t1 75q20 82 43 177t41 183q18 18 29 45t19 59t17 63t25 59q10 -10 34 -9t30 13q12 -20 44 -33t52 -9q24 -20 46 -36t40 -34t27 -41t5 -57q-16 -18 -38 -67t-54 -141q-16 -46 -31 -125t-36 -164t-51 -160t-76 -109q-18 6 -38 10t-36 12t-25 23t-7 43 q-46 26 -59 63t-11 78zM594 710q28 162 50 257t38 145q18 58 30 80q10 42 21 76t22 69t22 72t23 85q16 10 31 20t43 4q30 -12 62 -26t62 -30t54 -38t38 -52q-16 -70 -44 -136t-54 -130t-42 -126t-6 -126q-4 -6 -12 -3t-12 -7q-12 -46 -28 -101t-18 -113q-18 -10 -34 -23 t-14 -33q-22 -10 -48 -21t-49 -12t-41 12t-20 53q-20 4 -26 18t-10 30t-11 32t-27 24z" />
<glyph unicode="#" horiz-adv-x="1440" d="M61 490q1 28 1 56q8 22 27 34t41 22q60 2 108 5t94 7q2 4 3 10t3 10q-2 28 13 73t35 97q-34 -6 -58 -10t-40 -8q-48 2 -71 14t-35 29t-16 38t-12 45q16 16 21 44t-13 42q20 4 36 23t12 29q62 10 128 11t126 7q22 40 39 105t38 130t52 115t79 60q60 -56 91 -119t51 -149 q-6 -20 -18 -50l-28 -70q48 2 96 2t94 2q18 44 34 106t37 121t51 103t76 54q58 -54 90 -118t50 -150q-6 -20 -19 -53t-29 -75q32 -2 62 -7t54 -14t38 -24t16 -39q36 -4 49 -14t14 -24t-7 -31t-14 -33q-56 -24 -135 -37t-169 -19q-22 -64 -38 -115t-18 -77h88q-2 -18 14 -26 t34 -13t32 -12t8 -25q46 -10 54 -26t-6 -35t-40 -39t-50 -34q-22 4 -47 -7t-47 -25q-26 4 -53 4h-55q-14 -40 -31 -77t-45 -63q-2 -10 5 -18t11 -18q-22 -18 -31 -38t-12 -42t-4 -42t-9 -38q-18 -8 -32 -20t-27 -24t-29 -21t-40 -13q-42 14 -68 27t-60 29q-28 36 -31 76 t9 80t32 76t38 64q14 28 24 50q-46 2 -93 -1t-97 -9q-12 -34 -29 -65t-41 -55q-2 -10 6 -18t12 -18q-22 -18 -31 -38t-12 -41t-5 -42t-10 -37q-18 -8 -31 -20t-27 -24t-30 -21t-40 -13q-42 14 -67 27t-61 29q-28 34 -30 75t10 81t32 76t38 64q-24 0 -49 -1t-49 -3 q-30 16 -44 40t-19 51t-4 55zM614 636q40 4 94 6t112 4q4 32 21 82t39 104h-113t-97 -2q-22 -62 -37 -111t-17 -73z" />
<glyph unicode="$" horiz-adv-x="1010" d="M62 870q6 22 10 36t0 36q14 36 42 62t63 44t72 29t69 21q52 24 113 42t125 36q14 48 29 101t35 100t46 81t64 44q52 -58 78 -122t42 -152q42 0 86 -5t90 -19q6 -16 17 -31t23 -30t21 -30t11 -31q18 -16 29 -33t5 -47l-36 -24t-38 -22q-70 16 -139 12t-127 -8 q-18 16 -41 15t-48 -7t-50 -13t-47 -3q-18 -14 -45 -19t-57 -7q-2 -10 3 -12t1 -12q10 -12 29 -17t38 -9t34 -12t21 -26q26 0 47 -12t34 -29t20 -37t5 -34q6 -14 13 -11t17 -7q6 -22 28 -45t34 -51q4 -42 7 -76t-13 -68q-30 -72 -90 -126t-136 -94l-8 -28t-2 -20 q-22 -18 -32 -40t-14 -44t-6 -44t-10 -40q-16 -8 -30 -20t-27 -24t-29 -22t-38 -14q-40 14 -63 29t-55 31q-22 30 -25 66t5 70q-18 2 -36 3t-34 -1q-12 10 -23 22t-15 28q-8 0 -8 8t-8 10q12 16 11 18t-5 4t-8 5t-2 9q8 12 6 30t-4 37t2 36t26 27q64 -6 120 5t107 31t97 44 t90 42q10 30 35 45t35 45q2 12 -7 14t-9 12q-54 24 -100 37t-76 29q-20 -10 -37 -5t-45 9q-64 4 -122 12t-114 30q-4 10 -8 16t-20 4q-10 14 -22 26t-22 28q4 20 6 34t-10 28z" />
<glyph unicode="%" horiz-adv-x="1318" d="M83 92q-3 40 6 82t26 83t33 71q20 46 42 64t26 34q18 20 65 64t103 94t109 97t81 75q18 32 70 82t109 102t103 99t54 75q26 16 59 49t69 70t74 77t76 71t74 49t68 16q16 -70 5 -139t-45 -155q-22 -22 -63 -59t-90 -82t-101 -94t-99 -94t-82 -82t-49 -57q-34 -30 -89 -82 t-116 -110t-118 -114t-93 -92q-4 -10 2 -17t6 -17q-24 -20 -31 -37t-8 -33t0 -33t-5 -37q-16 -12 -29 -27t-25 -30t-27 -28t-37 -23q-40 2 -64 9t-58 13q-28 26 -31 66zM100 942q-8 58 4 105t35 87t52 74t55 66q12 -4 17 6t15 14q8 16 21 23t21 21q18 4 27 16t25 16 q20 20 28 30t20 26h15t17 2q8 14 14 21t20 15q12 -6 27 -8t25 -12q0 -10 6 -16t12 -11t11 -10t7 -13q16 -12 19 -17t7 -17q-4 -10 -7 -21t-13 -17q10 -22 8 -26q24 -40 43 -82t43 -82q-4 -24 8 -46t16 -44q4 -28 -7 -62t-33 -48q-14 -16 -34 -26t-36 -26q-12 -8 -25 -10 t-27 -6q-22 -14 -58 -26t-60 -8q-30 -10 -59 -14t-67 4q-74 -10 -122 29t-70 93zM334 1054q14 -10 34 -6t36 4q16 4 28 10l24 12q6 20 6 21t-2 5q-8 12 -14 26t-14 26q-12 -12 -24 -4q-10 -10 -21 -18t-21 -20q-12 -16 -21 -26t-11 -30zM610 164q-8 56 4 103t34 87t51 74 t57 66q10 -4 16 7t16 13q6 16 20 23t22 23q16 4 26 15t26 15l27 30t21 26q10 2 15 1t15 1q10 16 16 22t18 16q12 -8 27 -9t25 -13q2 -22 18 -27t20 -23q14 -12 18 -16t8 -18q-4 -10 -8 -21t-14 -15q12 -22 8 -26q24 -40 43 -83t45 -83q-4 -24 7 -45t15 -43q4 -28 -6 -63 t-32 -47q-14 -18 -35 -28t-37 -26q-12 -6 -24 -9l-28 -7q-22 -12 -57 -24t-61 -10q-30 -10 -58 -14t-68 4q-74 -10 -121 29t-69 95zM844 276q14 -12 34 -8t36 4q16 4 27 10t25 14q4 18 4 26q-10 12 -15 26t-13 26q-10 -10 -15 -10t-9 4q-12 -10 -23 -18t-21 -18 q-10 -18 -20 -28t-10 -28z" />
<glyph unicode="&#x26;" horiz-adv-x="1228" d="M0 648q16 4 23 24t1 30q32 8 51 39t45 67t72 69t136 45q58 -34 93 -54t57 -30q24 -12 36 -16q2 8 13 12t13 14q8 26 4 41t8 37q10 16 27 41t13 63q20 14 37 31t36 32t42 26t57 11q18 -22 26 -42t16 -38t21 -34t39 -30q2 -18 -4 -44t-10 -51t-2 -46t20 -27 q-20 -52 -30 -86q34 -6 78 -7t84 -7t73 -24t47 -58q30 -2 43 -13t18 -26t3 -32t-2 -35q-30 -20 -75 -33t-99 -21t-113 -11t-117 -3q-10 -56 -24 -120t-46 -152q-28 -62 -64 -87t-75 -25t-79 19t-76 43q-8 52 -2 105t18 131q-12 24 -32 33t-43 10t-43 -3t-28 -8q-38 2 -79 18 t-79 37t-67 46t-43 49q10 16 5 46t-23 44zM278 646q0 -18 30 -18q8 0 17 1t19 3l20 4q-10 12 -20 20t-19 15t-17 7t-19 -14t-11 -18z" />
<glyph unicode="'" horiz-adv-x="544" d="M164 773q2 41 9 82t1 75q20 82 43 177t41 183q18 18 29 45t19 59t17 63t25 59q10 -10 34 -9t30 13q12 -20 44 -33t52 -9q24 -20 46 -36t40 -34t27 -41t5 -57q-16 -18 -38 -67t-54 -141q-16 -46 -31 -125t-36 -164t-51 -160t-76 -109q-18 6 -38 10t-36 12t-25 23t-7 43 q-46 26 -59 63t-11 78z" />
<glyph unicode="(" horiz-adv-x="740" d="M62 184q4 74 8 151t0 133q4 16 5 35t3 39v24t2 24l44 4l-14 64l22 24l8 36q6 114 32 199t74 167l16 30q34 46 68 98t78 112q70 76 123 130t107 88l18 22q38 36 65 59t49 45q22 20 40 36t36 26q28 -20 54 -16t42 10q24 -26 24 -44t-8 -50q-6 -26 -11 -60t11 -74 q-10 -22 -17 -45t-15 -47t-14 -35t-13 -18t-16 -14t-21 -23q-46 -18 -93 -57t-88 -86t-72 -97t-45 -92l-12 -34l-72 -90l-2 -56q-24 -50 -43 -106t-35 -126q-18 -76 -20 -159t7 -165t27 -160t42 -142q-6 -8 -11 -31t-8 -49t-4 -49t3 -33l14 -22q8 -4 10 -14t4 -18 q4 -50 -26 -96q-40 6 -75 19t-65 27q-22 48 -47 78t-49 58q-22 24 -43 50t-43 66q-8 66 -20 120t-28 112z" />
<glyph unicode=")" horiz-adv-x="740" d="M-246 -319q0 19 8 49q6 28 11 62t-11 74q10 22 17 44t15 48q8 24 14 35t13 18t16 14t21 23q44 18 92 57t89 86t72 96t45 91l12 36l70 90l4 56q46 94 78 232q18 74 19 157t-8 166t-27 161t-40 142q6 8 11 31t8 49t4 49t-3 33l-14 20q-8 6 -10 15t-4 19q-4 50 26 96 q38 -6 73 -19t67 -27q22 -48 47 -78t49 -58q22 -26 43 -51t43 -65q8 -66 20 -120t28 -112l6 -22l-8 -152t0 -132q-4 -18 -5 -37t-3 -37v-24t-2 -24l-44 -6l14 -62l-22 -24l-8 -36q-6 -114 -32 -199t-74 -169l-16 -28q-34 -46 -68 -99t-78 -113q-70 -76 -123 -129t-107 -87 l-18 -22q-38 -36 -65 -59t-49 -45q-22 -20 -40 -36t-36 -26q-28 20 -54 15t-42 -9q-24 24 -24 43z" />
<glyph unicode="*" horiz-adv-x="1380" d="M144 1024q18 4 29 22t5 28q40 8 85 11t89 6t84 9t70 18h40q-40 52 -66 80t-42 40q-18 36 -18 62t10 47t26 41t32 44q20 2 47 20t31 42q10 -12 34 -9t32 13q24 -26 46 -58t43 -63t42 -58t47 -43q30 20 58 54t58 62t64 44t72 12q24 26 42 34t35 5t32 -12t31 -17 q-4 -60 -52 -146t-112 -176q42 -4 94 -4t100 -6t86 -22t50 -52q36 -2 52 -11t20 -23t1 -31t-5 -33q-64 -32 -169 -46t-223 -20q12 -34 34 -74t36 -79t14 -77t-32 -68q12 -28 9 -46t-15 -29t-30 -19l-36 -16q-62 32 -125 112t-121 172q-46 -80 -70 -127t-30 -69 q-30 -34 -56 -50t-52 -21t-53 -5t-57 -2q-8 16 -38 25t-56 -1q10 16 -3 32t-27 14q16 34 39 69t46 69t42 67t25 61q4 8 10 15t12 15q-74 -10 -119 -18t-65 -16q-48 2 -74 12t-42 27t-27 37t-25 42q12 16 10 43t-24 41z" />
<glyph unicode="+" horiz-adv-x="1186" d="M20 588q16 2 24 23t0 31q32 8 69 11t73 5t68 7t56 17q28 0 53 1t53 1q6 26 -2 44t-4 32q4 10 15 13t13 13q8 26 4 41t8 39q10 16 27 50t13 72q20 14 37 32t36 33t42 26t57 11q18 -22 26 -42t16 -38t21 -34t39 -30q0 -18 -6 -44t-10 -52t-2 -46t20 -28q-8 -22 -15 -43 t-13 -41q34 -6 78 -7t84 -8t73 -24t47 -57q30 -4 43 -14t17 -25t3 -33t-1 -36q-30 -20 -75 -33t-99 -20t-113 -10t-117 -5q-10 -56 -24 -119t-46 -153q-28 -62 -64 -87t-75 -25t-79 19t-76 43q-4 26 -2 62t6 77t11 82t13 81q-64 -10 -103 -18t-55 -14q-38 2 -60 14t-36 29 t-24 39t-24 46q8 16 3 46t-23 46z" />
<glyph unicode="," horiz-adv-x="418" d="M-218 -244q-18 26 4 48q36 38 63 91t47 114t35 126t29 125q8 -8 16 -5t16 10t14 17t12 16q12 -10 41 -23t61 -26t60 -23t40 -12q22 -40 25 -71t9 -65q-10 -10 -13 -33t-3 -33q-2 -16 -8 -19t-10 -17q-2 -4 2 -12t2 -12q-2 -10 -9 -11t-11 -11q-8 -22 -11 -27t-4 -6l-4 -4 t-13 -23q-14 -30 -34 -59t-26 -57q-28 -24 -69 -61t-77 -51q-18 8 -57 26t-74 40t-53 48z" />
<glyph unicode="-" horiz-adv-x="1248" d="M40 588q16 2 24 23t0 31q32 8 69 11t73 5t69 7t57 17q100 2 207 6t201 8q34 -10 80 -11t90 -6t80 -23t50 -60q30 -4 43 -14t18 -25t3 -33t-2 -36q-50 -34 -138 -47t-184 -18t-186 -5t-142 -6q-108 -12 -167 -23t-81 -21q-38 2 -60 14t-36 29t-24 39t-24 46q8 16 4 46 t-24 46z" />
<glyph unicode="." horiz-adv-x="468" d="M-62 130l24 18l-22 38q24 18 36 26t20 17t18 23t32 46l18 26l26 -14q8 -6 35 -11t47 -9q34 -10 64 -15t48 -21l8 -16q4 -16 6 -30t6 -30q-8 -20 -14 -39t-12 -37q-6 -14 -8 -18t-2 -6t1 -5t1 -17l-8 -24q-10 -14 -24 -22t-28 -14q-4 -4 -12 -7t-12 -7l-6 -24l-26 -4 q-34 -8 -58 -8h-24q-24 22 -38 34t-30 22q-20 28 -22 41t-6 25q-4 26 -10 34z" />
<glyph unicode="/" horiz-adv-x="822" d="M-71 151q1 43 10 86t19 75q22 14 2 20q8 28 28 47t20 33q14 22 54 67t87 97t91 101t68 77q12 32 55 83t90 105t86 102t41 78q36 26 78 85t89 117t96 101t99 37q32 -72 34 -143t-14 -161q-18 -22 -52 -60t-75 -85t-85 -97t-83 -96t-68 -84t-39 -60q-28 -30 -75 -84 t-97 -114t-97 -117t-77 -95q-2 -10 6 -18t12 -18q-22 -20 -26 -37t-2 -35t6 -35t2 -37q-14 -12 -23 -28t-18 -31t-22 -29t-33 -24q-42 4 -68 11t-62 13q-34 28 -46 69t-11 84z" />
<glyph unicode="0" horiz-adv-x="1406" d="M36 270q-16 142 10 258t75 214t111 183t120 163q12 -6 20 1t15 17l14 20t19 14q8 18 20 31t25 25t25 24t20 30q18 4 32 15t26 23t25 23t31 17v26q40 22 58 47t44 63q20 4 32 3t34 3q18 34 32 52t42 40q26 -16 58 -21t54 -31q2 -26 13 -40t25 -25t26 -24t16 -35q8 0 11 4 t11 2q4 -18 8 -28t8 -19t9 -18t9 -25q-10 -24 -17 -52t-29 -38q0 -16 11 -18t13 -16q0 -20 -6 -32q52 -98 93 -205t93 -203q-4 -30 3 -58t16 -55t18 -53t13 -54q4 -36 1 -77t-14 -79t-29 -70t-42 -48q-4 2 -22 -11t-41 -33t-47 -44l-42 -42q-24 -16 -53 -23t-59 -15 q-24 -16 -57 -33t-68 -29t-69 -19t-60 -3q-66 -28 -127 -37t-145 11q-78 -12 -144 8t-117 64t-89 104t-62 128zM358 368q32 -34 77 -42t92 -2t93 16t84 12q0 18 14 16q66 8 125 49t123 83q8 26 21 44t13 52q-8 22 -10 33t-2 37q-42 76 -73 165t-71 165q-4 -10 -14 -20t-22 4 q-10 -40 -35 -36t-47 24q-56 -58 -112 -113t-100 -127q-8 -6 -10 -3t-12 -3q-16 -48 -38 -86t-43 -78t-36 -85t-17 -105z" />
<glyph unicode="1" horiz-adv-x="660" d="M40 162q6 92 30 181t54 174t59 169t44 166t8 164t-47 166q0 28 -1 47t-2 34t-3 29t-8 30q10 28 15 52t-1 44q2 14 8 23t14 18t15 18t9 23h44q22 -18 38 -33t42 -19q22 -44 57 -71t69 -55q42 -78 52 -174t22 -210q0 -92 -12 -173t-31 -158t-43 -153t-46 -160 q-28 -30 -43 -85t-3 -107q-26 -32 -52 -62t-58 -56q-12 12 -31 13t-39 0t-37 -4t-25 -1q-10 16 -27 34t-30 38t-20 39t3 37q0 22 -24 22z" />
<glyph unicode="2" horiz-adv-x="1332" d="M124 246q-4 60 4 117t24 99q104 132 217 253t257 215q42 52 98 89t102 83q-60 22 -126 22t-130 -11t-120 -27t-98 -24q-32 16 -75 18t-85 16q-24 20 -33 52t-11 66t-2 65t-8 51q16 26 29 52t31 48q94 26 208 43t230 15t224 -29t192 -89q10 -56 42 -89t78 -51 q22 -40 38 -81t22 -87q-40 -106 -113 -179t-147 -133q-40 -34 -86 -58t-80 -56q-8 -8 -10 -21t-10 -19q-36 -32 -80 -57t-80 -57q-26 -22 -43 -48t-45 -46q36 -12 71 -10t72 8t76 12t81 4q58 20 128 35t140 11q60 24 115 35t105 5q26 -10 39 -36t41 -36q-6 -22 -3 -32t3 -36 q48 -24 49 -60t-22 -67t-60 -47t-67 2q-4 -16 -17 -21t-17 -19q-194 -30 -396 -74t-404 -66q-156 6 -260 46q-42 36 -63 90t-25 114z" />
<glyph unicode="3" horiz-adv-x="1150" d="M-20 1124q-2 28 4 56t28 52q-4 14 -6 28t-8 24q22 18 47 36t27 40q110 22 218 45t217 39t223 22t240 -6q50 -52 88 -113t72 -127q-4 -14 -5 -28t-5 -30q-10 -26 -27 -47t-27 -49q-50 -28 -95 -60t-89 -66q-36 -16 -75 -29t-59 -49q66 -28 116 -68t88 -90t66 -108t50 -120 q-4 -30 -10 -62t0 -54q-14 -42 -37 -67t-45 -67q-70 -30 -114 -84q-20 0 -20 8q-62 -42 -144 -71t-176 -45t-198 -18t-208 8q-8 6 -14 14t-24 6q-8 20 -21 35t-21 35q20 32 27 74t16 81t25 70t54 45q16 2 18 -10t12 -16q78 0 156 3t148 14t131 33t105 62q-60 48 -140 73 t-155 49t-133 61t-76 109q10 46 14 82t10 66t19 57t43 53q-10 6 -29 3t-41 -10t-43 -16l-35 -15q-42 10 -85 13t-79 25q-4 22 -10 49t-8 55z" />
<glyph unicode="4" horiz-adv-x="1192" d="M104 1132q-6 60 6 108q20 30 40 58t48 48q22 -6 35 -21t24 -32t24 -32t35 -21q8 -38 25 -71t32 -67t26 -71t11 -83q20 -30 43 -37t49 -5t53 4t55 -6q6 10 20 11t24 7q12 4 13 20t17 18q-4 34 1 67t10 63t6 58t-9 56q20 38 25 91t12 103t26 91t67 57q120 -102 168 -274 q-20 -84 -23 -156t-1 -144q34 10 71 16t65 10q12 -34 24 -60t46 -46q-8 -46 -4 -76t-10 -74q-28 -30 -67 -48t-80 -31t-82 -27t-75 -38q-26 -80 -55 -158t-51 -172q4 -10 14 -14t16 -12q-10 -28 -2 -45t22 -31t29 -28t21 -32q-8 -18 -10 -36t-3 -36t-6 -36t-19 -36 q-40 -16 -81 -16t-75 -10q-42 10 -71 41t-47 71t-28 82t-16 74q12 22 -6 20q-8 28 2 54t4 40q4 50 16 105t28 125q-26 6 -57 11t-60 8t-53 5t-36 2q-30 8 -52 25t-40 38t-35 43t-35 42q-6 70 -20 142t-26 140t-18 128z" />
<glyph unicode="5" horiz-adv-x="1188" d="M102 894q2 32 4 61l4 58t6 60t12 67q86 118 215 199t265 133q22 -22 44 -47t46 -47t51 -38t61 -18q22 6 34 8t22 2h26t46 4t58 4t52 2q50 4 73 8t31 6t8 3t7 0t27 -5t68 -10q12 -16 24 -40t2 -44q36 -36 57 -88t-5 -114q-46 -16 -81 -25t-75 -21q-76 -4 -95 -6t-29 -4 t-31 -7t-91 -15q0 8 -1 10t-4 0l-6 -4t-9 0q-40 -14 -80 -21t-80 -13t-80 -15t-82 -29q4 -10 12 -15t17 -10t17 -11t12 -16q56 -14 93 -45t67 -70t58 -79t66 -72q0 -12 6 -18t2 -22q36 -46 56 -110t8 -148q-26 -64 -62 -109t-94 -93q-46 -20 -90 -31t-78 -33q-16 10 -29 9 t-23 3q-46 -20 -98 -27t-110 21q-42 -2 -85 3t-79 19t-61 39t-33 63q-46 38 -60 95t14 111q12 4 19 7t19 13q106 -10 217 -17t237 17q4 16 15 23t25 13t26 12t18 18q0 12 -6 17l-12 10t-11 11t-3 20q-26 0 -61 18t-55 40q-88 16 -175 60t-169 82q-14 24 -31 45t-33 44 t-27 47t-13 52z" />
<glyph unicode="6" horiz-adv-x="1026" d="M-20 223q-6 65 12 135q-4 6 -5 16t-1 20v20t-6 14q12 20 21 41t-1 49q10 2 14 11t7 21t6 22t11 16q4 54 20 102t37 93t45 89t46 90q-8 16 -5 21t5 23q30 50 60 107t64 114t72 110t86 93q32 6 62 20t60 24t61 13t67 -13q4 -18 3 -26t3 -18q32 -16 37 -52t9 -70 q24 -12 34 -36t16 -54q-24 -24 -45 -46t-43 -38q-8 -4 -22 -3t-18 3q-60 -26 -105 -69t-78 -97t-56 -114t-37 -118q-58 -86 -94 -178t-60 -206q2 -16 17 -14t29 0q24 42 31 80t7 88q22 38 48 72t48 74q32 24 60 42t56 31t61 24t79 19q48 -4 83 -20t59 -39t38 -50t20 -51 q20 -12 32 -30t26 -34q0 -38 7 -88t-1 -98q-40 -64 -88 -120t-118 -92q-10 -2 -6 -15t-6 -17q-16 0 -24 -9t-22 3q-22 -14 -46 -25t-42 -27q-18 2 -32 -2t-28 -9t-28 -9t-28 0q-64 -32 -142 -52t-166 -6q-60 10 -104 44t-70 85t-32 116z" />
<glyph unicode="7" horiz-adv-x="1180" d="M20 1182q6 30 15 84t3 100q14 2 18 6t5 10t2 13t9 15q20 0 35 18t37 28q42 2 59 4t28 5t24 7t47 10q8 2 11 -1t5 -6t5 -6t11 -1q38 4 64 5t49 0t44 -6t51 -13q12 0 25 1t24 1t18 -4t11 -18q38 4 67 0t56 -13t56 -22t69 -25q28 -52 57 -100t81 -76q2 -10 -2 -13t-4 -13 q-16 -10 -12 -12t10 -2t12 -1t8 -5q0 -8 -5 -11t-7 -9q12 -20 13 -54t-4 -75t-10 -85t-1 -82q52 -10 71 -13t32 -3t36 1t83 -1q2 -30 21 -43t35 -29q2 -10 -8 -17t-19 -13t-14 -13t7 -15q14 4 18 -3t14 -3q-2 -4 -7 -15t7 -11q-6 -20 -20 -33t-29 -24t-31 -22t-26 -27 q-70 -10 -101 -15t-56 -10t-57 -10t-100 -17q-10 -12 -21 -20t-22 -19t-18 -25t-7 -34q-24 -16 -41 -40t-32 -50t-31 -52t-36 -48q2 -10 8 -15t4 -17q-24 -12 -35 -41t-21 -59t-28 -55t-58 -27q-26 8 -44 11t-35 3t-35 -1t-42 -1q0 16 -5 34t13 26q-10 26 -38 32 q2 86 31 172t65 152q-40 -6 -62 -9t-41 -5t-40 -1t-57 1q0 24 -20 28t-32 18q-4 22 -21 36t-33 24q0 22 20 20q-4 20 -11 40t19 34q-2 8 -11 9t-1 17q26 64 74 87t106 30t120 10t118 31q36 -8 64 -2t60 14q4 38 22 74t28 74q2 20 -8 30t-4 36q-38 36 -80 50t-88 20t-96 8 t-100 14q-52 2 -91 -3t-73 -11t-67 -8t-75 6q6 12 5 21t-6 17t-14 19t-17 27z" />
<glyph unicode="8" horiz-adv-x="1100" d="M122 1018q-4 54 18 116q0 30 13 68t35 74t50 65t62 43q0 14 7 17t7 17q26 8 48 20t45 23t50 20t63 11q64 4 131 -8t113 -40q20 -52 49 -92t43 -74q4 -30 8 -53t4 -45t-6 -45t-22 -53q40 10 67 32t41 64q0 34 -18 58t-28 54q12 6 16 15t2 19t-5 20t-3 20q12 4 16 0t10 2 q-4 16 -5 17t-3 13q8 10 20 20t22 -2q-12 20 -1 38t29 28q10 -4 21 -8t27 -6q44 -32 71 -77t43 -96t25 -106t15 -105q-20 -70 -68 -134t-114 -102q-60 -46 -107 -83t-111 -49q-16 -16 -31 -29t-27 -33q34 -92 70 -182t48 -198q-24 -14 -26 -42t-2 -60q-24 -28 -36 -59 t-38 -53q-6 -4 -13 -1t-13 -1q-26 -14 -53 -36t-55 -30q-52 -14 -105 -12t-102 16t-91 39t-74 59q-22 40 -36 83t-46 75q-10 64 -11 152t27 174q10 28 26 50t14 50q10 2 15 8t15 10q6 16 -1 22t-3 20q-30 42 -59 87t-49 93t-24 102zM410 419q-2 -27 9 -53t33 -46q20 6 56 -1 t66 7q0 14 6 21t10 17q-24 50 -47 85t-75 67q-28 -18 -42 -44t-16 -53zM410 1028q30 -28 53 -62t61 -60q30 16 62 28l64 24t62 27t52 39q-76 0 -125 26t-47 92q-28 14 -60 13t-58 -14t-38 -36t-2 -51q-4 -10 -14 -11t-10 -15z" />
<glyph unicode="9" horiz-adv-x="1084" d="M83 940q5 52 20 96t38 85t47 85q52 52 115 106t137 96t158 66t180 16q80 -58 134 -138t106 -164q-4 -18 0 -35t8 -32t8 -32t2 -35q8 -20 21 -36t24 -31t18 -33t5 -44q-18 -22 -28 -41t-24 -34t-32 -27t-32 -26q-16 -46 -31 -75t-31 -75q-4 -52 -12 -95t-18 -84t-20 -83 t-18 -90q-2 -84 -27 -159t-71 -143q-36 4 -65 -1t-65 -11q-16 16 -28 31t-28 27q2 100 11 181t24 159t35 161t42 187q-28 2 -65 -3t-78 -12t-82 -16t-77 -15q-22 2 -45 2t-43 2t-37 9t-29 23q-32 -8 -54 3t-38 30t-27 43t-23 44q-10 66 -5 118zM458 1020q84 -4 154 18 t142 46q2 38 -20 53t-54 21q-50 -20 -97 -39t-81 -53q-6 -6 -15 -8t-17 -5t-12 -11t0 -22z" />
<glyph unicode=":" horiz-adv-x="494" d="M-62 130l24 18l-22 38q24 18 36 26t20 17t18 23t32 46l18 26l26 -14q8 -6 35 -11t47 -9q34 -10 64 -15t48 -21l8 -16q4 -16 6 -30t6 -30q-8 -20 -14 -39t-12 -37q-6 -14 -8 -18t-2 -6t1 -5t1 -17l-8 -24q-10 -14 -24 -22t-28 -14q-4 -4 -12 -7t-12 -7l-6 -24l-26 -4 q-34 -8 -58 -8h-24q-24 22 -38 34t-30 22q-20 28 -22 41t-6 25q-4 26 -10 34zM58 678q-2 30 12 62q4 16 8 28l-14 22l16 22q14 20 20 29t16 19l18 16q32 2 51 3t39 7q34 -8 45 -15t21 -15q22 -16 32 -16h40l-4 -32l44 -10q-4 -30 -7 -44t-3 -27t3 -31t11 -56l6 -32l-30 -6 q-10 -4 -33 -20t-41 -26q-28 -16 -54 -35t-52 -21q-32 16 -44 24t-24 18q-10 20 -18 38t-18 36q-6 14 -8 18t-3 5t-4 3t-13 12z" />
<glyph unicode=";" horiz-adv-x="502" d="M-156 -244q-18 26 4 48q36 38 63 91t47 114t35 126t29 125q8 -8 16 -5t16 10t14 17t12 16q12 -10 41 -23t60 -26t60 -23t41 -12q22 -40 24 -71t10 -65q-10 -10 -13 -33t-5 -33q-2 -16 -7 -19t-9 -17q-2 -4 1 -12t3 -12q-4 -10 -11 -11t-11 -11q-8 -22 -10 -27t-4 -6 t-5 -4t-11 -23q-14 -30 -35 -59t-25 -57q-14 -12 -32 -28t-37 -33t-39 -31t-38 -20q-18 8 -57 26t-74 40t-53 48zM66 678q-4 16 1 32t9 30q8 16 8 28l-12 22l16 22q14 20 20 29t16 19l18 16q32 2 50 3t38 7l20 -2q16 -6 27 -13t21 -15q22 -16 32 -16h40l-4 -32l44 -10 q-4 -30 -7 -44t-4 -27t2 -31t11 -56l8 -32l-30 -6q-10 -4 -34 -20t-40 -26q-30 -16 -55 -35t-53 -21q-30 16 -42 24t-24 18q-20 34 -36 74q-8 14 -9 18t-3 5t-5 3t-13 12z" />
<glyph unicode="&#x3c;" horiz-adv-x="1280" d="M8 482q-22 56 16 106t114 60q24 -8 37 -7t35 -9q36 24 87 47t99 13q6 16 23 16t21 18q82 14 160 44t152 65t143 70t133 63q28 -8 52 1t50 7q-6 -6 -2 -8t12 -3t17 -2t15 -7q22 -16 33 -23t18 -11t14 -10t23 -18q-10 -22 -10 -34t2 -23t5 -23t1 -32q-110 -70 -195 -111 t-164 -71t-164 -57t-197 -71q46 -28 119 -49t146 -48t133 -67t80 -104q28 -2 49 -32t17 -70q-20 -12 -37 -27t-43 -23q-22 -4 -57 4t-76 22t-86 30t-85 26t-87 18t-87 24q-18 8 -31 19t-31 15q-36 6 -77 23t-83 37t-83 40t-77 36q2 12 -26 30t-60 20q0 24 -19 43t-29 43z " />
<glyph unicode="=" horiz-adv-x="1202" d="M21 346q1 28 1 56q6 22 22 34t32 22q50 2 90 6t77 8l74 8t81 6q26 6 90 12q54 4 153 8t267 4q-2 -18 11 -26t27 -13t25 -12t5 -25q36 -8 42 -24t-4 -35t-31 -39t-39 -36q-18 4 -38 -7t-36 -23q-56 6 -115 1t-109 -9q-10 0 -11 -8t-7 -10q-58 18 -124 14t-138 -16 t-146 -25t-148 -15q-22 16 -33 39t-15 50t-3 55zM94 726q14 16 18 44t-10 42q16 4 29 23t9 29q36 8 73 11t73 5t69 6t61 16q98 4 206 7t202 7q30 -10 75 -11t87 -6t73 -21t33 -58q28 -4 38 -14t10 -24t-6 -31t-12 -35q-58 -32 -149 -45t-187 -18t-185 -4t-143 -5 q-108 -12 -170 -23t-88 -21q-36 2 -55 14t-28 29t-12 38t-11 45z" />
<glyph unicode="&#x3e;" horiz-adv-x="1300" d="M-82 134q8 20 9 33t-1 24t-5 23t-1 32q110 70 194 111t164 71t165 57t197 71q-46 26 -119 48t-146 49t-133 67t-80 104q-28 2 -49 32t-17 70q20 12 37 27t43 23q22 4 57 -4t76 -22t86 -30t85 -26t87 -18t87 -24q18 -8 31 -19t31 -15q36 -6 77 -23t83 -37t83 -41t77 -35 q-2 -12 26 -30t60 -20q0 -24 19 -43t29 -43q12 -28 7 -56t-23 -50t-47 -38t-67 -22q-24 10 -37 8t-35 8q-36 -24 -87 -47t-99 -13q-6 -16 -23 -16t-21 -18q-82 -14 -160 -44t-152 -65t-143 -71t-133 -62q-28 8 -52 -1t-50 -7q6 6 2 8t-12 3t-17 2t-15 7q-22 14 -33 22 t-18 12t-15 10t-22 18z" />
<glyph unicode="?" horiz-adv-x="1140" d="M102 110q-2 16 3 31t9 29l5 15t3 13l-12 20l16 22q12 22 18 30t16 18l18 14q54 2 88 10q34 -6 44 -13t20 -15q22 -16 32 -16h40l-4 -30l42 -10q-4 -30 -7 -44t-3 -26t3 -30t11 -56l6 -32l-28 -6q-10 -2 -33 -18t-41 -26q-28 -16 -53 -35t-51 -19q-30 16 -42 24l-24 16 q-10 18 -18 36t-18 36q-6 14 -8 18l-3 6t-4 3t-13 11zM162 1248q8 32 23 55t33 44t36 41t32 46q32 8 55 25t45 37q108 12 210 7t203 -21t202 -44t207 -60q14 -16 24 -33t30 -25q-10 -50 -6 -95t6 -97q-28 -152 -124 -243t-222 -125q0 -20 -12 -28q-40 -6 -60 -20t-37 -30 t-40 -31t-71 -23q-10 -22 -27 -28t-34 -9t-33 -10t-24 -33l-114 -106q-48 12 -84 11t-60 3t-37 24t-17 76q2 20 15 27t17 23q0 44 13 65t33 35t42 31t38 53q32 14 71 45t71 61q50 26 85 46t65 40t60 44t72 60q-10 26 -37 29t-61 -1q-58 18 -113 23t-129 9q-28 -2 -41 -5 t-39 1q-12 -10 -27 -16t-32 -11l-34 -10t-31 -13q-40 10 -64 38t-58 44q-4 14 6 18t6 24q-20 10 -19 16t-13 16z" />
<glyph unicode="@" horiz-adv-x="1500" d="M-20 530q4 86 36 154t77 125t99 105t104 94q10 -10 15 -3t25 3q0 12 10 28t25 31t33 25t34 6q20 38 61 64t83 53t76 58t42 79h38q-24 36 -22 72t25 60t63 30t92 -18q12 -2 19 1t13 7t11 8t13 6q92 -38 164 -93t128 -125q-2 -4 -7 -7t-9 -6t-5 -7t7 -10q66 -80 120 -172 t100 -194q12 -76 7 -152t-23 -162q-16 -32 -54 -73t-82 -79t-86 -65t-62 -29q-36 -6 -70 -2t-64 14q-6 -4 -13 -9t-13 -11q-20 -4 -52 -7t-54 -15q-70 -10 -143 -9t-137 9q-16 10 -30 17t-36 9q-34 14 -59 40t-42 56t-27 64t-12 64q10 50 40 89t62 77q20 22 40 34t32 30 q26 8 45 22t37 27t37 26t45 23q16 20 48 33t46 37q10 -8 20 -3t20 9q14 4 22 -5t12 3q8 -10 13 -11t11 -3q10 10 17 18t11 18l24 22l38 26l20 2l34 -32q4 -4 10 -14t8 -26q0 -14 1 -19t5 -17v-24q-2 -10 -2 -16v-22q0 -4 -1 -9t-1 -11q-26 -78 -39 -139t-7 -89q2 -14 5 -32 t11 -33t20 -26t32 -11q16 2 34 12q16 10 36 27t42 51l-12 32q12 20 16 40t4 41t-1 45t5 52q-18 46 -44 104t-58 114t-69 101t-79 63q-10 4 -15 1l-10 -6t-11 -4t-18 5q-120 -90 -241 -177t-221 -201q-96 -86 -172 -205t-116 -271q6 -4 22 -12q24 -10 46 -14t44 -12l72 -40 q8 -16 8 -20q46 -16 86 -22t78 -22q100 -4 176 -7t152 -5q68 0 123 8t107 16q4 14 3 19t7 15q18 -12 37 -36t37 -50t36 -50t36 -36q-8 -14 -6 -24t-4 -24q-48 -40 -111 -54t-135 -15t-150 4t-152 -1q-40 10 -64 12t-58 8q-62 2 -90 12q-18 4 -36 4t-34 4q-50 14 -88 40 q-42 14 -86 40t-85 57t-76 66t-59 65q0 32 -5 55t-10 44t-7 43t6 52q-6 18 -12 35t-12 33zM678 572q4 -10 9 -16t11 -12q38 -4 77 -1t79 7q-26 48 -20 110q2 8 3 14t1 12q2 8 4 17t4 21q-18 -10 -35 -20t-27 -24q-36 -16 -56 -38t-42 -44q2 -10 -1 -15t-7 -11z" />
<glyph unicode="A" horiz-adv-x="1438" d="M-52 190l26 20l2 42q50 122 103 234t111 230q18 38 37 76t37 78q-2 8 -2 17t4 21q28 40 45 72t33 66q18 40 39 80t53 78l14 20l22 -2q8 4 17 7t23 3l36 -6q66 30 117 87t103 137l24 34l32 -20q10 -6 32 -12t46 -14q42 -10 82 -23t62 -35l10 -18q4 -22 7 -40t7 -36 q8 -42 14 -83t8 -91q10 -40 19 -81t17 -81q10 -58 22 -111t32 -101q20 0 24 -2q24 10 56 12l26 2l8 -24q4 -6 10 -12t14 -12q32 -2 47 -13t25 -21q4 -4 10 -9t10 -7l36 -14l-20 -38q-22 -42 -67 -82t-101 -66q4 -14 5 -26t5 -28q8 -40 13 -83q2 -20 2 -40q0 -24 -3 -49 q-20 -52 -47 -93t-64 -74t-83 -54t-96 -23q-28 6 -41 14t-23 16q-16 12 -26 16l-26 12l8 30q6 16 -1 28t-29 32q-8 6 -14 13t-14 15l-40 46l66 18q60 16 80 41q17 21 17 69q0 10 -1 20q-29 6 -53 6q-16 0 -29 -3q-32 -7 -64 -15q-46 -12 -90 -21t-96 -9q-34 0 -72 6l-22 2 l-6 22q0 4 -5 9l-9 9q-10 12 -24 32t-6 50q-14 22 -16 46q-8 -16 -13 -31t-9 -29l-8 -26l-26 -4q-4 -4 -7 -12t-1 -12l8 -22l-20 -18q-4 -6 -10 -10t-10 -8q-4 -22 -11 -42t-15 -40q-10 -32 -19 -62t-9 -60l-8 -26q-10 -16 -25 -24t-29 -14q-20 -8 -28 -16l-6 -26l-30 -4 q-26 -6 -37 -8t-25 -2l-26 2q-24 24 -39 37t-35 23l-12 16q-8 16 -10 29t-6 27q-4 26 -12 36zM532 626q14 2 27 2t27 2q70 4 130 10t130 20q-16 74 -35 151t-41 155l-10 -20q-50 -54 -96 -116t-76 -118l-2 -2q-28 -40 -54 -84z" />
<glyph unicode="B" horiz-adv-x="1406" d="M-62 1208q20 54 64 91t99 63t117 42t120 28q12 -4 12 0t10 -4q72 22 166 43q73 16 153 17q23 0 47 -2q14 8 34 9t42 1t42 1t34 7q12 -14 36 -17t50 -21q8 -2 0 7t2 13q26 0 46 -12t37 -27t32 -27t33 -12q18 -22 43 -41t48 -39t38 -44t15 -54q-2 -12 8 -14t14 -12v-11 q0 -67 -23 -117q-25 -54 -63 -99t-81 -85t-79 -86q24 -30 55 -55t63 -49t61 -51t49 -61q6 -12 26 -16q6 -24 17 -49t21 -48t12 -41t-10 -30q14 -8 16 -25t0 -27q-44 -54 -60 -76t-24 -32t-16 -18t-36 -32q-106 -64 -221 -115t-239 -69q-10 -14 -29 -23t-43 -15t-51 -10 t-49 -8q-10 4 -11 13t-11 13q-2 -24 -21 -25t-47 9t-58 28t-52 34q-10 -18 -25 -38t-31 -28q-28 4 -41 6t-25 -10q-16 8 -24 17l-16 18t-18 16t-30 13q4 10 -6 31t-28 25q10 16 -8 41t-28 57q2 14 3 29t4 28t9 23t20 14q-2 26 -16 50q18 14 24 35t11 43t13 43t26 35 q-4 6 -8 10t-4 14q30 50 42 85t19 68t15 71t32 96v12q0 29 8 52q10 28 21 55t17 57q3 13 3 28q0 20 -5 42q-34 -4 -49 -24t-19 -54q-18 -16 -46 -15t-50 -7q-84 34 -139 96t-89 146zM460 1108q40 -34 83 -60t65 -70q96 38 168 97t130 131q-17 1 -33 1q-107 0 -211 -23 q-120 -26 -202 -76zM466 270q72 10 132 30t116 45t110 50t112 47q6 24 26 38t40 27t34 29t10 44q-76 42 -139 50q-30 4 -58 4q-32 0 -62 -5q-57 -9 -109 -25t-104 -24q-26 -68 -54 -150t-54 -160z" />
<glyph unicode="C" horiz-adv-x="1252" d="M0 728q18 54 44 99t58 86t67 78t69 75q12 0 22 -6q8 22 24 38t34 29l36 26t30 31q50 12 89 34t75 48t74 48t88 34q18 20 45 34t54 26t52 26t41 38q12 -16 34 -11t40 11q12 2 20 -4t15 -13t12 -9t11 12q16 -2 9 -14t-9 -16q20 4 33 -7t41 -15q10 -10 6 -16t-6 -20 q72 -22 92 -69q11 -26 11 -53q0 -22 -7 -45q-16 -51 -59 -94t-95 -57q-62 -16 -115 -32t-102 -36t-92 -47t-75 -63q-56 -16 -101 -44t-84 -62t-75 -71t-72 -73q0 -34 -12 -52t-26 -36q4 -38 17 -65t27 -55q160 -48 339 -59t355 -13q18 -24 41 -45t42 -43t30 -51q7 -19 7 -42 q0 -13 -2 -27q-34 -34 -74 -65t-80 -61q-18 -2 -43 0t-52 2t-54 -3t-51 -13q-126 4 -258 31t-244 65q-22 26 -46 49t-64 33q-58 44 -95 110t-58 140t-28 153q-5 61 -5 119v32z" />
<glyph unicode="D" horiz-adv-x="1206" d="M30 314q8 26 21 44t11 50q22 64 40 124t24 124q12 18 24 24q9 65 9 132q0 50 -5 102q-12 120 -40 222q2 22 6 33t0 19q-4 18 12 18h32q0 36 -13 71t-25 81q16 36 22 70t22 62q64 -20 126 -46t122 -51t118 -48t114 -37q86 -62 177 -123t166 -134t125 -167t58 -222 q-4 -12 -6 -20l-4 -16t-2 -18v-28q-72 -126 -182 -212t-240 -152t-271 -121t-275 -117q-58 14 -89 47t-46 78t-20 99t-11 112zM366 1104q24 -90 36 -170t13 -160v-15q0 -73 -9 -149q-10 -84 -28 -182q26 2 46 10t41 18t44 18t53 10q8 16 21 25t23 19q50 20 100 42t92 50 t76 64t56 86q-16 30 -39 51t-48 42t-48 44t-37 53q-32 4 -56 17t-46 26t-47 25t-59 14q-52 28 -94 39t-64 31q-18 0 -26 -8z" />
<glyph unicode="E" horiz-adv-x="1284" d="M21 373q-1 14 -1 27q0 26 4 48q4 18 13 34t18 31t14 31t1 32q12 2 15 13t19 7q14 44 30 82t34 74t37 73t35 83q-34 32 -49 69t-23 75t-12 77t-16 79q24 36 58 59t75 38t89 24t102 21q96 30 172 47t148 28t150 20t180 27q2 -6 7 -6h13q6 -14 22 -14q0 6 -1 11t-1 9 q4 0 11 -2t12 -4t9 1t2 13q24 -42 62 -69t84 -47q2 -18 1 -26t-3 -15t-2 -16t4 -25q-32 -54 -73 -84t-87 -46t-97 -24t-104 -17t-107 -25t-106 -48q-16 6 -29 5t-27 -5t-31 -8t-41 0q-16 -14 -37 -20t-43 -12q10 -22 9 -44t5 -38q40 -4 83 -4q49 0 103 5q102 9 200 13 q2 -10 -2 -14t-4 -14q18 -12 34 -30t33 -35t35 -28t42 -9q10 -20 14 -42t-6 -46q-40 -26 -78 -53t-79 -49t-89 -36q-42 -12 -90 -12h-14h-17t-17 8q-20 -10 -53 -7t-55 -7q-28 10 -65 10t-65 10q-36 -52 -68 -109t-56 -121q70 -10 120 -10h16q54 2 102 8t99 12q38 4 89 4h36 q50 24 115 33t121 27q20 -6 34 -23t27 -34t27 -29t36 -8q10 -10 13 -24t6 -26t9 -19t22 -5q-38 -78 -85 -120t-106 -65t-132 -34t-163 -27q-22 -4 -37 1t-31 5q-56 -10 -133 -20q-64 -8 -129 -8h-26q-78 2 -150 20t-120 64q-16 16 -23 38t-33 36q-4 30 -11 69t-14 80t-10 82 z" />
<glyph unicode="F" horiz-adv-x="1178" d="M-40 620q6 48 25 75t45 44t54 26t54 15l30 -10q10 -10 21 -18t21 -16q20 8 25 24t11 32q6 22 14 44t20 44q-2 18 2 32t8 24q-12 10 -17 11t-17 5q-6 0 -12 1t-14 3q-30 22 -39 37t-19 31t-18 28t-18 22l-24 16l12 24q4 4 4 11t-8 21q-6 26 -2 38l4 24q20 26 22 30l20 20 q46 12 94 27t94 31t94 32t96 28q16 14 35 17t35 5q14 0 26 2t18 10q34 12 66 20q60 16 158 38t220 32l42 2q12 -2 24 -1t24 1q104 0 138 -64q20 -10 36 -25t30 -29q10 -10 18 -17t14 -11l16 -16q13 -29 13 -58q0 -18 -5 -36q-12 -24 -26 -28l-28 -8l-26 -14q-26 2 -39 2h-29 q-60 0 -139 -7t-161 -20t-160 -32t-136 -41q-16 -12 -42 -22q-6 -2 -18 -10q2 -16 0 -31t-6 -29q-2 -10 -3 -21t-3 -23q-40 -48 -40 -112v-6l-10 -20q-8 -8 -13 -23t-1 -31l8 -24q40 4 79 9t83 11q56 10 113 17t119 7h78l-18 -18l22 -2l-12 -32l21 -9t13 -7l14 -20 q10 -6 18 -19t10 -35l-6 -20l-94 -120l-12 -16l-20 6h-13q-31 0 -59 -8q-16 -4 -34 -9t-36 -5q-48 -8 -80 -13t-64 -9q-44 -8 -85 -15t-77 -21q-22 -2 -26 -1t-8 1q-20 0 -40 -6t-38 -12q-12 -10 -16 -21t-8 -23q-4 -14 -11 -27t-17 -27l2 -36q-18 -4 -18 -5t-2 -1 q0 -16 -5 -30t-9 -26q-4 -8 -6 -14t-2 -12q13 -24 13 -52q0 -14 -3 -30q-8 -38 -30 -67t-52 -45q-32 -4 -47 2t-31 12q-10 4 -20 7t-20 5l-24 20q-6 12 -14 23t-16 23l-20 28t-18 32q-9 43 -9 77q0 22 4 40q9 47 25 93q4 16 8 30t8 30q-60 34 -92 96t-36 118z" />
<glyph unicode="G" horiz-adv-x="1616" d="M0 474q0 22 6 40t2 46q62 132 141 245t189 199q18 14 29 29t22 29t25 25t36 15q50 58 120 106t146 92t153 90t139 100q22 -14 35 -9t27 1q18 -38 47 -53t60 -30t58 -36t41 -57q-14 0 -13 -10t5 -22t4 -22t-18 -10q0 -14 14 -14t14 -14q0 -12 -5 -19t-1 -23 q-48 -32 -107 -61t-124 -61t-132 -69t-133 -85t-133 -106t-129 -123t-116 -134t-92 -135q4 -10 11 -18t11 -18q34 -2 66 -2q39 0 76 3q17 1 35 1l97 -10q8 6 10 16t12 14q136 14 254 45t240 63q-36 14 -64 22q-12 12 1 21t21 19q-32 18 -53 48t-25 78q14 12 14 28t-14 26 q-10 4 -12 0t-3 -8t-4 -8t-11 0q2 22 10 36t12 34l166 110q26 -20 64 -42t80 -44t86 -45t82 -45q36 -16 62 -39t50 -48t48 -49t58 -40q-4 -32 4 -52t4 -48q-38 -68 -92 -115t-121 -81t-143 -57t-156 -44t-161 -44t-159 -53q-34 0 -58 -2t-46 -6l-44 -8t-48 -6q-10 2 -13 -4 t-9 -10q-40 -6 -72 -6h-54q-28 0 -58 -8t-56 -6q-180 8 -282 128t-112 330q2 10 -4 13t-10 7z" />
<glyph unicode="H" horiz-adv-x="1424" d="M-20 216q6 6 8 17t5 21t8 15t13 -3q-4 22 0 36t9 26t7 24t-6 28q38 52 50 113t14 111q18 18 31 48t19 62t6 63t-8 49q2 8 9 9t17 -1q14 80 19 178t20 189t49 160t108 89q14 -50 37 -88t50 -74t55 -72t52 -80q-2 -46 -9 -106t-18 -122t-22 -120t-21 -98q2 -10 14 -13 t4 -23q58 14 121 27t124 26t120 31t111 44q12 96 30 190q10 53 10 106q0 42 -6 84q12 10 20 24t24 18q-10 39 -10 83v14q2 51 17 95t45 77t74 43q26 -38 46 -82t40 -89t43 -85t59 -68q6 -70 10 -143t6 -151q-18 -90 -41 -175t-33 -181q-16 -18 -26 -43t-19 -50t-21 -49 t-30 -40q8 -28 3 -53t13 -59q1 -11 1 -21q0 -48 -16 -82q-19 -41 -52 -70t-76 -46t-85 -31q-20 12 -37 25t-41 19l10 18q-40 40 -69 85q-27 42 -27 96v7q0 2 4 27t9 53t10 53t5 27q-56 -6 -116 -26t-117 -45t-106 -52t-79 -45q0 -6 -10 -34t-24 -59t-31 -55t-35 -22 q4 -10 8 -15t0 -19q-34 -10 -61 -26t-55 -27t-61 -10t-79 25q0 14 -12 25t-25 19t-23 14t-10 12q-6 -2 -8 4t-1 12t6 10t13 0q-26 32 -33 58t-27 64z" />
<glyph unicode="I" horiz-adv-x="1056" d="M-72 216q0 28 12 41t26 25q48 2 86 8t74 12t72 11t78 5q30 62 56 119t50 109q12 50 31 93t37 82t32 78t18 83q24 70 43 129t29 141q-76 -12 -122 -23t-66 -21q-40 2 -63 16t-37 34t-24 46t-24 54q8 18 4 53t-24 51q16 4 24 27t2 35q34 10 72 13t75 6t71 8t58 21 q104 4 217 8t209 10q36 -12 83 -12t94 -6t84 -26t51 -70q30 -4 45 -16t19 -29t3 -38t-1 -41q-32 -24 -81 -39t-107 -24t-121 -12t-123 -5q-10 -66 -35 -155t-51 -174t-45 -152t-17 -87q-20 -46 -33 -78t-24 -60t-22 -55t-27 -61h136q4 -22 18 -30t30 -14t29 -15t13 -29 q38 -10 48 -30t5 -43t-20 -47t-29 -42q-18 4 -34 -9t-30 -29q-33 5 -66 5q-24 0 -48 -3q-56 -6 -104 -10q-10 -2 -8 -11t-4 -13q-52 17 -105 17q-11 0 -22 -1q-65 -4 -132 -19t-137 -32t-142 -19q-28 18 -45 46t-28 60t-18 67t-15 67z" />
<glyph unicode="J" horiz-adv-x="1370" d="M-40 230q6 46 14 80t16 54l16 18q36 14 82 14q44 0 86 -14t84 -30q18 -8 26 -12l12 -6t11 -2h25q10 0 19 1t19 3l24 -2q14 -8 34 -8q14 0 29 4t31 8q16 6 28 8t22 6l20 18q20 8 31 18t19 23t15 27t19 30q10 12 19 24t19 22v20q32 74 56 150t42 152t31 148t23 130 q-6 0 -12 1t-10 1q-60 0 -98 -2t-70 -6t-67 -11t-89 -17l-34 -6q-38 -18 -73 -33t-73 -15q-60 0 -104 48q-46 28 -52 80q-10 18 -8 34q-8 28 -9 51t-1 43l2 34h30q12 12 17 18t7 14l6 20l20 2q42 6 86 14t90 18q46 8 79 14t63 9t62 4t74 1q16 0 29 -1t27 -1q8 10 16 12t12 2 q14 -2 21 -4t11 -4q68 12 125 15t103 3h44t42 -2h76h54q10 2 19 2h19h31t19 -1l16 -2t22 -3q34 -6 62 -10t56 -4l38 2l6 -24l18 -26q6 -12 16 -22t22 -20q24 -22 47 -55q18 -26 18 -71q0 -11 -1 -24l-18 -24q-8 -4 -15 -10t-15 -14l-20 -18q-26 -2 -44 -3t-40 -1 q-36 0 -73 2t-77 4q-22 2 -34 2h-22t-23 -1t-33 -1h-29t-25 -2q-4 -64 -15 -111t-27 -99q-38 -196 -93 -370t-123 -314q-64 -68 -122 -121t-130 -75h-6q-30 -4 -57 -10t-55 -14q-12 -4 -24 -6t-26 -6q-36 8 -69 12t-59 4l-30 8q-24 8 -36 13t-23 8t-26 5t-43 6 q-34 -14 -66 -14q-22 0 -46 7t-48 28t-46 58t-38 95z" />
<glyph unicode="K" horiz-adv-x="1590" d="M21 319q-3 13 7 29q8 2 7 8t5 10l3 12t-7 10q-4 14 6 18l20 8q10 120 41 219t68 193t74 189t61 207q26 26 43 62t34 73t40 71t63 56q18 -2 33 -7t29 -11t30 -10t34 -4q8 -10 14 -23t16 -23l36 6q26 -22 46 -55t28 -68q4 -16 4 -31q0 -19 -6 -37q-10 -33 -46 -51 q2 -12 0 -18t-5 -11t-3 -10t8 -13q-22 -18 -40 -45t-30 -57t-19 -60t-9 -56q58 60 136 112t136 98q46 32 81 61t71 54t75 48t79 51q20 8 31 4t21 -10q2 14 -6 17t-6 19q34 10 61 24t57 26q20 -22 40 -47t54 -27q12 -26 29 -39t34 -25t29 -29t14 -53q-8 -16 -19 -35t-19 -47 q-48 -44 -97 -77t-100 -63t-104 -62t-107 -74q-12 -18 -30 -32t-37 -27t-36 -27t-27 -34q-8 0 -14 -1t-14 -3q-8 -16 -23 -26t-21 -26q36 -78 94 -118t130 -58t156 -20t174 -2q10 2 9 11t11 7q30 -10 50 -24t38 -30t35 -33t39 -35q-4 -94 -55 -153t-135 -95q-33 -1 -64 -1 q-77 0 -138 7q-86 10 -170 44q-6 2 -11 12t-9 14q-16 10 -36 8t-34 4q-18 8 -59 36t-75 52q-42 34 -81 67t-69 73q-6 10 -17 10t-21 6q-70 -44 -117 -109t-91 -132t-93 -126t-123 -91q-22 0 -38 7t-30 18t-28 21t-32 14q0 28 -11 53t-22 46t-16 41t11 40q-22 18 -42 30 q14 14 13 26t-7 24t-9 25z" />
<glyph unicode="L" horiz-adv-x="1296" d="M22 386q4 48 14 90q6 20 10 42q10 38 20 75t30 61q-8 22 2 48t20 48q4 6 6 11t4 9q24 70 47 135t45 125q40 110 77 216t67 226q16 12 28 16q4 2 10 4t14 2q42 -22 99 -41t97 -19l34 -30q26 -30 45 -63q13 -23 13 -56q0 -14 -2 -29q-12 -18 -20 -22q-12 -46 -26 -81 t-28 -67q-16 -36 -30 -72t-24 -88q-12 -14 -15 -24t-7 -20q-4 -12 -10 -25t-18 -23q-8 -62 -24 -101t-32 -77q-28 -70 -52 -139t-28 -157q24 6 44 6q26 0 50 -8q72 36 157 44t169 10q70 0 130 6q20 -14 26 -15t20 -1h12t16 -2q28 -28 54 -39t56 -21q26 -10 51 -21t49 -29 l18 -102q16 -22 14 -30q0 -16 -8 -28l4 -26q-38 -8 -50 -17t-26 -23q-22 -2 -42 -2q-40 0 -82 -12q-60 22 -132 22q-28 0 -57 -2t-57 -6q-30 -4 -60 -7t-60 -3q-24 -4 -34 -6t-20 -6q-68 -22 -147 -44t-159 -22q-118 0 -190 60q-8 18 -12 24t-8 14q-8 8 -14 19t-10 29 q-28 34 -44 78t-22 91q-4 28 -4 57q0 19 2 38z" />
<glyph unicode="M" horiz-adv-x="1994" d="M11 331q1 67 23 119q0 2 19 48t49 117t68 158t76 171t73 153t61 107q18 28 33 54t29 48q22 36 41 67t42 56t51 44t68 33q24 -10 42 -21t32 -27l6 -28q4 -14 13 -19t15 -5q26 -6 45 -13t41 -9q8 -12 15 -24t15 -22q40 -58 66 -112q13 -27 13 -56.5t-13 -61.5l2 -22 q10 -14 10 -26t-4 -34q-2 -16 -3 -35t5 -41l14 -16q32 -16 62 -16q40 0 72 18t60 36q22 16 41 26t37 14q42 40 77 71t73 63q72 58 140 125t108 167q22 14 50 14t56 -11t56 -25q6 -4 11 -6t11 -6q0 -22 18 -40q10 -8 14 -10l8 -4q16 -10 27 -18t17 -22q18 -54 60 -84 q-4 -22 2 -43t14 -41q4 -8 6 -15t6 -17l-44 4l6 -44q2 -12 2 -25q0 -24 -7 -51q-11 -42 -25 -66q4 -60 4 -95t-4 -65t-13 -57t-23 -57q1 -24 1 -47q0 -125 -36 -231q-43 -126 -93 -236q-6 -14 -12 -26t-10 -24q-22 -6 -40 -14t-34 -18q-22 -14 -44 -23t-46 -9 q-96 70 -99 242v13q0 169 73 425q14 10 12 30v22l-20 2q-10 0 -18 -2t-12 -18q-64 -46 -139 -95t-155 -90t-163 -68t-161 -27q-200 0 -302 204l-18 36l-20 -32q-6 -10 -21 -39t-30 -67t-26 -78q-8 -29 -8 -53q0 -9 1 -17q-24 -22 -47 -50t-33 -64q-4 -10 -2 -19t6 -19 q-2 -14 -8 -20t-14 -12q-10 -10 -20 -21t-18 -25q-4 -12 -6 -25t-4 -23q0 -22 -6 -30q-20 -42 -35 -69t-29 -41t-29 -19t-35 -5t-62 6q-32 34 -57 93t-38 126q-12 62 -12 124v10z" />
<glyph unicode="N" horiz-adv-x="1402" d="M-30 390q58 124 124 259t133 274t134 280t129 277q56 -20 109 -47t97 -63t75 -83t41 -107q-4 -12 -10 -8t-10 -4q10 -12 11 -17t-1 -10t-2 -13t10 -22q-10 2 -14 -3t-14 -1q10 -28 6 -44t-12 -29t-13 -28t3 -41q-8 0 -11 -3t-5 -7t-5 -7t-11 -1q4 -39 4 -79v-26 q-2 -53 -4 -108q-1 -28 -1 -56t1 -57q2 -58 16 -120q86 50 139 130t84 178t48 210t35 228q22 22 35 54t22 66t18 69t25 63q36 -4 61 -21t47 -38t46 -39t60 -24q28 -40 52 -77t32 -83q-12 -20 -18 -44t-13 -48t-19 -44t-34 -34q-6 -60 -18 -112t-22 -102t-18 -104 q-6 -43 -6 -93v-25q-18 -58 -40 -119t-32 -113q-38 -30 -60 -74t-46 -88q-10 -8 -12 -3t-18 7q2 -18 -7 -23t1 -29q-34 -16 -60 -42t-57 -48t-72 -29q-9 -2 -20 -2q-36 0 -87 19q-98 72 -176 166t-124 222q-20 -6 -30 -26t-18 -42t-16 -40t-24 -18q-4 -18 -15 -33t-21 -30 t-15 -33t5 -40q-20 -16 -24 -41t-10 -49t-21 -41t-53 -15q-8 -10 -3 -12t9 -18q-28 4 -40 -4t-30 -12q-46 14 -77 51t-54 81t-40 90t-35 80q0 8 7 7t13 -1q-10 20 -15 45t-19 41z" />
<glyph unicode="O" d="M28 286q-7 53 -7 103q0 77 17 144q28 111 82 205t123 176t133 158q14 -6 23 0t16 16t16 20t21 14q8 18 21 30t28 23t28 23t23 30q20 4 35 14t28 22t27 22t34 16v26q44 20 64 44t48 62q22 2 35 2t41 4q18 34 34 50t46 36q30 -16 64 -19t62 -31q2 -24 14 -37t26 -24t28 -23 t18 -34q10 0 13 4t13 2q4 -16 8 -26t9 -18t10 -18t9 -24q-10 -24 -18 -51t-32 -37q0 -16 12 -17t14 -15q2 -18 -6 -30q56 -94 102 -197t104 -197q-4 -28 3 -55t18 -53t21 -52t14 -52q2 -17 2 -35.5t-2 -37.5q-4 -39 -16 -75t-32 -67t-46 -47q-32 -40 -80 -65t-88 -59 q-28 -16 -60 -23t-66 -15q-26 -16 -62 -31t-74 -27t-76 -19q-24 -4 -45 -4q-12 0 -23 1q-72 -26 -140 -36q-23 -3 -48 -3q-51 0 -112 13q-33 -4 -64 -4q-51 0 -96 12q-72 20 -129 62t-98 100t-67 124zM342 380q40 -34 95 -41q32 -4 65 -4q24 0 48 2q58 5 116 15t104 10 q0 18 16 18q84 8 156 47t150 79q10 24 26 42t18 52q-10 18 -13 30t-3 36q-52 72 -90 157t-88 161q-4 -10 -16 -20t-26 4q-6 -20 -18 -27t-27 -7t-30 6t-27 16q-70 -56 -139 -108t-125 -122q-10 -6 -12 -4t-14 -2q-20 -46 -47 -83t-53 -75t-45 -81t-21 -101z" />
<glyph unicode="P" horiz-adv-x="1310" d="M72 660q4 10 7 20t17 8q-3 19 -3 37q0 24 5 45q8 38 25 72t40 67t45 67q18 4 22 -3t14 3q32 22 44 49t12 59q18 52 41 103t53 95t64 77t74 51q28 24 71 44t92 31t101 12h8q47 0 88 -11q10 -4 12 5t10 9q100 -12 179 -40t135 -78q38 -60 72 -129t53 -144q17 -68 17 -140 v-15q-2 -80 -34 -160q-70 -88 -170 -141t-215 -88t-238 -57t-239 -48q1 -27 1 -55.5t-1 -59.5q-2 -61 -13 -122t-32 -119t-57 -108h-13q-34 0 -70 -8q-43 -10 -77 -20q-16 10 -31 19t-37 11q6 24 -11 50t-34 51t-22 50t23 45q-16 14 -16 44q8 -8 20 -8q-1 8 -1 18 q0 30 10 68q13 50 22 99q5 29 5 56q0 18 -2 34q-6 41 -48 59q2 8 9 7t13 1q-16 16 -20 43t-20 45zM558 902q4 -12 16 -18t16 -18q28 14 56 21t56 11t56 10t58 20t63 23t65 19t62 23t52 35q-28 26 -84 46t-121 25q-17 1 -34 1l-96 -10q-65 -14 -113 -58q-8 -22 -13 -39 t-11 -31t-13 -28t-15 -32z" />
<glyph unicode="Q" d="M-10 450q4 90 36 163t78 134t100 112t104 99q10 -10 15 -3t23 3q2 12 12 30t25 33t33 25t34 8q20 38 61 67t83 57t76 62t42 84h40q-22 33 -22 69v6q2 39 25 64t63 31q8 1 15 1q35 0 77 -21q22 -4 30 8t26 16q92 -40 164 -98t130 -132q-4 -6 -9 -9t-9 -6t-5 -7t7 -10 q68 -86 122 -183t100 -205q7 -59 7 -117q0 -23 -1 -46q-4 -81 -22 -171q-16 -34 -37 -63t-45 -56l-48 -54t-44 -57l34 -80q-2 -16 6 -35l16 -38t13 -37t-1 -30q6 -12 26 -8q-8 -4 -11 -16t19 -8q-4 -22 -18 -50t-36 -53t-53 -42t-69 -17q-40 20 -63 40t-55 48l-74 174 q-146 -66 -312 -107t-352 -51q-100 28 -182 76t-134 124q0 32 -5 57t-10 47t-7 46t6 56q-6 18 -12 35t-12 35zM270 324q18 -10 44 -12t48 -8q114 32 235 61t233 73q-46 56 -87 108t-65 104q6 12 11 28t13 32t22 28t38 12q36 -14 85 -16t89 -10q40 -28 70 -69t60 -81 q44 40 76 89t48 111q-12 32 -30 72t-41 78t-52 68t-63 40q-16 4 -21 -5t-25 -3q-108 -78 -216 -153t-198 -169q-88 -72 -159 -168t-115 -210z" />
<glyph unicode="R" horiz-adv-x="1324" d="M20 220h22q-9 29 -9 56q0 13 2 25q7 37 17 72t17 68q2 11 2 22q0 23 -9 47q10 -6 15 5t8 28t2 36t-3 31q26 62 41 128t27 131t27 126t39 115q28 4 59 -7t41 -27q62 48 110 116t97 133t111 115t154 60q48 -34 108 -73t98 -97q16 -10 31 -21t31 -21v-30q28 -26 47 -61 t34 -74t29 -79t32 -74q-4 -12 -3 -21t4 -18t5 -20t2 -27q-8 -106 -69 -171t-148 -106t-185 -70t-178 -63q0 -8 9 -8t5 -12q60 -36 93 -58t62 -37t64 -25t97 -24t97 -23t63 -14t60 -9t86 -10q22 -22 36 -52t20 -60t3 -57t-17 -43q2 -8 11 -7t19 -1q-14 -10 -24 -24l-20 -28 t-23 -26t-33 -14q-37 -15 -85 -15q-45 0 -99 13q-112 26 -286 92q-86 32 -140 58t-94 51t-74 54t-78 69q-6 -2 -7 -8t-7 -8q-10 -80 -31 -130t-61 -102q-32 6 -43 -6t-27 -22q-20 -4 -30 1t-18 11t-18 12t-32 4q-6 18 -12 35t-32 15q6 18 4 31t-6 24t-7 23t3 28 q-10 -2 -18 15t-18 33zM514 788q84 10 176 47t174 71q-10 74 -52 119t-88 61q-26 -38 -58 -69t-63 -64t-55 -72t-34 -93z" />
<glyph unicode="S" horiz-adv-x="1180" d="M20 992q8 32 13 50t1 50q18 52 55 88t81 61t92 42t90 29q0 8 -8 8t-4 10q108 20 217 58t223 68t234 37q19 1 38 1q103 0 214 -32q8 -24 22 -46t29 -43t27 -41t14 -42q24 -22 39 -47q9 -15 9 -36q0 -14 -4 -31q-22 -16 -46 -32t-50 -30q-71 17 -141 17l-39 -1 q-90 -6 -162 -14q-22 24 -52 23t-63 -10t-65 -18t-60 -5q-22 -20 -58 -27t-76 -11q-2 -10 4 -14t2 -16q14 -18 38 -25t49 -13t45 -17t26 -35q36 -2 62 -19t44 -41t26 -51t6 -49q8 -20 17 -16t21 -10q8 -30 37 -63t45 -71q4 -60 7 -108v-12q0 -42 -17 -82q-34 -88 -98 -158 t-145 -123t-171 -92t-178 -65q-8 2 -19 0t-5 12q-18 -16 -41 -20t-50 -3t-54 3t-53 -2q-16 16 -29 32t-21 38q-10 2 -9 13t-9 11q0 8 2 12l4 8q8 6 7 9t-6 6t-10 7t-3 10q10 18 7 43t-5 51t4 49t34 39q27 -3 54 -3q53 0 101 11q73 16 138 44t124 61t115 61q6 20 19 34t27 27 t26 28t18 37q2 8 0 12t-6 7t-8 7t-4 12q-6 2 -11 4t-9 2q-52 26 -110 44t-98 40q-24 -16 -48 -8t-58 16q-84 4 -159 16t-145 42q-4 12 -10 21t-28 5q-14 20 -29 37t-27 39q6 30 8 49t-14 41z" />
<glyph unicode="T" horiz-adv-x="1244" d="M0 1304q4 20 10 29t12 15l8 36h30q16 -2 33 -2h33q76 0 156 6t164 14q92 12 198 18q10 22 13 28l7 14l22 12h12q37 0 52 -11q18 -13 28 -25q52 4 106 11t112 15q80 10 162 20t160 10q34 0 64 -2t58 -6l24 -18q8 -14 20 -26t28 -24q30 -24 59 -60q23 -28 23 -77 q0 -14 -2 -29l-10 -20q-8 -8 -20 -16l-20 -26h-22q-20 0 -30 -3t-24 -9q-8 -4 -18 -7t-22 -7q-22 2 -34 2h-28q-60 0 -130 -8t-136 -18q-48 -6 -92 -11t-80 -9q-20 -52 -36 -92t-34 -80t-34 -81t-30 -91q-24 -36 -40 -69t-26 -75q-30 -34 -43 -74t-23 -68l-8 -30 q-14 -14 -17 -22t-11 -18q-6 -26 -16 -50q-4 -10 -8 -21t-2 -17q-4 -22 -12 -34q0 -12 -2 -24l-4 -24q-4 -14 -6 -25t2 -21l12 -16t10 -20q4 -4 10 -6t10 -6q16 -14 30 -16l20 -24q3 -19 3 -35q0 -47 -25 -77q-36 -46 -120 -46l-28 2q-14 14 -16 18q-18 8 -30 13t-22 19 q-4 4 -10 5t-10 5q-20 6 -32 14l-22 12q2 20 2 28q-16 22 -25 48t-15 54q-6 22 -11 40t-15 32v32q0 119 26 203q30 95 66 185q20 48 38 98t32 102l22 22q14 12 18 14q0 26 10 51t22 51q8 16 15 32t9 28q-14 0 -25 -1t-23 -3q-26 -6 -50 -6q-18 0 -26 2q-16 -8 -30 -9t-28 -1 h-24h-24q-24 0 -38 -6h-36h-18h-24h-24q-16 0 -36 3t-42 15l-14 16q-12 22 -22 24l-22 6v22q-2 16 -7 29t-11 29q-10 24 -18 52t-8 66z" />
<glyph unicode="U" horiz-adv-x="1424" d="M103 735q1 139 37 245l4 10q-4 26 -10 32q14 36 21 71t11 67q4 28 9 52t13 46q34 8 51 29t27 37q36 2 47 -10t25 -40q10 -22 28 -47t54 -39q6 -22 14 -42t18 -42q18 -42 34 -87t18 -85q-24 -46 -37 -106t-16 -121q-1 -20 -1 -40q0 -40 4 -77q6 -56 20 -94l12 -32l44 4 q72 18 130 41t108 55t96 73t96 97q48 56 86 127t63 147t39 152t18 142q38 18 42 58l-6 26q-6 10 -5 19t5 17q16 46 68 68q36 -24 67 -52t57 -56q4 -54 16 -93t26 -75q14 -34 25 -66t15 -78q-20 -60 -29 -113t-17 -111l-4 -22q-36 -62 -71 -127t-57 -113q-12 -12 -21 -28 t-17 -32q-4 -6 -11 -20t-13 -20l-48 18l-12 -62l-32 -8l-24 -28q-46 -80 -97 -134t-114 -96t-142 -79t-181 -79q-40 6 -69 7t-57 3q-28 0 -54 2t-60 6q-8 18 -22 26t-26 8q-40 20 -60 56t-42 80q-10 24 -21 48t-27 46l40 12l-52 60q-6 6 -13 12t-13 14v38q-7 146 -7 272v31z " />
<glyph unicode="V" horiz-adv-x="1196" d="M133 1319q1 47 13 73q16 30 40 47t46 39q26 -4 47 -15t36 -28t22 -35t3 -36q50 -30 81 -81t48 -112t24 -129t12 -134t10 -125t19 -103q88 128 149 227t123 190t139 185t197 212q26 -4 40 -10l28 -12t30 -9t44 1q10 -24 15 -35t9 -21t10 -26l18 -48q6 -8 5 -21t-3 -23 t-1 -16t13 0q-8 -34 -26 -61q-16 -24 -16 -58v-7q-54 -72 -120 -148t-132 -159t-127 -172t-103 -189q-12 0 -18 -6t-11 -14l-10 -16t-17 -8q-4 -64 -47 -121t-87 -97q4 -16 4 -26t-2 -20t-3 -21t1 -27q-18 -48 -47 -80t-63 -48q-29 -13 -59 -13h-11q-36 3 -68 25 q-14 8 -24 22t-21 27t-22 24t-27 15q4 20 1 42t-9 40t-14 30t-16 12q-8 50 -21 109t-26 117t-21 114q-6 45 -6 84v20q2 24 -9 43t-15 45q-7 40 -7 82q0 17 1 34q4 60 4 116q0 54 -7 115t-12 117q-4 47 -4 87v16z" />
<glyph unicode="W" horiz-adv-x="2036" d="M40 394q6 34 21 114t35 175t43 193t47 168q22 62 49 132t60 129t71 101t82 50q12 -16 26 -25t26 -13q34 -48 66 -81t76 -65q-12 -60 -35 -133t-48 -147t-49 -143t-38 -119q-12 -40 -24 -92q-10 -44 -21 -106t-21 -136q28 8 63 32t65 50q36 30 70 64q46 46 78 84t59 79 t56 90t69 117q36 58 75 124t79 126t78 111t70 79q22 -22 51 -46t63 -34q14 -22 27 -39t25 -33q16 -22 29 -40t23 -40q-2 -16 -7 -42t-11 -57t-13 -63t-13 -62q-20 -90 -30 -136t-14 -72t-5 -44t-1 -50q0 -24 4 -48q4 -22 9 -45t19 -43l96 74q40 30 77 85t72 126t69 154 t68 171q24 64 49 127t51 120t51 104t49 79q54 -34 93 -68t68 -75t46 -94t25 -125q-44 -84 -82 -172t-76 -178q-48 -116 -99 -231t-113 -219t-139 -191t-177 -147q-28 6 -48 6q-22 0 -37 -6t-27 -16q-82 38 -132 113t-98 167q-6 14 -13 27t-15 27l-34 62l-20 38l-28 -26 l-42 -38l-24 -24q-62 -58 -126 -113t-134 -100t-149 -73t-169 -30q-16 8 -29 14t-25 12q-46 22 -76 42t-70 62q-10 22 -20 42t-20 36q-24 48 -42 86t-34 88z" />
<glyph unicode="X" horiz-adv-x="1276" d="M-20 244q4 62 31 119t66 109t85 98l86 86q8 24 28 42t43 35t46 37t37 46q-8 28 -26 56t-40 56t-46 56t-44 58q-2 10 -15 6t-19 2q1 6 1 12q0 27 -14 57q-17 37 -45 63q10 24 19 62q4 15 4 31q0 25 -9 51q-2 20 5 38t15 34t12 31t-2 31q30 4 55 -3t46 -16t40 -15t37 2 q-4 -12 -1 -17t8 -8t10 -5t5 -10q38 -12 83 -52t87 -88t76 -95t50 -73q58 36 125 86t138 102t144 99t143 75q40 -18 63 -46t38 -59t28 -62t35 -55q-20 -40 -42 -67t-32 -65q-50 -20 -120 -64q-60 -38 -152 -104t-218 -174q30 -34 49 -64t31 -52q14 -26 22 -48q22 -16 36 -38 t27 -45t29 -43t42 -32q8 -36 20 -67t23 -61t18 -59t5 -59q-16 -54 -48 -90t-46 -74q-22 -6 -43 -13t-35 -21l-136 96q-36 120 -104 230t-132 190q-96 -74 -184 -164t-160 -192q-4 -50 -12 -83t-26 -55t-46 -38t-70 -32q-78 58 -115 143q-21 48 -21 96q0 37 12 73z" />
<glyph unicode="Y" horiz-adv-x="1010" d="M84 120l2 22l18 54q10 34 22 67t40 59q6 18 23 55t57 111q32 58 51 92t31 52q-20 36 -56 70q-32 60 -55 115t-35 99q-2 48 -16 98l-12 52t-6 54q-8 14 -14 36l4 24q10 16 5 43t-13 55q-6 26 -11 55t-3 57t15 54t45 44l20 14l20 -12q22 -14 42 -24l40 -20q24 -12 48 -25 t52 -29l20 -14l-2 -22q0 -4 2 -10t6 -10l22 -6l2 -28v-24q0 -18 2 -25t8 -15l10 -26q0 -36 6 -64t14 -56q10 -28 16 -57t2 -63q12 6 24 18q4 4 9 8t11 8l140 190l-4 24l50 48q20 16 38 33t30 39l12 18q90 120 232 148l34 8l10 -32q10 -28 39 -49t63 -41l22 -14 q12 -24 12 -36t-2 -20l10 -26q-22 -58 -48 -83t-54 -47q-22 -18 -40 -36t-28 -40l-16 -20q-50 -26 -64 -76l-8 -28h-30q-2 0 -10 -9t-24 -43q-18 -24 -25 -31l-11 -11q-4 -10 -7 -18t-7 -20l-12 -16q-18 -16 -26 -31t-18 -35q-8 -18 -18 -37t-28 -37l4 -22l-16 -14 q-16 -14 -28 -35t-24 -43q-12 -24 -26 -48t-36 -44q-14 -36 -25 -56t-37 -48q-24 -96 -114 -206q-2 -22 -13 -43t-23 -39q-4 -8 -9 -17t-7 -13l-6 -22q-12 -22 -25 -36t-25 -26q-6 -4 -11 -10t-9 -10l-34 -12q-176 24 -214 186z" />
<glyph unicode="Z" horiz-adv-x="1360" d="M-19 284q3 48 14 92t30 84t43 86q28 10 50 27t42 33q20 18 39 31t37 15l20 12q40 46 98 85t120 75q52 30 102 61t92 71q20 -2 34 8q10 14 8 30q6 4 11 9t11 9q16 14 45 29t39 41l52 50l-72 -2q-54 0 -115 -6t-105 -10q-36 -4 -73 -6t-83 -4q-38 24 -65 62t-42 82t-17 92 v12q0 42 12 80q16 4 29 9t25 11q22 2 29 0t17 -2q120 20 196 20q84 0 152 -20q84 0 171 6q24 2 48 2q64 0 129 -12q44 14 88 14l40 -3q64 -9 110 -57q4 -40 22 -61t48 -31q10 -38 10 -71q0 -27 -7 -51q-15 -52 -51 -93t-86 -73t-98 -62q-14 -22 -34 -36t-38 -30 q-78 -104 -181 -177t-209 -143q-76 -52 -151 -104t-145 -112l-26 -22l22 -24q28 -28 68 -28q22 0 43 6t39 14l33 11t25 5l22 -4q30 16 49 23t39 13q16 4 35 10t37 16q52 0 100 15t94 33q28 10 55 20t55 18q10 -14 23 -23t25 -15q18 -10 26 -17t10 -19l8 -66l42 46 q30 -28 32 -57v-12q0 -26 -6 -63q-78 -78 -193 -122t-243 -82q-28 -8 -54 -15t-54 -17l2 42l-52 -34q-10 -8 -16 -15t-12 -15q-62 -14 -103 -22t-77 -16q-40 -10 -75 -16t-77 -6q-14 0 -27 1t-27 3q-12 4 -28 8l-28 52l-38 -28q-22 18 -50 38q-24 20 -44 40t-22 40l-2 24 l-24 6q-4 4 -8 20q-4 12 -12 28t-24 26q-4 40 -4 75q0 17 1 33z" />
<glyph unicode="[" horiz-adv-x="794" d="M-62 -108q0 22 9 35t19 23q28 116 69 233t69 229q26 98 51 183t47 164t44 157t42 162q18 68 35 130t32 124t30 129t29 149q-4 26 -3 39t-1 27q-6 34 -22 50q16 4 23 26t1 32q32 10 69 13t73 6t68 8t56 19q100 4 208 9t200 9q34 -10 80 -11t90 -7t80 -25t50 -67 q30 -4 43 -15t18 -28t3 -36t-2 -39q-34 -26 -85 -40t-111 -22t-126 -12t-127 -5t-114 -3t-89 -6q-28 -4 -53 -7t-47 -7q-20 -90 -44 -191t-49 -202t-49 -197t-44 -175t-32 -136t-14 -79q-30 -94 -51 -161t-38 -126t-34 -117t-43 -136q34 6 96 12q52 4 137 8t217 4 q4 -20 18 -29t29 -15t27 -14t12 -28q36 -10 46 -28t6 -40t-19 -45t-27 -41q-20 4 -35 -8t-27 -28q-56 8 -110 2t-100 -12q-8 0 -7 -9t-5 -11q-60 20 -122 15t-126 -19t-132 -31t-136 -19q-26 18 -42 45t-27 58t-18 64t-15 63z" />
<glyph unicode="\" horiz-adv-x="722" d="M123 1423q1 65 39 99q74 -24 128 -70t108 -118q4 -28 10 -79t14 -112t16 -128t17 -126t18 -106t19 -69q2 -42 15 -95t25 -110t18 -113t-6 -102q4 -10 13 -14t15 -12q-10 -26 -8 -49t10 -45t16 -42t8 -40q-10 -16 -16 -32t-12 -33t-15 -34t-27 -31q-40 -6 -67 -4t-63 0 q-38 20 -58 57t-29 80t-9 86t4 77q18 16 -2 20q0 14 -3 50t-9 79t-12 89t-12 82q-16 30 -25 96t-18 137t-20 132t-31 83q4 44 -12 114t-28 144t-11 139z" />
<glyph unicode="]" horiz-adv-x="826" d="M-574 -108q0 28 12 40t24 26q46 2 83 7t71 10t69 10t77 5q12 8 49 13t85 9t102 6t102 2q24 84 52 165t50 161q24 98 51 181t52 162t46 157t33 164q20 72 38 131t34 118t31 127t31 158q-76 8 -144 7t-108 -7q-96 -16 -148 -29t-72 -23q-34 2 -53 15t-31 33t-21 44t-21 50 q6 18 3 51t-19 49q12 4 19 27t1 33q30 10 62 13l64 6t61 8t51 19q88 4 183 10t179 10q30 -10 70 -11t80 -7t72 -24t44 -66q26 -4 38 -15t16 -28t2 -36t-2 -39q-20 -82 -44 -189t-53 -226t-61 -240t-59 -225t-45 -180t-20 -104q-34 -102 -55 -172t-40 -133t-39 -130t-52 -159 q-4 -24 -19 -49t-29 -45q-20 4 -35 -8t-27 -28q-56 8 -110 2t-100 -12q-8 0 -7 -9t-5 -11q-60 20 -122 15t-126 -19t-132 -31t-136 -19q-26 18 -42 45t-27 58t-18 64t-15 63z" />
<glyph unicode="^" horiz-adv-x="1062" d="M0 524q6 26 20 48t12 50q42 56 93 115t102 122t97 132t80 147q8 0 13 5t9 11l8 12t12 6q4 50 37 94t67 74q-6 24 -1 36t3 36q28 74 83 99t107 -9q22 -16 35 -39t37 -29q-4 -32 6 -63t24 -33q6 -40 16 -84t20 -89t16 -89t4 -80q0 -18 8 -33t12 -35q6 -42 3 -89t-3 -89 t5 -89t9 -91t4 -80t-10 -56q-12 -22 -31 -36t-35 -30q-40 4 -64 33t-20 55q-58 36 -83 103t-34 145t-13 153t-20 127q-68 -100 -114 -176t-94 -146t-107 -143t-153 -163q-20 2 -31 7t-21 10t-22 7t-34 0q-8 18 -12 26t-7 16t-8 21t-15 37q-4 6 -3 15t2 17t0 12t-9 0z" />
<glyph unicode="_" horiz-adv-x="1452" d="M-216 152q24 4 36 24t2 30q50 8 107 10t113 3t106 6t88 17q154 0 322 1t314 5q52 -10 123 -12t140 -9t126 -25t79 -62q46 -4 67 -14t29 -25t6 -33t-2 -36q-52 -22 -131 -34t-173 -18t-196 -7t-198 -1h-178t-136 -2q-166 -10 -258 -20t-126 -20q-60 2 -95 14t-57 30 t-38 41t-38 47q12 16 5 46t-37 44z" />
<glyph unicode="`" horiz-adv-x="1546" d="M595 1294q-1 22 5 44t18 45t24 51q16 8 36 29t22 43q10 -6 29 5t23 23q22 -12 41 -31l37 -37t36 -33t40 -19q48 -54 103 -107t101 -103q8 -28 29 -42t38 -30t21 -38t-22 -64q12 -20 10 -36t-11 -30t-23 -28l-28 -28q-48 2 -100 30t-101 65t-91 76t-72 65q-58 52 -95 76 t-53 28q-16 24 -17 46z" />
<glyph unicode="a" horiz-adv-x="1190" d="M-52 146l22 18l2 34q40 102 85 196t93 192q16 32 31 64t31 64q-2 6 -2 14t4 18q22 34 36 61t28 55q16 34 33 66t43 66l32 14q6 2 14 5t18 3l30 -4q56 26 98 73t86 113l20 28l26 -16q10 -6 28 -11t38 -11q36 -8 68 -18t52 -30q12 -32 14 -48t6 -32q6 -34 11 -68t7 -76 q10 -34 17 -67t13 -67q10 -48 20 -93t26 -85q16 0 20 -2q10 4 21 6t25 4l22 2l8 -20q2 -10 20 -20q26 -2 38 -11t22 -19q8 -8 16 -12l30 -12l-16 -30q-20 -36 -57 -69t-83 -55q2 -12 3 -23t5 -23q6 -34 10 -70q2 -18 2 -36.5t-2 -37.5l-4 -8q-12 -34 -35 -69t-54 -62 t-69 -45t-80 -20q-26 6 -35 13t-19 13q-6 4 -11 7t-9 5l-24 10l8 26q4 16 -2 25t-24 25l-12 12t-10 12l-34 38l54 14q50 14 67 36q14 18 14 55q0 9 -1 19q-23 5 -41 5q-14 0 -26 -3q-27 -6 -55 -14q-36 -10 -73 -17t-81 -7q-16 0 -30 1t-30 3l-20 4q-4 22 -8 25t-8 7 q-10 10 -21 27t-5 43q-10 18 -12 36q-12 -24 -18 -50l-8 -20l-20 -4q-4 -2 -6 -9t-2 -11l-10 -34q-4 -4 -8 -7t-8 -7q-4 -18 -10 -36t-12 -34q-10 -26 -17 -51t-5 -49l-8 -22q-10 -12 -22 -19t-24 -13q-4 -4 -11 -7t-11 -5l-6 -22l-24 -4q-22 -4 -31 -6t-21 -2l-20 2 q-22 18 -34 29t-28 21q-18 24 -20 36t-4 22q-4 12 -5 20t-5 12zM436 510q12 2 23 2t21 2q60 4 109 9t109 17q-14 60 -30 125t-34 129l-12 -20q-40 -42 -77 -94t-63 -98l-24 -36t-22 -36z" />
<glyph unicode="b" horiz-adv-x="1174" d="M-62 996q18 46 54 77t82 52t98 34l100 25q78 14 156 32q58 14 124 14q22 0 44 -2q12 6 29 7t35 1t35 1t29 7q10 -12 29 -15t41 -19q24 18 41 8t31 -22t27 -22t27 -10q14 -18 35 -34t40 -33t32 -37t13 -46q-2 -10 6 -12t12 -8v-11q0 -55 -19 -96q-21 -45 -52 -83t-68 -72 t-67 -72q20 -26 46 -46t53 -40t51 -42t40 -52q4 -4 10 -7t12 -7q6 -20 16 -41t17 -40t9 -34t-8 -25q12 -6 14 -20t0 -22q-36 -46 -50 -64t-20 -27t-13 -15t-31 -26q-90 -54 -185 -96t-199 -58q-16 -22 -61 -31t-83 -17q-8 4 -9 11t-9 11q-2 -20 -18 -21t-39 8t-48 24t-43 27 q-10 -16 -21 -32t-27 -22l-33 6t-21 -8q-12 6 -19 14t-14 15t-16 13t-25 10q4 8 -4 25t-24 21q8 14 -7 35t-23 47q4 22 6 48t24 30q-2 14 -6 24l-8 20q14 12 20 29t10 35t10 36t22 30q18 60 28 89t15 57t12 60t25 80q-2 30 6 53t17 46t15 48t-2 59q-28 -2 -40 -19t-16 -45 q-16 -16 -39 -15t-41 -5q-70 28 -116 80t-74 122zM374 914q34 -28 69 -50t55 -60q78 32 138 81t110 109q-16 1 -31 1q-86 0 -172 -19q-101 -22 -169 -62zM378 214q60 8 110 25t97 37t92 41t95 39q6 20 22 32t32 23t28 24t10 37q-64 34 -117 41q-26 4 -51.5 3.5t-48.5 -3.5 q-47 -7 -90 -21t-87 -20q-22 -58 -46 -126t-46 -132z" />
<glyph unicode="c" horiz-adv-x="1052" d="M0 594q30 90 85 155t113 129q26 12 39 25t28 24l30 22t27 27q42 10 73 29t61 40t62 39t74 28q16 18 38 29t45 22t44 23t33 32q10 -16 28 -11t34 11q10 2 17 -4t13 -12t11 -7t9 9q10 0 6 -10t-6 -14q16 2 27 -7t35 -11q8 -10 4 -15t-4 -17q60 -18 76 -57q9 -21 9 -42 q0 -19 -7 -39q-14 -42 -50 -78t-78 -48q-96 -26 -181 -57t-139 -91q-48 -14 -85 -37t-70 -52t-62 -60t-61 -61q2 -28 -9 -43t-21 -31q4 -30 14 -53t22 -45q132 -40 281 -50t299 -12q14 -20 33 -37t35 -36t26 -42t4 -57q-28 -30 -62 -55t-68 -51q-11 -1 -23 -1q-25 0 -56 3 q-9 1 -17 1q-37 0 -70 -15q-106 4 -216 26t-202 54q-20 22 -40 41t-54 27q-48 38 -78 93t-48 117t-24 127q-4 49 -4 95v30z" />
<glyph unicode="d" horiz-adv-x="1018" d="M30 250q6 22 17 37t11 43q16 52 32 102t20 102q6 16 22 22q5 51 5 102q0 46 -4 93q-9 99 -33 185q2 20 5 29t-1 13q-2 16 11 16h27q0 30 -11 60t-21 68q14 30 18 59t18 51q108 -34 207 -82t195 -70q72 -52 148 -103t138 -112t104 -139t48 -186q-2 -10 -4 -17t-4 -13 t-2 -15v-23q-60 -106 -151 -178t-200 -127t-227 -100t-230 -97q-48 12 -73 40t-38 65t-18 82t-9 93zM310 910q20 -76 30 -143t11 -134v-15q0 -60 -7 -122q-8 -70 -22 -152q20 2 37 9t34 15t36 15t45 9q6 12 17 20t21 18q42 16 83 34t76 41t63 53t46 72q-12 24 -32 43t-40 36 t-39 35t-31 44q-26 4 -46 15t-39 22t-40 21t-49 12q-44 22 -79 32t-53 26q-14 0 -22 -6z" />
<glyph unicode="e" horiz-adv-x="1068" d="M21 300q-3 34 3 62q6 30 25 54t13 52q10 2 12 11t16 7q12 36 26 68t29 62t30 61t29 69q-28 26 -41 57t-19 62t-10 64t-14 67q20 30 49 49t63 31t74 20t84 18q80 26 143 40t124 23t127 17t150 24q18 -18 34 -18q8 18 19 11t9 11q20 -34 51 -57t69 -39q2 -14 1 -21t-2 -13 t-1 -13t4 -21q-42 -68 -97 -93t-119 -36t-131 -23t-133 -52q-26 10 -47 0t-61 -6q-12 -12 -30 -17t-36 -11q8 -18 7 -37t5 -31q30 -3 63 -3q44 0 92 5q85 8 167 10q2 -10 -2 -13t-2 -11q14 -10 28 -25t28 -29t29 -23t35 -7q8 -16 11 -35t-5 -39q-32 -22 -64 -45t-67 -41 t-74 -29q-33 -9 -72 -9h-15h-15t-13 6q-16 -10 -45 -6t-45 -6q-22 10 -53 9t-55 7q-32 -42 -58 -90t-46 -102q57 -8 97 -8h16q45 2 85 7t82 10q30 4 71 4q16 0 35 -1q40 22 95 29t101 23q16 -6 28 -21t23 -28t23 -23t30 -8q8 -8 11 -19t5 -21t7 -17t17 -5q-30 -66 -69 -101 t-89 -53t-111 -28t-135 -24q-18 -4 -30 1t-28 5q-46 -10 -110 -18q-51 -6 -104 -6h-26q-66 2 -126 17t-98 53q-16 14 -21 33t-27 29q-2 26 -8 58t-12 67t-9 69z" />
<glyph unicode="f" horiz-adv-x="932" d="M-40 506q6 38 22 61t37 37t44 22t45 14l26 -10q18 -18 36 -28q14 6 19 19t9 29q6 18 13 36t17 36q-2 26 8 48q-14 10 -30 12q-4 0 -20 4q-24 18 -33 31t-17 25q-12 26 -30 42l-20 14l10 20q4 4 4 10t-8 18q-4 22 0 30l4 20q16 22 16 24l18 18q40 10 79 23t79 27 q38 12 77 25t79 23q14 10 30 13t30 5q12 2 22 3t14 7q24 8 56 18q50 14 132 31t184 27l34 2q10 -2 20 -1t20 1q90 0 114 -54q18 -10 32 -22t26 -24q6 -8 13 -14t11 -8q25 -38 25 -70q0 -12 -3 -22q-18 -26 -46 -30l-22 -12q-22 2 -33 2h-23q-50 0 -116 -6t-135 -17t-133 -27 t-112 -34l-36 -18q-14 -22 -16 -35t-4 -25q-2 -8 -3 -16t-3 -18q-34 -42 -34 -100q-14 -24 -18 -35t0 -27q30 -13 58 -13q7 0 14 1q34 4 68 10q46 8 95 14t101 6h64l-16 -16l10 -28q12 -6 17 -8t11 -6l10 -18q8 -4 15 -14t9 -30l-82 -116l-28 -8q-34 2 -60 -8q-14 -4 -28 -7 t-30 -3q-40 -8 -67 -12t-55 -8q-36 -4 -70 -11t-64 -19h-28q-16 0 -33 -5t-31 -9q-10 -8 -14 -17t-8 -19q-8 -28 -22 -46v-30q-16 -20 -19 -31t-7 -21q-4 -6 -6 -11t-2 -11q11 -20 11 -44q0 -11 -3 -24q-12 -68 -68 -94q-26 -2 -39 2t-27 10q-18 8 -32 10l-22 16 q-4 10 -10 20t-14 20q-16 20 -32 50q-7 35 -7 63q0 18 3 34q8 39 20 77q4 12 8 25t8 25q-52 28 -78 80t-30 100z" />
<glyph unicode="g" horiz-adv-x="1336" d="M0 384q0 20 5 34t1 36q52 110 118 205t158 167q14 12 24 24t19 24t21 21t30 13q42 48 100 88t122 77t127 74t115 83q22 -10 32 -6t22 0q14 -30 39 -42t50 -25t47 -31t34 -48q-12 0 -11 -9t5 -18t3 -18t-15 -9q2 -10 13 -11t11 -11t-5 -16t-1 -20q-40 -26 -89 -50 t-102 -51t-110 -58t-111 -71t-110 -89t-108 -103t-98 -111t-78 -113q4 -10 9 -15t9 -15q28 -2 55 -2q33 0 64 3q16 1 32 1q39 0 79 -8q6 4 8 12t10 12q114 12 212 37t200 53q-16 6 -29 11t-25 9q-10 10 1 17t19 15q-28 16 -45 40t-21 64q12 10 12 24t-12 22q-8 2 -10 0 t-3 -6t-3 -7t-10 1q2 18 9 30t11 28l138 92q22 -16 54 -35t67 -38t72 -38t69 -37q28 -12 50 -32t42 -41t41 -41t49 -34q-4 -26 2 -42t4 -40q-48 -86 -126 -133t-172 -78t-197 -55t-199 -62q-28 0 -49 -2t-40 -5t-37 -6t-40 -5q-8 2 -10 -3t-6 -9q-34 -6 -61 -6h-45 q-24 0 -49 -7t-45 -5q-150 8 -235 107t-95 275q2 10 -3 12t-9 6z" />
<glyph unicode="h" horiz-adv-x="1192" d="M-20 168q4 4 7 14t5 18t6 12t10 -2q-4 18 0 30t8 22t6 20t-6 22q32 44 42 95t12 93q14 14 25 40t17 53t5 52t-7 41q2 10 22 6q12 66 17 149t17 158t40 132t90 75q12 -42 31 -74t42 -61t46 -59t43 -68q-2 -38 -8 -88t-15 -102t-18 -100t-17 -82q2 -10 11 -12t3 -18 q48 12 100 22t104 22t101 27t91 37q10 78 26 156q9 45 9 90q0 34 -5 70q10 8 16 20t20 16q-8 32 -8 66v14q2 42 15 80t38 65t61 35q22 -32 38 -69t33 -74t36 -70t49 -57q6 -58 9 -120t5 -126q-16 -76 -35 -147t-27 -151q-14 -16 -22 -36t-16 -41t-18 -40t-24 -33 q8 -24 3 -45t11 -51q1 -10 1 -20q0 -39 -13 -66q-16 -34 -44 -58t-64 -38t-70 -26q-16 10 -31 21t-35 17q-26 48 -50 85q-22 34 -22 78v7q0 2 3 22t8 44t8 45t3 23q-46 -4 -96 -20t-97 -38t-88 -44t-67 -38q0 -6 -8 -29t-20 -48t-26 -45t-28 -20q2 -6 6 -12t0 -16 q-28 -8 -50 -21t-46 -22t-52 -9t-66 20q0 12 -10 21t-21 16t-19 12t-8 9q-10 -2 -8 14t16 8q-22 28 -27 49t-23 53z" />
<glyph unicode="i" horiz-adv-x="656" d="M112 304q10 24 13 55t4 63t2 65t5 63q14 84 41 160t43 158q4 18 -3 34t-3 30q2 8 12 11t12 13q6 22 3 36t7 34q10 16 25 47q12 24 12 51q0 7 -1 14q18 12 34 28t33 29t38 23t51 10q16 -20 21 -44l10 -48t15 -45t34 -33v-40t2 -47t9 -42t23 -25q-36 -96 -67 -190t-51 -189 t-25 -191q-1 -21 -1 -42q0 -75 14 -152q4 -22 4 -41q0 -32 -11 -53q-17 -34 -48 -51t-71 -19h-20q-29 0 -56 4q-20 28 -36 70t-30 87t-25 89t-19 78z" />
<glyph unicode="j" horiz-adv-x="1094" d="M-40 180q4 38 11 67t15 45q48 28 80 28q38 0 73 -12t69 -26q16 -6 22 -10t10 -6t9 -2h21q10 0 17 1t15 3l20 -2q12 -6 28 -6q20 0 50 10q14 6 23 8t19 4l16 16q18 6 27 14t16 18t13 22t16 26q8 10 15 20t15 20v20q26 58 46 121t36 127t27 124t19 108h-20q-50 0 -82 -1 t-58 -4t-55 -9t-73 -14l-30 -6q-30 -16 -60 -28t-60 -12q-52 0 -88 40q-38 26 -44 68q-10 12 -6 28q-8 24 -8 43v35v28h26q10 10 14 15t6 13l22 18q34 4 71 11t77 15q38 8 65 12t52 6t52 3t63 1h46q6 8 13 9t11 1q10 0 16 -2t10 -4q56 10 104 13t86 3h37t33 -2h66h44 q10 2 32 2q32 0 41 -1t33 -5q28 -4 51 -7t47 -3h30l6 -20l16 -20q4 -10 13 -18t19 -18q20 -20 39 -46q14 -20 14 -55q0 -11 -1 -23l-14 -22q-10 -4 -24 -18l-18 -16q-22 -2 -38 -3t-32 -1q-30 0 -61 2t-65 4h-28h-19h-19h-26h-24t-22 -2q-4 -52 -12 -92t-22 -84 q-34 -162 -79 -308t-103 -262q-52 -58 -101 -102t-109 -62q-30 -4 -53 -9t-45 -11q-10 -2 -21 -4t-21 -6q-30 6 -57 9t-49 3l-26 8q-20 6 -31 10t-20 7t-20 5t-35 4q-30 -12 -56 -12q-36 0 -78 30t-70 128z" />
<glyph unicode="k" horiz-adv-x="1322" d="M21 256q-3 12 5 24q10 0 24 4q-12 16 -11 19t-5 9q-4 12 4 15t16 7q8 98 34 182t58 162t63 158t51 172q22 22 35 52t28 60t34 59t53 47q28 -2 50 -15t54 -11q6 -10 11 -20t13 -20l30 6q22 -18 39 -45t23 -57t-2 -57t-38 -43q2 -10 1 -15t-3 -9t-2 -8t6 -12 q-40 -30 -60 -84t-22 -96q24 24 53 47t60 45t60 42t53 40q66 60 127 97t129 83q16 4 25 1t19 -7q0 12 -7 14t-5 16q30 8 52 19t48 21q18 -18 34 -37t44 -23q10 -22 24 -33t28 -21t25 -24t13 -44q-8 -14 -17 -30t-17 -38q-40 -36 -81 -64t-83 -54t-86 -52t-90 -62 q-10 -14 -25 -25t-31 -22t-30 -23t-22 -28q-6 -2 -12 -2t-12 -2q-6 -14 -19 -22t-17 -22q30 -64 78 -98t108 -49t130 -16t146 -1q8 2 7 9t9 5q48 -16 74 -45t62 -57q-4 -76 -46 -126t-112 -80q-32 -1 -61 -1q-59 0 -108 5q-73 8 -143 38q-4 2 -8 10t-8 12q-12 6 -29 5t-29 3 q-16 8 -50 31t-62 43q-36 28 -68 56t-56 60q-6 8 -16 9t-18 5q-58 -36 -98 -90t-76 -110t-76 -106t-102 -76q-18 0 -32 6t-26 15t-24 17t-26 12q0 24 -9 44t-18 38t-13 35t8 33q-12 12 -36 26q12 12 11 22t-5 20t-7 22z" />
<glyph unicode="l" horiz-adv-x="1092" d="M21 310q3 40 13 76q4 8 5 16t3 18q8 32 17 62t25 52q-8 18 0 40t18 40q28 76 47 129t39 105q34 90 64 178t54 190q16 10 24 14q12 4 20 6q36 -18 84 -35t80 -17q16 -10 20 -15t8 -9q22 -26 38 -53q12 -20 12 -48q0 -11 -2 -23q-12 -18 -18 -18q-10 -40 -21 -68t-23 -56 q-14 -30 -26 -60t-20 -74q-8 -10 -11 -18t-7 -18t-9 -21t-15 -19q-6 -52 -19 -84t-27 -64q-24 -58 -43 -116t-23 -132q10 4 19 4h17q18 0 42 -6q60 32 131 38t141 8h56t52 4q18 -10 23 -11t15 -1q14 0 24 -2q24 -22 46 -32t46 -18q22 -8 43 -17t41 -25l14 -86q14 -18 12 -24 q0 -16 -8 -24l4 -22q-30 -6 -41 -14t-21 -18q-16 -2 -23 -2h-13q-28 0 -68 -10q-54 18 -112 18q-22 0 -46 -2l-48 -4q-24 -4 -49 -6t-51 -2l-46 -12q-56 -18 -122 -36t-132 -18q-100 0 -158 50q-10 22 -18 30q-6 8 -11 17t-7 25q-24 28 -38 65t-19 76q-3 24 -3 49q0 15 1 30 z" />
<glyph unicode="m" horiz-adv-x="1668" d="M11 265q1 57 19 99q0 2 16 40t41 98t57 133t64 142t61 127t49 88q16 24 29 45t25 41q36 62 69 103t97 65q44 -18 64 -42l4 -22q8 -20 24 -20q22 -6 37 -11t33 -9q14 -16 26 -38q16 -24 31 -47t24 -46t10 -47t-9 -50l2 -20q10 -18 4 -50q-2 -14 -2 -29t4 -33 q36 -28 64 -28q32 0 59 15t51 31q16 12 32 21t32 11q36 34 65 60t61 52q60 48 116 104t90 140q20 12 42 12t46 -10t46 -20q6 -4 11 -6t9 -4q0 -20 16 -34q8 -6 10 -8t6 -4q30 -16 38 -32q14 -46 50 -70q-4 -20 1 -37t13 -35l4 -12t6 -14l-38 4l6 -38q4 -28 -5 -62t-21 -54 q2 -52 3 -81t-3 -54t-11 -47t-19 -48q1 -23 2 -45q0 -102 -31 -188q-37 -105 -77 -197q-4 -10 -9 -20t-9 -20q-18 -6 -32 -13l-30 -15q-20 -10 -37 -18t-39 -8q-78 58 -81 202v13q0 141 61 353q10 6 10 24l-18 20q-8 0 -15 -2t-11 -14q-52 -38 -114 -79t-129 -76t-136 -57 t-135 -22q-168 0 -252 170l-16 30l-16 -26q-6 -8 -18 -33t-24 -57t-21 -65t-7 -57q-18 -18 -38 -42t-30 -54q-4 -16 4 -30q-4 -18 -18 -28q-8 -10 -17 -19t-15 -19q-4 -10 -5 -20t-3 -20q0 -14 -4 -26q-34 -70 -54 -91t-54 -21q-16 0 -52 6q-26 28 -47 77t-32 105 q-10 51 -10 104v9z" />
<glyph unicode="n" horiz-adv-x="1156" d="M-30 314q98 208 214 444t220 466q46 -18 91 -41t82 -53t63 -69t34 -87q-4 -12 -9 -9t-9 -3q8 -10 9 -14t0 -8t-1 -11t6 -19q-8 2 -11 -2t-13 0q8 -22 5 -36t-9 -25t-10 -24t2 -33q-6 0 -9 -3t-5 -6t-5 -6t-9 -1q4 -33 4 -66v-22q-2 -44 -3 -89v-30q0 -31 1 -64 q2 -49 14 -101q72 42 115 108t70 148t41 176t30 192q18 18 28 44t18 55l16 58t20 53q30 -4 51 -19t39 -32t38 -32t50 -19q24 -34 44 -66t26 -68q-10 -16 -15 -36t-11 -40t-16 -37t-28 -29q-6 -52 -15 -95t-18 -85t-15 -87q-4 -34 -4 -73v-26q-16 -46 -34 -98t-28 -94 q-32 -26 -50 -62t-38 -72q-8 -8 -10 -4t-14 6q2 -8 0 -12t-5 -7t-4 -9t3 -16q-28 -12 -50 -34t-47 -40t-60 -24q-8 -1 -17 -1q-31 0 -74 15q-82 60 -145 138t-103 186q-18 -4 -26 -21t-15 -35t-14 -33t-21 -15q-2 -16 -11 -28t-17 -25t-12 -28t4 -35q-16 -12 -20 -34t-9 -42 t-17 -34t-44 -12q-6 -8 -2 -10t6 -14q-22 4 -33 -3t-27 -9q-38 12 -63 42t-44 67t-34 75t-29 66q6 22 2 43t-14 35z" />
<glyph unicode="o" horiz-adv-x="1288" d="M26 226q-6 46 -6 88q0 63 14 119q24 93 69 172t103 146t112 131q12 -4 19 1t13 14t13 17t17 10q14 30 41 45t43 43q18 4 30 12t23 18t23 19t28 13v22q36 16 53 37t41 51q18 2 29 2t33 4q16 28 29 42t39 30q24 -12 53 -16t51 -26q2 -20 12 -31t22 -20t23 -19t15 -28 q8 -2 11 2t11 2q6 -28 14 -37t16 -35q-10 -20 -15 -41t-25 -31q-2 -14 8 -15t12 -11q2 -18 -6 -26q48 -78 86 -165t86 -165q-2 -24 4 -46t15 -43t17 -43t12 -44q4 -28 0 -61t-14 -64t-26 -56t-38 -37q-28 -36 -68 -56t-74 -48q-22 -14 -49 -20t-55 -12q-22 -12 -52 -25 t-62 -24t-64 -16t-56 -3q-60 -22 -117 -29q-17 -2 -36 -2q-44 0 -97 11q-28 -4 -54 -4q-42 0 -79 10q-61 16 -108 51t-82 84t-57 103zM288 304q34 -28 80 -34q28 -4 56 -3q19 0 39 1q49 4 96 13t87 9q84 20 144 53t126 67q8 22 21 36t15 42q-10 16 -12 25t-2 29 q-44 62 -76 133t-72 133q-4 -8 -14 -16t-22 4q-4 -16 -14 -23t-22 -6t-25 6t-23 13q-58 -46 -116 -90t-104 -102q-8 -4 -10 -3t-12 -3q-16 -38 -39 -69t-45 -63t-38 -68t-18 -84z" />
<glyph unicode="p" horiz-adv-x="1074" d="M52 538q4 10 6 18t14 6q-3 17 -3 32q0 19 4 36q7 32 21 61t34 57t38 56q14 2 17 -4t13 2q26 20 36 42t10 50q14 42 34 85t44 79t53 64t61 42q24 20 60 37t78 26t85 10h8q38 0 71 -9q10 -4 11 4t7 8q84 -10 150 -34t112 -64q32 -50 61 -108t44 -121q14 -59 14 -121v-8 q-1 -66 -29 -134q-58 -72 -141 -117t-179 -73t-199 -48t-201 -40q1 -31 1 -64v-33q-1 -51 -10 -102t-27 -99t-48 -88q-34 0 -70 -9t-64 -15q-14 8 -25 15t-31 9q4 20 -10 41t-28 43t-19 42t19 38q-14 14 -14 36q14 24 25 66t18 83q4 26 4 49q0 14 -1 26q-4 34 -40 50 q2 4 8 4t12 2q-16 12 -19 34t-15 38zM458 740q4 -10 13 -15t13 -15q46 24 93 27t95 25q50 22 107 35t95 49q-24 22 -70 39t-100 21q-13 1 -25 1q-42 0 -84 -10q-55 -13 -95 -49q-12 -36 -20 -57t-22 -51z" />
<glyph unicode="q" horiz-adv-x="1280" d="M-10 364q4 76 30 137t64 111t83 93t87 83q10 -10 14 -3t20 3q0 10 9 25t21 28t27 21t29 6q18 32 52 55t69 47t63 52t34 70h34q-20 29 -20 59v5q2 32 21 53t53 26q6 1 13 1q29 0 65 -18q20 -4 26 7t20 13q76 -34 137 -82t109 -110q-4 -10 -15 -12t1 -14q58 -72 103 -153 t83 -171q7 -49 7 -97q0 -19 -1 -38q-4 -67 -20 -143q-28 -58 -70 -101t-76 -93l30 -66q-2 -12 5 -28t14 -33t11 -32t-2 -25q6 -10 22 -6q-6 -2 -10 -13t16 -7q-4 -18 -15 -41t-30 -44t-45 -36t-56 -15q-34 18 -53 34t-45 42l-62 144q-122 -54 -260 -88t-294 -44 q-84 24 -152 63t-114 103q2 28 -2 49t-9 39t-6 38t5 46q-4 16 -10 30t-10 30zM224 258q16 -8 37 -10t39 -6q96 28 197 52t195 58q-38 46 -72 91t-56 87q6 10 10 24t10 27t18 23t32 10q30 -12 71 -14t75 -8q34 -24 58 -57t50 -67q36 34 62 74t42 92q-10 26 -25 60t-35 65 t-44 56t-52 35q-14 2 -18 -5t-20 -3q-90 -64 -180 -127t-166 -141q-72 -60 -132 -140t-96 -176z" />
<glyph unicode="r" horiz-adv-x="1108" d="M20 172q6 36 12 68t15 60t15 56t-6 58q8 -6 12 3t6 24t2 30t-2 25q20 52 33 107t24 109t23 106t32 96q22 4 49 -5t33 -23q52 40 92 97t82 111t93 96t129 50q40 -30 89 -61t81 -81q16 -8 27 -17t27 -19v-24q24 -22 39 -51t27 -62l24 -66t28 -63q-4 -10 -4 -17t3 -15t5 -16 t0 -22q-6 -88 -57 -142t-123 -89t-154 -59t-148 -52q0 -8 7 -8t5 -10q48 -30 76 -48t53 -30t54 -21t81 -21t81 -19t53 -12t49 -8t71 -7q18 -18 31 -43t17 -50t2 -48t-14 -37q2 -6 9 -5t15 -1q-12 -8 -20 -20l-16 -24t-18 -21t-28 -11q-33 -13 -75 -13q-37 0 -81 10 q-94 21 -238 77q-72 28 -117 49t-78 42t-60 45t-65 58q-22 -80 -39 -121t-51 -85q-26 4 -36 -6t-22 -18q-18 -4 -26 0t-14 9t-15 10t-27 5q-4 16 -9 30t-27 10q4 16 2 27t-5 20t-5 18t2 23q-10 0 -16 14t-14 28zM434 646q70 8 146 39t144 59q-8 62 -43 100t-73 50 q-22 -32 -49 -58t-52 -53t-45 -60t-28 -77z" />
<glyph unicode="s" horiz-adv-x="950" d="M20 816q8 26 12 42t0 42q14 42 45 72t68 51t77 35t76 24q80 34 171 65t186 55t195 31l36 2q84 0 174 -27q6 -20 18 -38t25 -36t23 -35t12 -35q20 -18 32 -39t4 -55q-20 -16 -39 -29t-41 -23q-56 14 -112 14q-19 0 -38 -2q-76 -6 -136 -10q-18 18 -43 18t-52 -8l-54 -16 t-51 -4q-20 -16 -49 -21t-63 -9q-2 -10 4 -13t2 -13q12 -14 31 -20t40 -12t37 -15t22 -29q30 0 52 -14t36 -34t21 -43t7 -41q6 -16 14 -14t18 -8q6 -26 30 -53t38 -59q4 -50 6 -89v-9q0 -35 -14 -70q-30 -74 -83 -132t-120 -103t-143 -77t-148 -54q-8 2 -16 0t-4 10 q-16 -14 -35 -18t-41 -3t-45 3t-43 -2q-14 14 -25 27t-17 33q-10 0 -9 10t-7 10q12 20 11 23t-6 5t-9 5t-2 9q8 16 6 37t-4 43t3 42t29 32q26 -3 51 -3q40 0 78 8q61 13 115 37t103 52t97 50q6 18 17 30t23 22t22 22t14 30q2 14 -7 17t-9 15l-22 6q-38 22 -86 37t-82 33 q-22 -12 -41 -6t-49 12q-68 4 -131 14t-121 36q-4 10 -10 18t-22 4q-12 16 -24 31t-22 33q4 24 6 41t-12 33z" />
<glyph unicode="t" horiz-adv-x="982" d="M0 1076q2 16 8 24t10 14l6 30l26 -2h56q64 0 130 5t136 11q40 4 81 8t85 8q8 18 16 34l20 10q36 2 51 -9t25 -21q44 4 89 9t91 13q68 10 137 18t133 8q28 0 54 -2t48 -6l20 -14q6 -12 17 -22t23 -20q24 -22 48 -52q19 -24 19 -66q0 -10 -1 -22q-16 -24 -24 -28l-18 -24 l-20 2q-12 0 -22 -3t-20 -7q-8 -4 -16 -7t-18 -5q-18 0 -29 1t-23 1q-50 0 -108 -7t-114 -15q-40 -6 -77 -10t-67 -6q-14 -44 -28 -78t-30 -66q-16 -34 -29 -69t-25 -75q-20 -32 -33 -59t-21 -61q-24 -30 -36 -63t-18 -57l-8 -24q-12 -12 -14 -19t-10 -13q-2 -22 -14 -44 q-4 -10 -6 -19t-2 -13q0 -20 -10 -26q2 -10 0 -21t-4 -21q-6 -24 -4 -38q6 -8 11 -14t7 -16q12 -8 18 -10q8 -6 24 -14l18 -20q3 -15 3 -29q0 -38 -21 -63q-30 -38 -102 -38h-24q-10 10 -12 16q-16 6 -26 10t-18 16q-26 12 -42 20l-18 10v24q-14 18 -21 40t-11 44 q-4 18 -9 34t-13 28q-1 15 -1 30q0 96 23 166q26 80 54 154q16 40 32 81t28 85l18 20q14 32 23 53t19 43q6 14 11 27t9 23q-12 0 -22 -1t-20 -3q-12 -2 -22 -3t-20 -1q-14 0 -20 2q-22 -10 -48 -10h-20q-6 0 -11 1t-9 1q-20 0 -32 -6h-46h-20q-4 0 -10 -1t-10 -1 q-14 0 -30 3t-34 13q-24 32 -32 34l-18 24q-2 12 -6 23t-8 25q-8 20 -15 43t-7 55z" />
<glyph unicode="u" horiz-adv-x="1198" d="M103 601q1 115 31 205v22q6 44 12 73t10 55q6 44 18 82q28 6 42 23t24 31q28 2 38 -8t20 -32q10 -18 25 -40t45 -34q4 -16 11 -33t15 -37q16 -34 29 -71t15 -71q-20 -38 -31 -88t-14 -101q-1 -19 -1 -38q0 -31 3 -60q5 -47 17 -79l12 -26l34 4q60 16 109 35t91 45t80 61 t80 81t73 105t52 123t32 127t15 119q34 12 34 48l-4 22q-8 12 0 28q12 38 56 58q32 -20 57 -44t47 -48q4 -44 14 -76t22 -62q10 -28 19 -55t13 -65q-16 -52 -23 -96t-15 -92q-32 -70 -62 -124t-48 -94q-10 -10 -17 -23t-15 -27q-4 -6 -10 -18t-10 -16l-40 14l-8 -50l-28 -8 l-20 -24q-38 -66 -80 -111t-95 -80t-120 -65t-151 -66q-34 4 -59 5t-47 3q-38 0 -94 6q-6 16 -18 22t-22 6q-34 16 -51 47t-33 67q-10 22 -20 41t-22 39l34 10l-44 48q-4 6 -10 11t-10 11l-2 32q-5 118 -5 220v33z" />
<glyph unicode="v" horiz-adv-x="994" d="M134 1089q0 39 10 61q12 24 33 39t39 33q44 -4 70 -36q21 -26 21 -49q0 -5 -1 -11q42 -26 67 -67t40 -92t21 -108t10 -112t8 -105t16 -86q74 106 124 189t102 159t116 154t166 176q20 -2 33 -8t23 -10t24 -7t38 1q8 -20 12 -29t7 -18t8 -23t17 -40q6 -6 4 -16t-3 -19 t-1 -13t10 0q-6 -28 -21 -51t-13 -55q-46 -60 -101 -124t-110 -132t-105 -143t-86 -157q-10 0 -15 -6t-9 -13t-9 -13t-13 -6q-2 -28 -13 -53t-27 -48t-35 -44t-37 -37q6 -26 1 -39t-3 -39q-30 -80 -91 -107q-25 -11 -49 -11q-34 0 -66 22q-22 16 -37 41t-41 31q2 11 2 23 q0 23 -8 45q-12 34 -26 36q-6 42 -18 90t-22 97t-17 96q-5 37 -5 69v18q2 20 -7 36t-13 38q-6 33 -6 70q0 14 1 27q3 51 3 97q0 44 -5 95t-9 98t-4 86z" />
<glyph unicode="w" horiz-adv-x="1690" d="M40 316q6 28 18 95t29 147t36 161t39 141q18 52 41 110t50 107t59 84t68 41q10 -14 22 -20t22 -10q28 -40 55 -68t63 -56q-10 -50 -29 -111t-40 -122t-41 -119t-32 -100q-12 -34 -20 -76q-18 -74 -34 -202q24 6 52 26t54 42q30 24 60 54q38 38 64 70t49 66t47 75t58 97 q30 48 63 103t66 106t65 93t58 66q16 -20 41 -38t53 -28q12 -18 23 -33t21 -27q12 -18 23 -34t21 -32q-2 -14 -6 -36t-9 -48t-11 -53t-12 -51l-24 -114t-11 -60t-4 -37t-1 -41q-2 -20 2 -40q2 -18 8 -38t16 -36l80 62q34 26 65 71t60 104t57 129t56 142q42 106 85 206 t83 154q44 -28 77 -57t57 -63t39 -78t21 -104q-36 -70 -69 -144t-63 -148q-40 -96 -83 -192t-95 -183t-116 -160t-148 -123q-22 6 -38 6q-32 0 -54 -18q-70 32 -111 94t-81 138l-12 24t-12 22l-28 52l-16 32l-24 -22l-36 -32l-20 -20q-52 -48 -105 -95t-112 -84t-124 -60 t-141 -25l-44 22q-38 20 -64 36t-60 50q-10 18 -17 34t-15 32q-22 40 -36 72t-28 72z" />
<glyph unicode="x" horiz-adv-x="1038" d="M-22 192q2 50 25 98t56 91t71 82t72 73q6 20 23 35t36 29t38 30t31 38q-14 46 -54 93t-74 97q-4 10 -15 6t-15 2q4 26 -11 56t-37 52q6 22 14 53q3 12 3 26q0 20 -7 43q0 16 6 31t12 28t10 26t-2 25q26 4 46 -2t38 -14t33 -12t31 2q-2 -10 0 -14t6 -6t8 -5t4 -9 q32 -10 70 -43t73 -73t63 -80l42 -60q48 30 104 71t116 85t121 83t119 63q34 -16 53 -39t32 -48t23 -52t28 -47q-16 -34 -35 -57t-27 -53q-42 -18 -100 -54q-52 -32 -127 -86t-181 -144q24 -28 40 -54t26 -44q10 -22 18 -40q18 -14 30 -32t23 -37t25 -36t36 -27 q12 -60 34 -107q20 -43 20 -89v-8q-14 -46 -41 -76t-39 -62l-36 -12t-28 -18l-114 82q-30 100 -87 192t-109 158q-82 -62 -155 -137t-133 -161q-4 -42 -10 -69t-21 -45t-38 -31t-59 -27q-66 48 -96 119q-17 41 -17 82q0 29 9 59z" />
<glyph unicode="y" horiz-adv-x="820" d="M84 88l2 20q4 10 7 21t7 23q8 28 19 56t33 50q4 14 18 45t48 93q28 48 44 76t26 44q-20 32 -48 58q-26 50 -45 96t-29 82q-2 26 -6 44t-8 38q-6 22 -10 44t-4 46q-10 14 -12 28l4 20q6 14 2 37t-10 47q-4 20 -9 44t-3 48t13 45t37 37l34 2q18 -10 35 -19t33 -19 q22 -10 42 -20t42 -26l14 -28l26 -22v-22q2 -8 2 -22q0 -26 8 -32l8 -24q0 -28 6 -53t12 -47t12 -46t2 -52q12 6 20 14q4 4 8 6t8 6l118 160l-4 20l42 40q16 16 31 30t25 30l22 16q64 100 182 124l28 4l8 -26q8 -22 33 -40t53 -34l18 -12q10 -20 10 -30t-2 -18l8 -20 q-16 -48 -39 -70t-45 -40q-18 -16 -33 -29t-23 -33l-14 -16q-42 -24 -54 -64l-6 -24h-24q-2 0 -9 -7t-21 -35q-14 -20 -20 -26l-10 -10q-2 -8 -5 -15t-7 -17q-26 -26 -32 -39t-14 -29t-15 -31t-23 -31l-10 -30q-14 -12 -24 -29t-20 -35q-10 -22 -22 -42t-30 -36 q-10 -30 -20 -47t-32 -39q-20 -80 -94 -174q-2 -18 -11 -35t-19 -33q-4 -6 -8 -13t-6 -11l-4 -20q-10 -16 -22 -28l-22 -22q-4 -6 -14 -16l-30 -12q-146 20 -178 156z" />
<glyph unicode="z" horiz-adv-x="1122" d="M-16 134q-4 38 -4 70q0 55 12 97q20 67 60 143q24 8 43 22t35 28t32 25t30 13l18 10q34 40 82 71t100 63q42 24 85 51t77 59q16 -2 28 6q8 10 8 26q4 4 9 7t9 7q14 10 38 24t32 36l44 42l-60 -2q-46 -2 -97 -6t-87 -8q-30 -4 -62 -5t-70 -3q-62 40 -89 119q-14 42 -14 83 q0 36 11 72q14 2 24 7t20 9q18 2 24 0t16 -2q56 10 93 13t69 3q34 0 66 -3t62 -13q70 0 142 6q20 2 40 2q53 0 108 -12q37 12 74 12q16 0 33 -2q53 -8 93 -48q2 -34 17 -51t39 -25q9 -32 9 -60q0 -23 -6 -42q-13 -44 -43 -78t-71 -61t-81 -51q-12 -18 -29 -29t-31 -27 q-66 -84 -151 -147t-175 -121q-64 -42 -127 -85t-121 -93l-20 -18l18 -20q24 -24 56 -24q18 0 35 5t33 11q16 4 28 9t22 5h26q16 10 32 16t32 10t30 8t30 14q44 0 83 12t79 28q24 10 47 18t47 12q8 -10 19 -17t21 -13q26 -16 28 -30l6 -56l38 38q24 -20 26 -45v-11 q0 -22 -6 -54q-64 -64 -160 -100t-204 -70q-22 -6 -45 -12t-45 -14l2 34l-44 -28q-8 -6 -13 -12t-9 -12q-52 -14 -86 -20t-64 -12q-34 -8 -64 -13t-64 -5h-22t-24 2q-10 4 -22 8l-24 44l-32 -24q-14 8 -22 15t-18 17q-22 16 -38 33t-18 33l-2 20l-20 4q-10 28 -16 41t-20 21 z" />
<glyph unicode="{" horiz-adv-x="918" d="M46 800q-16 64 12 120t86 68q18 -10 28 -8t26 -10q28 28 66 54t74 16q2 8 7 12t10 6t10 6t5 14q30 8 59 19t57 27q16 60 31 116t29 113t27 120t25 137q2 36 -4 66q-4 18 -8 30t-14 20q16 4 24 26t0 32q32 10 69 13t73 6t68 8t56 19q100 4 208 9t202 9q32 -10 78 -11 t91 -7t81 -25t50 -67q30 -4 43 -15t17 -28t2 -36t-2 -39q-50 -38 -138 -53t-184 -21t-186 -6t-142 -8q-28 -4 -54 -7t-48 -7q-12 -58 -33 -150t-42 -182t-38 -158t-23 -76t-33 -20t-67 -31t-92 -45t-108 -58q20 -18 57 -39t73 -42t64 -39t32 -28q2 -12 0 -29t-7 -35t-9 -32 t-4 -16q-30 -94 -51 -161t-38 -126t-35 -117t-44 -136q34 6 96 12q52 4 138 8t218 4q2 -20 16 -29t29 -15t27 -14t12 -28q36 -10 47 -28t6 -40t-19 -45t-28 -41q-18 4 -34 -8t-28 -28q-54 8 -109 2t-101 -12q-8 0 -7 -9t-5 -11q-58 20 -120 15t-127 -19t-132 -31t-135 -19 q-26 18 -43 45t-28 58t-18 64t-13 63q-2 22 7 35t21 23q28 116 66 233t72 229q10 30 15 57t13 55q-42 28 -86 62t-84 58q2 16 -20 36t-46 22q2 28 -13 49t-23 49z" />
<glyph unicode="|" horiz-adv-x="680" d="M1 100q-1 42 12 84t34 80t39 66l28 64t30 73t32 84t28 77q0 36 23 98t49 129t46 126t12 87q24 36 44 106t44 141t56 128t80 69q54 -58 81 -124t41 -156q-10 -28 -28 -75t-41 -105t-47 -120t-45 -119t-35 -102t-16 -69q-16 -38 -30 -92t-30 -109t-38 -107t-54 -86 q-4 -10 3 -19t11 -19q-22 -18 -32 -40t-14 -44t-6 -44t-10 -40q-16 -8 -30 -20t-27 -24t-29 -22t-38 -14q-40 14 -63 29t-55 31q-24 36 -25 78z" />
<glyph unicode="}" horiz-adv-x="986" d="M-594 -108q0 28 12 40t24 26q46 2 83 7t71 10l68 10t76 5q14 8 51 13t85 9t101 6t101 2q24 84 53 165t51 161q14 50 28 103t28 97q6 8 33 23t69 36l94 47t108 60q-20 18 -57 39t-73 42t-65 39t-31 30q-4 10 2 32t14 45t15 41t7 22q18 68 38 128t39 123t36 133t31 158 q-78 8 -145 7t-107 -7q-96 -16 -148 -29t-72 -23q-34 2 -54 15t-32 33t-21 44t-21 50q8 18 4 51t-20 49q14 4 21 27t1 33q30 10 62 13l64 6t61 8t51 19q88 4 183 10t179 10q30 -10 70 -11t79 -7t72 -24t45 -66q26 -4 37 -15t15 -28t3 -36t-1 -39q-18 -54 -29 -111t-26 -122 t-31 -135t-34 -138q-8 -30 -18 -72t-18 -70q44 -28 88 -62t84 -58q-2 -16 19 -35t45 -23q0 -28 15 -49t21 -47q16 -66 -12 -121t-86 -67q-18 10 -28 8t-26 10q-28 -28 -65 -54t-75 -16q-4 -18 -16 -18t-16 -20q-30 -8 -52 -25t-50 -33q-22 -72 -40 -129t-35 -113t-37 -117 t-48 -141q-2 -24 -17 -49t-31 -45q-18 4 -33 -8t-29 -28q-54 8 -109 2t-101 -12q-8 0 -7 -9t-5 -11q-58 20 -120 15t-127 -19t-132 -31t-135 -19q-26 18 -42 45t-27 58t-19 64t-14 63z" />
<glyph unicode="~" horiz-adv-x="1190" d="M0 488q0 20 18 36q12 30 25 49t27 39l40 56t44 56q12 10 20 14q22 16 44 31t50 25q50 18 98 19t82 -1q28 -2 53 -5t43 -7q30 -14 49 -26t37 -28q22 -12 35 -25t23 -27q6 -8 24 -26t44 -18q24 0 41 22t35 38q16 42 52 64q16 8 27 10t21 4q6 2 12 3t10 3l22 2h26 q34 10 60 10q30 -2 48 -15t18 -35t-18 -36q-12 -32 -25 -50t-27 -38l-40 -56t-46 -56q-8 -10 -20 -14q-20 -16 -42 -31t-50 -25q-52 -18 -99 -19t-81 1q-28 2 -53 5t-45 7q-28 14 -48 26t-38 26q-22 14 -34 27t-22 27q-6 8 -26 27t-42 17t-41 -23t-37 -37q-12 -40 -50 -64 q-16 -8 -27 -10t-21 -4q-6 -2 -12 -3t-10 -3l-22 -2h-26q-34 -10 -60 -10q-30 2 -48 15t-18 35z" />
<glyph unicode="&#xa1;" horiz-adv-x="534" d="M-20 258q36 106 49 178t22 138t22 137t49 175q22 64 55 89t69 25t74 -20t70 -44q6 -38 1 -93t-13 -115t-17 -115t-11 -93q-20 -22 -28 -36t-11 -30t-5 -40t-10 -68q-4 -22 3 -39t3 -33q-4 -8 -13 -12t-13 -14q-6 -26 -2 -41t-8 -37q-8 -16 -24 -51t-12 -73 q-18 -14 -33 -31t-33 -32t-39 -26t-51 -11q-16 20 -23 41t-15 39t-19 34t-35 30q0 18 5 44t9 51t2 46t-18 27zM168 1286q14 42 28 76q4 14 6 18t2 6t-1 5t-1 17l8 26q10 12 24 20t28 14q6 4 13 7t11 7l6 24l26 4q34 8 58 8h24q24 -22 38 -34t30 -22q20 -28 22 -41t6 -25 q2 -28 10 -34l28 -28l-24 -18l22 -38q-24 -18 -36 -26t-20 -17t-19 -23t-31 -46l-18 -26l-26 16q-8 4 -35 9t-47 11q-34 8 -64 13t-48 23l-8 14q-6 32 -12 60z" />
<glyph unicode="&#xa2;" horiz-adv-x="1000" d="M22 732q28 76 79 132t103 110q24 10 37 21t26 21t27 19t24 23q52 10 88 34t74 46q18 46 33 105t36 113t48 95t69 51q48 -52 74 -109t40 -131q8 0 14 -5t11 -9t9 -5t8 9q10 0 6 -9t-6 -11q16 2 26 -6t32 -10q8 -8 4 -12t-4 -14q56 -16 70 -50t2 -70t-45 -66t-73 -40 q-90 -22 -168 -48t-130 -78q-44 -12 -79 -32t-65 -44t-57 -51t-57 -51q2 -24 -8 -37t-20 -27q4 -28 14 -46t20 -38q124 -34 262 -42t276 -10q14 -18 31 -32t32 -31t24 -37t5 -48q-28 -24 -59 -45t-61 -43q-30 -4 -75 0t-81 -12l-56 4t-56 6q-4 -20 -4 -22q-22 -18 -31 -40 t-13 -44t-6 -44t-10 -40q-16 -8 -30 -20t-27 -24t-29 -22t-38 -14q-40 14 -63 29t-55 31q-20 30 -24 64t3 68t22 68t31 62h20q-12 2 -22 8q-18 16 -37 33t-49 23q-44 32 -73 79t-45 100t-21 109t-3 106z" />
<glyph unicode="&#xa3;" horiz-adv-x="1202" d="M-20 358l14 20q10 4 24 18l16 16q24 2 39 3t31 1q24 0 47 -1t49 -3q10 52 18 90t20 80q-20 2 -36 -3t-26 -9q-34 2 -54 14t-32 29t-21 39t-21 44q8 16 4 45t-20 45q14 2 21 22t1 30q30 8 62 11t64 5t60 7t50 17h20q24 72 51 138t55 124q50 58 98 100t106 60q30 6 52 10 t46 10q10 4 19 5t19 5q30 -6 57 -9t49 -3l26 -6l30 -12t19 -7t20 -4t35 -3q30 10 54 10q18 0 37 -6t39 -23t37 -46t31 -77q-4 -40 -11 -67t-13 -43q-30 -20 -46 -24t-34 -4q-36 0 -70 12t-68 26q-16 6 -22 9l-10 5t-10 2h-20q-8 0 -15 -1t-17 -3q-28 10 -46 10q-10 0 -23 -4 t-27 -8q-12 -4 -21 -6t-19 -4l-16 -16q-16 -6 -25 -14t-15 -18t-12 -22t-16 -26q-8 -10 -15 -19t-17 -19q14 -18 27 -18t25 2q30 -10 71 -11t80 -6t71 -22t44 -59q26 -2 38 -12t16 -25t3 -32t-1 -35q-34 -24 -88 -38t-118 -20t-130 -8t-124 -4q-12 -56 -21 -108t-15 -94 q66 0 97 1t57 4t54 9t72 14l28 6q32 16 61 28t57 12q50 0 86 -40q36 -20 42 -66q10 -12 8 -26q6 -24 7 -43t1 -35l-2 -28l-24 2q-10 -10 -14 -15t-6 -13l-20 -18q-66 -8 -146 -24q-38 -8 -65 -12t-51 -7t-49 -4t-61 -1h-23t-23 2q-4 -8 -11 -10t-11 -2q-20 2 -26 8 q-56 -10 -103 -13t-83 -3h-70q-12 2 -28 2q-4 0 -9 1l-15 3q-28 4 -50 7t-46 3l-30 -2l-6 20l-16 20q-4 10 -12 18l-18 18q-20 18 -38 45t-14 77z" />
<glyph unicode="&#xa4;" horiz-adv-x="1044" d="M28 254q2 36 15 69t35 65l-8 24q-10 66 2 122t34 104t53 88t61 76q-8 16 -17 13t-13 3q4 22 -9 48t-31 42q6 18 12 45t-4 57q0 14 5 26l10 24t8 22t-1 20q20 2 37 -3t32 -11t28 -10t27 2q-4 -16 5 -17t9 -11q22 -6 48 -27t52 -49q22 20 29 27t17 21l32 22l20 2 q10 14 19 23t25 19l36 2q30 -10 45 -14t29 -20l10 -22q16 -10 24 -18t14 -20l16 -12q44 32 88 60t88 44q28 -12 44 -32t26 -41t19 -42t25 -39q-14 -28 -30 -47t-22 -47q-34 -12 -78 -40t-90 -62l20 -36l20 -36l4 -22q0 -10 4 -22t8 -26q12 -24 18 -54q6 -42 -10 -92t-50 -76 q-4 -4 -9 -8t-9 -8q12 -42 28 -78t14 -74q-12 -38 -34 -62t-32 -52q-16 -4 -31 -9t-25 -15l-94 68q-18 58 -48 116q-36 -12 -72 -12q-26 -8 -52 -14t-56 -6q-28 0 -58 6q-8 0 -15 -1t-17 -1q-24 0 -48 6q-10 -12 -19 -25t-19 -25q-4 -70 -26 -96t-82 -48q-54 40 -79 99 t-7 117zM350 516q12 -6 32 -6q12 0 26 2t30 4q20 4 32 4q8 8 22 8q20 2 40 11t42 21q20 14 20 16v26q-10 14 -18 29t-16 31q-4 10 -8 17t-8 15q-16 -8 -24 -8t-20 4q-34 -26 -51 -40t-33 -34q-18 -18 -24 -27t-12 -19q-10 -14 -18 -26t-12 -28z" />
<glyph unicode="&#xa5;" horiz-adv-x="1154" d="M20 602q16 4 24 24t0 30q32 8 69 11t73 5t68 7t56 17h24q-12 28 -22 56t-16 52q-2 24 -6 42t-8 38q-6 22 -11 44t-3 46q-10 12 -12 28l2 20q8 14 4 37t-10 47q-6 20 -10 44t-2 48t13 45t37 37l32 2q18 -10 35 -19t33 -17q22 -12 42 -22t42 -24l18 -12q-2 -22 0 -26l4 -8 l20 -28v-22q0 -16 2 -22t6 -10l10 -24q0 -28 5 -53t13 -47q6 -22 11 -46t3 -52q12 8 20 14q4 4 16 12l116 160l-2 20l42 40q16 16 31 30t25 30l22 16q64 100 182 124l28 6l8 -28q8 -22 33 -40t53 -34l18 -12q10 -20 10 -30t-2 -18l8 -20q-18 -48 -40 -70t-44 -40 q-18 -16 -33 -29t-25 -33l-14 -16q-40 -24 -52 -64l-6 -24h-26q-2 0 -8 -7t-20 -35q-14 -20 -20 -26l-10 -10q-4 -8 -6 -15t-6 -17q-18 -20 -30 -36q30 -2 59 -5t54 -12t44 -26t29 -45q30 -2 43 -13t17 -26t3 -32t-1 -35q-30 -20 -75 -33t-99 -21t-113 -11t-117 -3 q-14 -34 -24 -51t-32 -39q-20 -80 -94 -174q-2 -18 -11 -35t-19 -33q-10 -14 -14 -24l-6 -20q-10 -16 -21 -28t-21 -22l-8 -8l-8 -8l-28 -12q-146 20 -178 156l2 20q4 10 7 21t7 23q8 28 19 56t33 50q4 12 15 36t35 70q-116 -18 -148 -32q-38 2 -60 14t-36 30t-24 40t-24 46 q8 16 3 46t-23 44z" />
<glyph unicode="&#xa6;" horiz-adv-x="618" d="M-30 100q0 42 12 84t33 80t39 66q40 110 65 160t41 76q20 28 34 36q28 6 59 -3t59 -26t48 -37t26 -34q4 -16 -2 -44q-4 -26 -20 -68t-48 -110q-2 -10 -11 -35t-7 -35q-22 -18 -31 -40t-13 -44t-6 -44t-10 -40q-18 -8 -31 -20t-27 -24t-30 -22t-38 -14q-40 14 -62 29 t-56 31q-24 36 -24 78zM264 881q-4 35 2 71t20 71t30 63l-2 4q24 36 42 102t40 133t53 121t79 66q54 -58 80 -124t42 -156q-16 -46 -51 -131t-75 -189q-2 -16 -3 -31t-5 -29q-16 -8 -27 -20t-23 -24t-26 -23t-34 -17q-38 10 -60 22t-54 26q-24 30 -28 65z" />
<glyph unicode="&#xa7;" horiz-adv-x="1292" d="M20 10q14 10 14 15t22 17q4 8 2 12t-5 7t-5 6t0 11q36 16 65 41t69 37q24 -14 59 -17t55 -19q26 4 39 2t41 -2q72 8 127 16t115 26q34 -2 61 3t41 27q-76 58 -173 95t-189 81q-28 24 -62 49t-64 35q-12 30 -37 54t-49 47t-40 50t-10 67q-4 14 -16 19t-8 23q22 96 82 173 t152 111q-58 38 -95 98t-41 144q10 46 20 86t4 82q22 10 35 26t29 30q216 70 417 114t409 36q18 -16 39 -30t51 -18q10 -22 25 -39l30 -34t27 -37t16 -48q-8 -4 -10 -7t-5 -6l-7 -7t-14 -10q-4 -8 -3 -12t4 -7l6 -6t1 -11q-36 -16 -65 -42t-69 -36q-24 14 -60 17t-56 19 q-24 -6 -37 -3t-41 3q-72 -10 -127 -17t-115 -25q-34 0 -61 -4t-41 -26q36 -30 80 -53t92 -43t96 -39t94 -41q28 -24 62 -49t64 -35q12 -32 37 -55t49 -46t40 -51t10 -66q4 -14 15 -20t9 -22q-22 -96 -83 -173t-151 -111q58 -40 95 -99t41 -143q-10 -46 -20 -86t-6 -84 q-20 -8 -33 -24t-29 -30q-218 -70 -418 -115t-408 -35q-18 16 -39 29t-51 19q-10 22 -25 39l-30 34t-28 36t-15 47zM392 706q4 -22 21 -32t37 -18t39 -16t29 -24q38 2 76 10t72 18q8 -2 12 -5t12 -7q50 24 106 40t104 40q-4 20 -21 31t-38 18t-40 15t-29 26q-36 -2 -75 -11 t-73 -19q-6 4 -10 7t-12 5q-50 -22 -106 -38t-104 -40z" />
<glyph unicode="&#xa8;" horiz-adv-x="1546" d="M456 1284q0 34 4 46t8 22q12 22 10 32l-8 36l30 2v42q28 2 42 2t26 3t27 9t49 20l28 12l12 -26q4 -8 23 -26t33 -32q22 -24 44 -44t26 -44q-8 -32 -13 -44t-11 -26q-26 -22 -60 -46q-12 -10 -16 -12t-5 -3t-2 -4t-7 -15l-20 -14q-16 -6 -30 -5t-28 3q-6 0 -15 1t-13 1 l-16 -16l-24 10q-22 10 -31 13t-19 11l-18 12q-8 30 -13 47t-13 33zM998 1246l8 26q4 10 3 36t1 44q2 32 0 60t10 50q42 22 66 30q20 -2 38 -4l36 -4q14 -2 18 -3t5 -1t5 1t16 5l24 -4q14 -6 23 -17t19 -21q8 -16 16 -20l24 -2l8 -24q10 -20 13 -29l7 -21l2 -22 q-14 -24 -23 -40t-13 -34q-22 -22 -34 -27t-22 -9q-22 -8 -30 -16l-20 -30l-20 18l-30 -28q-22 18 -32 27t-19 15t-24 13t-47 21z" />
<glyph unicode="&#xa9;" horiz-adv-x="1258" d="M42 658q-6 120 21 216t77 184h20q-2 4 -9 4t-9 6q6 16 17 30t23 27t21 29t11 36q42 30 73 66t59 74q32 6 56 30l46 46q18 2 40 10t45 14t46 7t45 -7q14 26 50 41t80 15t88 -17t74 -51q78 -34 132 -83t112 -111q24 -52 42 -112t38 -112q10 -84 7 -157t-7 -127 q0 -22 -20 -20q-10 -70 -47 -121t-81 -99l-164 -152q-46 -20 -89 -43t-89 -41t-98 -24t-112 10q-10 -2 -16 -4t-22 0q-34 8 -63 17t-65 21q-12 4 -19 12t-17 14q-80 28 -129 74t-84 97t-56 103t-27 98zM233 731q3 -5 8 -11t8 -12t-3 -6q10 -32 14 -67t14 -73t30 -77t60 -79 q32 -10 69 -21t72 -17t63 -7t44 9q34 10 64 20t52 26q18 12 43 22t52 22t47 29t18 41l128 138q26 52 40 106t13 115t-19 131t-58 158q10 0 5 7t-13 15t-12 13t8 -1q-16 14 -25 25t-15 20t-11 20t-15 29q-30 16 -60 24t-48 -2l-190 -68q-34 -12 -62 -25t-40 -37q-12 4 -13 -1 t-17 -1q-80 -90 -140 -188t-100 -214q4 -16 -6 -29t2 -29q-10 0 -7 -5zM355 730q-3 38 1 76t12 74q28 52 64 87t74 69q20 18 40 27t36 25q46 8 80 34t80 34q22 20 51 26t47 28q4 -10 14 -8l20 4q6 0 9 -3t5 -7t4 -4t6 6q8 -14 12 -20t16 -8l-2 -18q30 -14 34 -38t-8 -48 t-35 -43t-47 -25q-56 -10 -104 -24t-84 -48q-54 -12 -93 -45t-79 -65q-4 -16 -11 -24t-15 -18q-2 -18 2 -32l8 -28q66 -30 145 -42t159 -20q6 -12 14 -23t14 -23t9 -26t-3 -34q-20 -16 -40 -29t-42 -27q-16 0 -42 5t-48 -5q-58 8 -114 26t-102 42q-8 12 -17 25t-25 19 q-22 24 -32 57t-13 71z" />
<glyph unicode="&#xaa;" horiz-adv-x="930" d="M2 546l2 44l4 30q28 68 59 130t65 126l19 38l19 38q0 14 6 26q18 30 27 46t19 34q10 22 23 46t33 48l44 24q16 4 32 4l22 -2q24 22 47 47t45 59l14 18l54 12l18 -12q4 -2 15 -4t21 -4q28 -8 54 -16t46 -26l16 -26q6 -30 10 -48q4 -22 7 -44t5 -50q6 -22 11 -44t9 -44 t9 -42t11 -40l30 2l42 -24q20 -8 31 -16t19 -16l40 -60l-12 -20q-28 -50 -88 -84q4 -26 8 -53t0 -55q-28 -72 -81 -118t-125 -50l-20 4q-14 4 -24 10t-16 10l-24 12l-22 46q-6 14 -11 18t-9 10l-24 26l18 54q-20 -4 -41 -7t-45 -3q-10 0 -22 1t-24 3l-48 30l-18 -16l-12 -36 q-6 -16 -10 -29t-4 -23l-8 -32l-6 -8q-10 -12 -23 -19t-23 -13l-30 -24q-18 -4 -22 -4q-16 -4 -36 -4l-42 10q-22 18 -36 28l-22 20q-8 18 -10 28t-4 18zM428 840q22 2 42 3t42 5q-4 20 -9 40t-11 40q-18 -22 -34 -44t-30 -44z" />
<glyph unicode="&#xab;" horiz-adv-x="1160" d="M-16 386q-12 58 6 106t58 58q10 -8 17 -7t17 -9q18 26 43 49t49 13q4 16 12 16t10 18q40 14 78 44t74 65t70 70t66 63q14 -8 25 0t25 8q-4 -8 -2 -10t6 -2t9 -1t7 -7q10 -16 16 -23t9 -12t7 -11l12 -18q-4 -20 -5 -33t1 -23t3 -22t-1 -32q-54 -70 -95 -111t-80 -71 t-81 -58t-96 -70q22 -28 58 -49t72 -48t65 -67t39 -106q14 0 25 -30t7 -70q-10 -14 -18 -29t-20 -21q-12 -4 -29 4t-38 22t-42 29t-41 25q-22 10 -44 19t-42 25q-10 6 -15 18t-15 16q-18 6 -37 23t-40 36t-41 39t-38 36q0 14 -13 31t-29 21q0 24 -10 43t-14 43zM484 386 q-10 58 8 106t56 58q12 -8 19 -7t17 -9q18 26 43 49t49 13q2 16 10 16t12 18q40 14 78 44t74 65t70 70t66 63q12 -8 24 0t26 8q-4 -8 -2 -10t6 -2t9 -1t7 -7q10 -16 16 -23t9 -12t7 -11t10 -18q-4 -20 -4 -33t1 -23t2 -22t1 -32q-54 -70 -95 -111t-80 -71t-81 -58t-98 -70 q24 -28 59 -49t71 -48t66 -67t40 -106q12 0 24 -30t8 -70q-10 -14 -19 -29t-21 -21q-10 -4 -27 4t-38 22t-42 29t-41 25q-22 10 -44 19t-42 25q-10 6 -15 18t-15 16q-18 6 -38 23t-41 36t-41 39t-38 36q2 14 -12 31t-30 21q0 24 -10 43t-14 43z" />
<glyph unicode="&#xac;" horiz-adv-x="1430" d="M0 588q18 2 28 23t0 31q40 8 84 11t87 5t81 7t68 17q120 2 248 6t240 8q38 -10 92 -11t106 -6t95 -21t63 -54q4 -4 9 -5t9 -5q34 -4 46 -18t16 -32q8 -12 12 -22q4 -16 -2 -44q-4 -26 -20 -68t-48 -110q-2 -10 -11 -35t-7 -35q-22 -18 -31 -39t-13 -44t-6 -44t-10 -39 q-18 -8 -31 -20t-27 -24t-30 -23t-38 -15q-38 16 -61 30t-57 30q-24 36 -24 78t12 84t33 80t39 66q14 34 20 49t10 29q-68 -4 -139 -6t-136 -3t-122 -2t-95 -5q-126 -12 -196 -23t-98 -21q-46 2 -73 14t-44 29t-29 39t-28 46q10 16 5 46t-27 46z" />
<glyph unicode="&#xad;" horiz-adv-x="1246" d="M40 588q16 2 23 23t1 31q32 8 69 11t73 5t68 7t56 17q100 2 208 6t200 8q34 -10 80 -11t90 -6t80 -23t50 -60q30 -4 44 -14t18 -25t3 -33t-1 -36q-50 -34 -138 -47t-185 -18t-187 -5t-142 -6q-106 -12 -166 -23t-82 -21q-38 2 -60 14t-36 29t-24 39t-24 46q8 16 4 46 t-22 46z" />
<glyph unicode="&#xae;" horiz-adv-x="1278" d="M62 658q-6 120 21 216t77 184h22q-4 4 -11 4t-9 6q6 16 17 30t23 27t21 29t11 36q42 30 73 66t59 74q32 6 56 30l46 46q18 2 41 10t46 14t46 7t43 -7q14 26 50 41t80 15t89 -17t75 -51q76 -34 131 -83t111 -111q24 -52 42 -112t38 -112q10 -84 7 -157t-7 -127 q2 -24 -18 -20q-10 -70 -48 -121t-82 -99l-164 -152q-44 -20 -88 -43t-90 -41t-98 -24t-112 10q-10 -2 -16 -4t-20 0q-34 8 -64 17t-66 21q-10 4 -18 12t-18 14q-80 28 -129 74t-84 97t-56 103t-27 98zM253 731q3 -5 8 -11t8 -12t-3 -6q10 -32 15 -67t15 -73t29 -77t59 -79 q32 -10 70 -21t72 -17t63 -7t45 9q32 10 63 20t53 26q18 14 45 23t55 25q-24 6 -54 16t-64 24q-42 18 -67 31t-44 25t-34 26t-35 34q-18 -46 -30 -71t-34 -53q-16 4 -21 -3t-15 -11q-10 -2 -14 1l-8 6t-9 5t-15 2q-2 10 -4 19t-16 7q8 18 2 27t0 25q-6 0 -9 9t-7 17 q6 22 11 40t12 35t12 34t-1 35q4 -4 8 2t6 15t2 18v15q30 62 45 130t43 122q14 2 29 -3t19 -15q32 24 59 58t54 67t60 58t79 29q22 -16 50 -35t44 -49q8 -4 14 -10t16 -12q10 -26 18 -44t13 -38t10 -39t13 -37q-4 -14 0 -21t0 -23q-8 -54 -41 -86t-78 -53t-94 -35t-91 -30 q34 -30 50 -41t29 -18t30 -13t47 -12q30 -8 47 -12t31 -7t29 -5t41 -4l48 52q26 52 40 106t13 115t-19 131t-58 158q10 0 5 7t-13 15t-11 13t9 -1q-18 14 -27 25t-15 20t-11 20t-15 29q-30 16 -60 24t-48 -2l-190 -68q-32 -12 -60 -25t-42 -37q-12 4 -12 -1t-16 -1 q-82 -90 -142 -188t-100 -214q4 -16 -5 -29t1 -29q-10 0 -7 -5zM642 884q42 4 89 23t89 37q-2 36 -21 59t-41 31q-14 -20 -32 -36t-34 -32t-30 -36t-20 -46z" />
<glyph unicode="&#xaf;" horiz-adv-x="1546" d="M536 1310q2 60 6 118q6 24 18 36t24 22q36 0 65 1t56 4t54 5t59 2q18 6 64 10q40 4 111 3t191 -11q-2 -20 6 -29t18 -15t17 -14t3 -26q24 -12 27 -29t-6 -37t-25 -40t-30 -36q-14 4 -28 -6t-28 -24q-40 10 -82 8t-78 -4q-6 0 -8 -8t-6 -10q-40 22 -88 21t-100 -10 t-106 -20t-108 -9q-28 38 -26 98z" />
<glyph unicode="&#xb0;" horiz-adv-x="582" d="M176 1152q-8 58 4 105t35 87t52 74t57 66q10 -4 16 6t16 14q6 16 20 23t22 21q16 4 26 16t26 16l27 30t19 26h16t16 2q10 14 16 21t18 15q12 -6 27 -8t25 -12q2 -22 18 -27t20 -23q14 -12 18 -17t8 -17q-4 -10 -8 -21t-14 -17q12 -18 8 -26q24 -40 43 -82t45 -82 q-4 -24 7 -46t15 -44q6 -36 -3 -58t-25 -39t-38 -32t-44 -33l-2 6q-10 -14 -22 -16t-28 -6q-22 -14 -57 -26t-61 -8q-30 -10 -58 -15t-68 5q-74 -10 -122 29t-70 93zM412 1264q12 -10 33 -6t37 4q16 4 27 10t25 12q4 20 4 26q-10 12 -15 26t-15 26q-8 -8 -13 -8t-9 4 q-12 -10 -23 -18t-21 -20q-10 -16 -20 -26t-10 -30z" />
<glyph unicode="&#xb1;" horiz-adv-x="1146" d="M-62 178q16 4 24 24t0 30q32 8 69 11t73 5t69 7t57 17q98 2 206 6t202 8q32 -10 78 -11t91 -6t81 -23t50 -60q30 -4 43 -14t18 -25t3 -32t-2 -35q-34 -22 -85 -36t-111 -21t-126 -10t-127 -4t-114 -2t-89 -5q-106 -12 -165 -23t-81 -21q-38 2 -60 14t-36 30t-24 40 t-24 46q8 16 4 45t-24 45zM82 914q16 4 23 24t1 30q32 8 69 11t73 5t68 7t56 17q26 2 52 2t54 2q6 26 -2 43t-4 33q4 8 14 12t14 14q8 26 3 41t9 39l25 50t13 72q20 14 37 32t36 33t42 26t57 11q18 -22 27 -42t17 -39t21 -35t39 -28q0 -18 -6 -44t-10 -52t-2 -47t20 -27 q-8 -22 -15 -43t-13 -41q34 -6 78 -7t84 -8t73 -24t47 -57q30 -4 43 -14t17 -25t3 -33t-1 -36q-30 -20 -76 -33t-100 -20t-113 -10t-115 -5q-10 -56 -25 -119t-45 -153q-28 -62 -64 -87t-76 -25t-80 19t-76 43q-4 26 -2 62t7 76t12 82t13 82q-64 -10 -103 -18t-55 -16 q-38 2 -60 14t-37 30t-25 40t-24 46q10 16 5 46t-23 44z" />
<glyph unicode="&#xb2;" horiz-adv-x="792" d="M145 859q-3 33 1 64t14 53q62 72 119 127t133 97q12 12 18 16q-24 -4 -46 -8t-42 -8q-10 -4 -19 -5t-19 -3l-20 2q-12 4 -30 4q-10 2 -23 4t-25 6q-40 26 -45 54t-5 50v12t-2 10l2 36q12 16 19 28t17 22l20 12q54 12 110 19t108 7q154 0 242 -60l18 -24q2 -10 8 -18 t26 -16l20 -14q16 -24 24 -45t12 -45l-2 -22q-22 -52 -62 -88t-82 -68q-10 -8 -22 -14t-22 -12q-10 -4 -18 -9t-14 -9q-4 -4 -7 -11t-11 -13q-6 -4 -13 -9t-13 -9q6 2 22 2q30 8 64 14t68 6q58 20 104 20q6 0 12 -1t10 -1q24 -6 33 -15t13 -15l22 -44q22 -16 28 -35t2 -37 q-6 -30 -34 -52t-62 -22l-28 -14q-40 -6 -82 -13t-88 -15q-58 -10 -117 -20t-119 -16q-18 2 -22 4q-36 0 -67 5t-59 15q-38 26 -52 57t-17 64z" />
<glyph unicode="&#xb3;" horiz-adv-x="750" d="M145 1262q-7 26 5 54l6 46q14 14 17 15t3 3l28 28q16 4 30 6t28 6q76 16 149 27t157 11h40t42 -2l20 -10q28 -22 53 -51t51 -65l8 -22v-26q-6 -22 -9 -29t-7 -11l-24 -38q-22 -14 -41 -29t-33 -27q46 -36 79 -78t55 -86l6 -38l2 -40q-4 -18 -10 -29t-10 -21q-4 -4 -6 -9 t-6 -11l-20 -20q-22 -12 -34 -26l-30 -16q-52 -28 -123 -44t-157 -16q-20 0 -40 1t-42 3q-22 8 -26 12l-24 16q-20 22 -26 30l-2 38q4 6 4 17v23t2 27t8 30t17 27t31 20q30 2 46 -10l76 4t72 8q-10 4 -20 6t-20 6q-52 14 -102 35t-72 73l-2 58v22h-30t-14 2q-16 2 -33 5 t-33 13l-18 22q-14 34 -21 60z" />
<glyph unicode="&#xb4;" horiz-adv-x="1546" d="M594 1094q4 22 21 38t38 30t29 42q46 50 101 103t103 107q20 4 39 19t37 33l37 37t41 31q4 -12 23 -23t29 -5q2 -22 22 -43t36 -29q12 -28 24 -51t18 -45t5 -44t-17 -46q-16 -4 -53 -28t-95 -76q-30 -26 -72 -65t-91 -76t-101 -65t-100 -30l-28 28t-23 28t-11 30t10 36 q-26 42 -22 64z" />
<glyph unicode="&#xb5;" horiz-adv-x="1166" d="M-18 -78q4 50 11 103t15 103t10 84q18 20 24 32t9 27t5 37t10 62q4 18 -2 34t-2 30q2 8 10 11t12 11q2 12 2 21v17t1 16t5 18q4 8 11 21t13 29q4 40 9 77t17 69v22q6 40 11 65t9 49q4 22 7 40t9 34q26 4 39 21t19 29q26 0 35 -9t19 -29q8 -16 21 -36t41 -30q4 -16 11 -31 t13 -31q14 -32 26 -66t14 -62q-18 -34 -28 -79t-13 -92t2 -89t15 -70l10 -24l32 4q54 14 97 31t81 41t73 55t73 73q36 42 64 95t47 110t30 114t13 107q28 12 32 44q-12 30 -4 46q10 32 50 52q28 -20 51 -41t43 -41q2 -40 12 -69t20 -57q10 -26 18 -50t12 -58 q-16 -46 -23 -86t-13 -82q-30 -62 -56 -112t-42 -86q-18 -18 -30 -46q-4 -4 -9 -14t-9 -14l-34 12l-10 -46l-24 -6l-18 -22q-34 -60 -72 -100t-86 -72t-108 -59t-136 -59q-30 4 -52 5t-42 1q-20 2 -40 3t-46 5q-8 20 -30 24q-8 -34 -18 -72t-26 -84q-20 -58 -49 -80t-62 -21 t-67 18t-62 39q-4 34 0 84z" />
<glyph unicode="&#xb6;" horiz-adv-x="1494" d="M123 1078q3 60 17 112q58 74 146 117t178 85q14 -2 24 -12q14 14 35 23t44 15t45 12t40 16q60 -2 108 6t94 19t93 19t107 6q34 16 78 18t86 8q22 26 52 36q4 -4 9 -8t9 -8q20 -12 46 -13t48 1q14 0 23 -8t17 -14t14 -9t14 7q14 -4 6 -12l-10 -10q22 -4 36 -15t46 -19 q10 -10 4 -14t-8 -14q78 -32 95 -69t-5 -70t-74 -57t-112 -26q-12 -50 -26 -108t-27 -114t-21 -104t-8 -76q-8 -26 -18 -63t-22 -81q18 -18 39 -36t37 -38t22 -41t-6 -47q-34 -14 -69 -24t-73 -20q-12 -50 -22 -93t-18 -75q4 -10 14 -14t18 -12q-10 -26 -6 -44t14 -32 t21 -28t17 -32q-6 -18 -8 -36t-3 -36t-6 -36t-19 -36q-40 -16 -81 -16t-75 -10q-42 10 -71 41t-48 71t-29 82t-14 76q-14 46 -4 72t4 40q2 18 11 55t21 83l-108 22q-4 -6 -7 -13t-7 -15q2 -10 11 -16t15 -16q-16 -24 -32 -76t-29 -109t-22 -108t-11 -71q-28 -24 -43 -57 t-57 -55q-42 4 -81 21t-75 25q-36 28 -33 66t19 79t34 81t12 74q-14 46 -3 72t3 40q4 24 15 67t25 93q-54 18 -106 38t-98 40q-24 24 -49 47t-69 39q-60 46 -94 103t-48 118t-11 121zM456 982q0 -28 12 -52t24 -46q40 -16 81 -31t83 -29q12 64 38 148t40 152 q-58 -18 -112 -41t-110 -43q-4 -26 -21 -37t-35 -21zM938 748q28 -6 55 -12t55 -12q4 12 6 22l4 20q-4 32 10 90t31 122t31 124t12 94q-62 -4 -108 -14q-12 -48 -27 -104t-27 -109t-19 -99t-7 -72q-4 -12 -8 -25t-8 -25z" />
<glyph unicode="&#xb7;" horiz-adv-x="464" d="M86 712q0 32 5 44t9 22q10 24 8 32l-6 36l28 2v42q30 2 43 2t25 3t27 9t49 20l28 12l12 -26q4 -8 23 -26t33 -32q22 -24 44 -44t28 -44q-10 -30 -15 -43t-11 -25q-16 -14 -30 -25t-30 -23q-12 -10 -16 -11t-5 -2t-2 -4t-7 -15l-20 -16q-14 -4 -29 -4t-29 2q-6 2 -14 2 h-12l-18 -16l-22 12q-32 10 -52 22l-18 14q-6 28 -11 45t-15 35z" />
<glyph unicode="&#xb8;" horiz-adv-x="1546" d="M548 -502q-12 34 10 68q10 2 15 4t15 10q82 -2 167 0t183 24q6 18 31 22t35 20q0 14 -14 16t-12 18q-20 0 -47 8t-43 22q-34 2 -49 5t-26 7t-25 9t-44 15q-12 12 -25 20t-23 15t-17 17t-9 26q2 20 2 34t2 29t5 31t9 38q10 12 29 36t44 49t55 48t60 35q36 -22 66 -37 t82 -13l-104 -156q8 -12 24 -14t22 -14q44 -6 73 -23t52 -38t45 -44t52 -39q0 -8 5 -11t1 -13q28 -28 44 -64t8 -88q-20 -40 -48 -69t-72 -61q-34 -14 -68 -23t-62 -23q-12 4 -22 2t-18 2q-34 -16 -75 -22t-85 8q-34 -4 -67 -3t-61 7t-48 20t-26 36q-34 20 -46 54z" />
<glyph unicode="&#xb9;" horiz-adv-x="422" d="M132 820q-6 62 10 110t36 94q26 66 41 125t-17 115q-4 22 -5 27t-1 9q0 22 -4 32v28q4 10 5 14t1 6q2 30 10 40t12 14l38 30l32 -6l22 -6q12 -12 18 -12l26 -20q4 -10 15 -17t25 -17l22 -20q22 -34 29 -72t11 -78q0 -10 1 -19t3 -19q4 -74 -13 -130t-37 -114 q-4 -14 -9 -28t-11 -30q-16 -24 -21 -38t-1 -26l-8 -38l-34 -34t-28 -24l-48 2q-22 -4 -28 -5t-10 -1l-34 16q-24 26 -38 46t-10 46z" />
<glyph unicode="&#xba;" horiz-adv-x="912" d="M24 610q-10 74 4 137t41 116t61 97t68 84q8 8 15 16t13 16q12 10 21 16t13 10l26 26t16 12q6 4 10 8l8 8l24 20q8 2 20 12q14 14 30 22l12 18q16 8 23 15t17 23l34 24q8 2 20 2l24 24t26 20l38 2q12 -4 20 -6q12 -4 28 -8t32 -20l10 -26q16 -10 25 -18t17 -20l20 -18 q10 -20 13 -27t7 -19l-2 -26q-6 -16 -7 -22t-5 -12l2 -28q14 -22 25 -46t23 -48q14 -28 27 -55t29 -53l6 -26q-2 -10 3 -22t11 -28l9 -27t9 -31q6 -46 -10 -98t-54 -80q-14 -16 -29 -27t-31 -21q-22 -10 -34 -22q-30 -16 -46 -20t-30 -8q-34 -16 -79 -32t-85 -16 q-30 -8 -56 -14t-60 -6q-30 0 -62 6q-10 -2 -17 -2h-17q-84 0 -151 50t-101 140zM326 722q12 -6 32 -6q16 0 30 2t30 4l36 6q8 6 22 6q22 4 43 13t45 23q6 2 18 10q6 18 5 23t-1 11q-10 16 -19 33t-17 33q-4 8 -9 16t-9 16q-16 -8 -26 -8t-22 4q-34 -26 -53 -42t-35 -36 q-20 -20 -27 -30t-13 -20q-10 -16 -18 -29t-12 -29z" />
<glyph unicode="&#xbb;" horiz-adv-x="1220" d="M-40 38q4 20 4 33t-1 24t-2 23t-1 30q54 70 95 111t80 71t81 58t98 72q-24 26 -59 48t-71 49t-66 67t-40 104q-12 0 -24 31t-8 71q10 12 19 27t21 21q10 6 27 -3t38 -22t42 -29t41 -26q22 -10 44 -18t42 -24q10 -8 15 -20t15 -16q18 -6 38 -22t41 -36t41 -41t38 -35 q-2 -14 12 -31t30 -19q0 -26 10 -45t14 -41q10 -58 -8 -107t-56 -59q-12 8 -19 7t-17 9q-18 -26 -43 -49t-49 -13q0 -8 -3 -11t-7 -5t-7 -5t-5 -13q-40 -14 -78 -43t-74 -64t-70 -71t-66 -62q-12 8 -24 -1t-26 -9q2 8 1 10t-5 2t-9 2t-7 8q-10 14 -16 22l-9 12t-7 10t-10 18 zM480 38q4 20 5 33t-1 24t-3 23t1 30q54 70 95 111t80 71t81 58t96 72q-22 26 -58 48t-72 49t-65 67t-39 104q-14 0 -25 31t-7 71q10 12 18 27t20 21q10 6 27 -3t38 -22t43 -29t42 -26t42 -18t42 -24q10 -8 16 -20t14 -16q18 -6 38 -22t41 -36t41 -41t38 -35q-2 -14 12 -31 t30 -19q0 -26 10 -45t14 -41q10 -58 -8 -107t-56 -59q-12 8 -18 7t-16 9q-18 -26 -43 -49t-49 -13q-2 -8 -5 -11t-7 -5t-7 -5t-3 -13q-40 -14 -79 -43t-75 -64t-69 -71t-65 -62q-14 8 -26 -1t-24 -9q2 8 1 10t-5 2t-9 2t-7 8q-12 14 -17 22t-9 12t-7 10t-11 18z" />
<glyph unicode="&#xbc;" horiz-adv-x="1444" d="M62 151q2 45 12 88t20 77q22 14 2 20q8 30 28 49t20 35q14 22 55 69t89 100t93 103t69 80q12 34 56 86t93 108t88 106t41 80q36 28 79 88t91 121t99 105t101 38q30 -74 31 -147t-17 -165q-28 -34 -89 -103t-127 -146t-121 -146t-71 -103q-30 -30 -77 -86t-98 -117 t-100 -121t-79 -98q-2 -10 5 -18t11 -18q-20 -22 -24 -40t-2 -36t6 -35t0 -37q-14 -14 -23 -30t-19 -32t-23 -30t-33 -26q-42 4 -68 11t-62 13q-34 28 -46 70t-10 87zM114 820q-4 62 12 110t34 94q28 66 42 125t-18 115q-4 30 -6 36q0 22 -4 32l2 28l6 20q0 30 8 40t12 14 l38 30l32 -6l22 -6q12 -12 18 -12l26 -20q8 -14 40 -34l22 -20q22 -34 29 -72t11 -78q0 -10 1 -19t3 -19q4 -74 -13 -130t-37 -114q-4 -14 -9 -28t-11 -30l-8 -16q-8 -8 -13 -22t-1 -26l-8 -38q-20 -22 -33 -34t-29 -24l-48 2q-22 -4 -28 -5t-10 -1l-34 16q-24 26 -38 46 t-10 46zM708 562q-4 42 8 78q20 30 34 45t34 29l32 4q22 -6 34 -18t20 -22l36 -40q6 -18 18 -44q10 -16 18 -37t10 -49q14 0 20 2h24h22q4 32 8 46q6 28 4 36l4 38q4 10 7 23t7 29q2 16 7 36t14 38t25 34t42 24l38 -8q74 -58 98 -152v-22q-8 -22 -11 -42t-5 -40q8 0 15 1 t15 1l40 -26l2 -2q4 -16 7 -20t9 -8l18 -44q-2 -8 -2 -22q0 -10 -1 -24t-7 -30l-14 -18q-24 -22 -53 -32t-57 -18q-34 -10 -52 -18q-4 -10 -8 -18t-8 -18q-10 -20 -18 -40t-16 -42l8 -38q14 -2 23 -11t13 -25l-4 -32q-4 -26 -8 -43t-20 -35l-20 -12q-16 -6 -31 -7t-29 -3 q-12 0 -28 -4h-20q-16 4 -34 13t-35 28t-29 48t-14 73q-6 22 -4 34t6 22q6 42 18 82q-14 2 -30 3t-32 1q-42 12 -60 29t-32 33q-6 8 -18 20l-14 28q0 24 -4 49t-8 49q-8 46 -12 88z" />
<glyph unicode="&#xbd;" horiz-adv-x="1536" d="M62 151q2 45 12 88t20 77q22 14 2 20q8 30 28 49t20 35q14 22 55 69t89 100t93 103t69 80q12 34 56 86t93 108t88 106t41 80q36 28 79 88t91 121t99 105t101 38q30 -74 31 -147t-17 -165q-28 -34 -89 -103t-127 -146t-121 -146t-71 -103q-30 -30 -77 -86t-98 -117 t-100 -121t-79 -98q-2 -10 5 -18t11 -18q-20 -22 -24 -40t-2 -36t6 -35t0 -37q-14 -14 -23 -30t-19 -32t-23 -30t-33 -26q-42 4 -68 11t-62 13q-34 28 -46 70t-10 87zM114 820q-4 62 12 110t34 94q28 66 42 125t-18 115q-4 30 -6 36q0 22 -4 32l2 28l6 20q0 30 8 40t12 14 l38 30l32 -6l22 -6q12 -12 18 -12l26 -20q8 -14 40 -34l22 -20q22 -34 29 -72t11 -78q0 -10 1 -19t3 -19q4 -74 -13 -130t-37 -114q-4 -14 -9 -28t-11 -30l-8 -16q-8 -8 -13 -22t-1 -26l-8 -38q-20 -22 -33 -34t-29 -24l-48 2q-22 -4 -28 -5t-10 -1l-34 16q-24 26 -38 46 t-10 46zM733 140q-3 32 2 63t13 53q58 72 112 127t124 99l8 8l8 8q-22 -4 -43 -9t-39 -9q-10 -2 -18 -4l-16 -4l-20 2q-4 2 -12 3t-16 3q-10 2 -22 3t-24 5q-36 26 -41 55t-5 51v20l2 36q10 18 16 29t16 21l18 12q52 14 104 20t100 6q144 0 226 -58l16 -26q2 -10 8 -18 t26 -14l18 -16q24 -42 34 -90l-2 -20q-22 -52 -59 -89t-77 -69q-22 -16 -42 -24q-8 -6 -16 -11t-14 -9q-2 -4 -5 -11t-9 -11q-10 -10 -26 -18h22q28 8 58 15t64 7q58 18 98 18q14 0 20 -2q22 -6 30 -15t12 -15l22 -44q20 -16 26 -35t2 -35q-6 -30 -33 -53t-57 -23l-26 -14 q-40 -6 -79 -12t-79 -16q-54 -10 -110 -19t-112 -15q-14 0 -15 1t-5 1q-70 4 -118 20q-36 28 -49 59t-16 63z" />
<glyph unicode="&#xbe;" horiz-adv-x="1676" d="M144 828l6 38q4 6 7 16t7 22q6 24 21 56t61 44q32 0 42 -14q38 -2 77 -2t73 4q-10 4 -19 7t-19 7q-46 16 -91 41t-55 79l2 20q4 10 6 19t4 19q2 6 3 11t3 11q-34 4 -44 4q-14 4 -30 9t-32 15l-12 24q-6 34 -6 61t18 53l16 46q22 12 26 16l34 24q16 2 30 4t30 4 q76 10 151 16t159 0l40 -4t40 -6l20 -10q42 -50 74 -124l2 -24l-6 -26q-10 -20 -15 -26t-9 -12l-32 -36q-26 -10 -49 -24t-39 -24q36 -38 58 -83t36 -91q-2 -32 -4 -38l-6 -40q-14 -32 -34 -48q-4 -4 -7 -9t-7 -11l-26 -18q-26 -10 -40 -24l-32 -12q-118 -54 -290 -38 q-22 2 -41 4t-41 6l-16 6l-26 24q-10 16 -13 21t-5 13zM191 64q-5 42 4 87t26 88t33 77q24 14 6 20q12 30 36 49t26 35q18 22 67 69t106 100t111 103t82 80q18 34 70 86t110 108t106 106t56 80q40 28 90 85t102 114t103 99t97 36q32 -64 39 -129t-3 -145q-14 -20 -55 -60 t-95 -90t-115 -105t-115 -106t-95 -93t-55 -64q-34 -30 -91 -86t-119 -117t-120 -121t-94 -98q-4 -10 2 -18t8 -18q-24 -22 -32 -40t-9 -36t0 -35t-5 -37q-16 -14 -28 -30l-24 -32t-28 -30t-38 -26q-40 4 -66 11t-60 13q-28 28 -33 70zM930 562q2 42 18 78q24 30 39 45 t37 29l32 4q22 -6 32 -18t16 -22l34 -40q2 -20 12 -44q8 -16 14 -37t6 -49l44 2h22q2 14 5 25t7 21q10 28 8 36l8 38q6 10 11 23t9 29q10 34 30 75t72 57l38 -8q66 -58 82 -152l-4 -22q-18 -46 -24 -82q8 0 15 1t13 1l40 -26v-2q4 -16 6 -20t8 -8l14 -44q-4 -6 -4 -11 t-2 -11q-2 -10 -4 -24t-10 -30l-14 -18q-28 -22 -59 -32t-59 -18l-54 -18q-4 -10 -10 -18t-10 -18q-10 -20 -21 -40t-21 -42l2 -38q14 -2 21 -11t11 -25l-6 -32q-8 -26 -14 -43t-24 -35l-20 -12q-16 -6 -31 -7t-31 -3q-12 0 -28 -4q-34 4 -52 13t-32 28t-23 48t-7 73 q-4 22 0 34t8 22q10 42 26 82q-12 2 -28 3t-32 1q-40 12 -57 29t-29 33q-4 8 -16 20l-8 28q2 24 1 49t-5 49q-4 46 -2 88z" />
<glyph unicode="&#xbf;" horiz-adv-x="1140" d="M-122 120q10 50 6 95t-6 97q28 152 124 242t222 124q0 20 12 30q40 6 60 20t37 30t40 31t71 23q10 22 27 28t34 9t33 10t24 33l114 106q48 -12 83 -11t59 -3t37 -24t19 -76q-2 -20 -15 -27t-17 -23q0 -44 -14 -65t-33 -35t-41 -31t-38 -53q-32 -14 -71 -45t-71 -61 q-50 -28 -85 -47t-65 -39t-60 -44t-72 -60q10 -26 37 -29t61 1q58 -18 113 -23t129 -9q28 2 41 5t39 -1q22 20 59 27t65 23q40 -10 64 -38t58 -44q2 -16 -7 -19t-5 -23q20 -10 19 -17t13 -15q-8 -32 -23 -55t-33 -44t-36 -41t-32 -46q-34 -8 -56 -25t-44 -37 q-108 -12 -210 -7t-203 21t-202 43t-207 61q-14 16 -24 33t-30 25zM690 1398l28 8q10 2 33 18t41 26q28 16 53 35t51 19q30 -16 42 -24l24 -16q10 -18 18 -36t18 -36q6 -14 8 -18l3 -6t4 -4t13 -10l10 -24q4 -16 -1 -31t-9 -29q-8 -16 -8 -28l12 -20l-16 -22 q-12 -22 -18 -30t-16 -18l-18 -16q-54 0 -88 -8q-34 6 -44 13t-20 15q-22 16 -32 16h-40l4 30l-42 10q4 30 7 44t3 26t-3 30t-11 54z" />
<glyph unicode="&#xc0;" horiz-adv-x="1438" d="M-52 190l26 20l2 42q50 122 103 234t111 230q18 38 37 76t37 78q-2 8 -2 17t4 21q28 40 45 72t33 66q18 40 39 80t53 78l14 20l22 -2q8 4 17 7t23 3l36 -6q66 30 117 87t103 137l24 34l32 -20q10 -6 32 -12t46 -14q42 -10 82 -23t62 -35l10 -18q4 -22 7 -40t7 -36 q8 -42 14 -83t8 -91q10 -40 19 -81t17 -81q10 -58 22 -111t32 -101q20 0 24 -2q24 10 56 12l26 2l8 -24q4 -6 10 -12t14 -12q32 -2 47 -13t25 -21q4 -4 10 -9t10 -7l36 -14l-20 -38q-22 -42 -67 -82t-101 -66q4 -14 5 -26t5 -28q8 -40 13 -83t-1 -89q-20 -52 -47 -93 t-64 -74t-83 -54t-96 -23q-28 6 -41 14t-23 16q-16 12 -26 16l-26 12l8 30q6 16 -1 28t-29 32q-8 6 -14 13t-14 15l-40 46l66 18q60 16 80 41t16 89q-50 10 -82 3t-64 -15q-46 -12 -90 -21t-96 -9q-34 0 -72 6l-22 2l-6 22q0 4 -5 9l-9 9q-10 12 -24 32t-6 50q-14 22 -16 46 q-8 -16 -13 -31t-9 -29l-8 -26l-26 -4q-4 -4 -7 -12t-1 -12l8 -22l-20 -18q-4 -6 -10 -10t-10 -8q-4 -22 -11 -42t-15 -40q-10 -32 -19 -62t-9 -60l-8 -26q-10 -16 -25 -24t-29 -14q-20 -8 -28 -16l-6 -26l-30 -4q-26 -6 -37 -8t-25 -2l-26 2q-24 24 -39 37t-35 23l-12 16 q-8 16 -10 29t-6 27q-4 26 -12 36zM532 626q14 2 27 2t27 2q70 4 130 10t130 20q-16 74 -35 151t-41 155l-10 -20q-50 -54 -96 -116t-76 -118l-2 -2q-28 -40 -54 -84zM595 1928q-1 22 5 44t18 45t24 51q16 8 36 29t22 43q10 -6 29 5t23 23q22 -12 41 -31l37 -37t36 -33 t40 -19q48 -54 103 -107t101 -103q8 -28 29 -42t38 -30t21 -38t-22 -64q12 -20 10 -36t-11 -30t-23 -28l-28 -28q-48 2 -100 30t-101 65t-91 76t-72 65q-58 52 -95 76t-53 28q-16 24 -17 46z" />
<glyph unicode="&#xc1;" horiz-adv-x="1438" d="M-52 190l26 20l2 42q50 122 103 234t111 230q18 38 37 76t37 78q-2 8 -2 17t4 21q28 40 45 72t33 66q18 40 39 80t53 78l14 20l22 -2q8 4 17 7t23 3l36 -6q66 30 117 87t103 137l24 34l32 -20q10 -6 32 -12t46 -14q42 -10 82 -23t62 -35l10 -18q4 -22 7 -40t7 -36 q8 -42 14 -83t8 -91q10 -40 19 -81t17 -81q10 -58 22 -111t32 -101q20 0 24 -2q24 10 56 12l26 2l8 -24q4 -6 10 -12t14 -12q32 -2 47 -13t25 -21q4 -4 10 -9t10 -7l36 -14l-20 -38q-22 -42 -67 -82t-101 -66q4 -14 5 -26t5 -28q8 -40 13 -83t-1 -89q-20 -52 -47 -93 t-64 -74t-83 -54t-96 -23q-28 6 -41 14t-23 16q-16 12 -26 16l-26 12l8 30q6 16 -1 28t-29 32q-8 6 -14 13t-14 15l-40 46l66 18q60 16 80 41t16 89q-50 10 -82 3t-64 -15q-46 -12 -90 -21t-96 -9q-34 0 -72 6l-22 2l-6 22q0 4 -5 9l-9 9q-10 12 -24 32t-6 50q-14 22 -16 46 q-8 -16 -13 -31t-9 -29l-8 -26l-26 -4q-4 -4 -7 -12t-1 -12l8 -22l-20 -18q-4 -6 -10 -10t-10 -8q-4 -22 -11 -42t-15 -40q-10 -32 -19 -62t-9 -60l-8 -26q-10 -16 -25 -24t-29 -14q-20 -8 -28 -16l-6 -26l-30 -4q-26 -6 -37 -8t-25 -2l-26 2q-24 24 -39 37t-35 23l-12 16 q-8 16 -10 29t-6 27q-4 26 -12 36zM532 626q14 2 27 2t27 2q70 4 130 10t130 20q-16 74 -35 151t-41 155l-10 -20q-50 -54 -96 -116t-76 -118l-2 -2q-28 -40 -54 -84zM614 1770q4 22 21 38t38 30t29 42q46 50 101 103t103 107q20 4 39 19t37 33l37 37t41 31q4 -12 23 -23 t29 -5q2 -22 22 -43t36 -29q12 -28 24 -51t18 -45t5 -44t-17 -46q-16 -4 -53 -28t-95 -76q-30 -26 -72 -65t-91 -76t-101 -65t-100 -30l-28 28t-23 28t-11 30t10 36q-26 42 -22 64z" />
<glyph unicode="&#xc2;" horiz-adv-x="1438" d="M-52 190l26 20l2 42q50 122 103 234t111 230q18 38 37 76t37 78q-2 8 -2 17t4 21q28 40 45 72t33 66q18 40 39 80t53 78l14 20l22 -2q8 4 17 7t23 3l36 -6q66 30 117 87t103 137l24 34l32 -20q10 -6 32 -12t46 -14q42 -10 82 -23t62 -35l10 -18q4 -22 7 -40t7 -36 q8 -42 14 -83t8 -91q10 -40 19 -81t17 -81q10 -58 22 -111t32 -101q20 0 24 -2q24 10 56 12l26 2l8 -24q4 -6 10 -12t14 -12q32 -2 47 -13t25 -21q4 -4 10 -9t10 -7l36 -14l-20 -38q-22 -42 -67 -82t-101 -66q4 -14 5 -26t5 -28q8 -40 13 -83t-1 -89q-20 -52 -47 -93 t-64 -74t-83 -54t-96 -23q-28 6 -41 14t-23 16q-16 12 -26 16l-26 12l8 30q6 16 -1 28t-29 32q-8 6 -14 13t-14 15l-40 46l66 18q60 16 80 41t16 89q-50 10 -82 3t-64 -15q-46 -12 -90 -21t-96 -9q-34 0 -72 6l-22 2l-6 22q0 4 -5 9l-9 9q-10 12 -24 32t-6 50q-14 22 -16 46 q-8 -16 -13 -31t-9 -29l-8 -26l-26 -4q-4 -4 -7 -12t-1 -12l8 -22l-20 -18q-4 -6 -10 -10t-10 -8q-4 -22 -11 -42t-15 -40q-10 -32 -19 -62t-9 -60l-8 -26q-10 -16 -25 -24t-29 -14q-20 -8 -28 -16l-6 -26l-30 -4q-26 -6 -37 -8t-25 -2l-26 2q-24 24 -39 37t-35 23l-12 16 q-8 16 -10 29t-6 27q-4 26 -12 36zM480 1744q2 18 14 40q16 4 45 26t75 66q22 20 52 51t66 61t74 54t74 34q20 4 28 4q40 -14 78 -38t74 -54t66 -61t52 -51q46 -44 75 -66t45 -26q12 -22 14 -40t-4 -37t-16 -39t-20 -44q-12 -8 -28 -26t-18 -38q-8 6 -23 -4t-19 -20 q-18 10 -33 27t-30 33t-30 28t-31 16q-40 46 -83 93t-81 89q-38 -42 -81 -89t-83 -93q-16 -4 -31 -16t-30 -28t-30 -33t-33 -27q-4 10 -19 20t-23 4q-2 20 -18 38t-28 26q-10 24 -20 44t-16 39t-4 37zM532 626q14 2 27 2t27 2q70 4 130 10t130 20q-16 74 -35 151t-41 155 l-10 -20q-50 -54 -96 -116t-76 -118l-2 -2q-28 -40 -54 -84z" />
<glyph unicode="&#xc3;" horiz-adv-x="1438" d="M-52 190l26 20l2 42q50 122 103 234t111 230q18 38 37 76t37 78q-2 8 -2 17t4 21q28 40 45 72t33 66q18 40 39 80t53 78l14 20l22 -2q8 4 17 7t23 3l36 -6q66 30 117 87t103 137l24 34l32 -20q10 -6 32 -12t46 -14q42 -10 82 -23t62 -35l10 -18q4 -22 7 -40t7 -36 q8 -42 14 -83t8 -91q10 -40 19 -81t17 -81q10 -58 22 -111t32 -101q20 0 24 -2q24 10 56 12l26 2l8 -24q4 -6 10 -12t14 -12q32 -2 47 -13t25 -21q4 -4 10 -9t10 -7l36 -14l-20 -38q-22 -42 -67 -82t-101 -66q4 -14 5 -26t5 -28q8 -40 13 -83t-1 -89q-20 -52 -47 -93 t-64 -74t-83 -54t-96 -23q-28 6 -41 14t-23 16q-16 12 -26 16l-26 12l8 30q6 16 -1 28t-29 32q-8 6 -14 13t-14 15l-40 46l66 18q60 16 80 41t16 89q-50 10 -82 3t-64 -15q-46 -12 -90 -21t-96 -9q-34 0 -72 6l-22 2l-6 22q0 4 -5 9l-9 9q-10 12 -24 32t-6 50q-14 22 -16 46 q-8 -16 -13 -31t-9 -29l-8 -26l-26 -4q-4 -4 -7 -12t-1 -12l8 -22l-20 -18q-4 -6 -10 -10t-10 -8q-4 -22 -11 -42t-15 -40q-10 -32 -19 -62t-9 -60l-8 -26q-10 -16 -25 -24t-29 -14q-20 -8 -28 -16l-6 -26l-30 -4q-26 -6 -37 -8t-25 -2l-26 2q-24 24 -39 37t-35 23l-12 16 q-8 16 -10 29t-6 27q-4 26 -12 36zM502 1660q4 24 14 40q16 32 27 50t23 36q16 26 33 52t39 54q14 12 22 16q18 16 38 29t42 23q36 14 67 17t67 3h28q46 -4 84 -10q30 -16 47 -28t33 -24q18 -12 30 -26t22 -28q24 -34 42 -32q10 0 18 9t18 21q4 6 16 18q12 38 48 62 q28 14 46 18l20 4l20 4h20q24 8 50 8h6q34 -2 53 -18t19 -44q-4 -24 -14 -40q-14 -32 -25 -49t-23 -35q-18 -28 -35 -54t-39 -54q-14 -12 -22 -16q-18 -16 -38 -29t-42 -23q-36 -14 -67 -17t-67 -3h-28q-22 2 -45 4t-39 6q-30 16 -47 28t-33 24q-18 12 -30 26t-22 28 q-8 12 -19 23t-21 11q-10 -2 -19 -12t-19 -20q-4 -4 -8 -9t-8 -9q-12 -38 -48 -62q-18 -10 -28 -12t-18 -6l-20 -4l-20 -4l-20 2q-30 -10 -50 -10q-40 2 -59 19t-19 43zM532 626q14 2 27 2t27 2q70 4 130 10t130 20q-16 74 -35 151t-41 155l-10 -20q-50 -54 -96 -116 t-76 -118l-2 -2q-28 -40 -54 -84z" />
<glyph unicode="&#xc4;" horiz-adv-x="1438" d="M-52 190l26 20l2 42q50 122 103 234t111 230q18 38 37 76t37 78q-2 8 -2 17t4 21q28 40 45 72t33 66q18 40 39 80t53 78l14 20l22 -2q8 4 17 7t23 3l36 -6q66 30 117 87t103 137l24 34l32 -20q10 -6 32 -12t46 -14q42 -10 82 -23t62 -35l10 -18q4 -22 7 -40t7 -36 q8 -42 14 -83t8 -91q10 -40 19 -81t17 -81q10 -58 22 -111t32 -101q20 0 24 -2q24 10 56 12l26 2l8 -24q4 -6 10 -12t14 -12q32 -2 47 -13t25 -21q4 -4 10 -9t10 -7l36 -14l-20 -38q-22 -42 -67 -82t-101 -66q4 -14 5 -26t5 -28q8 -40 13 -83t-1 -89q-20 -52 -47 -93 t-64 -74t-83 -54t-96 -23q-28 6 -41 14t-23 16q-16 12 -26 16l-26 12l8 30q6 16 -1 28t-29 32q-8 6 -14 13t-14 15l-40 46l66 18q60 16 80 41t16 89q-50 10 -82 3t-64 -15q-46 -12 -90 -21t-96 -9q-34 0 -72 6l-22 2l-6 22q0 4 -5 9l-9 9q-10 12 -24 32t-6 50q-14 22 -16 46 q-8 -16 -13 -31t-9 -29l-8 -26l-26 -4q-4 -4 -7 -12t-1 -12l8 -22l-20 -18q-4 -6 -10 -10t-10 -8q-4 -22 -11 -42t-15 -40q-10 -32 -19 -62t-9 -60l-8 -26q-10 -16 -25 -24t-29 -14q-20 -8 -28 -16l-6 -26l-30 -4q-26 -6 -37 -8t-25 -2l-26 2q-24 24 -39 37t-35 23l-12 16 q-8 16 -10 29t-6 27q-4 26 -12 36zM476 1734q0 34 4 46t8 22q12 22 10 32l-8 36l30 2v42q28 2 42 2t26 3t27 9t49 20l28 12l12 -26q4 -8 23 -26t33 -32q22 -24 44 -44t26 -44q-8 -32 -13 -44t-11 -26q-26 -22 -60 -46q-12 -10 -16 -12t-5 -3t-2 -4t-7 -15l-20 -14 q-16 -6 -30 -5t-28 3q-6 0 -15 1t-13 1l-16 -16l-24 10q-22 10 -31 13t-19 11l-18 12q-8 30 -13 47t-13 33zM532 626q14 2 27 2t27 2q70 4 130 10t130 20q-16 74 -35 151t-41 155l-10 -20q-50 -54 -96 -116t-76 -118l-2 -2q-28 -40 -54 -84zM1018 1696l8 26q4 10 3 36t1 44 q2 32 0 60t10 50q42 22 66 30q20 -2 38 -4l36 -4q14 -2 18 -3t5 -1t5 1t16 5l24 -4q14 -6 23 -17t19 -21q8 -16 16 -20l24 -2l8 -24q10 -20 13 -29l7 -21l2 -22q-14 -24 -23 -40t-13 -34q-22 -22 -34 -27t-22 -9q-22 -8 -30 -16l-20 -30l-20 18l-30 -28q-22 18 -32 27 t-19 15t-24 13t-47 21z" />
<glyph unicode="&#xc5;" horiz-adv-x="1438" d="M-52 190l26 20l2 42q50 122 103 234t111 230q18 38 37 76t37 78q-2 8 -2 17t4 21q28 40 45 72t33 66q18 40 39 80t53 78l14 20l22 -2q8 4 17 7t23 3l36 -6q94 52 168 150q-38 34 -56 84q-8 56 4 103t34 87t51 74t57 66q12 -4 17 7t15 15q6 16 20 23t22 21q16 4 26 16 t26 16q18 18 27 28t21 26q10 2 15 1t15 3q10 14 16 20t18 16q14 -6 28 -8t26 -14q0 -10 5 -16t11 -10t12 -10t8 -14q14 -12 18 -16t8 -18q-4 -10 -7 -21t-13 -15q10 -24 8 -26q22 -40 42 -83t44 -83q-4 -24 8 -45t16 -43q4 -36 -5 -58t-25 -39t-38 -32t-42 -33l-4 4 q-10 -12 -22 -14t-28 -6l-18 -9t-20 -9l7 -42t7 -36q8 -42 14 -83t8 -91q10 -40 19 -81t17 -81q10 -58 22 -111t32 -101q20 0 24 -2q24 10 56 12l26 2l8 -24q4 -6 10 -12t14 -12q32 -2 47 -13t25 -21q4 -4 10 -9t10 -7l36 -14l-20 -38q-22 -42 -67 -82t-101 -66q4 -14 5 -26 t5 -28q8 -40 13 -83t-1 -89q-20 -52 -47 -93t-64 -74t-83 -54t-96 -23q-28 6 -41 14t-23 16q-16 12 -26 16l-26 12l8 30q6 16 -1 28t-29 32q-8 6 -14 13t-14 15l-40 46l66 18q60 16 80 41t16 89q-50 10 -82 3t-64 -15q-46 -12 -90 -21t-96 -9q-34 0 -72 6l-22 2l-6 22 q0 4 -5 9l-9 9q-10 12 -24 32t-6 50q-14 22 -16 46q-8 -16 -13 -31t-9 -29l-8 -26l-26 -4q-4 -4 -7 -12t-1 -12l8 -22l-20 -18q-4 -6 -10 -10t-10 -8q-4 -22 -11 -42t-15 -40q-10 -32 -19 -62t-9 -60l-8 -26q-10 -16 -25 -24t-29 -14q-20 -8 -28 -16l-6 -26l-30 -4 q-26 -6 -37 -8t-25 -2l-26 2q-24 24 -39 37t-35 23l-12 16q-8 16 -10 29t-6 27q-4 26 -12 36zM532 626l54 4q70 4 130 10t130 20q-16 74 -35 151t-41 155l-10 -20q-50 -54 -96 -116t-76 -118l-2 -2q-28 -40 -54 -84zM894 1572q14 -10 34 -7t36 3q16 6 28 12l24 12q4 20 4 26 q-8 12 -14 26t-14 26q-10 -10 -15 -9t-9 5q-10 -10 -21 -19t-21 -19q-12 -16 -22 -27t-10 -29z" />
<glyph unicode="&#xc6;" horiz-adv-x="2362" d="M-144 190l30 20l8 42q66 122 135 234t143 230q24 38 49 76t49 78q-4 18 6 38q34 40 55 72t43 66q24 40 51 80t63 78l18 20l22 -2q8 4 17 7t23 3l36 -6q70 30 129 87t123 137l28 34l30 -20q10 -6 31 -12t43 -14q40 -10 78 -23t58 -35q8 -40 9 -58t1 -36q2 -42 2 -83 t-4 -91q8 -76 12 -162q4 -58 8 -111t16 -101h27t19 -2q10 4 30 8q20 40 39 79t35 85q-34 32 -49 69t-23 75t-12 77t-16 79q24 36 58 59t76 38t90 24t100 21q96 30 172 47t148 28t150 20t180 27q2 -6 8 -6h14q4 -14 20 -14v20q4 0 10 -2l12 -4t9 1t3 13q24 -42 61 -69t83 -47 q4 -18 3 -26t-3 -15t-3 -16t5 -25q-34 -54 -75 -84t-87 -46t-97 -24t-104 -17t-106 -25t-105 -48q-16 6 -29 5t-27 -5t-32 -8t-42 0q-14 -14 -36 -20l-44 -12q10 -22 9 -44t5 -38q84 -8 186 1t202 13q0 -10 -4 -14t-4 -14q18 -12 35 -30t33 -35t35 -28t43 -9q10 -20 13 -42 t-5 -46q-40 -26 -78 -53t-80 -49t-89 -36t-103 -12h-18t-16 8q-22 -10 -55 -7t-55 -7q-28 10 -64 10t-64 10q-38 -52 -70 -109t-56 -121q82 -12 137 -10t102 8t98 12t125 4q52 24 116 33t122 27q20 -6 33 -23l26 -34t28 -29t37 -8q10 -10 13 -24t5 -26t8 -19t22 -5 q-38 -78 -85 -120t-106 -65t-132 -34t-163 -27q-22 -4 -36 1t-32 5q-56 -10 -133 -20t-155 -8t-150 20t-120 64q-14 12 -19 29t-19 31q-24 -30 -57 -56t-71 -46t-77 -32t-77 -12q-28 6 -39 14t-21 16q-6 4 -11 8t-11 8l-26 12l14 30q8 16 2 28t-24 32q-6 6 -12 13t-12 15 l-34 46l68 18q62 16 85 41t29 89q-46 10 -80 3t-68 -15q-46 -12 -91 -21t-97 -9q-36 0 -72 6l-22 2l-2 22q-2 4 -5 9t-7 9q-10 12 -20 32t0 50q-4 10 -6 22t-2 24q-10 -16 -17 -31t-15 -29l-10 -26l-26 -4q-4 -4 -8 -12t-4 -12l4 -22l-22 -18q-6 -6 -11 -10t-11 -8 q-10 -22 -19 -42t-19 -40q-16 -32 -28 -62t-16 -60l-14 -26q-12 -16 -28 -24t-32 -14q-6 -4 -15 -8t-13 -8l-12 -26l-28 -4q-28 -6 -39 -8t-25 -2l-26 2q-22 24 -35 37t-31 23q-18 42 -18 72t-6 36zM502 626q16 2 28 2t26 2q72 4 132 10t132 20q-4 74 -13 151t-19 155 l-12 -20q-58 -54 -112 -116t-94 -118l-2 -2q-16 -20 -33 -41t-33 -43z" />
<glyph unicode="&#xc7;" horiz-adv-x="1252" d="M0 728q18 54 44 99t58 86t67 78t69 75q12 0 22 -6q8 22 24 38t34 29l36 26t30 31q50 12 89 34t75 48t74 48t88 34q18 20 45 34t54 26t52 26t41 38q12 -16 34 -11t40 11q12 2 20 -4t15 -13t12 -9t11 12q16 -2 9 -14t-9 -16q20 4 33 -7t41 -15q10 -10 6 -16t-6 -20 q72 -22 92 -69t4 -98t-59 -94t-95 -57q-62 -16 -115 -32t-102 -36t-92 -47t-75 -63q-56 -16 -101 -44t-84 -62t-75 -71t-72 -73q0 -34 -12 -52t-26 -36q4 -38 17 -65t27 -55q160 -48 339 -59t355 -13q18 -24 41 -45t42 -43t30 -51t5 -69q-34 -34 -74 -65t-80 -61 q-18 -2 -43 0t-52 2t-54 -3t-51 -13q-92 2 -188 18l-78 -116q6 -12 23 -14t21 -14q44 -6 73 -23t53 -38t46 -44t52 -41q0 -6 4 -9t0 -13q30 -28 46 -65t6 -87q-18 -40 -47 -69t-71 -61q-36 -16 -70 -24t-60 -24q-12 4 -23 3t-17 3q-34 -16 -75 -22t-87 6q-34 -4 -67 -3 t-60 8t-47 20t-26 37q-36 20 -48 54t10 68q16 2 30 14q82 -2 168 -1t184 23q2 10 11 15t19 9l20 8t14 12q0 6 -4 9t-9 6t-9 7t-2 12q-22 -2 -49 7t-43 21q-34 2 -48 5t-25 7t-25 10t-46 16q-12 12 -24 20t-22 15t-17 16t-9 27q0 20 1 34t2 29t4 31t9 38q16 16 45 52t69 68 q-30 10 -59 18t-57 18q-22 26 -46 49t-64 33q-58 44 -95 110t-58 140t-28 153t-5 151z" />
<glyph unicode="&#xc8;" horiz-adv-x="1284" d="M21 373q-3 41 3 75q4 18 13 34t18 31t14 31t1 32q12 2 15 13t19 7q14 44 30 82t34 74t37 73t35 83q-34 32 -49 69t-23 75t-12 77t-16 79q24 36 58 59t75 38t89 24t102 21q96 30 172 47t148 28t150 20t180 27q2 -6 7 -6h13q6 -14 22 -14q0 6 -1 11t-1 9q4 0 11 -2t12 -4 t9 1t2 13q24 -42 62 -69t84 -47q2 -18 1 -26t-3 -15t-2 -16t4 -25q-32 -54 -73 -84t-87 -46t-97 -24t-104 -17t-107 -25t-106 -48q-16 6 -29 5t-27 -5t-31 -8t-41 0q-16 -14 -37 -20t-43 -12q10 -22 9 -44t5 -38q84 -8 186 1t200 13q2 -10 -2 -14t-4 -14q18 -12 34 -30 t33 -35t35 -28t42 -9q10 -20 14 -42t-6 -46q-40 -26 -78 -53t-79 -49t-89 -36t-104 -12h-17t-17 8q-20 -10 -53 -7t-55 -7q-28 10 -65 10t-65 10q-36 -52 -68 -109t-56 -121q82 -12 136 -10t102 8t99 12t125 4q50 24 115 33t121 27q20 -6 34 -23t27 -34t27 -29t36 -8 q10 -10 13 -24t6 -26t9 -19t22 -5q-38 -78 -85 -120t-106 -65t-132 -34t-163 -27q-22 -4 -37 1t-31 5q-56 -10 -133 -20t-155 -8t-150 20t-120 64q-16 16 -23 38t-33 36q-4 30 -11 69t-14 80t-10 82zM495 1970q-1 22 5 44t18 45t24 51q16 8 36 29t22 43q10 -6 29 5t23 23 q22 -12 41 -31l37 -37t36 -33t40 -19q48 -54 103 -107t101 -103q8 -28 29 -42t38 -30t21 -38t-22 -64q12 -20 10 -36t-11 -30t-23 -28l-28 -28q-48 2 -100 30t-101 65t-91 76t-72 65q-58 52 -95 76t-53 28q-16 24 -17 46z" />
<glyph unicode="&#xc9;" horiz-adv-x="1284" d="M21 373q-3 41 3 75q4 18 13 34t18 31t14 31t1 32q12 2 15 13t19 7q14 44 30 82t34 74t37 73t35 83q-34 32 -49 69t-23 75t-12 77t-16 79q24 36 58 59t75 38t89 24t102 21q96 30 172 47t148 28t150 20t180 27q2 -6 7 -6h13q6 -14 22 -14q0 6 -1 11t-1 9q4 0 11 -2t12 -4 t9 1t2 13q24 -42 62 -69t84 -47q2 -18 1 -26t-3 -15t-2 -16t4 -25q-32 -54 -73 -84t-87 -46t-97 -24t-104 -17t-107 -25t-106 -48q-16 6 -29 5t-27 -5t-31 -8t-41 0q-16 -14 -37 -20t-43 -12q10 -22 9 -44t5 -38q84 -8 186 1t200 13q2 -10 -2 -14t-4 -14q18 -12 34 -30 t33 -35t35 -28t42 -9q10 -20 14 -42t-6 -46q-40 -26 -78 -53t-79 -49t-89 -36t-104 -12h-17t-17 8q-20 -10 -53 -7t-55 -7q-28 10 -65 10t-65 10q-36 -52 -68 -109t-56 -121q82 -12 136 -10t102 8t99 12t125 4q50 24 115 33t121 27q20 -6 34 -23t27 -34t27 -29t36 -8 q10 -10 13 -24t6 -26t9 -19t22 -5q-38 -78 -85 -120t-106 -65t-132 -34t-163 -27q-22 -4 -37 1t-31 5q-56 -10 -133 -20t-155 -8t-150 20t-120 64q-16 16 -23 38t-33 36q-4 30 -11 69t-14 80t-10 82zM594 1750q4 22 21 38t38 30t29 42q46 50 101 103t103 107q20 4 39 19 t37 33l37 37t41 31q4 -12 23 -23t29 -5q2 -22 22 -43t36 -29q12 -28 24 -51t18 -45t5 -44t-17 -46q-16 -4 -53 -28t-95 -76q-30 -26 -72 -65t-91 -76t-101 -65t-100 -30l-28 28t-23 28t-11 30t10 36q-26 42 -22 64z" />
<glyph unicode="&#xca;" horiz-adv-x="1284" d="M21 373q-3 41 3 75q4 18 13 34t18 31t14 31t1 32q12 2 15 13t19 7q14 44 30 82t34 74t37 73t35 83q-34 32 -49 69t-23 75t-12 77t-16 79q24 36 58 59t75 38t89 24t102 21q96 30 172 47t148 28t150 20t180 27q2 -6 7 -6h13q6 -14 22 -14q0 6 -1 11t-1 9q4 0 11 -2t12 -4 t9 1t2 13q24 -42 62 -69t84 -47q2 -18 1 -26t-3 -15t-2 -16t4 -25q-32 -54 -73 -84t-87 -46t-97 -24t-104 -17t-107 -25t-106 -48q-16 6 -29 5t-27 -5t-31 -8t-41 0q-16 -14 -37 -20t-43 -12q10 -22 9 -44t5 -38q84 -8 186 1t200 13q2 -10 -2 -14t-4 -14q18 -12 34 -30 t33 -35t35 -28t42 -9q10 -20 14 -42t-6 -46q-40 -26 -78 -53t-79 -49t-89 -36t-104 -12h-17t-17 8q-20 -10 -53 -7t-55 -7q-28 10 -65 10t-65 10q-36 -52 -68 -109t-56 -121q82 -12 136 -10t102 8t99 12t125 4q50 24 115 33t121 27q20 -6 34 -23t27 -34t27 -29t36 -8 q10 -10 13 -24t6 -26t9 -19t22 -5q-38 -78 -85 -120t-106 -65t-132 -34t-163 -27q-22 -4 -37 1t-31 5q-56 -10 -133 -20t-155 -8t-150 20t-120 64q-16 16 -23 38t-33 36q-4 30 -11 69t-14 80t-10 82zM420 1784q2 18 14 40q16 4 45 26t75 66q22 20 52 51t66 61t74 54t74 34 q20 4 28 4q40 -14 78 -38t74 -54t66 -61t52 -51q46 -44 75 -66t45 -26q12 -22 14 -40t-4 -37t-16 -39t-20 -44q-12 -8 -28 -26t-18 -38q-8 6 -23 -4t-19 -20q-18 10 -33 27t-30 33t-30 28t-31 16q-40 46 -83 93t-81 89q-38 -42 -81 -89t-83 -93q-16 -4 -31 -16t-30 -28 t-30 -33t-33 -27q-4 10 -19 20t-23 4q-2 20 -18 38t-28 26q-10 24 -20 44t-16 39t-4 37z" />
<glyph unicode="&#xcb;" horiz-adv-x="1284" d="M21 373q-3 41 3 75q4 18 13 34t18 31t14 31t1 32q12 2 15 13t19 7q14 44 30 82t34 74t37 73t35 83q-34 32 -49 69t-23 75t-12 77t-16 79q24 36 58 59t75 38t89 24t102 21q96 30 172 47t148 28t150 20t180 27q2 -6 7 -6h13q6 -14 22 -14q0 6 -1 11t-1 9q4 0 11 -2t12 -4 t9 1t2 13q24 -42 62 -69t84 -47q2 -18 1 -26t-3 -15t-2 -16t4 -25q-32 -54 -73 -84t-87 -46t-97 -24t-104 -17t-107 -25t-106 -48q-16 6 -29 5t-27 -5t-31 -8t-41 0q-16 -14 -37 -20t-43 -12q10 -22 9 -44t5 -38q84 -8 186 1t200 13q2 -10 -2 -14t-4 -14q18 -12 34 -30 t33 -35t35 -28t42 -9q10 -20 14 -42t-6 -46q-40 -26 -78 -53t-79 -49t-89 -36t-104 -12h-17t-17 8q-20 -10 -53 -7t-55 -7q-28 10 -65 10t-65 10q-36 -52 -68 -109t-56 -121q82 -12 136 -10t102 8t99 12t125 4q50 24 115 33t121 27q20 -6 34 -23t27 -34t27 -29t36 -8 q10 -10 13 -24t6 -26t9 -19t22 -5q-38 -78 -85 -120t-106 -65t-132 -34t-163 -27q-22 -4 -37 1t-31 5q-56 -10 -133 -20t-155 -8t-150 20t-120 64q-16 16 -23 38t-33 36q-4 30 -11 69t-14 80t-10 82zM418 1714q0 34 4 46t8 22q12 22 10 32l-8 36l30 2v42q28 2 42 2t26 3 t27 9t49 20l28 12l12 -26q4 -8 23 -26t33 -32q22 -24 44 -44t26 -44q-8 -32 -13 -44t-11 -26q-26 -22 -60 -46q-12 -10 -16 -12t-5 -3t-2 -4t-7 -15l-20 -14q-16 -6 -30 -5t-28 3q-6 0 -15 1t-13 1l-16 -16l-24 10q-22 10 -31 13t-19 11l-18 12q-8 30 -13 47t-13 33z M960 1676l8 26q4 10 3 36t1 44q2 32 0 60t10 50q42 22 66 30q20 -2 38 -4l36 -4q14 -2 18 -3t5 -1t5 1t16 5l24 -4q14 -6 23 -17t19 -21q8 -16 16 -20l24 -2l8 -24q10 -20 13 -29l7 -21l2 -22q-14 -24 -23 -40t-13 -34q-22 -22 -34 -27t-22 -9q-22 -8 -30 -16l-20 -30 l-20 18l-30 -28q-22 18 -32 27t-19 15t-24 13t-47 21z" />
<glyph unicode="&#xcc;" horiz-adv-x="1056" d="M-72 216q0 28 12 41t26 25q48 2 86 8t74 12t72 11t78 5q30 62 56 119t50 109q12 50 31 93t37 82t32 78t18 83q24 70 43 129t29 141q-76 -12 -122 -23t-66 -21q-40 2 -63 16t-37 34t-24 46t-24 54q8 18 4 53t-24 51q16 4 24 27t2 35q34 10 72 13t75 6t71 8t58 21 q104 4 217 8t209 10q36 -12 83 -12t94 -6t84 -26t51 -70q30 -4 45 -16t19 -29t3 -38t-1 -41q-32 -24 -81 -39t-107 -24t-121 -12t-123 -5q-10 -66 -35 -155t-51 -174t-45 -152t-17 -87q-20 -46 -33 -78t-24 -60t-22 -55t-27 -61h136q4 -22 18 -30t30 -14t29 -15t13 -29 q38 -10 48 -30t5 -43t-20 -47t-29 -42q-18 4 -34 -9t-30 -29q-58 8 -114 2t-104 -10q-10 -2 -8 -11t-4 -13q-62 20 -127 16t-132 -19t-137 -32t-142 -19q-28 18 -45 46t-28 60t-18 67t-15 67zM433 2032q-1 22 5 44t18 45t24 51q16 8 36 29t22 43q10 -6 29 5t23 23 q22 -12 41 -31l37 -37t36 -33t40 -19q48 -54 103 -107t101 -103q8 -28 29 -42t38 -30t21 -38t-22 -64q12 -20 10 -36t-11 -30t-23 -28l-28 -28q-48 2 -100 30t-101 65t-91 76t-72 65q-58 52 -95 76t-53 28q-16 24 -17 46z" />
<glyph unicode="&#xcd;" horiz-adv-x="1056" d="M-72 216q0 28 12 41t26 25q48 2 86 8t74 12t72 11t78 5q30 62 56 119t50 109q12 50 31 93t37 82t32 78t18 83q24 70 43 129t29 141q-76 -12 -122 -23t-66 -21q-40 2 -63 16t-37 34t-24 46t-24 54q8 18 4 53t-24 51q16 4 24 27t2 35q34 10 72 13t75 6t71 8t58 21 q104 4 217 8t209 10q36 -12 83 -12t94 -6t84 -26t51 -70q30 -4 45 -16t19 -29t3 -38t-1 -41q-32 -24 -81 -39t-107 -24t-121 -12t-123 -5q-10 -66 -35 -155t-51 -174t-45 -152t-17 -87q-20 -46 -33 -78t-24 -60t-22 -55t-27 -61h136q4 -22 18 -30t30 -14t29 -15t13 -29 q38 -10 48 -30t5 -43t-20 -47t-29 -42q-18 4 -34 -9t-30 -29q-58 8 -114 2t-104 -10q-10 -2 -8 -11t-4 -13q-62 20 -127 16t-132 -19t-137 -32t-142 -19q-28 18 -45 46t-28 60t-18 67t-15 67zM696 1832q4 22 21 38t38 30t29 42q46 50 101 103t103 107q20 4 39 19t37 33 l37 37t41 31q4 -12 23 -23t29 -5q2 -22 22 -43t36 -29q12 -28 24 -51t18 -45t5 -44t-17 -46q-16 -4 -53 -28t-95 -76q-30 -26 -72 -65t-91 -76t-101 -65t-100 -30l-28 28t-23 28t-11 30t10 36q-26 42 -22 64z" />
<glyph unicode="&#xce;" horiz-adv-x="1056" d="M-72 216q0 28 12 41t26 25q48 2 86 8t74 12t72 11t78 5q30 62 56 119t50 109q12 50 31 93t37 82t32 78t18 83q24 70 43 129t29 141q-76 -12 -122 -23t-66 -21q-40 2 -63 16t-37 34t-24 46t-24 54q8 18 4 53t-24 51q16 4 24 27t2 35q34 10 72 13t75 6t71 8t58 21 q104 4 217 8t209 10q36 -12 83 -12t94 -6t84 -26t51 -70q30 -4 45 -16t19 -29t3 -38t-1 -41q-32 -24 -81 -39t-107 -24t-121 -12t-123 -5q-10 -66 -35 -155t-51 -174t-45 -152t-17 -87q-20 -46 -33 -78t-24 -60t-22 -55t-27 -61h136q4 -22 18 -30t30 -14t29 -15t13 -29 q38 -10 48 -30t5 -43t-20 -47t-29 -42q-18 4 -34 -9t-30 -29q-58 8 -114 2t-104 -10q-10 -2 -8 -11t-4 -13q-62 20 -127 16t-132 -19t-137 -32t-142 -19q-28 18 -45 46t-28 60t-18 67t-15 67zM442 1846q2 18 14 40q16 4 45 26t75 66q22 20 52 51t66 61t74 54t74 34 q20 4 28 4q40 -14 78 -38t74 -54t66 -61t52 -51q46 -44 75 -66t45 -26q12 -22 14 -40t-4 -37t-16 -39t-20 -44q-12 -8 -28 -26t-18 -38q-8 6 -23 -4t-19 -20q-18 10 -33 27t-30 33t-30 28t-31 16q-40 46 -83 93t-81 89q-38 -42 -81 -89t-83 -93q-16 -4 -31 -16t-30 -28 t-30 -33t-33 -27q-4 10 -19 20t-23 4q-2 20 -18 38t-28 26q-10 24 -20 44t-16 39t-4 37z" />
<glyph unicode="&#xcf;" horiz-adv-x="1056" d="M-72 216q0 28 12 41t26 25q48 2 86 8t74 12t72 11t78 5q30 62 56 119t50 109q12 50 31 93t37 82t32 78t18 83q24 70 43 129t29 141q-76 -12 -122 -23t-66 -21q-40 2 -63 16t-37 34t-24 46t-24 54q8 18 4 53t-24 51q16 4 24 27t2 35q34 10 72 13t75 6t71 8t58 21 q104 4 217 8t209 10q36 -12 83 -12t94 -6t84 -26t51 -70q30 -4 45 -16t19 -29t3 -38t-1 -41q-32 -24 -81 -39t-107 -24t-121 -12t-123 -5q-10 -66 -35 -155t-51 -174t-45 -152t-17 -87q-20 -46 -33 -78t-24 -60t-22 -55t-27 -61h136q4 -22 18 -30t30 -14t29 -15t13 -29 q38 -10 48 -30t5 -43t-20 -47t-29 -42q-18 4 -34 -9t-30 -29q-58 8 -114 2t-104 -10q-10 -2 -8 -11t-4 -13q-62 20 -127 16t-132 -19t-137 -32t-142 -19q-28 18 -45 46t-28 60t-18 67t-15 67zM456 1776q0 34 4 46t8 22q12 22 10 32l-8 36l30 2v42q28 2 42 2t26 3t27 9t49 20 l28 12l12 -26q4 -8 23 -26t33 -32q22 -24 44 -44t26 -44q-8 -32 -13 -44t-11 -26q-26 -22 -60 -46q-12 -10 -16 -12t-5 -3t-2 -4t-7 -15l-20 -14q-16 -6 -30 -5t-28 3q-6 0 -15 1t-13 1l-16 -16l-24 10q-22 10 -31 13t-19 11l-18 12q-8 30 -13 47t-13 33zM998 1738l8 26 q4 10 3 36t1 44q2 32 0 60t10 50q42 22 66 30q20 -2 38 -4l36 -4q14 -2 18 -3t5 -1t5 1t16 5l24 -4q14 -6 23 -17t19 -21q8 -16 16 -20l24 -2l8 -24q10 -20 13 -29l7 -21l2 -22q-14 -24 -23 -40t-13 -34q-22 -22 -34 -27t-22 -9q-22 -8 -30 -16l-20 -30l-20 18l-30 -28 q-22 18 -32 27t-19 15t-24 13t-47 21z" />
<glyph unicode="&#xd0;" horiz-adv-x="1344" d="M-30 798q10 4 16 28t2 36q24 10 52 14t54 7t50 9t42 22q26 2 51 4t53 4q-8 110 -40 214q4 22 8 33t0 19q-4 18 12 18h32q0 36 -13 71t-25 81q16 36 22 70t22 62q128 -40 247 -97t233 -85q86 -62 177 -123t166 -134t125 -167t58 -222q-4 -12 -6 -20l-4 -16t-3 -18t1 -28 q-72 -126 -182 -212t-240 -152t-271 -121t-275 -117q-58 14 -89 47t-46 78t-20 99t-11 112q8 26 21 44t11 50q16 46 30 92t24 92q-70 -16 -111 -30t-57 -26q-28 2 -44 16t-26 35t-17 48t-17 55q2 8 4 23t0 31t-6 31t-10 23zM504 1104q24 -94 36 -176q24 -2 51 -4t50 -11 t41 -29t26 -60q22 -4 32 -16t13 -29t2 -39t-1 -42q-34 -38 -89 -56t-119 -26q-8 -84 -30 -188q26 2 46 10t41 18t44 18t53 10q8 16 21 25t23 19q50 20 99 42t92 50t77 64t56 86q-16 30 -39 51t-48 42t-48 44t-37 53q-32 4 -56 17t-46 26t-47 25t-59 14q-52 28 -94 39t-64 31 q-18 0 -26 -8z" />
<glyph unicode="&#xd1;" horiz-adv-x="1402" d="M-30 390q58 124 124 259t133 274t134 280t129 277q56 -20 109 -47t97 -63t75 -83t41 -107q-4 -12 -10 -8t-10 -4q10 -12 11 -17t-1 -10t-2 -13t10 -22q-10 2 -14 -3t-14 -1q10 -28 6 -44t-12 -29t-13 -28t3 -41q-8 0 -11 -3t-5 -7t-5 -7t-11 -1q6 -52 4 -105t-4 -108 t0 -113t16 -120q86 50 139 130t84 178t48 210t35 228q22 22 35 54t22 66t18 69t25 63q36 -4 61 -21t47 -38t46 -39t60 -24q28 -40 52 -77t32 -83q-12 -20 -18 -44t-13 -48t-19 -44t-34 -34q-6 -60 -18 -112t-22 -102t-18 -104t-6 -118q-18 -58 -40 -119t-32 -113 q-38 -30 -60 -74t-46 -88q-10 -8 -12 -3t-18 7q2 -18 -7 -23t1 -29q-34 -16 -60 -42t-57 -48t-72 -29t-107 17q-98 72 -176 166t-124 222q-20 -6 -30 -26t-18 -42t-16 -40t-24 -18q-4 -18 -15 -33t-21 -30t-15 -33t5 -40q-20 -16 -24 -41t-10 -49t-21 -41t-53 -15 q-8 -10 -3 -12t9 -18q-28 4 -40 -4t-30 -12q-46 14 -77 51t-54 81t-40 90t-35 80q0 8 7 7t13 -1q-10 20 -15 45t-19 41zM544 1702q4 24 14 40q16 32 27 50t23 36q16 26 33 52t39 54q14 12 22 16q18 16 38 29t42 23q36 14 67 17t67 3h28q46 -4 84 -10q30 -16 47 -28t33 -24 q18 -12 30 -26t22 -28q24 -34 42 -32q10 0 18 9t18 21q4 6 16 18q12 38 48 62q28 14 46 18l20 4l20 4h20q24 8 50 8h6q34 -2 53 -18t19 -44q-4 -24 -14 -40q-14 -32 -25 -49t-23 -35q-18 -28 -35 -54t-39 -54q-14 -12 -22 -16q-18 -16 -38 -29t-42 -23q-36 -14 -67 -17 t-67 -3h-28q-22 2 -45 4t-39 6q-30 16 -47 28t-33 24q-18 12 -30 26t-22 28q-8 12 -19 23t-21 11q-10 -2 -19 -12t-19 -20q-4 -4 -8 -9t-8 -9q-12 -38 -48 -62q-18 -10 -28 -12t-18 -6l-20 -4l-20 -4l-20 2q-30 -10 -50 -10q-40 2 -59 19t-19 43z" />
<glyph unicode="&#xd2;" d="M28 286q-18 136 10 247t82 205t123 176t133 158q14 -6 23 0t16 16t16 20t21 14q8 18 21 30t28 23t28 23t23 30q20 4 35 14t28 22t27 22t34 16v26q44 20 64 44t48 62q22 2 35 2t41 4q18 34 34 50t46 36q30 -16 64 -19t62 -31q2 -24 14 -37t26 -24t28 -23t18 -34q10 0 13 4 t13 2q4 -16 8 -26t9 -18t10 -18t9 -24q-10 -24 -18 -51t-32 -37q0 -16 12 -17t14 -15q2 -18 -6 -30q56 -94 102 -197t104 -197q-4 -28 3 -55t18 -53t21 -52t14 -52q4 -34 0 -73t-16 -75t-32 -67t-46 -47q-32 -40 -80 -65t-88 -59q-28 -16 -60 -23t-66 -15q-26 -16 -62 -31 t-74 -27t-76 -19t-68 -3q-72 -26 -140 -36t-160 10q-88 -12 -160 8t-129 62t-98 100t-67 124zM342 380q40 -34 95 -41t113 -2t116 15t104 10q0 18 16 18q84 8 156 47t150 79q10 24 26 42t18 52q-10 18 -13 30t-3 36q-52 72 -90 157t-88 161q-4 -10 -16 -20t-26 4 q-6 -20 -18 -27t-27 -7t-30 6t-27 16q-70 -56 -139 -108t-125 -122q-10 -6 -12 -4t-14 -2q-20 -46 -47 -83t-53 -75t-45 -81t-21 -101zM759 1928q-1 22 5 44t18 45t24 51q16 8 36 29t22 43q10 -6 29 5t23 23q22 -12 41 -31l37 -37t36 -33t40 -19q48 -54 103 -107t101 -103 q8 -28 29 -42t38 -30t21 -38t-22 -64q12 -20 10 -36t-11 -30t-23 -28l-28 -28q-48 2 -100 30t-101 65t-91 76t-72 65q-58 52 -95 76t-53 28q-16 24 -17 46z" />
<glyph unicode="&#xd3;" d="M28 286q-18 136 10 247t82 205t123 176t133 158q14 -6 23 0t16 16t16 20t21 14q8 18 21 30t28 23t28 23t23 30q20 4 35 14t28 22t27 22t34 16v26q44 20 64 44t48 62q22 2 35 2t41 4q18 34 34 50t46 36q30 -16 64 -19t62 -31q2 -24 14 -37t26 -24t28 -23t18 -34q10 0 13 4 t13 2q4 -16 8 -26t9 -18t10 -18t9 -24q-10 -24 -18 -51t-32 -37q0 -16 12 -17t14 -15q2 -18 -6 -30q56 -94 102 -197t104 -197q-4 -28 3 -55t18 -53t21 -52t14 -52q4 -34 0 -73t-16 -75t-32 -67t-46 -47q-32 -40 -80 -65t-88 -59q-28 -16 -60 -23t-66 -15q-26 -16 -62 -31 t-74 -27t-76 -19t-68 -3q-72 -26 -140 -36t-160 10q-88 -12 -160 8t-129 62t-98 100t-67 124zM342 380q40 -34 95 -41t113 -2t116 15t104 10q0 18 16 18q84 8 156 47t150 79q10 24 26 42t18 52q-10 18 -13 30t-3 36q-52 72 -90 157t-88 161q-4 -10 -16 -20t-26 4 q-6 -20 -18 -27t-27 -7t-30 6t-27 16q-70 -56 -139 -108t-125 -122q-10 -6 -12 -4t-14 -2q-20 -46 -47 -83t-53 -75t-45 -81t-21 -101zM614 1750q4 22 21 38t38 30t29 42q46 50 101 103t103 107q20 4 39 19t37 33l37 37t41 31q4 -12 23 -23t29 -5q2 -22 22 -43t36 -29 q12 -28 24 -51t18 -45t5 -44t-17 -46q-16 -4 -53 -28t-95 -76q-30 -26 -72 -65t-91 -76t-101 -65t-100 -30l-28 28t-23 28t-11 30t10 36q-26 42 -22 64z" />
<glyph unicode="&#xd4;" d="M28 286q-18 136 10 247t82 205t123 176t133 158q14 -6 23 0t16 16t16 20t21 14q8 18 21 30t28 23t28 23t23 30q20 4 35 14t28 22t27 22t34 16v26q44 20 64 44t48 62q22 2 35 2t41 4q18 34 34 50t46 36q30 -16 64 -19t62 -31q2 -24 14 -37t26 -24t28 -23t18 -34q10 0 13 4 t13 2q4 -16 8 -26t9 -18t10 -18t9 -24q-10 -24 -18 -51t-32 -37q0 -16 12 -17t14 -15q2 -18 -6 -30q56 -94 102 -197t104 -197q-4 -28 3 -55t18 -53t21 -52t14 -52q4 -34 0 -73t-16 -75t-32 -67t-46 -47q-32 -40 -80 -65t-88 -59q-28 -16 -60 -23t-66 -15q-26 -16 -62 -31 t-74 -27t-76 -19t-68 -3q-72 -26 -140 -36t-160 10q-88 -12 -160 8t-129 62t-98 100t-67 124zM342 380q40 -34 95 -41t113 -2t116 15t104 10q0 18 16 18q84 8 156 47t150 79q10 24 26 42t18 52q-10 18 -13 30t-3 36q-52 72 -90 157t-88 161q-4 -10 -16 -20t-26 4 q-6 -20 -18 -27t-27 -7t-30 6t-27 16q-70 -56 -139 -108t-125 -122q-10 -6 -12 -4t-14 -2q-20 -46 -47 -83t-53 -75t-45 -81t-21 -101zM582 1764q2 18 14 40q16 4 45 26t75 66q22 20 52 51t66 61t74 54t74 34q20 4 28 4q40 -14 78 -38t74 -54t66 -61t52 -51q46 -44 75 -66 t45 -26q12 -22 14 -40t-4 -37t-16 -39t-20 -44q-12 -8 -28 -26t-18 -38q-8 6 -23 -4t-19 -20q-18 10 -33 27t-30 33t-30 28t-31 16q-40 46 -83 93t-81 89q-38 -42 -81 -89t-83 -93q-16 -4 -31 -16t-30 -28t-30 -33t-33 -27q-4 10 -19 20t-23 4q-2 20 -18 38t-28 26 q-10 24 -20 44t-16 39t-4 37z" />
<glyph unicode="&#xd5;" d="M28 286q-18 136 10 247t82 205t123 176t133 158q14 -6 23 0t16 16t16 20t21 14q8 18 21 30t28 23t28 23t23 30q20 4 35 14t28 22t27 22t34 16v26q44 20 64 44t48 62q22 2 35 2t41 4q18 34 34 50t46 36q30 -16 64 -19t62 -31q2 -24 14 -37t26 -24t28 -23t18 -34q10 0 13 4 t13 2q4 -16 8 -26t9 -18t10 -18t9 -24q-10 -24 -18 -51t-32 -37q0 -16 12 -17t14 -15q2 -18 -6 -30q56 -94 102 -197t104 -197q-4 -28 3 -55t18 -53t21 -52t14 -52q4 -34 0 -73t-16 -75t-32 -67t-46 -47q-32 -40 -80 -65t-88 -59q-28 -16 -60 -23t-66 -15q-26 -16 -62 -31 t-74 -27t-76 -19t-68 -3q-72 -26 -140 -36t-160 10q-88 -12 -160 8t-129 62t-98 100t-67 124zM342 380q40 -34 95 -41t113 -2t116 15t104 10q0 18 16 18q84 8 156 47t150 79q10 24 26 42t18 52q-10 18 -13 30t-3 36q-52 72 -90 157t-88 161q-4 -10 -16 -20t-26 4 q-6 -20 -18 -27t-27 -7t-30 6t-27 16q-70 -56 -139 -108t-125 -122q-10 -6 -12 -4t-14 -2q-20 -46 -47 -83t-53 -75t-45 -81t-21 -101zM544 1682q4 24 14 40q16 32 27 50t23 36q16 26 33 52t39 54q14 12 22 16q18 16 38 29t42 23q36 14 67 17t67 3h28q46 -4 84 -10 q30 -16 47 -28t33 -24q18 -12 30 -26t22 -28q24 -34 42 -32q10 0 18 9t18 21q4 6 16 18q12 38 48 62q28 14 46 18l20 4l20 4h20q24 8 50 8h6q34 -2 53 -18t19 -44q-4 -24 -14 -40q-14 -32 -25 -49t-23 -35q-18 -28 -35 -54t-39 -54q-14 -12 -22 -16q-18 -16 -38 -29t-42 -23 q-36 -14 -67 -17t-67 -3h-28q-22 2 -45 4t-39 6q-30 16 -47 28t-33 24q-18 12 -30 26t-22 28q-8 12 -19 23t-21 11q-10 -2 -19 -12t-19 -20q-4 -4 -8 -9t-8 -9q-12 -38 -48 -62q-18 -10 -28 -12t-18 -6l-20 -4l-20 -4l-20 2q-30 -10 -50 -10q-40 2 -59 19t-19 43z" />
<glyph unicode="&#xd6;" d="M28 286q-18 136 10 247t82 205t123 176t133 158q14 -6 23 0t16 16t16 20t21 14q8 18 21 30t28 23t28 23t23 30q20 4 35 14t28 22t27 22t34 16v26q44 20 64 44t48 62q22 2 35 2t41 4q18 34 34 50t46 36q30 -16 64 -19t62 -31q2 -24 14 -37t26 -24t28 -23t18 -34q10 0 13 4 t13 2q4 -16 8 -26t9 -18t10 -18t9 -24q-10 -24 -18 -51t-32 -37q0 -16 12 -17t14 -15q2 -18 -6 -30q56 -94 102 -197t104 -197q-4 -28 3 -55t18 -53t21 -52t14 -52q4 -34 0 -73t-16 -75t-32 -67t-46 -47q-32 -40 -80 -65t-88 -59q-28 -16 -60 -23t-66 -15q-26 -16 -62 -31 t-74 -27t-76 -19t-68 -3q-72 -26 -140 -36t-160 10q-88 -12 -160 8t-129 62t-98 100t-67 124zM342 380q40 -34 95 -41t113 -2t116 15t104 10q0 18 16 18q84 8 156 47t150 79q10 24 26 42t18 52q-10 18 -13 30t-3 36q-52 72 -90 157t-88 161q-4 -10 -16 -20t-26 4 q-6 -20 -18 -27t-27 -7t-30 6t-27 16q-70 -56 -139 -108t-125 -122q-10 -6 -12 -4t-14 -2q-20 -46 -47 -83t-53 -75t-45 -81t-21 -101zM558 1734q0 34 4 46t8 22q12 22 10 32l-8 36l30 2v42q28 2 42 2t26 3t27 9t49 20l28 12l12 -26q4 -8 23 -26t33 -32q22 -24 44 -44 t26 -44q-8 -32 -13 -44t-11 -26q-26 -22 -60 -46q-12 -10 -16 -12t-5 -3t-2 -4t-7 -15l-20 -14q-16 -6 -30 -5t-28 3q-6 0 -15 1t-13 1l-16 -16l-24 10q-22 10 -31 13t-19 11l-18 12q-8 30 -13 47t-13 33zM1100 1696l8 26q4 10 3 36t1 44q2 32 0 60t10 50q42 22 66 30 q20 -2 38 -4l36 -4q14 -2 18 -3t5 -1t5 1t16 5l24 -4q14 -6 23 -17t19 -21q8 -16 16 -20l24 -2l8 -24q10 -20 13 -29l7 -21l2 -22q-14 -24 -23 -40t-13 -34q-22 -22 -34 -27t-22 -9q-22 -8 -30 -16l-20 -30l-20 18l-30 -28q-22 18 -32 27t-19 15t-24 13t-47 21z" />
<glyph unicode="&#xd7;" horiz-adv-x="1004" d="M8 214q2 42 21 82t46 77t59 69l60 60q6 16 20 28t30 24t32 26t26 32q-12 40 -46 79t-62 81q-2 6 -11 3t-13 1q4 22 -9 49t-31 43q4 16 11 43t-3 59q0 14 5 26t10 23t8 22t-1 21q20 2 37 -3t32 -11t28 -10t27 2q-4 -16 5 -17t9 -11q26 -8 58 -36t62 -62t53 -66t35 -50 q40 24 87 60t96 72t101 68t100 52q28 -12 44 -32t26 -41t19 -43t25 -38q-14 -28 -30 -48t-22 -46q-34 -14 -84 -44q-42 -26 -106 -72t-152 -122q22 -24 34 -44t22 -36q8 -18 16 -34q14 -12 24 -27t19 -31t21 -30t30 -22q10 -50 29 -90t17 -82q-12 -38 -35 -62t-33 -52 q-16 -4 -30 -9t-24 -15l-94 68q-26 84 -72 160t-92 132q-68 -52 -129 -115t-111 -133q-6 -70 -27 -97t-81 -49q-56 42 -81 101t-5 117z" />
<glyph unicode="&#xd8;" d="M28 286q-18 136 10 247t82 205t123 176t133 158q14 -6 23 0t16 16t16 20t21 14q8 18 21 30t28 23t28 23t23 30q20 4 35 14t28 22t27 22t34 16v26q44 20 64 44t48 62q22 2 35 2t41 4q18 34 34 50t46 36q30 -16 64 -19t62 -31q2 -24 14 -37t26 -24t28 -23t18 -34q10 0 13 4 t13 2q52 60 107 104t111 38q38 -88 41 -172t-19 -192q-22 -26 -62 -71t-88 -101q28 -60 58 -120t64 -116q-4 -28 3 -55t18 -53t21 -52t14 -52q4 -34 0 -73t-16 -75t-32 -67t-46 -47q-32 -40 -80 -65t-88 -59q-28 -16 -60 -23t-66 -15q-26 -16 -62 -31t-74 -27t-76 -19 t-68 -3q-64 -22 -124 -33t-136 1q-4 -30 5 -58t5 -60q-16 -16 -27 -34t-23 -36t-27 -35t-39 -29q-48 4 -80 13t-74 17q-30 26 -46 60t-20 73t-1 79t11 76q-62 42 -106 103t-72 131zM342 380q8 -6 15 -11t15 -9q34 38 74 81t78 84t70 77t52 60q8 24 30 55t52 67t65 74t67 76 q-16 -2 -32 5t-30 17q-70 -56 -139 -108t-125 -122q-10 -6 -12 -4t-14 -2q-20 -46 -47 -83t-53 -75t-45 -81t-21 -101zM778 378q92 10 164 49t150 79q10 24 26 42t18 52q-10 18 -13 30t-3 36q-14 16 -25 35t-23 39q-46 -54 -80 -99t-46 -71q-30 -32 -74 -83t-94 -109z" />
<glyph unicode="&#xd9;" horiz-adv-x="1424" d="M103 735q1 139 37 245l4 10q-4 26 -10 32q14 36 21 71t11 67q4 28 9 52t13 46q34 8 51 29t27 37q36 2 47 -10t25 -40q10 -22 28 -47t54 -39q6 -22 14 -42t18 -42q18 -42 34 -87t18 -85q-24 -46 -37 -106t-16 -121t3 -117t20 -94l12 -32l44 4q72 18 130 41t108 55t96 73 t96 97q48 56 86 127t63 147t39 152t18 142q38 18 42 58l-6 26q-6 10 -5 19t5 17q16 46 68 68q36 -24 67 -52t57 -56q4 -54 16 -93t26 -75q14 -34 25 -66t15 -78q-20 -60 -29 -113t-17 -111l-4 -22q-36 -62 -71 -127t-57 -113q-12 -12 -21 -28t-17 -32q-4 -6 -11 -20t-13 -20 l-48 18l-12 -62l-32 -8l-24 -28q-46 -80 -97 -134t-114 -96t-142 -79t-181 -79q-40 6 -69 7t-57 3q-28 0 -54 2t-60 6q-8 18 -22 26t-26 8q-40 20 -60 56t-42 80q-10 24 -21 48t-27 46l40 12l-52 60q-6 6 -13 12t-13 14v38q-8 164 -7 303zM413 1826q-1 22 5 44t18 45t24 51 q16 8 36 29t22 43q10 -6 29 5t23 23q22 -12 41 -31l37 -37t36 -33t40 -19q48 -54 103 -107t101 -103q8 -28 29 -42t38 -30t21 -38t-22 -64q12 -20 10 -36t-11 -30t-23 -28l-28 -28q-48 2 -100 30t-101 65t-91 76t-72 65q-58 52 -95 76t-53 28q-16 24 -17 46z" />
<glyph unicode="&#xda;" horiz-adv-x="1424" d="M103 735q1 139 37 245l4 10q-4 26 -10 32q14 36 21 71t11 67q4 28 9 52t13 46q34 8 51 29t27 37q36 2 47 -10t25 -40q10 -22 28 -47t54 -39q6 -22 14 -42t18 -42q18 -42 34 -87t18 -85q-24 -46 -37 -106t-16 -121t3 -117t20 -94l12 -32l44 4q72 18 130 41t108 55t96 73 t96 97q48 56 86 127t63 147t39 152t18 142q38 18 42 58l-6 26q-6 10 -5 19t5 17q16 46 68 68q36 -24 67 -52t57 -56q4 -54 16 -93t26 -75q14 -34 25 -66t15 -78q-20 -60 -29 -113t-17 -111l-4 -22q-36 -62 -71 -127t-57 -113q-12 -12 -21 -28t-17 -32q-4 -6 -11 -20t-13 -20 l-48 18l-12 -62l-32 -8l-24 -28q-46 -80 -97 -134t-114 -96t-142 -79t-181 -79q-40 6 -69 7t-57 3q-28 0 -54 2t-60 6q-8 18 -22 26t-26 8q-40 20 -60 56t-42 80q-10 24 -21 48t-27 46l40 12l-52 60q-6 6 -13 12t-13 14v38q-8 164 -7 303zM696 1708q4 22 21 38t38 30t29 42 q46 50 101 103t103 107q20 4 39 19t37 33l37 37t41 31q4 -12 23 -23t29 -5q2 -22 22 -43t36 -29q12 -28 24 -51t18 -45t5 -44t-17 -46q-16 -4 -53 -28t-95 -76q-30 -26 -72 -65t-91 -76t-101 -65t-100 -30l-28 28t-23 28t-11 30t10 36q-26 42 -22 64z" />
<glyph unicode="&#xdb;" horiz-adv-x="1424" d="M103 735q1 139 37 245l4 10q-4 26 -10 32q14 36 21 71t11 67q4 28 9 52t13 46q34 8 51 29t27 37q36 2 47 -10t25 -40q10 -22 28 -47t54 -39q6 -22 14 -42t18 -42q18 -42 34 -87t18 -85q-24 -46 -37 -106t-16 -121t3 -117t20 -94l12 -32l44 4q72 18 130 41t108 55t96 73 t96 97q48 56 86 127t63 147t39 152t18 142q38 18 42 58l-6 26q-6 10 -5 19t5 17q16 46 68 68q36 -24 67 -52t57 -56q4 -54 16 -93t26 -75q14 -34 25 -66t15 -78q-20 -60 -29 -113t-17 -111l-4 -22q-36 -62 -71 -127t-57 -113q-12 -12 -21 -28t-17 -32q-4 -6 -11 -20t-13 -20 l-48 18l-12 -62l-32 -8l-24 -28q-46 -80 -97 -134t-114 -96t-142 -79t-181 -79q-40 6 -69 7t-57 3q-28 0 -54 2t-60 6q-8 18 -22 26t-26 8q-40 20 -60 56t-42 80q-10 24 -21 48t-27 46l40 12l-52 60q-6 6 -13 12t-13 14v38q-8 164 -7 303zM442 1764q2 18 14 40q16 4 45 26 t75 66q22 20 52 51t66 61t74 54t74 34q20 4 28 4q40 -14 78 -38t74 -54t66 -61t52 -51q46 -44 75 -66t45 -26q12 -22 14 -40t-4 -37t-16 -39t-20 -44q-12 -8 -28 -26t-18 -38q-8 6 -23 -4t-19 -20q-18 10 -33 27t-30 33t-30 28t-31 16q-40 46 -83 93t-81 89q-38 -42 -81 -89 t-83 -93q-16 -4 -31 -16t-30 -28t-30 -33t-33 -27q-4 10 -19 20t-23 4q-2 20 -18 38t-28 26q-10 24 -20 44t-16 39t-4 37z" />
<glyph unicode="&#xdc;" horiz-adv-x="1424" d="M103 735q1 139 37 245l4 10q-4 26 -10 32q14 36 21 71t11 67q4 28 9 52t13 46q34 8 51 29t27 37q36 2 47 -10t25 -40q10 -22 28 -47t54 -39q6 -22 14 -42t18 -42q18 -42 34 -87t18 -85q-24 -46 -37 -106t-16 -121t3 -117t20 -94l12 -32l44 4q72 18 130 41t108 55t96 73 t96 97q48 56 86 127t63 147t39 152t18 142q38 18 42 58l-6 26q-6 10 -5 19t5 17q16 46 68 68q36 -24 67 -52t57 -56q4 -54 16 -93t26 -75q14 -34 25 -66t15 -78q-20 -60 -29 -113t-17 -111l-4 -22q-36 -62 -71 -127t-57 -113q-12 -12 -21 -28t-17 -32q-4 -6 -11 -20t-13 -20 l-48 18l-12 -62l-32 -8l-24 -28q-46 -80 -97 -134t-114 -96t-142 -79t-181 -79q-40 6 -69 7t-57 3q-28 0 -54 2t-60 6q-8 18 -22 26t-26 8q-40 20 -60 56t-42 80q-10 24 -21 48t-27 46l40 12l-52 60q-6 6 -13 12t-13 14v38q-8 164 -7 303zM438 1734q0 34 4 46t8 22 q12 22 10 32l-8 36l30 2v42q28 2 42 2t26 3t27 9t49 20l28 12l12 -26q4 -8 23 -26t33 -32q22 -24 44 -44t26 -44q-8 -32 -13 -44t-11 -26q-26 -22 -60 -46q-12 -10 -16 -12t-5 -3t-2 -4t-7 -15l-20 -14q-16 -6 -30 -5t-28 3q-6 0 -15 1t-13 1l-16 -16l-24 10q-22 10 -31 13 t-19 11l-18 12q-8 30 -13 47t-13 33zM980 1696l8 26q4 10 3 36t1 44q2 32 0 60t10 50q42 22 66 30q20 -2 38 -4l36 -4q14 -2 18 -3t5 -1t5 1t16 5l24 -4q14 -6 23 -17t19 -21q8 -16 16 -20l24 -2l8 -24q10 -20 13 -29l7 -21l2 -22q-14 -24 -23 -40t-13 -34q-22 -22 -34 -27 t-22 -9q-22 -8 -30 -16l-20 -30l-20 18l-30 -28q-22 18 -32 27t-19 15t-24 13t-47 21z" />
<glyph unicode="&#xdd;" horiz-adv-x="1010" d="M84 120l2 22l18 54q10 34 22 67t40 59q6 18 23 55t57 111q32 58 51 92t31 52q-20 36 -56 70q-32 60 -55 115t-35 99q-2 48 -16 98l-12 52t-6 54q-8 14 -14 36l4 24q10 16 5 43t-13 55q-6 26 -11 55t-3 57t15 54t45 44l20 14l20 -12q22 -14 42 -24l40 -20q24 -12 48 -25 t52 -29l20 -14l-2 -22q0 -4 2 -10t6 -10l22 -6l2 -28v-24q0 -18 2 -25t8 -15l10 -26q0 -36 6 -64t14 -56q10 -28 16 -57t2 -63q12 6 24 18q4 4 9 8t11 8l140 190l-4 24l50 48q20 16 38 33t30 39l12 18q90 120 232 148l34 8l10 -32q10 -28 39 -49t63 -41l22 -14 q12 -24 12 -36t-2 -20l10 -26q-22 -58 -48 -83t-54 -47q-22 -18 -40 -36t-28 -40l-16 -20q-50 -26 -64 -76l-8 -28h-30q-2 0 -10 -9t-24 -43q-18 -24 -25 -31l-11 -11q-4 -10 -7 -18t-7 -20l-12 -16q-18 -16 -26 -31t-18 -35q-8 -18 -18 -37t-28 -37l4 -22l-16 -14 q-16 -14 -28 -35t-24 -43q-12 -24 -26 -48t-36 -44q-14 -36 -25 -56t-37 -48q-24 -96 -114 -206q-2 -22 -13 -43t-23 -39q-4 -8 -9 -17t-7 -13l-6 -22q-12 -22 -25 -36t-25 -26q-6 -4 -11 -10t-9 -10l-34 -12q-176 24 -214 186zM576 1832q4 22 21 38t38 30t29 42 q46 50 101 103t103 107q20 4 39 19t37 33l37 37t41 31q4 -12 23 -23t29 -5q2 -22 22 -43t36 -29q12 -28 24 -51t18 -45t5 -44t-17 -46q-16 -4 -53 -28t-95 -76q-30 -26 -72 -65t-91 -76t-101 -65t-100 -30l-28 28t-23 28t-11 30t10 36q-26 42 -22 64z" />
<glyph unicode="&#xde;" horiz-adv-x="1394" d="M52 378q12 30 15 66t5 75t2 79t6 76q16 100 47 192t53 188q4 22 -4 41t-4 35q4 10 15 14t15 14q8 28 3 45t9 41q10 18 29 56t15 78q22 14 40 33t38 35t45 28t61 12q18 -24 25 -53l14 -58t18 -54t39 -39q2 -16 1 -34t1 -40q16 2 33 4t33 6q126 -4 258 -21t244 -41 q22 -16 47 -32t63 -22q56 -30 94 -73t59 -92t28 -100t5 -97q-36 -70 -102 -121t-134 -101q-14 0 -22 4q-10 -16 -26 -26t-34 -18t-36 -17t-30 -21q-50 -8 -89 -22t-75 -31t-74 -31t-88 -22q-18 -14 -44 -23t-54 -17t-53 -17t-41 -25q-12 10 -34 7t-40 -7q-12 -16 -9 -34 t5 -34q10 -72 -10 -114t-57 -61t-84 -22t-91 3q-24 32 -44 83t-35 105t-28 107t-23 93zM446 556q74 18 140 41t110 59q44 12 79 28t65 36t57 41t55 41q-2 18 7 28t19 20q-4 20 -15 33t-23 27q-98 14 -204 14t-216 -4q-26 -92 -47 -183t-27 -181z" />
<glyph unicode="&#xdf;" horiz-adv-x="1908" d="M20 816q8 26 12 42t0 42q14 42 45 72t68 51t77 35t76 24q80 34 171 65t186 55t195 31t210 -25q6 -20 18 -38t25 -36t23 -35t12 -35l8 -8l8 -8q56 22 100 34q80 34 171 65t186 55t195 31t210 -25q6 -20 19 -38t25 -36t22 -35t12 -35q20 -18 32 -39t4 -55q-20 -16 -39 -29 t-41 -23q-74 18 -150 12t-136 -10q-18 18 -43 18t-52 -8l-54 -16t-51 -4q-20 -16 -49 -21t-63 -9q-2 -10 4 -13t2 -13q12 -14 32 -20l40 -12t37 -15t23 -29q28 0 50 -14t37 -34t22 -43t5 -41q6 -16 14 -14t18 -8q6 -26 30 -53t38 -59q4 -50 6 -89t-14 -79q-28 -74 -82 -132 t-121 -103t-143 -77t-148 -54q-6 2 -15 0t-5 10q-16 -14 -35 -18t-41 -3t-45 3t-43 -2q-14 14 -25 27t-17 33q-10 0 -9 10t-7 10q14 20 12 23t-6 5t-8 5t-2 9q8 16 5 37t-5 43t3 42t29 32q68 -8 129 5t115 37t104 52t98 50q6 18 16 30t22 22t22 22t14 30q2 14 -7 17t-9 15 l-20 6q-40 22 -88 37t-82 33q-20 -12 -40 -6t-48 12q-70 4 -133 14t-121 36q-4 10 -10 18t-22 4q-10 16 -23 31t-23 33q4 24 7 41t-13 33q8 26 12 42t0 42q4 8 7 15t7 15q-52 4 -102 -1t-92 -9q-18 18 -43 18t-52 -8l-54 -16t-51 -4q-20 -16 -49 -21t-63 -9q-2 -10 4 -13 t2 -13q12 -14 31 -20t40 -12t37 -15t22 -29q30 0 52 -14t36 -34t21 -43t7 -41q6 -16 14 -14t18 -8q6 -26 30 -53t38 -59q4 -50 6 -89t-14 -79q-30 -74 -83 -132t-120 -103t-143 -77t-148 -54q-8 2 -16 0t-4 10q-16 -14 -35 -18t-41 -3t-45 3t-43 -2q-14 14 -25 27t-17 33 q-10 0 -9 10t-7 10q12 20 11 23t-6 5t-9 5t-2 9q8 16 6 37t-4 43t3 42t29 32q68 -8 129 5t115 37t103 52t97 50q6 18 17 30t23 22t22 22t14 30q2 14 -7 17t-9 15l-22 6q-38 22 -86 37t-82 33q-22 -12 -41 -6t-49 12q-68 4 -131 14t-121 36q-4 10 -10 18t-22 4q-12 16 -24 31 t-22 33q4 24 6 41t-12 33z" />
<glyph unicode="&#xe0;" horiz-adv-x="1190" d="M-52 146l22 18l2 34q40 102 85 196t93 192q16 32 31 64t31 64q-2 6 -2 14t4 18q22 34 36 61t28 55q16 34 33 66t43 66l32 14q6 2 14 5t18 3l30 -4q56 26 98 73t86 113l20 28l26 -16q10 -6 28 -11t38 -11q36 -8 68 -18t52 -30q12 -32 14 -48t6 -32q6 -34 11 -68t7 -76 q10 -34 17 -67t13 -67q10 -48 20 -93t26 -85q16 0 20 -2q10 4 21 6t25 4l22 2l8 -20q2 -10 20 -20q26 -2 38 -11t22 -19q8 -8 16 -12l30 -12l-16 -30q-20 -36 -57 -69t-83 -55q2 -12 3 -23t5 -23q6 -34 10 -70t0 -74l-4 -8q-12 -34 -35 -69t-54 -62t-69 -45t-80 -20 q-26 6 -35 13t-19 13q-6 4 -11 7t-9 5l-24 10l8 26q4 16 -2 25t-24 25l-12 12t-10 12l-34 38l54 14q50 14 67 36t13 74q-40 8 -67 2t-55 -14q-36 -10 -73 -17t-81 -7q-16 0 -30 1t-30 3l-20 4q-4 22 -8 25t-8 7q-10 10 -21 27t-5 43q-10 18 -12 36q-12 -24 -18 -50l-8 -20 l-20 -4q-4 -2 -6 -9t-2 -11l-10 -34q-4 -4 -8 -7t-8 -7q-4 -18 -10 -36t-12 -34q-10 -26 -17 -51t-5 -49l-8 -22q-10 -12 -22 -19t-24 -13q-4 -4 -11 -7t-11 -5l-6 -22l-24 -4q-22 -4 -31 -6t-21 -2l-20 2q-22 18 -34 29t-28 21q-18 24 -20 36t-4 22q-4 12 -5 20t-5 12z M436 510q12 2 23 2t21 2q60 4 109 9t109 17q-14 60 -30 125t-34 129l-12 -20q-40 -42 -77 -94t-63 -98l-24 -36t-22 -36zM453 1684q-1 22 5 44t18 45t24 51q16 8 36 29t22 43q10 -6 29 5t23 23q22 -12 41 -31l37 -37t36 -33t40 -19q48 -54 103 -107t101 -103q8 -28 29 -42 t38 -30t21 -38t-22 -64q12 -20 10 -36t-11 -30t-23 -28l-28 -28q-48 2 -100 30t-101 65t-91 76t-72 65q-58 52 -95 76t-53 28q-16 24 -17 46z" />
<glyph unicode="&#xe1;" horiz-adv-x="1190" d="M-52 146l22 18l2 34q40 102 85 196t93 192q16 32 31 64t31 64q-2 6 -2 14t4 18q22 34 36 61t28 55q16 34 33 66t43 66l32 14q6 2 14 5t18 3l30 -4q56 26 98 73t86 113l20 28l26 -16q10 -6 28 -11t38 -11q36 -8 68 -18t52 -30q12 -32 14 -48t6 -32q6 -34 11 -68t7 -76 q10 -34 17 -67t13 -67q10 -48 20 -93t26 -85q16 0 20 -2q10 4 21 6t25 4l22 2l8 -20q2 -10 20 -20q26 -2 38 -11t22 -19q8 -8 16 -12l30 -12l-16 -30q-20 -36 -57 -69t-83 -55q2 -12 3 -23t5 -23q6 -34 10 -70t0 -74l-4 -8q-12 -34 -35 -69t-54 -62t-69 -45t-80 -20 q-26 6 -35 13t-19 13q-6 4 -11 7t-9 5l-24 10l8 26q4 16 -2 25t-24 25l-12 12t-10 12l-34 38l54 14q50 14 67 36t13 74q-40 8 -67 2t-55 -14q-36 -10 -73 -17t-81 -7q-16 0 -30 1t-30 3l-20 4q-4 22 -8 25t-8 7q-10 10 -21 27t-5 43q-10 18 -12 36q-12 -24 -18 -50l-8 -20 l-20 -4q-4 -2 -6 -9t-2 -11l-10 -34q-4 -4 -8 -7t-8 -7q-4 -18 -10 -36t-12 -34q-10 -26 -17 -51t-5 -49l-8 -22q-10 -12 -22 -19t-24 -13q-4 -4 -11 -7t-11 -5l-6 -22l-24 -4q-22 -4 -31 -6t-21 -2l-20 2q-22 18 -34 29t-28 21q-18 24 -20 36t-4 22q-4 12 -5 20t-5 12z M436 510q12 2 23 2t21 2q60 4 109 9t109 17q-14 60 -30 125t-34 129l-12 -20q-40 -42 -77 -94t-63 -98l-24 -36t-22 -36zM452 1504q4 22 21 38t38 30t29 42q46 50 101 103t103 107q20 4 39 19t37 33l37 37t41 31q4 -12 23 -23t29 -5q2 -22 22 -43t36 -29q12 -28 24 -51 t18 -45t5 -44t-17 -46q-16 -4 -53 -28t-95 -76q-30 -26 -72 -65t-91 -76t-101 -65t-100 -30l-28 28t-23 28t-11 30t10 36q-26 42 -22 64z" />
<glyph unicode="&#xe2;" horiz-adv-x="1190" d="M-52 146l22 18l2 34q40 102 85 196t93 192q16 32 31 64t31 64q-2 6 -2 14t4 18q22 34 36 61t28 55q16 34 33 66t43 66l32 14q6 2 14 5t18 3l30 -4q56 26 98 73t86 113l20 28l26 -16q10 -6 28 -11t38 -11q36 -8 68 -18t52 -30q12 -32 14 -48t6 -32q6 -34 11 -68t7 -76 q10 -34 17 -67t13 -67q10 -48 20 -93t26 -85q16 0 20 -2q10 4 21 6t25 4l22 2l8 -20q2 -10 20 -20q26 -2 38 -11t22 -19q8 -8 16 -12l30 -12l-16 -30q-20 -36 -57 -69t-83 -55q2 -12 3 -23t5 -23q6 -34 10 -70t0 -74l-4 -8q-12 -34 -35 -69t-54 -62t-69 -45t-80 -20 q-26 6 -35 13t-19 13q-6 4 -11 7t-9 5l-24 10l8 26q4 16 -2 25t-24 25l-12 12t-10 12l-34 38l54 14q50 14 67 36t13 74q-40 8 -67 2t-55 -14q-36 -10 -73 -17t-81 -7q-16 0 -30 1t-30 3l-20 4q-4 22 -8 25t-8 7q-10 10 -21 27t-5 43q-10 18 -12 36q-12 -24 -18 -50l-8 -20 l-20 -4q-4 -2 -6 -9t-2 -11l-10 -34q-4 -4 -8 -7t-8 -7q-4 -18 -10 -36t-12 -34q-10 -26 -17 -51t-5 -49l-8 -22q-10 -12 -22 -19t-24 -13q-4 -4 -11 -7t-11 -5l-6 -22l-24 -4q-22 -4 -31 -6t-21 -2l-20 2q-22 18 -34 29t-28 21q-18 24 -20 36t-4 22q-4 12 -5 20t-5 12z M318 1478q2 18 14 40q16 4 45 26t75 66q22 20 52 51t66 61t74 54t74 34q20 4 28 4q40 -14 78 -38t74 -54t66 -61t52 -51q46 -44 75 -66t45 -26q12 -22 14 -40t-4 -37t-16 -39t-20 -44q-12 -8 -28 -26t-18 -38q-8 6 -23 -4t-19 -20q-18 10 -33 27t-30 33t-30 28t-31 16 q-40 46 -83 93t-81 89q-38 -42 -81 -89t-83 -93q-16 -4 -31 -16t-30 -28t-30 -33t-33 -27q-4 10 -19 20t-23 4q-2 20 -18 38t-28 26q-10 24 -20 44t-16 39t-4 37zM436 510q12 2 23 2t21 2q60 4 109 9t109 17q-14 60 -30 125t-34 129l-12 -20q-40 -42 -77 -94t-63 -98 l-24 -36t-22 -36z" />
<glyph unicode="&#xe3;" horiz-adv-x="1190" d="M-52 146l22 18l2 34q40 102 85 196t93 192q16 32 31 64t31 64q-2 6 -2 14t4 18q22 34 36 61t28 55q16 34 33 66t43 66l32 14q6 2 14 5t18 3l30 -4q56 26 98 73t86 113l20 28l26 -16q10 -6 28 -11t38 -11q36 -8 68 -18t52 -30q12 -32 14 -48t6 -32q6 -34 11 -68t7 -76 q10 -34 17 -67t13 -67q10 -48 20 -93t26 -85q16 0 20 -2q10 4 21 6t25 4l22 2l8 -20q2 -10 20 -20q26 -2 38 -11t22 -19q8 -8 16 -12l30 -12l-16 -30q-20 -36 -57 -69t-83 -55q2 -12 3 -23t5 -23q6 -34 10 -70t0 -74l-4 -8q-12 -34 -35 -69t-54 -62t-69 -45t-80 -20 q-26 6 -35 13t-19 13q-6 4 -11 7t-9 5l-24 10l8 26q4 16 -2 25t-24 25l-12 12t-10 12l-34 38l54 14q50 14 67 36t13 74q-40 8 -67 2t-55 -14q-36 -10 -73 -17t-81 -7q-16 0 -30 1t-30 3l-20 4q-4 22 -8 25t-8 7q-10 10 -21 27t-5 43q-10 18 -12 36q-12 -24 -18 -50l-8 -20 l-20 -4q-4 -2 -6 -9t-2 -11l-10 -34q-4 -4 -8 -7t-8 -7q-4 -18 -10 -36t-12 -34q-10 -26 -17 -51t-5 -49l-8 -22q-10 -12 -22 -19t-24 -13q-4 -4 -11 -7t-11 -5l-6 -22l-24 -4q-22 -4 -31 -6t-21 -2l-20 2q-22 18 -34 29t-28 21q-18 24 -20 36t-4 22q-4 12 -5 20t-5 12z M300 1394q4 24 14 40q16 32 27 50t23 36q16 26 33 52t39 54q14 12 22 16q18 16 38 29t42 23q36 14 67 17t67 3h28q46 -4 84 -10q30 -16 47 -28t33 -24q18 -12 30 -26t22 -28q24 -34 42 -32q10 0 18 9t18 21q4 6 16 18q12 38 48 62q28 14 46 18l20 4l20 4h20q24 8 50 8h6 q34 -2 53 -18t19 -44q-4 -24 -14 -40q-14 -32 -25 -49t-23 -35q-18 -28 -35 -54t-39 -54q-14 -12 -22 -16q-18 -16 -38 -29t-42 -23q-36 -14 -67 -17t-67 -3h-28q-22 2 -45 4t-39 6q-30 16 -47 28t-33 24q-18 12 -30 26t-22 28q-8 12 -19 23t-21 11q-10 -2 -19 -12t-19 -20 q-4 -4 -8 -9t-8 -9q-12 -38 -48 -62q-18 -10 -28 -12t-18 -6l-20 -4l-20 -4l-20 2q-30 -10 -50 -10q-40 2 -59 19t-19 43zM436 510q12 2 23 2t21 2q60 4 109 9t109 17q-14 60 -30 125t-34 129l-12 -20q-40 -42 -77 -94t-63 -98l-24 -36t-22 -36z" />
<glyph unicode="&#xe4;" horiz-adv-x="1190" d="M-52 146l22 18l2 34q40 102 85 196t93 192q16 32 31 64t31 64q-2 6 -2 14t4 18q22 34 36 61t28 55q16 34 33 66t43 66l32 14q6 2 14 5t18 3l30 -4q56 26 98 73t86 113l20 28l26 -16q10 -6 28 -11t38 -11q36 -8 68 -18t52 -30q12 -32 14 -48t6 -32q6 -34 11 -68t7 -76 q10 -34 17 -67t13 -67q10 -48 20 -93t26 -85q16 0 20 -2q10 4 21 6t25 4l22 2l8 -20q2 -10 20 -20q26 -2 38 -11t22 -19q8 -8 16 -12l30 -12l-16 -30q-20 -36 -57 -69t-83 -55q2 -12 3 -23t5 -23q6 -34 10 -70t0 -74l-4 -8q-12 -34 -35 -69t-54 -62t-69 -45t-80 -20 q-26 6 -35 13t-19 13q-6 4 -11 7t-9 5l-24 10l8 26q4 16 -2 25t-24 25l-12 12t-10 12l-34 38l54 14q50 14 67 36t13 74q-40 8 -67 2t-55 -14q-36 -10 -73 -17t-81 -7q-16 0 -30 1t-30 3l-20 4q-4 22 -8 25t-8 7q-10 10 -21 27t-5 43q-10 18 -12 36q-12 -24 -18 -50l-8 -20 l-20 -4q-4 -2 -6 -9t-2 -11l-10 -34q-4 -4 -8 -7t-8 -7q-4 -18 -10 -36t-12 -34q-10 -26 -17 -51t-5 -49l-8 -22q-10 -12 -22 -19t-24 -13q-4 -4 -11 -7t-11 -5l-6 -22l-24 -4q-22 -4 -31 -6t-21 -2l-20 2q-22 18 -34 29t-28 21q-18 24 -20 36t-4 22q-4 12 -5 20t-5 12z M356 1510q0 34 4 46t8 22q12 22 10 32l-8 36l30 2v42q28 2 42 2t26 3t27 9t49 20l28 12l12 -26q4 -8 23 -26t33 -32q22 -24 44 -44t26 -44q-8 -32 -13 -44t-11 -26q-26 -22 -60 -46q-12 -10 -16 -12t-5 -3t-2 -4t-7 -15l-20 -14q-16 -6 -30 -5t-28 3q-6 0 -15 1t-13 1 l-16 -16l-24 10q-22 10 -31 13t-19 11l-18 12q-8 30 -13 47t-13 33zM436 510q12 2 23 2t21 2q60 4 109 9t109 17q-14 60 -30 125t-34 129l-12 -20q-40 -42 -77 -94t-63 -98l-24 -36t-22 -36zM898 1472l8 26q4 10 3 36t1 44q2 32 0 60t10 50q42 22 66 30q20 -2 38 -4l36 -4 q14 -2 18 -3t5 -1t5 1t16 5l24 -4q14 -6 23 -17t19 -21q8 -16 16 -20l24 -2l8 -24q10 -20 13 -29l7 -21l2 -22q-14 -24 -23 -40t-13 -34q-22 -22 -34 -27t-22 -9q-22 -8 -30 -16l-20 -30l-20 18l-30 -28q-22 18 -32 27t-19 15t-24 13t-47 21z" />
<glyph unicode="&#xe5;" horiz-adv-x="1190" d="M-52 146l22 18l2 34q40 102 85 196t93 192q16 32 31 64t31 64q-2 6 -2 14t4 18q22 34 36 61t28 55q16 34 33 66t43 66l32 14q6 2 14 5t18 3l30 -4q32 8 56 30t48 48q-38 34 -56 84q-8 56 4 103t35 87t52 74t55 66q12 -4 17 7t15 13q6 16 20 23t22 23q16 4 26 15t26 15 l27 30t21 26q10 2 15 1t15 1q10 14 16 21t20 15q12 -6 27 -8t25 -12q0 -10 6 -16t12 -11t11 -10t7 -13q14 -12 18 -16t8 -18q-4 -10 -7 -21t-13 -15q10 -24 8 -26q22 -40 42 -83t44 -83q-4 -24 8 -45t16 -45q4 -36 -5 -58t-25 -39t-38 -32t-42 -33l-4 6q-10 -12 -22 -15 l-28 -7q-10 -4 -22 -10t-26 -12q8 -46 13 -80t7 -76q10 -34 17 -67t13 -67q10 -48 20 -93t26 -85q16 0 20 -2q10 4 21 6t25 4l22 2l8 -20q2 -10 20 -20q26 -2 38 -11t22 -19q8 -8 16 -12l30 -12l-16 -30q-20 -36 -57 -69t-83 -55q2 -12 3 -23t5 -23q6 -34 10 -70t0 -74 q-16 -42 -39 -77t-54 -62t-69 -45t-80 -20q-26 6 -35 13t-19 13q-6 4 -11 7t-9 5l-24 10l8 26q4 16 -2 25t-24 25l-12 12t-10 12l-34 38l54 14q50 14 67 36t13 74q-40 8 -67 2t-55 -14q-36 -10 -73 -17t-81 -7q-16 0 -30 1t-30 3l-20 4q-4 22 -8 25t-8 7q-10 10 -21 27 t-5 43q-10 18 -12 36q-12 -24 -18 -50l-8 -20l-20 -4q-4 -2 -6 -9t-2 -11l-10 -34q-4 -4 -8 -7t-8 -7q-4 -18 -10 -36t-12 -34q-10 -26 -17 -51t-5 -49l-8 -22q-10 -12 -22 -19t-24 -13q-4 -4 -11 -7t-11 -5l-6 -22l-24 -4q-22 -4 -31 -6t-21 -2l-20 2q-22 18 -34 29t-28 21 q-18 24 -20 36t-4 22q-4 12 -5 20t-5 12zM436 510l44 4q60 4 109 9t109 17q-14 60 -30 125t-34 129l-12 -20q-40 -42 -77 -94t-63 -98l-24 -36t-22 -36zM730 1284q14 -10 34 -6t36 4q16 4 28 10t24 14q4 18 4 26q-8 12 -14 26t-14 26q-10 -14 -24 -6q-10 -10 -21 -18 t-21 -18q-12 -18 -21 -28t-11 -30z" />
<glyph unicode="&#xe6;" horiz-adv-x="1942" d="M-144 146l24 18l8 34q54 102 112 196t120 192q22 32 41 64t41 66q-4 14 6 30q28 34 46 61t34 55q22 34 44 67t52 65l14 16l20 -2q6 4 14 6t20 2l28 -4q60 26 109 74t103 114l24 28l24 -16q8 -6 25 -11t37 -11q34 -10 66 -20t48 -28q6 -34 7 -49t1 -31q2 -34 2 -69t-4 -75 q4 -34 6 -68l4 -68q4 -46 7 -91t13 -85q10 0 23 -1t17 -1l24 6q16 32 32 65t30 73q-28 26 -41 56t-19 62t-10 64t-14 66q20 32 49 51t63 31t74 20t84 18q80 26 144 40t125 23t126 17t149 22q22 -16 34 -16q8 18 19 11t9 11q22 -34 52 -57t70 -39q2 -14 1 -21t-2 -13t-2 -13 t3 -21q-40 -68 -96 -93t-119 -36t-131 -23t-132 -52q-14 6 -25 4t-23 -5t-26 -6t-34 1q-12 -12 -31 -17t-37 -11q10 -20 9 -38t3 -30q70 -8 155 0t169 10q2 -8 -2 -11t-4 -11q16 -10 29 -25t27 -29t29 -24t35 -8q20 -32 8 -74q-34 -22 -66 -44t-67 -40t-74 -30t-85 -10h-16 t-14 6q-16 -10 -45 -6t-45 -6q-22 10 -53 10t-55 8q-32 -44 -58 -92t-46 -102q68 -10 114 -8t85 8t82 10t105 2q42 22 97 29t101 23q16 -6 27 -20l22 -28t24 -24t31 -8q8 -8 11 -19t5 -21t7 -17t17 -5q-32 -66 -71 -101t-89 -53t-111 -27t-135 -23q-18 -4 -30 0t-26 4 q-48 -8 -112 -16t-130 -7t-126 16t-98 53q-12 10 -17 25t-15 27q-42 -50 -108 -86t-128 -38q-24 6 -33 13t-17 13q-6 4 -11 7t-9 5l-20 12l10 24q8 16 3 26t-21 26l-10 10t-10 12l-28 38l56 16q52 12 72 34t24 74q-40 8 -68 2l-56 -12q-38 -10 -75 -17t-83 -7h-28t-30 4 l-20 2q-2 22 -5 26t-7 8q-8 10 -16 26t2 42q-8 16 -8 38q-8 -14 -15 -26t-11 -24l-10 -22l-22 -4l-6 -38l-18 -16q-4 -4 -9 -7t-11 -7q-6 -18 -14 -35t-16 -33q-14 -28 -24 -53t-14 -49l-10 -22q-10 -12 -24 -19l-26 -13q-6 -4 -14 -7t-12 -5l-8 -22l-24 -4q-24 -4 -33 -6 t-21 -2l-20 2l-29 29t-27 21q-12 24 -13 36t-1 24q-2 10 -2 18t-4 12zM396 512q12 0 23 1t23 1q58 4 109 9t111 17q-4 62 -11 127t-17 129l-14 -20q-44 -42 -89 -94t-79 -98v-4q-30 -34 -56 -68z" />
<glyph unicode="&#xe7;" horiz-adv-x="1052" d="M0 594q30 90 85 155t113 129q26 12 39 25t28 24l30 22t27 27q42 10 73 29t61 40t62 39t74 28q16 18 38 29t45 22t44 23t33 32q10 -16 28 -11t34 11q10 2 17 -4t13 -12t11 -7t9 9q10 0 6 -10t-6 -14q16 2 27 -7t35 -11q8 -10 4 -15t-4 -17q60 -18 76 -57t2 -81t-50 -78 t-78 -48q-96 -26 -181 -57t-139 -91q-48 -14 -85 -37t-70 -52t-62 -60t-61 -61q2 -28 -9 -43t-21 -31q4 -30 14 -53t22 -45q132 -40 281 -50t299 -12q14 -20 33 -37t35 -36t26 -42t4 -57q-28 -30 -62 -55t-68 -51q-32 -2 -79 2t-87 -14q-28 2 -57 4t-59 6l-62 -92 q6 -10 22 -13t20 -13q38 -4 65 -20t48 -35t41 -40t46 -35q0 -6 4 -9t0 -11q28 -24 41 -58t5 -80q-16 -36 -41 -62t-65 -54q-32 -14 -63 -22t-55 -20q-10 4 -19 2t-17 2q-30 -14 -67 -20t-77 6q-30 -4 -60 -3t-55 7t-42 18t-23 32q-34 20 -44 50t10 60q10 4 14 5t14 9 q72 -2 149 0t167 20q2 8 10 13t17 8t18 7t13 12q0 6 -4 9t-9 5t-8 5t-3 11q-18 -2 -42 7t-40 19q-30 2 -43 4t-23 6t-22 9t-40 13q-10 12 -21 19t-21 13t-16 15t-8 25q2 34 3 56t11 62q12 14 35 40t51 54q-32 8 -60 16t-56 18q-20 22 -40 41t-54 27q-48 38 -78 93t-48 117 t-24 127t-4 125z" />
<glyph unicode="&#xe8;" horiz-adv-x="1068" d="M21 300q-3 34 3 62q6 30 25 54t13 52q10 2 12 11t16 7q12 36 26 68t29 62t30 61t29 69q-28 26 -41 57t-19 62t-10 64t-14 67q20 30 49 49t63 31t74 20t84 18q80 26 143 40t124 23t127 17t150 24q18 -18 34 -18q8 18 19 11t9 11q20 -34 51 -57t69 -39q2 -14 1 -21t-2 -13 t-1 -13t4 -21q-42 -68 -97 -93t-119 -36t-131 -23t-133 -52q-26 10 -47 0t-61 -6q-12 -12 -30 -17t-36 -11q8 -18 7 -37t5 -31q70 -6 155 2t167 10q2 -10 -2 -13t-2 -11q14 -10 28 -25t28 -29t29 -23t35 -7q8 -16 11 -35t-5 -39q-32 -22 -64 -45t-67 -41t-74 -29t-87 -9h-15 t-13 6q-16 -10 -45 -6t-45 -6q-22 10 -53 9t-55 7q-32 -42 -58 -90t-46 -102q68 -10 113 -8t85 7t82 10t106 3q40 22 95 29t101 23q16 -6 28 -21t23 -28t23 -23t30 -8q8 -8 11 -19t5 -21t7 -17t17 -5q-30 -66 -69 -101t-89 -53t-111 -28t-135 -24q-18 -4 -30 1t-28 5 q-46 -10 -110 -18t-130 -6t-126 17t-98 53q-16 14 -21 33t-27 29q-2 26 -8 58t-12 67t-9 69zM249 1684q-1 22 5 44t18 45t24 51q16 8 36 29t22 43q10 -6 29 5t23 23q22 -12 41 -31l37 -37t36 -33t40 -19q48 -54 103 -107t101 -103q8 -28 29 -42t38 -30t21 -38t-22 -64 q12 -20 10 -36t-11 -30t-23 -28l-28 -28q-48 2 -100 30t-101 65t-91 76t-72 65q-58 52 -95 76t-53 28q-16 24 -17 46z" />
<glyph unicode="&#xe9;" horiz-adv-x="1068" d="M21 300q-3 34 3 62q6 30 25 54t13 52q10 2 12 11t16 7q12 36 26 68t29 62t30 61t29 69q-28 26 -41 57t-19 62t-10 64t-14 67q20 30 49 49t63 31t74 20t84 18q80 26 143 40t124 23t127 17t150 24q18 -18 34 -18q8 18 19 11t9 11q20 -34 51 -57t69 -39q2 -14 1 -21t-2 -13 t-1 -13t4 -21q-42 -68 -97 -93t-119 -36t-131 -23t-133 -52q-26 10 -47 0t-61 -6q-12 -12 -30 -17t-36 -11q8 -18 7 -37t5 -31q70 -6 155 2t167 10q2 -10 -2 -13t-2 -11q14 -10 28 -25t28 -29t29 -23t35 -7q8 -16 11 -35t-5 -39q-32 -22 -64 -45t-67 -41t-74 -29t-87 -9h-15 t-13 6q-16 -10 -45 -6t-45 -6q-22 10 -53 9t-55 7q-32 -42 -58 -90t-46 -102q68 -10 113 -8t85 7t82 10t106 3q40 22 95 29t101 23q16 -6 28 -21t23 -28t23 -23t30 -8q8 -8 11 -19t5 -21t7 -17t17 -5q-30 -66 -69 -101t-89 -53t-111 -28t-135 -24q-18 -4 -30 1t-28 5 q-46 -10 -110 -18t-130 -6t-126 17t-98 53q-16 14 -21 33t-27 29q-2 26 -8 58t-12 67t-9 69zM432 1484q4 22 21 38t38 30t29 42q46 50 101 103t103 107q20 4 39 19t37 33l37 37t41 31q4 -12 23 -23t29 -5q2 -22 22 -43t36 -29q12 -28 24 -51t18 -45t5 -44t-17 -46 q-16 -4 -53 -28t-95 -76q-30 -26 -72 -65t-91 -76t-101 -65t-100 -30l-28 28t-23 28t-11 30t10 36q-26 42 -22 64z" />
<glyph unicode="&#xea;" horiz-adv-x="1068" d="M21 300q-3 34 3 62q6 30 25 54t13 52q10 2 12 11t16 7q12 36 26 68t29 62t30 61t29 69q-28 26 -41 57t-19 62t-10 64t-14 67q20 30 49 49t63 31t74 20t84 18q80 26 143 40t124 23t127 17t150 24q18 -18 34 -18q8 18 19 11t9 11q20 -34 51 -57t69 -39q2 -14 1 -21t-2 -13 t-1 -13t4 -21q-42 -68 -97 -93t-119 -36t-131 -23t-133 -52q-26 10 -47 0t-61 -6q-12 -12 -30 -17t-36 -11q8 -18 7 -37t5 -31q70 -6 155 2t167 10q2 -10 -2 -13t-2 -11q14 -10 28 -25t28 -29t29 -23t35 -7q8 -16 11 -35t-5 -39q-32 -22 -64 -45t-67 -41t-74 -29t-87 -9h-15 t-13 6q-16 -10 -45 -6t-45 -6q-22 10 -53 9t-55 7q-32 -42 -58 -90t-46 -102q68 -10 113 -8t85 7t82 10t106 3q40 22 95 29t101 23q16 -6 28 -21t23 -28t23 -23t30 -8q8 -8 11 -19t5 -21t7 -17t17 -5q-30 -66 -69 -101t-89 -53t-111 -28t-135 -24q-18 -4 -30 1t-28 5 q-46 -10 -110 -18t-130 -6t-126 17t-98 53q-16 14 -21 33t-27 29q-2 26 -8 58t-12 67t-9 69zM338 1498q2 18 14 40q16 4 45 26t75 66q22 20 52 51t66 61t74 54t74 34q20 4 28 4q40 -14 78 -38t74 -54t66 -61t52 -51q46 -44 75 -66t45 -26q12 -22 14 -40t-4 -37t-16 -39 t-20 -44q-12 -8 -28 -26t-18 -38q-8 6 -23 -4t-19 -20q-18 10 -33 27t-30 33t-30 28t-31 16q-40 46 -83 93t-81 89q-38 -42 -81 -89t-83 -93q-16 -4 -31 -16t-30 -28t-30 -33t-33 -27q-4 10 -19 20t-23 4q-2 20 -18 38t-28 26q-10 24 -20 44t-16 39t-4 37z" />
<glyph unicode="&#xeb;" horiz-adv-x="1068" d="M21 300q-3 34 3 62q6 30 25 54t13 52q10 2 12 11t16 7q12 36 26 68t29 62t30 61t29 69q-28 26 -41 57t-19 62t-10 64t-14 67q20 30 49 49t63 31t74 20t84 18q80 26 143 40t124 23t127 17t150 24q18 -18 34 -18q8 18 19 11t9 11q20 -34 51 -57t69 -39q2 -14 1 -21t-2 -13 t-1 -13t4 -21q-42 -68 -97 -93t-119 -36t-131 -23t-133 -52q-26 10 -47 0t-61 -6q-12 -12 -30 -17t-36 -11q8 -18 7 -37t5 -31q70 -6 155 2t167 10q2 -10 -2 -13t-2 -11q14 -10 28 -25t28 -29t29 -23t35 -7q8 -16 11 -35t-5 -39q-32 -22 -64 -45t-67 -41t-74 -29t-87 -9h-15 t-13 6q-16 -10 -45 -6t-45 -6q-22 10 -53 9t-55 7q-32 -42 -58 -90t-46 -102q68 -10 113 -8t85 7t82 10t106 3q40 22 95 29t101 23q16 -6 28 -21t23 -28t23 -23t30 -8q8 -8 11 -19t5 -21t7 -17t17 -5q-30 -66 -69 -101t-89 -53t-111 -28t-135 -24q-18 -4 -30 1t-28 5 q-46 -10 -110 -18t-130 -6t-126 17t-98 53q-16 14 -21 33t-27 29q-2 26 -8 58t-12 67t-9 69zM356 1510q0 34 4 46t8 22q12 22 10 32l-8 36l30 2v42q28 2 42 2t26 3t27 9t49 20l28 12l12 -26q4 -8 23 -26t33 -32q22 -24 44 -44t26 -44q-8 -32 -13 -44t-11 -26 q-26 -22 -60 -46q-12 -10 -16 -12t-5 -3t-2 -4t-7 -15l-20 -14q-16 -6 -30 -5t-28 3q-6 0 -15 1t-13 1l-16 -16l-24 10q-22 10 -31 13t-19 11l-18 12q-8 30 -13 47t-13 33zM898 1472l8 26q4 10 3 36t1 44q2 32 0 60t10 50q42 22 66 30q20 -2 38 -4l36 -4q14 -2 18 -3t5 -1 t5 1t16 5l24 -4q14 -6 23 -17t19 -21q8 -16 16 -20l24 -2l8 -24q10 -20 13 -29l7 -21l2 -22q-14 -24 -23 -40t-13 -34q-22 -22 -34 -27t-22 -9q-22 -8 -30 -16l-20 -30l-20 18l-30 -28q-22 18 -32 27t-19 15t-24 13t-47 21z" />
<glyph unicode="&#xec;" horiz-adv-x="656" d="M112 304q10 24 13 55t4 63t2 65t5 63q14 84 41 160t43 158q4 18 -3 34t-3 30q2 8 12 11t12 13q6 22 3 36t7 34q10 16 25 47t11 65q18 12 34 28t33 29t38 23t51 10q16 -20 21 -44l10 -48t15 -45t34 -33v-40t2 -47t9 -42t23 -25q-36 -96 -67 -190t-51 -189t-25 -191 t13 -194q10 -60 -7 -94t-48 -51t-71 -19t-76 4q-20 28 -36 70t-30 87t-25 89t-19 78zM167 1704q-1 22 5 44t18 45t24 51q16 8 36 29t22 43q10 -6 29 5t23 23q22 -12 41 -31l37 -37t36 -33t40 -19q48 -54 103 -107t101 -103q8 -28 29 -42t38 -30t21 -38t-22 -64 q12 -20 10 -36t-11 -30t-23 -28l-28 -28q-48 2 -100 30t-101 65t-91 76t-72 65q-58 52 -95 76t-53 28q-16 24 -17 46z" />
<glyph unicode="&#xed;" horiz-adv-x="656" d="M112 304q10 24 13 55t4 63t2 65t5 63q14 84 41 160t43 158q4 18 -3 34t-3 30q2 8 12 11t12 13q6 22 3 36t7 34q10 16 25 47t11 65q18 12 34 28t33 29t38 23t51 10q16 -20 21 -44l10 -48t15 -45t34 -33v-40t2 -47t9 -42t23 -25q-36 -96 -67 -190t-51 -189t-25 -191 t13 -194q10 -60 -7 -94t-48 -51t-71 -19t-76 4q-20 28 -36 70t-30 87t-25 89t-19 78zM474 1524q4 22 21 38t38 30t29 42q46 50 101 103t103 107q20 4 39 19t37 33l37 37t41 31q4 -12 23 -23t29 -5q2 -22 22 -43t36 -29q12 -28 24 -51t18 -45t5 -44t-17 -46q-16 -4 -53 -28 t-95 -76q-30 -26 -72 -65t-91 -76t-101 -65t-100 -30l-28 28t-23 28t-11 30t10 36q-26 42 -22 64z" />
<glyph unicode="&#xee;" horiz-adv-x="656" d="M92 1518q2 18 14 40q16 4 45 26t75 66q22 20 52 51t66 61t74 54t74 34q20 4 28 4q40 -14 78 -38t74 -54t66 -61t52 -51q46 -44 75 -66t45 -26q12 -22 14 -40t-4 -37t-16 -39t-20 -44q-12 -8 -28 -26t-18 -38q-8 6 -23 -4t-19 -20q-18 10 -33 27t-30 33t-30 28t-31 16 q-40 46 -83 93t-81 89q-38 -42 -81 -89t-83 -93q-16 -4 -31 -16t-30 -28t-30 -33t-33 -27q-4 10 -19 20t-23 4q-2 20 -18 38t-28 26q-10 24 -20 44t-16 39t-4 37zM112 304q10 24 13 55t4 63t2 65t5 63q14 84 41 160t43 158q4 18 -3 34t-3 30q2 8 12 11t12 13q6 22 3 36t7 34 q10 16 25 47t11 65q18 12 34 28t33 29t38 23t51 10q16 -20 21 -44l10 -48t15 -45t34 -33v-40t2 -47t9 -42t23 -25q-36 -96 -67 -190t-51 -189t-25 -191t13 -194q10 -60 -7 -94t-48 -51t-71 -19t-76 4q-20 28 -36 70t-30 87t-25 89t-19 78z" />
<glyph unicode="&#xef;" horiz-adv-x="656" d="M68 1530q0 34 4 46t8 22q12 22 10 32l-8 36l30 2v42q28 2 42 2t26 3t27 9t49 20l28 12l12 -26q4 -8 23 -26t33 -32q22 -24 44 -44t26 -44q-8 -32 -13 -44t-11 -26q-26 -22 -60 -46q-12 -10 -16 -12t-5 -3t-2 -4t-7 -15l-20 -14q-16 -6 -30 -5t-28 3q-6 0 -15 1t-13 1 l-16 -16l-24 10q-22 10 -31 13t-19 11l-18 12q-8 30 -13 47t-13 33zM112 304q10 24 13 55t4 63t2 65t5 63q14 84 41 160t43 158q4 18 -3 34t-3 30q2 8 12 11t12 13q6 22 3 36t7 34q10 16 25 47t11 65q18 12 34 28t33 29t38 23t51 10q16 -20 21 -44l10 -48t15 -45t34 -33v-40 t2 -47t9 -42t23 -25q-36 -96 -67 -190t-51 -189t-25 -191t13 -194q10 -60 -7 -94t-48 -51t-71 -19t-76 4q-20 28 -36 70t-30 87t-25 89t-19 78zM610 1492l8 26q4 10 3 36t1 44q2 32 0 60t10 50q42 22 66 30q20 -2 38 -4l36 -4q14 -2 18 -3t5 -1t5 1t16 5l24 -4q14 -6 23 -17 t19 -21q8 -16 16 -20l24 -2l8 -24q10 -20 13 -29l7 -21l2 -22q-14 -24 -23 -40t-13 -34q-22 -22 -34 -27t-22 -9q-22 -8 -30 -16l-20 -30l-20 18l-30 -28q-22 18 -32 27t-19 15t-24 13t-47 21z" />
<glyph unicode="&#xf0;" horiz-adv-x="1108" d="M-52 658q10 2 15 23t1 31q20 8 43 11l46 6t42 8t35 19q22 2 44 3t44 3q-4 46 -13 92t-19 88q2 18 5 27t-1 15q-4 16 10 16h28q0 30 -11 60t-21 68q14 30 18 59t18 53q54 -16 106 -38t103 -44t99 -41t96 -31q72 -52 148 -103t139 -113t106 -140t49 -186q-4 -22 -9 -31 t-3 -39q-60 -106 -152 -178t-201 -127t-228 -101t-231 -98q-48 12 -74 40t-39 65t-17 83t-8 94q6 22 17 37t9 43q14 38 26 75t20 77q-60 -14 -94 -25t-46 -21q-24 2 -38 14t-22 29t-14 39t-14 46q4 16 2 46t-14 46zM398 916q20 -78 30 -148q20 -2 43 -4t42 -9t35 -25t22 -50 q18 -2 26 -13t11 -26t1 -33t-2 -36q-28 -30 -75 -45t-99 -21q-6 -72 -24 -160q22 2 39 9t34 15t36 15t45 9q6 14 17 21t21 17q42 16 83 34t77 42t64 54t46 72q-12 24 -32 43t-40 36t-40 36t-32 45q-26 4 -46 14t-39 22t-40 21t-49 11q-44 24 -79 33t-55 25q-12 4 -20 -4z " />
<glyph unicode="&#xf1;" horiz-adv-x="1156" d="M-30 314q98 208 214 444t220 466q46 -18 91 -41t82 -53t63 -69t34 -87q-4 -12 -9 -9t-9 -3q8 -10 9 -14t0 -8t-1 -11t6 -19q-8 2 -11 -2t-13 0q8 -22 5 -36t-9 -25t-10 -24t2 -33q-6 0 -9 -3t-5 -6t-5 -6t-9 -1q6 -44 4 -88t-3 -89t1 -94t14 -101q72 42 115 108t70 148 t41 176t30 192q18 18 28 44t18 55l16 58t20 53q30 -4 51 -19t39 -32t38 -32t50 -19q24 -34 44 -66t26 -68q-10 -16 -15 -36t-11 -40t-16 -37t-28 -29q-6 -52 -15 -95t-18 -85t-15 -87t-4 -99q-16 -46 -34 -98t-28 -94q-32 -26 -50 -62t-38 -72q-8 -8 -10 -4t-14 6 q2 -8 0 -12t-5 -7t-4 -9t3 -16q-28 -12 -50 -34t-47 -40t-60 -24t-91 14q-82 60 -145 138t-103 186q-18 -4 -26 -21t-15 -35t-14 -33t-21 -15q-2 -16 -11 -28t-17 -25t-12 -28t4 -35q-16 -12 -20 -34t-9 -42t-17 -34t-44 -12q-6 -8 -2 -10t6 -14q-22 4 -33 -3t-27 -9 q-38 12 -63 42t-44 67t-34 75t-29 66q6 22 2 43t-14 35zM440 1436q4 24 14 40q16 32 27 50t23 36q16 26 33 52t39 54q14 12 22 16q18 16 38 29t42 23q36 14 67 17t67 3h28q46 -4 84 -10q30 -16 47 -28t33 -24q18 -12 30 -26t22 -28q24 -34 42 -32q10 0 18 9t18 21q4 6 16 18 q12 38 48 62q28 14 46 18l20 4l20 4h20q24 8 50 8h6q34 -2 53 -18t19 -44q-4 -24 -14 -40q-14 -32 -25 -49t-23 -35q-18 -28 -35 -54t-39 -54q-14 -12 -22 -16q-18 -16 -38 -29t-42 -23q-36 -14 -67 -17t-67 -3h-28q-22 2 -45 4t-39 6q-30 16 -47 28t-33 24q-18 12 -30 26 t-22 28q-8 12 -19 23t-21 11q-10 -2 -19 -12t-19 -20q-4 -4 -8 -9t-8 -9q-12 -38 -48 -62q-18 -10 -28 -12t-18 -6l-20 -4l-20 -4l-20 2q-30 -10 -50 -10q-40 2 -59 19t-19 43z" />
<glyph unicode="&#xf2;" horiz-adv-x="1288" d="M26 226q-16 114 8 207t69 172t103 146t112 131q12 -4 19 1t13 14t13 17t17 10q14 30 41 45t43 43q18 4 30 12t23 18t23 19t28 13v22q36 16 53 37t41 51q18 2 29 2t33 4q16 28 29 42t39 30q24 -12 53 -16t51 -26q2 -20 12 -31t22 -20t23 -19t15 -28q8 -2 11 2t11 2 q6 -28 14 -37t16 -35q-10 -20 -15 -41t-25 -31q-2 -14 8 -15t12 -11q2 -18 -6 -26q48 -78 86 -165t86 -165q-2 -24 4 -46t15 -43t17 -43t12 -44q4 -28 0 -61t-14 -64t-26 -56t-38 -37q-28 -36 -68 -56t-74 -48q-22 -14 -49 -20t-55 -12q-22 -12 -52 -25t-62 -24t-64 -16 t-56 -3q-60 -22 -117 -29t-133 9q-72 -10 -133 6t-108 51t-82 84t-57 103zM288 304q34 -28 80 -34t95 -2t96 13t87 9q84 20 144 53t126 67q8 22 21 36t15 42q-10 16 -12 25t-2 29q-44 62 -76 133t-72 133q-4 -8 -14 -16t-22 4q-4 -16 -14 -23t-22 -6t-25 6t-23 13 q-58 -46 -116 -90t-104 -102q-8 -4 -10 -3t-12 -3q-16 -38 -39 -69t-45 -63t-38 -68t-18 -84zM535 1662q-1 22 5 44t18 45t24 51q16 8 36 29t22 43q10 -6 29 5t23 23q22 -12 41 -31l37 -37t36 -33t40 -19q48 -54 103 -107t101 -103q8 -28 29 -42t38 -30t21 -38t-22 -64 q12 -20 10 -36t-11 -30t-23 -28l-28 -28q-48 2 -100 30t-101 65t-91 76t-72 65q-58 52 -95 76t-53 28q-16 24 -17 46z" />
<glyph unicode="&#xf3;" horiz-adv-x="1288" d="M26 226q-16 114 8 207t69 172t103 146t112 131q12 -4 19 1t13 14t13 17t17 10q14 30 41 45t43 43q18 4 30 12t23 18t23 19t28 13v22q36 16 53 37t41 51q18 2 29 2t33 4q16 28 29 42t39 30q24 -12 53 -16t51 -26q2 -20 12 -31t22 -20t23 -19t15 -28q8 -2 11 2t11 2 q6 -28 14 -37t16 -35q-10 -20 -15 -41t-25 -31q-2 -14 8 -15t12 -11q2 -18 -6 -26q48 -78 86 -165t86 -165q-2 -24 4 -46t15 -43t17 -43t12 -44q4 -28 0 -61t-14 -64t-26 -56t-38 -37q-28 -36 -68 -56t-74 -48q-22 -14 -49 -20t-55 -12q-22 -12 -52 -25t-62 -24t-64 -16 t-56 -3q-60 -22 -117 -29t-133 9q-72 -10 -133 6t-108 51t-82 84t-57 103zM288 304q34 -28 80 -34t95 -2t96 13t87 9q84 20 144 53t126 67q8 22 21 36t15 42q-10 16 -12 25t-2 29q-44 62 -76 133t-72 133q-4 -8 -14 -16t-22 4q-4 -16 -14 -23t-22 -6t-25 6t-23 13 q-58 -46 -116 -90t-104 -102q-8 -4 -10 -3t-12 -3q-16 -38 -39 -69t-45 -63t-38 -68t-18 -84zM494 1504q4 22 21 38t38 30t29 42q46 50 101 103t103 107q20 4 39 19t37 33l37 37t41 31q4 -12 23 -23t29 -5q2 -22 22 -43t36 -29q12 -28 24 -51t18 -45t5 -44t-17 -46 q-16 -4 -53 -28t-95 -76q-30 -26 -72 -65t-91 -76t-101 -65t-100 -30l-28 28t-23 28t-11 30t10 36q-26 42 -22 64z" />
<glyph unicode="&#xf4;" horiz-adv-x="1288" d="M26 226q-16 114 8 207t69 172t103 146t112 131q12 -4 19 1t13 14t13 17t17 10q14 30 41 45t43 43q18 4 30 12t23 18t23 19t28 13v22q36 16 53 37t41 51q18 2 29 2t33 4q16 28 29 42t39 30q24 -12 53 -16t51 -26q2 -20 12 -31t22 -20t23 -19t15 -28q8 -2 11 2t11 2 q6 -28 14 -37t16 -35q-10 -20 -15 -41t-25 -31q-2 -14 8 -15t12 -11q2 -18 -6 -26q48 -78 86 -165t86 -165q-2 -24 4 -46t15 -43t17 -43t12 -44q4 -28 0 -61t-14 -64t-26 -56t-38 -37q-28 -36 -68 -56t-74 -48q-22 -14 -49 -20t-55 -12q-22 -12 -52 -25t-62 -24t-64 -16 t-56 -3q-60 -22 -117 -29t-133 9q-72 -10 -133 6t-108 51t-82 84t-57 103zM288 304q34 -28 80 -34t95 -2t96 13t87 9q84 20 144 53t126 67q8 22 21 36t15 42q-10 16 -12 25t-2 29q-44 62 -76 133t-72 133q-4 -8 -14 -16t-22 4q-4 -16 -14 -23t-22 -6t-25 6t-23 13 q-58 -46 -116 -90t-104 -102q-8 -4 -10 -3t-12 -3q-16 -38 -39 -69t-45 -63t-38 -68t-18 -84zM442 1538q2 18 14 40q16 4 45 26t75 66q22 20 52 51t66 61t74 54t74 34q20 4 28 4q40 -14 78 -38t74 -54t66 -61t52 -51q46 -44 75 -66t45 -26q12 -22 14 -40t-4 -37t-16 -39 t-20 -44q-12 -8 -28 -26t-18 -38q-8 6 -23 -4t-19 -20q-18 10 -33 27t-30 33t-30 28t-31 16q-40 46 -83 93t-81 89q-38 -42 -81 -89t-83 -93q-16 -4 -31 -16t-30 -28t-30 -33t-33 -27q-4 10 -19 20t-23 4q-2 20 -18 38t-28 26q-10 24 -20 44t-16 39t-4 37z" />
<glyph unicode="&#xf5;" horiz-adv-x="1288" d="M26 226q-16 114 8 207t69 172t103 146t112 131q12 -4 19 1t13 14t13 17t17 10q14 30 41 45t43 43q18 4 30 12t23 18t23 19t28 13v22q36 16 53 37t41 51q18 2 29 2t33 4q16 28 29 42t39 30q24 -12 53 -16t51 -26q2 -20 12 -31t22 -20t23 -19t15 -28q8 -2 11 2t11 2 q6 -28 14 -37t16 -35q-10 -20 -15 -41t-25 -31q-2 -14 8 -15t12 -11q2 -18 -6 -26q48 -78 86 -165t86 -165q-2 -24 4 -46t15 -43t17 -43t12 -44q4 -28 0 -61t-14 -64t-26 -56t-38 -37q-28 -36 -68 -56t-74 -48q-22 -14 -49 -20t-55 -12q-22 -12 -52 -25t-62 -24t-64 -16 t-56 -3q-60 -22 -117 -29t-133 9q-72 -10 -133 6t-108 51t-82 84t-57 103zM288 304q34 -28 80 -34t95 -2t96 13t87 9q84 20 144 53t126 67q8 22 21 36t15 42q-10 16 -12 25t-2 29q-44 62 -76 133t-72 133q-4 -8 -14 -16t-22 4q-4 -16 -14 -23t-22 -6t-25 6t-23 13 q-58 -46 -116 -90t-104 -102q-8 -4 -10 -3t-12 -3q-16 -38 -39 -69t-45 -63t-38 -68t-18 -84zM440 1414q4 24 14 40q16 32 27 50t23 36q16 26 33 52t39 54q14 12 22 16q18 16 38 29t42 23q36 14 67 17t67 3h28q46 -4 84 -10q30 -16 47 -28t33 -24q18 -12 30 -26t22 -28 q24 -34 42 -32q10 0 18 9t18 21q4 6 16 18q12 38 48 62q28 14 46 18l20 4l20 4h20q24 8 50 8h6q34 -2 53 -18t19 -44q-4 -24 -14 -40q-14 -32 -25 -49t-23 -35q-18 -28 -35 -54t-39 -54q-14 -12 -22 -16q-18 -16 -38 -29t-42 -23q-36 -14 -67 -17t-67 -3h-28q-22 2 -45 4 t-39 6q-30 16 -47 28t-33 24q-18 12 -30 26t-22 28q-8 12 -19 23t-21 11q-10 -2 -19 -12t-19 -20q-4 -4 -8 -9t-8 -9q-12 -38 -48 -62q-18 -10 -28 -12t-18 -6l-20 -4l-20 -4l-20 2q-30 -10 -50 -10q-40 2 -59 19t-19 43z" />
<glyph unicode="&#xf6;" horiz-adv-x="1288" d="M26 226q-16 114 8 207t69 172t103 146t112 131q12 -4 19 1t13 14t13 17t17 10q14 30 41 45t43 43q18 4 30 12t23 18t23 19t28 13v22q36 16 53 37t41 51q18 2 29 2t33 4q16 28 29 42t39 30q24 -12 53 -16t51 -26q2 -20 12 -31t22 -20t23 -19t15 -28q8 -2 11 2t11 2 q6 -28 14 -37t16 -35q-10 -20 -15 -41t-25 -31q-2 -14 8 -15t12 -11q2 -18 -6 -26q48 -78 86 -165t86 -165q-2 -24 4 -46t15 -43t17 -43t12 -44q4 -28 0 -61t-14 -64t-26 -56t-38 -37q-28 -36 -68 -56t-74 -48q-22 -14 -49 -20t-55 -12q-22 -12 -52 -25t-62 -24t-64 -16 t-56 -3q-60 -22 -117 -29t-133 9q-72 -10 -133 6t-108 51t-82 84t-57 103zM288 304q34 -28 80 -34t95 -2t96 13t87 9q84 20 144 53t126 67q8 22 21 36t15 42q-10 16 -12 25t-2 29q-44 62 -76 133t-72 133q-4 -8 -14 -16t-22 4q-4 -16 -14 -23t-22 -6t-25 6t-23 13 q-58 -46 -116 -90t-104 -102q-8 -4 -10 -3t-12 -3q-16 -38 -39 -69t-45 -63t-38 -68t-18 -84zM456 1510q0 34 4 46t8 22q12 22 10 32l-8 36l30 2v42q28 2 42 2t26 3t27 9t49 20l28 12l12 -26q4 -8 23 -26t33 -32q22 -24 44 -44t26 -44q-8 -32 -13 -44t-11 -26 q-26 -22 -60 -46q-12 -10 -16 -12t-5 -3t-2 -4t-7 -15l-20 -14q-16 -6 -30 -5t-28 3q-6 0 -15 1t-13 1l-16 -16l-24 10q-22 10 -31 13t-19 11l-18 12q-8 30 -13 47t-13 33zM998 1472l8 26q4 10 3 36t1 44q2 32 0 60t10 50q42 22 66 30q20 -2 38 -4l36 -4q14 -2 18 -3t5 -1 t5 1t16 5l24 -4q14 -6 23 -17t19 -21q8 -16 16 -20l24 -2l8 -24q10 -20 13 -29l7 -21l2 -22q-14 -24 -23 -40t-13 -34q-22 -22 -34 -27t-22 -9q-22 -8 -30 -16l-20 -30l-20 18l-30 -28q-22 18 -32 27t-19 15t-24 13t-47 21z" />
<glyph unicode="&#xf7;" horiz-adv-x="1146" d="M0 616q16 2 23 23t1 31q32 8 69 11t73 6t68 8t56 17q100 4 207 8t201 10q34 -10 80 -10t90 -6t80 -23t52 -59q30 -4 43 -14t17 -25t3 -32t-1 -35q-50 -34 -138 -49t-184 -20t-186 -6t-142 -7q-106 -14 -166 -26t-82 -22q-38 2 -60 14t-36 30t-24 40t-24 46q8 16 3 45 t-23 45zM264 156l24 20l-24 36l36 27t21 18t19 23t30 46l18 26l26 -16q8 -4 35 -9t47 -9q34 -10 64 -14t50 -22l8 -14q2 -16 4 -31t6 -29q-6 -22 -13 -40t-13 -36q-4 -16 -6 -20t-2 -5t1 -4t1 -17l-8 -26q-10 -12 -24 -20t-26 -16q-6 -4 -14 -7t-12 -7l-6 -22l-26 -4 q-32 -10 -58 -10h-24q-24 22 -38 34t-30 22q-20 28 -22 41t-6 25q-4 28 -10 34zM452 1048q4 16 15 28t21 22q4 4 10 11t8 11l-2 24l24 12q28 22 52 30l22 6q28 -12 46 -18t38 -10q26 -20 33 -32t13 -22l12 -18t10 -10l36 -16l-16 -26l34 -28q-16 -26 -25 -37t-14 -22 t-10 -29t-13 -54l-8 -30l-28 6q-10 2 -37 -3t-47 -7q-34 -4 -65 -10t-55 4l-12 12q-8 16 -15 28t-15 26q-2 20 -2 40v40q0 14 1 19t1 6t-2 5l-8 16z" />
<glyph unicode="&#xf8;" horiz-adv-x="1296" d="M26 220q-16 114 8 207t70 173t104 148t112 132q12 -4 19 1t13 14t13 17t17 10q14 30 41 46t43 44q18 4 30 12t24 18t24 19t28 13v22q36 16 53 37t41 51q18 4 29 3t33 3q16 28 30 42t40 32q24 -14 53 -17t51 -25q2 -22 12 -33t23 -20t24 -19t15 -28q8 -2 11 2t9 2 q46 50 92 87t92 33q32 -74 34 -145t-16 -161q-18 -22 -52 -60t-74 -84q24 -52 49 -102t53 -96q-2 -24 4 -46t15 -44t17 -44t12 -44q4 -28 0 -61t-14 -65t-26 -57t-38 -39q-28 -34 -68 -55t-74 -49q-22 -14 -50 -20l-56 -12q-46 -26 -115 -49t-121 -19q-52 -18 -103 -27 t-115 1q-4 -26 4 -49t4 -51q-14 -12 -23 -27t-19 -30t-22 -30t-32 -25q-42 4 -69 11t-61 15q-26 20 -39 49t-17 61t0 66t10 66q-52 34 -91 86t-61 110zM290 298q12 -10 26 -16q28 32 62 69t65 71t59 64t44 50q6 20 25 46t45 56t54 63t56 63q-28 0 -52 20q-58 -46 -117 -91 t-105 -103q-8 -4 -10 -2t-12 -2q-16 -40 -39 -71t-45 -63t-38 -69t-18 -85zM656 298q78 6 139 40t127 68q8 20 21 35t15 43q-10 16 -11 25t-3 29l-20 32l-20 32q-38 -46 -67 -84t-39 -60q-24 -26 -62 -68t-80 -92z" />
<glyph unicode="&#xf9;" horiz-adv-x="1198" d="M103 601q1 115 31 205v22q6 44 12 73t10 55q6 44 18 82q28 6 42 23t24 31q28 2 38 -8t20 -32q10 -18 25 -40t45 -34q4 -16 11 -33t15 -37q16 -34 29 -71t15 -71q-20 -38 -31 -88t-14 -101t2 -98t17 -79l12 -26l34 4q60 16 109 35t91 45t80 61t80 81t73 105t52 123t32 127 t15 119q34 12 34 48l-4 22q-8 12 0 28q12 38 56 58q32 -20 57 -44t47 -48q4 -44 14 -76t22 -62q10 -28 19 -55t13 -65q-16 -52 -23 -96t-15 -92q-32 -70 -62 -124t-48 -94q-10 -10 -17 -23t-15 -27q-4 -6 -10 -18t-10 -16l-40 14l-8 -50l-28 -8l-20 -24q-38 -66 -80 -111 t-95 -80t-120 -65t-151 -66q-34 4 -59 5t-47 3q-38 0 -94 6q-6 16 -18 22t-22 6q-34 16 -51 47t-33 67q-10 22 -20 41t-22 39l34 10l-44 48q-4 6 -10 11t-10 11l-2 32q-6 138 -5 253zM371 1684q-1 22 5 44t18 45t24 51q16 8 36 29t22 43q10 -6 29 5t23 23q22 -12 41 -31 l37 -37t36 -33t40 -19q48 -54 103 -107t101 -103q8 -28 29 -42t38 -30t21 -38t-22 -64q12 -20 10 -36t-11 -30t-23 -28l-28 -28q-48 2 -100 30t-101 65t-91 76t-72 65q-58 52 -95 76t-53 28q-16 24 -17 46z" />
<glyph unicode="&#xfa;" horiz-adv-x="1198" d="M103 601q1 115 31 205v22q6 44 12 73t10 55q6 44 18 82q28 6 42 23t24 31q28 2 38 -8t20 -32q10 -18 25 -40t45 -34q4 -16 11 -33t15 -37q16 -34 29 -71t15 -71q-20 -38 -31 -88t-14 -101t2 -98t17 -79l12 -26l34 4q60 16 109 35t91 45t80 61t80 81t73 105t52 123t32 127 t15 119q34 12 34 48l-4 22q-8 12 0 28q12 38 56 58q32 -20 57 -44t47 -48q4 -44 14 -76t22 -62q10 -28 19 -55t13 -65q-16 -52 -23 -96t-15 -92q-32 -70 -62 -124t-48 -94q-10 -10 -17 -23t-15 -27q-4 -6 -10 -18t-10 -16l-40 14l-8 -50l-28 -8l-20 -24q-38 -66 -80 -111 t-95 -80t-120 -65t-151 -66q-34 4 -59 5t-47 3q-38 0 -94 6q-6 16 -18 22t-22 6q-34 16 -51 47t-33 67q-10 22 -20 41t-22 39l34 10l-44 48q-4 6 -10 11t-10 11l-2 32q-6 138 -5 253zM576 1402q4 22 21 38t38 30t29 42q46 50 101 103t103 107q20 4 39 19t37 33l37 37t41 31 q4 -12 23 -23t29 -5q2 -22 22 -43t36 -29q12 -28 24 -51t18 -45t5 -44t-17 -46q-16 -4 -53 -28t-95 -76q-30 -26 -72 -65t-91 -76t-101 -65t-100 -30l-28 28t-23 28t-11 30t10 36q-26 42 -22 64z" />
<glyph unicode="&#xfb;" horiz-adv-x="1198" d="M103 601q1 115 31 205v22q6 44 12 73t10 55q6 44 18 82q28 6 42 23t24 31q28 2 38 -8t20 -32q10 -18 25 -40t45 -34q4 -16 11 -33t15 -37q16 -34 29 -71t15 -71q-20 -38 -31 -88t-14 -101t2 -98t17 -79l12 -26l34 4q60 16 109 35t91 45t80 61t80 81t73 105t52 123t32 127 t15 119q34 12 34 48l-4 22q-8 12 0 28q12 38 56 58q32 -20 57 -44t47 -48q4 -44 14 -76t22 -62q10 -28 19 -55t13 -65q-16 -52 -23 -96t-15 -92q-32 -70 -62 -124t-48 -94q-10 -10 -17 -23t-15 -27q-4 -6 -10 -18t-10 -16l-40 14l-8 -50l-28 -8l-20 -24q-38 -66 -80 -111 t-95 -80t-120 -65t-151 -66q-34 4 -59 5t-47 3q-38 0 -94 6q-6 16 -18 22t-22 6q-34 16 -51 47t-33 67q-10 22 -20 41t-22 39l34 10l-44 48q-4 6 -10 11t-10 11l-2 32q-6 138 -5 253zM360 1538q2 18 14 40q16 4 45 26t75 66q22 20 52 51t66 61t74 54t74 34q20 4 28 4 q40 -14 78 -38t74 -54t66 -61t52 -51q46 -44 75 -66t45 -26q12 -22 14 -40t-4 -37t-16 -39t-20 -44q-12 -8 -28 -26t-18 -38q-8 6 -23 -4t-19 -20q-18 10 -33 27t-30 33t-30 28t-31 16q-40 46 -83 93t-81 89q-38 -42 -81 -89t-83 -93q-16 -4 -31 -16t-30 -28t-30 -33 t-33 -27q-4 10 -19 20t-23 4q-2 20 -18 38t-28 26q-10 24 -20 44t-16 39t-4 37z" />
<glyph unicode="&#xfc;" horiz-adv-x="1198" d="M103 601q1 115 31 205v22q6 44 12 73t10 55q6 44 18 82q28 6 42 23t24 31q28 2 38 -8t20 -32q10 -18 25 -40t45 -34q4 -16 11 -33t15 -37q16 -34 29 -71t15 -71q-20 -38 -31 -88t-14 -101t2 -98t17 -79l12 -26l34 4q60 16 109 35t91 45t80 61t80 81t73 105t52 123t32 127 t15 119q34 12 34 48l-4 22q-8 12 0 28q12 38 56 58q32 -20 57 -44t47 -48q4 -44 14 -76t22 -62q10 -28 19 -55t13 -65q-16 -52 -23 -96t-15 -92q-32 -70 -62 -124t-48 -94q-10 -10 -17 -23t-15 -27q-4 -6 -10 -18t-10 -16l-40 14l-8 -50l-28 -8l-20 -24q-38 -66 -80 -111 t-95 -80t-120 -65t-151 -66q-34 4 -59 5t-47 3q-38 0 -94 6q-6 16 -18 22t-22 6q-34 16 -51 47t-33 67q-10 22 -20 41t-22 39l34 10l-44 48q-4 6 -10 11t-10 11l-2 32q-6 138 -5 253zM356 1510q0 34 4 46t8 22q12 22 10 32l-8 36l30 2v42q28 2 42 2t26 3t27 9t49 20l28 12 l12 -26q4 -8 23 -26t33 -32q22 -24 44 -44t26 -44q-8 -32 -13 -44t-11 -26q-26 -22 -60 -46q-12 -10 -16 -12t-5 -3t-2 -4t-7 -15l-20 -14q-16 -6 -30 -5t-28 3q-6 0 -15 1t-13 1l-16 -16l-24 10q-22 10 -31 13t-19 11l-18 12q-8 30 -13 47t-13 33zM898 1472l8 26q4 10 3 36 t1 44q2 32 0 60t10 50q42 22 66 30q20 -2 38 -4l36 -4q14 -2 18 -3t5 -1t5 1t16 5l24 -4q14 -6 23 -17t19 -21q8 -16 16 -20l24 -2l8 -24q10 -20 13 -29l7 -21l2 -22q-14 -24 -23 -40t-13 -34q-22 -22 -34 -27t-22 -9q-22 -8 -30 -16l-20 -30l-20 18l-30 -28q-22 18 -32 27 t-19 15t-24 13t-47 21z" />
<glyph unicode="&#xfd;" horiz-adv-x="820" d="M84 88l2 20q4 10 7 21t7 23q8 28 19 56t33 50q4 14 18 45t48 93q28 48 44 76t26 44q-20 32 -48 58q-26 50 -45 96t-29 82q-2 26 -6 44t-8 38q-6 22 -10 44t-4 46q-10 14 -12 28l4 20q6 14 2 37t-10 47q-4 20 -9 44t-3 48t13 45t37 37l34 2q18 -10 35 -19t33 -19 q22 -10 42 -20t42 -26l14 -28l26 -22v-22q2 -8 2 -22q0 -26 8 -32l8 -24q0 -28 6 -53t12 -47t12 -46t2 -52q12 6 20 14q4 4 8 6t8 6l118 160l-4 20l42 40q16 16 31 30t25 30l22 16q64 100 182 124l28 4l8 -26q8 -22 33 -40t53 -34l18 -12q10 -20 10 -30t-2 -18l8 -20 q-16 -48 -39 -70t-45 -40q-18 -16 -33 -29t-23 -33l-14 -16q-42 -24 -54 -64l-6 -24h-24q-2 0 -9 -7t-21 -35q-14 -20 -20 -26l-10 -10q-2 -8 -5 -15t-7 -17q-26 -26 -32 -39t-14 -29t-15 -31t-23 -31l-10 -30q-14 -12 -24 -29t-20 -35q-10 -22 -22 -42t-30 -36 q-10 -30 -20 -47t-32 -39q-20 -80 -94 -174q-2 -18 -11 -35t-19 -33q-4 -6 -8 -13t-6 -11l-4 -20q-10 -16 -22 -28l-22 -22q-4 -6 -14 -16l-30 -12q-146 20 -178 156zM514 1586q4 22 21 38t38 30t29 42q46 50 101 103t103 107q20 4 39 19t37 33l37 37t41 31q4 -12 23 -23 t29 -5q2 -22 22 -43t36 -29q12 -28 24 -51t18 -45t5 -44t-17 -46q-16 -4 -53 -28t-95 -76q-30 -26 -72 -65t-91 -76t-101 -65t-100 -30l-28 28t-23 28t-11 30t10 36q-26 42 -22 64z" />
<glyph unicode="&#xfe;" horiz-adv-x="1186" d="M52 322q10 26 13 57t4 64t2 67t5 64q12 84 40 161t44 159q4 20 -3 36t-3 30q2 8 12 11t12 13q8 24 4 37t8 35q8 14 23 46t13 66q18 12 33 28t33 30t39 24t51 10q16 -20 22 -45t11 -49t15 -45t34 -33v-62q34 0 56 8q108 -4 220 -18t206 -36q20 -14 40 -27t54 -17 q48 -26 79 -62t49 -78t24 -85t4 -83q-30 -60 -86 -103t-114 -85q-8 0 -20 4q-8 -12 -21 -20t-28 -16t-30 -15t-27 -17q-42 -6 -74 -19t-63 -27t-63 -26t-74 -18q-16 -12 -38 -20t-46 -15t-45 -15t-33 -20q-10 10 -29 7t-35 -7q-10 -14 -8 -28t6 -30q8 -60 -9 -96t-49 -52 t-72 -19t-76 3q-22 28 -38 70t-29 89t-24 91t-19 78zM384 472q64 16 120 35t92 51q76 20 123 55t95 69q-2 14 6 22t16 18q-4 16 -13 28t-19 22q-84 12 -174 13t-182 -3q-22 -78 -40 -155t-24 -155z" />
<glyph unicode="&#xff;" horiz-adv-x="820" d="M84 88l2 20q4 10 7 21t7 23q8 28 19 56t33 50q4 14 18 45t48 93q28 48 44 76t26 44q-20 32 -48 58q-26 50 -45 96t-29 82q-2 26 -6 44t-8 38q-6 22 -10 44t-4 46q-10 14 -12 28l4 20q6 14 2 37t-10 47q-4 20 -9 44t-3 48t13 45t37 37l34 2q18 -10 35 -19t33 -19 q22 -10 42 -20t42 -26l14 -28l26 -22v-22q2 -8 2 -22q0 -26 8 -32l8 -24q0 -28 6 -53t12 -47t12 -46t2 -52q12 6 20 14q4 4 8 6t8 6l118 160l-4 20l42 40q16 16 31 30t25 30l22 16q64 100 182 124l28 4l8 -26q8 -22 33 -40t53 -34l18 -12q10 -20 10 -30t-2 -18l8 -20 q-16 -48 -39 -70t-45 -40q-18 -16 -33 -29t-23 -33l-14 -16q-42 -24 -54 -64l-6 -24h-24q-2 0 -9 -7t-21 -35q-14 -20 -20 -26l-10 -10q-2 -8 -5 -15t-7 -17q-26 -26 -32 -39t-14 -29t-15 -31t-23 -31l-10 -30q-14 -12 -24 -29t-20 -35q-10 -22 -22 -42t-30 -36 q-10 -30 -20 -47t-32 -39q-20 -80 -94 -174q-2 -18 -11 -35t-19 -33q-4 -6 -8 -13t-6 -11l-4 -20q-10 -16 -22 -28l-22 -22q-4 -6 -14 -16l-30 -12q-146 20 -178 156zM274 1570q0 34 4 46t8 22q12 22 10 32l-8 36l30 2v42q28 2 42 2t26 3t27 9t49 20l28 12l12 -26 q4 -8 23 -26t33 -32q22 -24 44 -44t26 -44q-8 -32 -13 -44t-11 -26q-26 -22 -60 -46q-12 -10 -16 -12t-5 -3t-2 -4t-7 -15l-20 -14q-16 -6 -30 -5t-28 3q-6 0 -15 1t-13 1l-16 -16l-24 10q-22 10 -31 13t-19 11l-18 12q-8 30 -13 47t-13 33zM816 1532l8 26q4 10 3 36t1 44 q2 32 0 60t10 50q42 22 66 30q20 -2 38 -4l36 -4q14 -2 18 -3t5 -1t5 1t16 5l24 -4q14 -6 23 -17t19 -21q8 -16 16 -20l24 -2l8 -24q10 -20 13 -29l7 -21l2 -22q-14 -24 -23 -40t-13 -34q-22 -22 -34 -27t-22 -9q-22 -8 -30 -16l-20 -30l-20 18l-30 -28q-22 18 -32 27 t-19 15t-24 13t-47 21z" />
<glyph unicode="&#x152;" horiz-adv-x="2484" d="M28 286q-18 136 10 247t82 205t123 176t133 158q14 -6 23 0t16 16t16 20t21 14q8 18 21 30t28 23t28 23t23 30q20 4 35 14t28 22t27 22t34 16v26q44 20 64 44t48 62q22 2 35 2t41 4q18 34 34 50t46 36q30 -16 64 -19t62 -31q2 -24 14 -37t26 -24t28 -23t18 -34q10 0 13 4 t13 2q4 -16 8 -26t9 -18t10 -18t9 -24q-10 -24 -18 -51t-32 -37q0 -16 12 -17t14 -15q2 -18 -6 -30q52 -86 94 -181t94 -183q16 34 32 69t32 75q-34 32 -49 69t-23 75t-12 77t-16 79q24 36 58 59t75 38t89 24t102 21q96 30 172 47t148 28t150 20t180 27q2 -6 7 -6h13 q6 -14 22 -14q0 6 -1 11t-1 9q4 0 11 -2t12 -4t9 1t2 13q24 -42 62 -69t84 -47q2 -18 1 -26t-3 -15t-2 -16t4 -25q-32 -54 -73 -84t-87 -46t-97 -24t-104 -17t-107 -25t-106 -48q-16 6 -29 5t-27 -5t-31 -8t-41 0q-16 -14 -37 -20t-43 -12q10 -22 9 -44t5 -38q84 -8 186 1 t200 13q2 -10 -2 -14t-4 -14q18 -12 34 -30t33 -35t35 -28t42 -9q10 -20 14 -42t-6 -46q-40 -26 -78 -53t-79 -49t-89 -36t-104 -12h-17t-17 8q-20 -10 -53 -7t-55 -7q-28 10 -65 10t-65 10q-36 -52 -68 -109t-56 -121q82 -12 136 -10t102 8t99 12t125 4q50 24 115 33 t121 27q20 -6 34 -23t27 -34t27 -29t36 -8q10 -10 13 -24t6 -26t9 -19t22 -5q-38 -78 -85 -120t-106 -65t-132 -34t-163 -27q-22 -4 -37 1t-31 5q-56 -10 -133 -20t-155 -8t-150 20t-120 64q-16 16 -23 38t-33 36q0 10 -1 19t-3 19q-18 -10 -34 -21t-30 -23q-28 -16 -60 -23 t-66 -15q-26 -16 -62 -31t-74 -27t-76 -19t-68 -3q-72 -26 -140 -36t-160 10q-88 -12 -160 8t-129 62t-98 100t-67 124zM342 380q40 -34 95 -41t113 -2t116 15t104 10q0 18 16 18q84 8 156 47t150 79q10 24 26 42t18 52q-10 18 -13 30t-3 36q-52 72 -90 157t-88 161 q-4 -10 -16 -20t-26 4q-6 -20 -18 -27t-27 -7t-30 6t-27 16q-70 -56 -139 -108t-125 -122q-10 -6 -12 -4t-14 -2q-20 -46 -47 -83t-53 -75t-45 -81t-21 -101z" />
<glyph unicode="&#x153;" horiz-adv-x="2070" d="M26 226q-16 114 8 207t69 172t103 147t112 132q12 -4 19 1t13 13t13 16t17 12q14 28 41 44t43 44q18 4 30 12t23 18t23 19t28 13v22q36 16 54 36t40 52q18 2 29 1t33 3q16 28 29 43t39 31q24 -12 53 -16t51 -26q2 -20 12 -32t23 -21t24 -18t15 -27q8 -2 11 2t9 2 q6 -28 15 -37t17 -35q-10 -20 -16 -42t-26 -32q-2 -12 9 -13t13 -13q0 -18 -6 -26q44 -72 79 -151t77 -151q16 28 29 57t25 63q-28 26 -41 56t-19 62t-9 64t-13 66q20 32 48 51t63 31t75 20t84 18q80 26 143 40t124 23t126 17t149 22q22 -16 36 -16q6 18 18 11t10 11 q20 -34 51 -57t69 -39q2 -14 1 -21t-2 -13t-1 -13t4 -21q-42 -68 -98 -93t-119 -36t-131 -23t-132 -52q-14 6 -25 4t-23 -5t-26 -6t-34 1q-12 -12 -31 -17t-37 -11q10 -20 9 -38t5 -30q70 -8 154 0t168 10q2 -8 -2 -11t-4 -11q16 -10 29 -25t27 -29t30 -24t36 -8 q18 -34 6 -74q-34 -22 -66 -44t-66 -40t-73 -30t-87 -10h-15t-13 6q-18 -10 -46 -6t-46 -6q-22 10 -53 10t-55 8q-30 -44 -57 -92t-47 -102q68 -10 114 -8t86 8t82 10t104 2q42 22 97 29t101 23q16 -6 28 -20t23 -28t23 -24t30 -8q8 -8 11 -19t5 -21t7 -17t17 -5 q-32 -66 -71 -101t-89 -53t-111 -27t-135 -23q-18 -4 -29 0t-27 4q-48 -8 -112 -16t-130 -7t-126 16t-98 53q-16 14 -20 33t-26 29q-2 8 -3 15t-3 17q-14 -10 -27 -18t-25 -18q-22 -14 -49 -20t-55 -12q-46 -26 -115 -49t-121 -19q-58 -22 -116 -29t-134 9q-72 -10 -133 6 t-108 51t-82 84t-57 103zM288 306q34 -28 80 -35t95 -2t97 13t88 10q82 20 143 52t125 66q8 22 22 36t14 42q-8 16 -10 26t-4 30q-42 60 -74 132t-74 134q-4 -8 -13 -16t-23 2q-10 -32 -36 -28t-48 20q-58 -46 -116 -91t-104 -103q-8 -4 -10 -2t-12 -2q-16 -38 -39 -69 t-45 -63t-38 -68t-18 -84z" />
<glyph unicode="&#x178;" horiz-adv-x="1010" d="M84 120l2 22l18 54q10 34 22 67t40 59q6 18 23 55t57 111q32 58 51 92t31 52q-20 36 -56 70q-32 60 -55 115t-35 99q-2 48 -16 98l-12 52t-6 54q-8 14 -14 36l4 24q10 16 5 43t-13 55q-6 26 -11 55t-3 57t15 54t45 44l20 14l20 -12q22 -14 42 -24l40 -20q24 -12 48 -25 t52 -29l20 -14l-2 -22q0 -4 2 -10t6 -10l22 -6l2 -28v-24q0 -18 2 -25t8 -15l10 -26q0 -36 6 -64t14 -56q10 -28 16 -57t2 -63q12 6 24 18q4 4 9 8t11 8l140 190l-4 24l50 48q20 16 38 33t30 39l12 18q90 120 232 148l34 8l10 -32q10 -28 39 -49t63 -41l22 -14 q12 -24 12 -36t-2 -20l10 -26q-22 -58 -48 -83t-54 -47q-22 -18 -40 -36t-28 -40l-16 -20q-50 -26 -64 -76l-8 -28h-30q-2 0 -10 -9t-24 -43q-18 -24 -25 -31l-11 -11q-4 -10 -7 -18t-7 -20l-12 -16q-18 -16 -26 -31t-18 -35q-8 -18 -18 -37t-28 -37l4 -22l-16 -14 q-16 -14 -28 -35t-24 -43q-12 -24 -26 -48t-36 -44q-14 -36 -25 -56t-37 -48q-24 -96 -114 -206q-2 -22 -13 -43t-23 -39q-4 -8 -9 -17t-7 -13l-6 -22q-12 -22 -25 -36t-25 -26q-6 -4 -11 -10t-9 -10l-34 -12q-176 24 -214 186zM356 1816q0 34 4 46t8 22q12 22 10 32l-8 36 l30 2v42q28 2 42 2t26 3t27 9t49 20l28 12l12 -26q4 -8 23 -26t33 -32q22 -24 44 -44t26 -44q-8 -32 -13 -44t-11 -26q-26 -22 -60 -46q-12 -10 -16 -12t-5 -3t-2 -4t-7 -15l-20 -14q-16 -6 -30 -5t-28 3q-6 0 -15 1t-13 1l-16 -16l-24 10q-22 10 -31 13t-19 11l-18 12 q-8 30 -13 47t-13 33zM898 1778l8 26q4 10 3 36t1 44q2 32 0 60t10 50q42 22 66 30q20 -2 38 -4l36 -4q14 -2 18 -3t5 -1t5 1t16 5l24 -4q14 -6 23 -17t19 -21q8 -16 16 -20l24 -2l8 -24q10 -20 13 -29l7 -21l2 -22q-14 -24 -23 -40t-13 -34q-22 -22 -34 -27t-22 -9 q-22 -8 -30 -16l-20 -30l-20 18l-30 -28q-22 18 -32 27t-19 15t-24 13t-47 21z" />
<glyph unicode="&#x2c6;" horiz-adv-x="1546" d="M480 1252q2 18 14 40q16 4 45 26t75 66q22 20 52 51t66 61t74 54t74 34q20 4 28 4q40 -14 78 -38t74 -54t66 -61t52 -51q46 -44 75 -66t45 -26q12 -22 14 -40t-4 -37t-16 -39t-20 -44q-12 -8 -28 -26t-18 -38q-8 6 -23 -4t-19 -20q-18 10 -33 27t-30 33t-30 28t-31 16 q-40 46 -83 93t-81 89q-38 -42 -81 -89t-83 -93q-16 -4 -31 -16t-30 -28t-30 -33t-33 -27q-4 10 -19 20t-23 4q-2 20 -18 38t-28 26q-10 24 -20 44t-16 39t-4 37z" />
<glyph unicode="&#x2dc;" horiz-adv-x="1546" d="M400 1210q4 24 14 40q16 32 27 50t23 36q16 26 33 52t39 54q14 12 22 16q18 16 38 29t42 23q36 14 67 17t67 3h28q46 -4 84 -10q30 -16 47 -28t33 -24q18 -12 30 -26t22 -28q24 -34 42 -32q10 0 18 9t18 21q4 6 16 18q12 38 48 62q28 14 46 18l20 4l20 4h20q24 8 50 8h6 q34 -2 53 -18t19 -44q-4 -24 -14 -40q-14 -32 -25 -49t-23 -35q-18 -28 -35 -54t-39 -54q-14 -12 -22 -16q-18 -16 -38 -29t-42 -23q-36 -14 -67 -17t-67 -3h-28q-22 2 -45 4t-39 6q-30 16 -47 28t-33 24q-18 12 -30 26t-22 28q-8 12 -19 23t-21 11q-10 -2 -19 -12t-19 -20 q-4 -4 -8 -9t-8 -9q-12 -38 -48 -62q-18 -10 -28 -12t-18 -6l-20 -4l-20 -4l-20 2q-30 -10 -50 -10q-40 2 -59 19t-19 43z" />
<glyph unicode="&#x2000;" horiz-adv-x="1136" />
<glyph unicode="&#x2001;" horiz-adv-x="2272" />
<glyph unicode="&#x2002;" horiz-adv-x="1136" />
<glyph unicode="&#x2003;" horiz-adv-x="2272" />
<glyph unicode="&#x2004;" horiz-adv-x="757" />
<glyph unicode="&#x2005;" horiz-adv-x="568" />
<glyph unicode="&#x2006;" horiz-adv-x="378" />
<glyph unicode="&#x2007;" horiz-adv-x="378" />
<glyph unicode="&#x2008;" horiz-adv-x="284" />
<glyph unicode="&#x2009;" horiz-adv-x="454" />
<glyph unicode="&#x200a;" horiz-adv-x="126" />
<glyph unicode="&#x2010;" horiz-adv-x="1248" d="M40 588q16 2 24 23t0 31q32 8 69 11t73 5t69 7t57 17q100 2 207 6t201 8q34 -10 80 -11t90 -6t80 -23t50 -60q30 -4 43 -14t18 -25t3 -33t-2 -36q-50 -34 -138 -47t-184 -18t-186 -5t-142 -6q-108 -12 -167 -23t-81 -21q-38 2 -60 14t-36 29t-24 39t-24 46q8 16 4 46 t-24 46z" />
<glyph unicode="&#x2011;" horiz-adv-x="1248" d="M40 588q16 2 24 23t0 31q32 8 69 11t73 5t69 7t57 17q100 2 207 6t201 8q34 -10 80 -11t90 -6t80 -23t50 -60q30 -4 43 -14t18 -25t3 -33t-2 -36q-50 -34 -138 -47t-184 -18t-186 -5t-142 -6q-108 -12 -167 -23t-81 -21q-38 2 -60 14t-36 29t-24 39t-24 46q8 16 4 46 t-24 46z" />
<glyph unicode="&#x2012;" horiz-adv-x="1248" d="M40 588q16 2 24 23t0 31q32 8 69 11t73 5t69 7t57 17q100 2 207 6t201 8q34 -10 80 -11t90 -6t80 -23t50 -60q30 -4 43 -14t18 -25t3 -33t-2 -36q-50 -34 -138 -47t-184 -18t-186 -5t-142 -6q-108 -12 -167 -23t-81 -21q-38 2 -60 14t-36 29t-24 39t-24 46q8 16 4 46 t-24 46z" />
<glyph unicode="&#x2013;" horiz-adv-x="1206" d="M20 588q16 2 24 23t0 31q32 8 69 11t73 5t68 7t56 17q100 2 208 6t202 8q32 -10 78 -11t91 -6t81 -23t50 -60q30 -4 43 -14t17 -25t3 -33t-1 -36q-34 -22 -85 -35t-111 -20t-126 -10t-127 -4t-114 -2t-89 -5q-106 -12 -165 -23t-81 -21q-38 2 -60 14t-36 29t-24 39 t-24 46q8 16 3 46t-23 46z" />
<glyph unicode="&#x2014;" horiz-adv-x="1800" d="M20 614q22 2 34 23t2 31q50 8 107 9t113 3t106 6t88 16q156 0 324 2t314 4q52 -10 123 -12t140 -8t125 -24t80 -62q46 -4 67 -15t29 -26t6 -32t-2 -35q-52 -22 -131 -34t-174 -18t-197 -7t-197 -1h-178t-137 -4q-164 -10 -256 -20t-128 -20q-60 4 -94 16t-56 30t-38 40 t-38 46q12 16 4 46t-36 46z" />
<glyph unicode="&#x2018;" horiz-adv-x="416" d="M184 1164q16 22 23 58t17 66q8 20 9 25t1 6t1 6t11 25q4 10 1 17t1 13q2 4 9 8t11 8q6 12 5 18t9 18q8 10 22 27t14 33q28 18 52 38t68 30q10 -6 37 -20t58 -27t61 -24t46 -13q0 -8 -3 -20t-3 -23t4 -19t14 -8q-34 -52 -69 -107t-65 -112t-49 -113t-21 -110 q-2 -32 -33 -36t-71 5t-80 24t-58 23q-8 18 -12 42t-5 49l-2 50t-3 43z" />
<glyph unicode="&#x2019;" horiz-adv-x="408" d="M150 1017q-18 25 4 49q36 38 63 91t48 114t36 126t27 125q8 -8 17 -5t16 10t14 17t11 16q12 -10 41 -24t61 -27t60 -23t40 -12q24 -38 26 -69t10 -65q-12 -10 -14 -33t-4 -33q-2 -16 -7 -19t-9 -17q-2 -4 1 -12t1 -12q-2 -10 -9 -11t-11 -11q-8 -22 -10 -27t-4 -6t-5 -5 t-11 -24q-14 -28 -35 -57t-27 -57q-28 -24 -69 -61t-77 -51q-18 8 -57 25t-74 40t-53 48z" />
<glyph unicode="&#x201a;" horiz-adv-x="418" d="M-218 -246q-18 26 4 48q36 38 63 91t47 114t35 126t29 125q8 -8 16 -5t16 10t14 17t12 16q12 -10 41 -23t61 -26t60 -23t40 -12q22 -40 25 -71t9 -65q-10 -10 -13 -33t-3 -33q-2 -16 -8 -19t-10 -17q-2 -4 2 -12t2 -12q-2 -10 -9 -11t-11 -11q-8 -22 -11 -27t-4 -6l-4 -4 t-13 -23q-14 -30 -34 -59t-26 -57q-28 -24 -69 -61t-77 -51q-18 8 -57 26t-74 40t-53 48z" />
<glyph unicode="&#x201c;" horiz-adv-x="840" d="M184 1128q14 24 18 62t14 70q6 22 6 27v6t1 7t9 28q4 10 0 17t0 15q4 4 10 9t8 9q6 14 4 20t8 18q6 10 19 30t11 36q28 20 49 43t61 35q10 -6 36 -19t57 -25t59 -22t44 -12q0 -8 -1 -20t-1 -24t4 -20t14 -8q-30 -56 -60 -117t-55 -122t-41 -122t-14 -117q0 -34 -29 -40 t-68 1t-77 21t-56 22q-8 18 -13 42t-8 51t-5 53t-4 46zM608 1164q16 22 22 58t18 66q8 20 8 25v6t2 6t12 25q4 10 0 17t0 13q4 4 11 8t9 8q8 12 6 18t8 18q8 10 22 27t14 33q28 18 53 38t69 30q10 -6 36 -20t58 -27t62 -24t46 -13q0 -8 -3 -20t-3 -23t3 -19t15 -8 q-34 -52 -69 -107t-65 -112t-50 -113t-22 -110q0 -32 -31 -36t-72 5t-80 24t-57 23q-8 18 -12 42t-6 49t-3 50t-1 43z" />
<glyph unicode="&#x201d;" horiz-adv-x="872" d="M150 1017q-18 25 4 49q36 38 63 91t48 114t36 126t27 125q8 -8 17 -5t16 10t14 17t11 16q12 -10 41 -24t61 -27t60 -23t40 -12q24 -38 26 -69t10 -65q-12 -10 -14 -33t-4 -33q-2 -16 -7 -19t-9 -17q-2 -4 1 -12t1 -12q-2 -10 -9 -11t-11 -11q-8 -22 -10 -27t-4 -6t-5 -5 t-11 -24q-14 -28 -35 -57t-27 -57q-28 -24 -69 -61t-77 -51q-18 8 -57 25t-74 40t-53 48zM579 1017q-15 25 9 49q40 38 73 91t60 114t49 126t42 125q8 -8 16 -5t16 10t16 17t14 16q12 -10 39 -24t57 -27t57 -23t39 -12q20 -38 18 -69t2 -65q-12 -10 -17 -33t-7 -33 q-4 -16 -10 -19t-12 -17q-2 -4 1 -12t1 -12q-4 -10 -12 -11t-12 -11q-10 -22 -13 -27t-4 -6t-4 -5t-15 -24q-16 -28 -40 -57t-34 -57q-16 -12 -35 -28t-41 -33t-43 -31t-39 -20q-18 8 -55 25t-69 40t-47 48z" />
<glyph unicode="&#x201e;" horiz-adv-x="882" d="M-218 -246q-18 26 4 48q36 38 63 91t47 114t35 126t29 125q8 -8 16 -5t16 10t14 17t12 16q12 -10 41 -23t61 -26t60 -23t40 -12q22 -40 25 -71t9 -65q-10 -10 -13 -33t-3 -33q-2 -16 -8 -19t-10 -17q-2 -4 2 -12t2 -12q-2 -10 -9 -11t-11 -11q-8 -22 -11 -27t-4 -6l-4 -4 t-13 -23q-14 -30 -34 -59t-26 -57q-28 -24 -69 -61t-77 -51q-18 8 -57 26t-74 40t-53 48zM209 -246q-15 26 9 48q42 38 74 91t59 114t50 126t43 125q6 -8 15 -5t17 10t15 17t13 16q12 -10 39 -23t58 -26t58 -23t39 -12q18 -40 17 -71t3 -65q-12 -10 -17 -33t-9 -33 q-4 -16 -9 -19t-11 -17q-2 -4 0 -12t0 -12q-4 -10 -11 -11t-11 -11q-10 -22 -13 -27t-5 -6t-5 -4t-15 -23q-16 -30 -40 -59t-32 -57q-16 -12 -35 -28t-41 -33t-44 -31t-40 -20q-18 8 -54 26t-69 40t-48 48z" />
<glyph unicode="&#x2022;" horiz-adv-x="614" d="M66 666q8 18 20 33t26 29q4 6 12 14t10 12l-2 32l30 14q4 4 16 12q10 6 21 13t27 11l28 10q34 -16 57 -24t47 -12l20 -12q14 -14 23 -28t17 -26q16 -30 26 -36l44 -20l-20 -32l44 -34q-20 -32 -31 -47t-17 -29t-12 -35t-18 -67l-10 -40l-36 8q-12 4 -46 -2t-58 -10 q-42 -4 -81 -12t-69 6l-16 14q-18 36 -36 66q-2 28 -2 52v48v25v7t-3 6t-9 20z" />
<glyph unicode="&#x2026;" horiz-adv-x="1574" d="M-62 130l24 18l-22 38q24 18 36 26t20 17t18 23t32 46l18 26l26 -14q8 -6 35 -11t47 -9q34 -10 64 -15t48 -21l8 -16q4 -16 6 -30t6 -30q-8 -20 -14 -39t-12 -37q-6 -14 -8 -18t-2 -6t1 -5t1 -17l-8 -24q-10 -14 -24 -22t-28 -14q-4 -4 -12 -7t-12 -7l-6 -24l-26 -4 q-34 -8 -58 -8h-24q-24 22 -38 34t-30 22q-20 28 -22 41t-6 25q-4 26 -10 34zM492 130l24 18l-24 38q24 18 36 26t21 17t19 23t32 46l18 26l24 -14q10 -6 37 -11t45 -9q34 -10 65 -15t49 -21l8 -16q4 -16 5 -30t5 -30q-6 -20 -13 -39t-13 -37q-6 -14 -8 -18t-2 -6t1 -5 t1 -17l-8 -24q-10 -14 -23 -22t-27 -14q-6 -4 -14 -7t-12 -7l-6 -24l-26 -4q-32 -8 -58 -8h-24q-22 22 -37 34t-31 22q-22 38 -26 66q-2 24 -12 34zM1044 130l24 18l-22 38q24 18 36 26t20 17t18 23t32 46l18 26l26 -14q8 -6 35 -11t47 -9q34 -10 64 -15t48 -21l8 -16 q4 -16 6 -30t6 -30q-14 -42 -28 -76q-4 -14 -6 -18t-2 -6t1 -5t1 -17l-8 -24q-10 -14 -24 -22t-28 -14q-6 -4 -13 -7t-11 -7l-6 -24l-26 -4q-34 -8 -58 -8h-24q-24 22 -38 34t-30 22q-20 28 -22 41t-6 25q-4 26 -10 34z" />
<glyph unicode="&#x202f;" horiz-adv-x="454" />
<glyph unicode="&#x2039;" horiz-adv-x="660" d="M-16 386q-12 58 6 106t58 58q10 -8 17 -7t17 -9q18 26 43 49t49 13q4 16 12 16t10 18q40 14 78 44t74 65t70 70t66 63q14 -8 25 0t25 8q-4 -8 -2 -10t6 -2t9 -1t7 -7q10 -16 16 -23t9 -12t7 -11l12 -18q-4 -20 -5 -33t1 -23t3 -22t-1 -32q-54 -70 -95 -111t-80 -71 t-81 -58t-96 -70q22 -28 58 -49t72 -48t65 -67t39 -106q14 0 25 -30t7 -70q-10 -14 -18 -29t-20 -21q-12 -4 -29 4t-38 22t-42 29t-41 25q-22 10 -44 19t-42 25q-10 6 -15 18t-15 16q-18 6 -37 23t-40 36t-41 39t-38 36q0 14 -13 31t-29 21q0 24 -10 43t-14 43z" />
<glyph unicode="&#x203a;" horiz-adv-x="700" d="M-40 38q4 20 4 33t-1 24t-2 23t-1 30q54 70 95 111t80 71t81 58t98 72q-24 26 -59 48t-71 49t-66 67t-40 104q-12 0 -24 31t-8 71q10 12 19 27t21 21q10 6 27 -3t38 -22t42 -29t41 -26q22 -10 44 -18t42 -24q10 -8 15 -20t15 -16q18 -6 38 -22t41 -36t41 -41t38 -35 q-2 -14 12 -31t30 -19q0 -26 10 -45t14 -41q10 -58 -8 -107t-56 -59q-12 8 -19 7t-17 9q-18 -26 -43 -49t-49 -13q0 -8 -3 -11t-7 -5t-7 -5t-5 -13q-40 -14 -78 -43t-74 -64t-70 -71t-66 -62q-12 8 -24 -1t-26 -9q2 8 1 10t-5 2t-9 2t-7 8q-10 14 -16 22l-9 12t-7 10t-10 18 z" />
<glyph unicode="&#x205f;" horiz-adv-x="568" />
</font>
</defs>
</svg>
