<svg xmlns="http://www.w3.org/2000/svg" xmlns:xlink="http://www.w3.org/1999/xlink" viewBox="0 0 1654.21 1200">
    <defs>
        <style>
            .a,.q{fill:#fff}.a,.b,.c{fill-rule:evenodd}.b{fill:#72d9e0}.c{fill:#ff0}.h{fill:#d1d1d1}.i{fill:#b7b7b7}.k{fill:#a5a5a5}.l,.q{stroke-miterlimit:10;stroke-width:7.25px}.l{fill:none;stroke:#fff}.q{stroke:#d1d1d1;stroke-linecap:round}
        </style>
    </defs>
    <title>
        m2
    </title>
    <polygon class="h" points="1167.19 445.57 1166.11 829.45 604.56 505.24 605.65 121.35 1167.19 445.57"/>
    <polygon class="i" points="1167.19 445.57 1205.5 423.29 1204.41 807.2 1166.11 829.45 1167.19 445.57"/>
    <polygon points="605.65 121.35 643.95 99.08 1205.5 423.29 1167.19 445.57 605.65 121.35" style="fill:#bfbfbf"/>
    <polygon class="h" points="1167.08 830.2 835.16 1023.09 273.62 698.89 605.53 506 1167.08 830.2"/>
    <polygon class="k" points="1167.08 830.2 1166.94 874.51 835.02 1067.39 835.16 1023.09 1167.08 830.2"/>
    <polygon class="k" points="835.16 1023.09 835.02 1067.39 273.48 743.18 273.62 698.89 835.16 1023.09"/>
    <polygon class="i" points="916.81 975.05 356.01 651.76 607.48 505.71 1168.28 828.99 916.81 975.05"/>
    <path class="l" d="M1442,883.32,1441,1259.91a3.18,3.18,0,0,1-3.21,3.15,3.24,3.24,0,0,1-1.55-.42L881,942.08a3.14,3.14,0,0,1-1.57-2.74l1.06-376.6a3.17,3.17,0,0,1,3.17-3.15,3.21,3.21,0,0,1,1.57.42l555.25,320.56A3.24,3.24,0,0,1,1442,883.32Z" transform="translate(-274.83 -435.94)"/>
    <path class="l" d="M1443.59,880.57l32-18.58a3.18,3.18,0,0,1,4.33,1.18,3.11,3.11,0,0,1,.42,1.57l-1.06,376.58a3.19,3.19,0,0,1-1.58,2.72l-32,18.56a3.14,3.14,0,0,1-4.3-1.1,3.18,3.18,0,0,1-.44-1.64L1442,883.3A3.16,3.16,0,0,1,1443.59,880.57Z" transform="translate(-274.83 -435.94)"/>
    <path class="l" d="M885.2,554.53l32-18.6a3.12,3.12,0,0,1,3.18,0l555.22,320.56a3.16,3.16,0,0,1,1.16,4.31,3.12,3.12,0,0,1-1.16,1.15l-32,18.6a3.13,3.13,0,0,1-3.16,0L885.2,560a3.15,3.15,0,0,1-1.18-4.3A3.11,3.11,0,0,1,885.2,554.53Z" transform="translate(-274.83 -435.94)"/>
    <path class="l" d="M1437.17,1268.88l-325.61,189.23a3.18,3.18,0,0,1-3.16,0L553.17,1137.56a3.18,3.18,0,0,1-1.14-4.35,3,3,0,0,1,1.14-1.14L878.68,942.85a3.17,3.17,0,0,1,3.18,0l555.31,320.52a3.16,3.16,0,0,1,1.21,4.3A3.13,3.13,0,0,1,1437.17,1268.88Z" transform="translate(-274.83 -435.94)"/>
    <path class="l" d="M1441.87,1271.64l-.1,37a3.13,3.13,0,0,1-1.58,2.72l-325.57,189.2a3.16,3.16,0,0,1-4.74-2.75l.1-37a3.14,3.14,0,0,1,1.58-2.73l325.57-189.21a3.16,3.16,0,0,1,4.74,2.74Z" transform="translate(-274.83 -435.94)"/>
    <path class="l" d="M1110,1460.82l-.1,37a3.18,3.18,0,0,1-4.76,2.73L549.89,1180a3.18,3.18,0,0,1-1.58-2.75l.1-37a3.17,3.17,0,0,1,3.21-3.14,3.11,3.11,0,0,1,1.55.42l555.23,320.55A3.22,3.22,0,0,1,1110,1460.82Z" transform="translate(-274.83 -435.94)"/>
    <path d="M885.69,1324.68l-124.92-72.13a4.08,4.08,0,0,1,.19-7.17L812.91,1219a22.53,22.53,0,0,1,22.49,0l96.75,55.84a15.65,15.65,0,0,1,0,27.13Z" transform="translate(-274.83 -435.94)" style="fill:#9b9b9b"/>
    <path class="l" d="M865.91,1014.39l-32.88-19c-2.39-1.36-2.09-3.77.68-5.37l31.59-18.2a10.38,10.38,0,0,1,9.32-.4l32.87,19c2.37,1.38,2.08,3.77-.67,5.37L875.23,1014A10.32,10.32,0,0,1,865.91,1014.39Z" transform="translate(-274.83 -435.94)"/>
    <path class="l" d="M924.73,1048.35l-32.88-19c-2.38-1.36-2.09-3.77.68-5.37l31.59-18.2a10.38,10.38,0,0,1,9.32-.4l32.81,19.08c2.37,1.36,2.08,3.77-.67,5.37L934,1048A10.28,10.28,0,0,1,924.73,1048.35Z" transform="translate(-274.83 -435.94)"/>
    <path class="l" d="M983.55,1082.31l-32.88-19c-2.38-1.36-2.09-3.77.68-5.37l31.59-18.2a10.31,10.31,0,0,1,9.32-.4l32.87,19c2.37,1.36,2.08,3.77-.67,5.37l-31.59,18.2A10.35,10.35,0,0,1,983.55,1082.31Z" transform="translate(-274.83 -435.94)"/>
    <path class="l" d="M1042.37,1116.27l-32.88-19c-2.38-1.39-2.09-3.78.68-5.38l31.59-18.2a10.31,10.31,0,0,1,9.32-.39l32.87,19c2.37,1.36,2.08,3.77-.67,5.37l-31.59,18.21A10.35,10.35,0,0,1,1042.37,1116.27Z" transform="translate(-274.83 -435.94)"/>
    <path class="l" d="M1101.19,1150.21l-33-19c-2.39-1.39-2.1-3.79.67-5.37l31.59-18.21a10.32,10.32,0,0,1,9.32-.39l32.87,19c2.37,1.38,2,3.79-.67,5.39l-31.59,18.21A10.27,10.27,0,0,1,1101.19,1150.21Z" transform="translate(-274.83 -435.94)"/>
    <path class="l" d="M1160,1184.17l-32.87-19c-2.39-1.38-2.1-3.79.67-5.37l31.59-18.21a10.35,10.35,0,0,1,9.32-.39l32.87,19c2.37,1.38,2.08,3.79-.67,5.39l-31.59,18.21A10.34,10.34,0,0,1,1160,1184.17Z" transform="translate(-274.83 -435.94)"/>
    <path class="l" d="M1218.83,1218.13l-32.87-19c-2.39-1.38-2.1-3.79.67-5.37l31.59-18.23a10.38,10.38,0,0,1,9.32-.37l32.81,19.07c2.37,1.38,2.08,3.79-.67,5.39l-31.59,18.21A10.34,10.34,0,0,1,1218.83,1218.13Z" transform="translate(-274.83 -435.94)"/>
    <path class="l" d="M1277.65,1252.1l-32.87-19c-2.39-1.38-2.1-3.79.67-5.37l31.59-18.22a10.38,10.38,0,0,1,9.32-.38l32.87,19c2.37,1.38,2.08,3.79-.67,5.37L1287,1251.72A10.35,10.35,0,0,1,1277.65,1252.1Z" transform="translate(-274.83 -435.94)"/>
    <path class="l" d="M1336.47,1286.06l-32.87-19c-2.39-1.38-2.1-3.79.67-5.37l31.59-18.22a10.36,10.36,0,0,1,9.3-.38l32.89,19c2.37,1.38,2.08,3.79-.67,5.37l-31.59,18.22A10.35,10.35,0,0,1,1336.47,1286.06Z" transform="translate(-274.83 -435.94)"/>
    <path class="l" d="M808,1047.83l-32.88-19c-2.39-1.38-2.09-3.79.65-5.37l31.6-18.21a10.3,10.3,0,0,1,9.3-.39l32.87,19c2.39,1.39,2.09,3.79-.65,5.39l-31.59,18.21A10.34,10.34,0,0,1,808,1047.83Z" transform="translate(-274.83 -435.94)"/>
    <path class="l" d="M866.84,1081.72l-32.88-19c-2.39-1.38-2.09-3.79.65-5.37l31.6-18.2a10.27,10.27,0,0,1,9.3-.4l32.79,19.06c2.39,1.38,2.09,3.79-.65,5.39l-31.59,18.2A10.35,10.35,0,0,1,866.84,1081.72Z" transform="translate(-274.83 -435.94)"/>
    <path class="l" d="M925.6,1115.76l-32.88-19c-2.39-1.38-2.09-3.79.65-5.37l31.6-18.22a10.36,10.36,0,0,1,9.3-.38l32.87,19c2.39,1.38,2.09,3.79-.65,5.37l-31.59,18.22A10.37,10.37,0,0,1,925.6,1115.76Z" transform="translate(-274.83 -435.94)"/>
    <path class="l" d="M984.42,1149.72l-32.88-19c-2.39-1.38-2.09-3.79.65-5.37l31.6-18.22a10.36,10.36,0,0,1,9.3-.38l32.87,19c2.39,1.38,2.1,3.79-.65,5.37l-31.59,18.22A10.37,10.37,0,0,1,984.42,1149.72Z" transform="translate(-274.83 -435.94)"/>
    <path class="l" d="M1043.24,1183.68l-32.88-19c-2.39-1.39-2.09-3.8.66-5.4l31.59-18.2a10.36,10.36,0,0,1,9.3-.38l32.87,19c2.39,1.38,2.1,3.79-.65,5.37l-31.59,18.23A10.34,10.34,0,0,1,1043.24,1183.68Z" transform="translate(-274.83 -435.94)"/>
    <path class="l" d="M1102.06,1217.64l-32.88-19c-2.39-1.39-2.09-3.8.66-5.39l31.59-18.21a10.33,10.33,0,0,1,9.3-.37l32.87,19c2.39,1.38,2.1,3.79-.65,5.37l-31.59,18.21A10.3,10.3,0,0,1,1102.06,1217.64Z" transform="translate(-274.83 -435.94)"/>
    <path class="l" d="M1160.88,1251.52l-32.88-19c-2.38-1.38-2.09-3.79.66-5.39l31.59-18.21a10.33,10.33,0,0,1,9.3-.37l32.87,19c2.39,1.38,2.1,3.79-.65,5.37l-31.59,18.21A10.27,10.27,0,0,1,1160.88,1251.52Z" transform="translate(-274.83 -435.94)"/>
    <path class="l" d="M1219.7,1285.56l-32.88-19c-2.38-1.38-2.09-3.79.66-5.39l31.59-18.21a10.37,10.37,0,0,1,9.3-.39l32.87,19c2.39,1.39,2.1,3.79-.67,5.37L1229,1285.17A10.26,10.26,0,0,1,1219.7,1285.56Z" transform="translate(-274.83 -435.94)"/>
    <path class="l" d="M1278.52,1319.52l-32.88-19c-2.38-1.36-2.09-3.77.66-5.37l31.59-18.21a10.37,10.37,0,0,1,9.3-.39l32.87,19c2.39,1.39,2.1,3.78-.67,5.38l-31.59,18.2A10.26,10.26,0,0,1,1278.52,1319.52Z" transform="translate(-274.83 -435.94)"/>
    <path class="l" d="M750,1081.3l-32.88-19c-2.37-1.39-2-3.79.67-5.39l31.59-18.21a10.34,10.34,0,0,1,9.3-.37l32.88,19c2.39,1.38,2.09,3.79-.67,5.37l-31.59,18.21A10.34,10.34,0,0,1,750,1081.3Z" transform="translate(-274.83 -435.94)"/>
    <path class="l" d="M808.81,1115.28l-32.8-19c-2.37-1.38-2.07-3.79.67-5.39l31.59-18.21a10.34,10.34,0,0,1,9.3-.37l32.88,19c2.39,1.38,2.09,3.79-.67,5.37l-31.59,18.21A10.32,10.32,0,0,1,808.81,1115.28Z" transform="translate(-274.83 -435.94)"/>
    <path class="l" d="M867.63,1149.22l-32.88-19c-2.37-1.38-2.07-3.79.67-5.39l31.6-18.21a10.25,10.25,0,0,1,9.29-.37l32.88,19c2.39,1.39,2.09,3.8-.67,5.37l-31.59,18.21A10.3,10.3,0,0,1,867.63,1149.22Z" transform="translate(-274.83 -435.94)"/>
    <path class="l" d="M926.45,1183.19l-32.88-19c-2.37-1.36-2-3.77.67-5.37l31.6-18.2a10.34,10.34,0,0,1,9.3-.4l32.87,19c2.39,1.38,2.09,3.77-.67,5.37l-31.59,18.2A10.34,10.34,0,0,1,926.45,1183.19Z" transform="translate(-274.83 -435.94)"/>
    <path class="l" d="M985.31,1217.15l-32.92-18.94c-2.37-1.36-2.07-3.77.67-5.37l31.6-18.2a10.34,10.34,0,0,1,9.3-.4l32.81,18.94c2.39,1.36,2.09,3.77-.67,5.37l-31.59,18.2A10.31,10.31,0,0,1,985.31,1217.15Z" transform="translate(-274.83 -435.94)"/>
    <path class="l" d="M1044.09,1251.11l-32.88-19c-2.39-1.36-2.07-3.77.67-5.37l31.6-18.2a10.27,10.27,0,0,1,9.3-.4l32.87,19c2.39,1.36,2.09,3.77-.67,5.37l-31.59,18.2A10.4,10.4,0,0,1,1044.09,1251.11Z" transform="translate(-274.83 -435.94)"/>
    <path class="l" d="M1102.91,1285.09l-32.88-19c-2.39-1.39-2.07-3.78.67-5.38l31.6-18.2a10.3,10.3,0,0,1,9.3-.4l32.87,19c2.39,1.36,2.09,3.77-.67,5.37l-31.59,18.2A10.37,10.37,0,0,1,1102.91,1285.09Z" transform="translate(-274.83 -435.94)"/>
    <path class="l" d="M1161.73,1319l-32.88-19c-2.39-1.39-2.07-3.79.67-5.37l31.6-18.21a10.27,10.27,0,0,1,9.3-.39l32.83,18.89c2.39,1.38,2.1,3.79-.67,5.39L1171,1318.56A10.35,10.35,0,0,1,1161.73,1319Z" transform="translate(-274.83 -435.94)"/>
    <path class="l" d="M1220.55,1353l-32.88-19c-2.39-1.38-2.07-3.79.67-5.37l31.6-18.21a10.3,10.3,0,0,1,9.3-.39l32.87,19c2.39,1.38,2.09,3.79-.67,5.39l-31.59,18.21A10.4,10.4,0,0,1,1220.55,1353Z" transform="translate(-274.83 -435.94)"/>
    <path class="l" d="M692,1114.77l-32.88-19c-2.39-1.36-2-3.77.67-5.37l31.59-18.2a10.35,10.35,0,0,1,9.32-.4l32.88,19c2.39,1.36,2.09,3.77-.67,5.37l-31.6,18.2A10.36,10.36,0,0,1,692,1114.77Z" transform="translate(-274.83 -435.94)"/>
    <path class="l" d="M750.86,1148.73l-32.88-19c-2.39-1.39-2-3.78.67-5.37l31.59-18.21a10.32,10.32,0,0,1,9.32-.39l32.88,19c2.39,1.36,2.09,3.77-.67,5.37l-31.59,18.21A10.41,10.41,0,0,1,750.86,1148.73Z" transform="translate(-274.83 -435.94)"/>
    <path class="l" d="M809.68,1182.67l-32.88-19c-2.39-1.38-2.07-3.79.67-5.37l31.59-18.21a10.32,10.32,0,0,1,9.32-.39l32.82,19c2.39,1.38,2.09,3.79-.67,5.39l-31.59,18.21A10.34,10.34,0,0,1,809.68,1182.67Z" transform="translate(-274.83 -435.94)"/>
    <path class="l" d="M983,1282.72l-143.17-82.65c-4.68-2.71-4.09-7.45,1.32-10.57L863,1176.85c5.41-3.12,13.6-3.46,18.28-.75l143.17,82.65c4.7,2.7,4.11,7.44-1.3,10.56L1001.26,1282C995.85,1285.09,987.66,1285.43,983,1282.72Z" transform="translate(-274.83 -435.94)"/>
    <path class="l" d="M1045,1318.52l-32.88-19c-2.39-1.38-2.09-3.79.67-5.37l31.59-18.22a10.41,10.41,0,0,1,9.32-.38l32.88,19c2.39,1.38,2.09,3.79-.67,5.37l-31.59,18.22A10.41,10.41,0,0,1,1045,1318.52Z" transform="translate(-274.83 -435.94)"/>
    <path class="l" d="M1103.78,1352.48l-32.88-19c-2.39-1.38-2.09-3.79.67-5.39l31.59-18.2a10.41,10.41,0,0,1,9.32-.38l32.76,19c2.39,1.38,2.09,3.79-.67,5.37L1113,1352.12A10.38,10.38,0,0,1,1103.78,1352.48Z" transform="translate(-274.83 -435.94)"/>
    <path class="l" d="M1162.6,1386.44l-32.88-19c-2.39-1.39-2.09-3.8.67-5.39l31.6-18.21a10.35,10.35,0,0,1,9.31-.37l32.88,19c2.39,1.38,2.09,3.79-.67,5.37l-31.59,18.21A10.35,10.35,0,0,1,1162.6,1386.44Z" transform="translate(-274.83 -435.94)"/>
    <path class="l" d="M876.22,1319.21,761.5,1253a4.55,4.55,0,0,1-1.64-6.23,4.44,4.44,0,0,1,1.86-1.76l51.19-26a22.53,22.53,0,0,1,22.49,0l96.75,55.84a15.65,15.65,0,0,1,0,27.13l-36.58,17.87A20.6,20.6,0,0,1,876.22,1319.21Z" transform="translate(-274.83 -435.94)"/>
    <path d="M1401.93,905.43l-.87,302.65a7,7,0,0,1-10.51,6.07L908.66,935.94a7.05,7.05,0,0,1-3.52-6.1l.93-302.67a7,7,0,0,1,7-7,6.88,6.88,0,0,1,3.51,1l481.9,278.22A7,7,0,0,1,1401.93,905.43Z" transform="translate(-274.83 -435.94)" style="stroke-width:7.15px;fill:#f4f4f4;stroke-miterlimit:10;stroke:#fff"/>
    <path d="M1146.58,739.1l32.11,18.56c2.74,1.56,5-.12,5-3.77h0a11.88,11.88,0,0,0-5-9.48l-32.11-18.54c-2.72-1.58-5,.12-5,3.75h0A11.83,11.83,0,0,0,1146.58,739.1Z" transform="translate(-274.83 -435.94)" style="fill:#dfffff;stroke-width:6.65px;stroke-miterlimit:10;stroke:#fff"/>
    <path d="M1251.43,859.17h0c0,5.27-3.71,7.41-8.27,4.78L934,681.82c-4.56-2.64-8.27-.51-8.27,4.76V900.2A18.3,18.3,0,0,0,934,914.52l422.86,247.76c4.58,2.64,8.27.49,8.27-4.78V924.8a18.2,18.2,0,0,0-8.27-14.31l-97.07-56.1C1255.12,851.77,1251.43,853.9,1251.43,859.17Z" transform="translate(-274.83 -435.94)" style="stroke-width:7.15px;stroke-miterlimit:10;stroke:#fff;fill:#fff"/>
    <path class="q" d="M1273.13,886a20.6,20.6,0,0,0,9.3,16.12c5.13,3,9.3.55,9.3-5.37a20.56,20.56,0,0,0-9.3-16.12C1277.3,877.69,1273.13,880.08,1273.13,886Z" transform="translate(-274.83 -435.94)"/>
    <path d="M1303.2,903.32a20.54,20.54,0,0,0,9.3,16.11c5.13,3,9.3.58,9.3-5.37a20.58,20.58,0,0,0-9.3-16.11C1307.27,895,1303.2,897.4,1303.2,903.32Z" transform="translate(-274.83 -435.94)" style="fill:#fff"/>
    <path d="M1303.2,903.32a20.54,20.54,0,0,0,9.3,16.11c5.13,3,9.3.58,9.3-5.37a20.58,20.58,0,0,0-9.3-16.11C1307.27,895,1303.2,897.4,1303.2,903.32Z" transform="translate(-274.83 -435.94)" style="stroke:#d1d1d1;stroke-width:7.25px;stroke-miterlimit:10;fill:none"/>
    <path class="q" d="M1333.08,920.64a20.48,20.48,0,0,0,9.3,16.09c5.13,3,9.3.57,9.3-5.37a20.56,20.56,0,0,0-9.3-16.09C1337.22,912.28,1333.08,914.69,1333.08,920.64Z" transform="translate(-274.83 -435.94)"/>
</svg>
