<svg xmlns="http://www.w3.org/2000/svg" viewBox="0 0 546.98 547.02" width="40px">
    <defs>
        <style>
            .a{fill:red}.b{fill:#ffc800}
        </style>
    </defs>
    <title>
        red light mode icon
    </title>
    <path class="a" d="M456.31,280.52A175.32,175.32,0,1,1,281,105.2,175.32,175.32,0,0,1,456.31,280.52Z" transform="translate(-7.49 -6.99)"/>
    <path class="b" d="M429.22,405.12c8.68-8.32,26.93-37.7,33.62-58.14,18.19,16.45,39.83,42.94,54.83,70.54C486.43,418.26,452.42,412.68,429.22,405.12Z" transform="translate(-7.49 -6.99)"/>
    <path class="b" d="M347,462.57c13.83-5.36,11.76-4.23,30.67-14.15,16.06-10.67,4.49-1.52,27.73-19.37,13.87,45.24,12.16,88.57,12.16,88.57S378.78,497.18,347,462.57Z" transform="translate(-7.49 -6.99)"/>
    <path class="b" d="M247.13,471.37C289.74,476.52,292,473.2,304,473c6.26-.84,10.4-1.73,10.4-1.73C308,500.46,293.87,532.7,280.65,554A289.49,289.49,0,0,1,247.13,471.37Z" transform="translate(-7.49 -6.99)"/>
    <path class="b" d="M156.38,428.75c8.32,8.69,37.7,26.93,58.14,33.62-17.23,19.08-43.66,40.23-70.54,54.84C143.24,485.51,149,451.48,156.38,428.75Z" transform="translate(-7.49 -6.99)"/>
    <path class="b" d="M98.93,346.51c5.36,13.83,4.24,11.76,14.16,30.68,10.67,16.05,1.52,4.48,19.36,27.72-45.23,13.88-88.56,12.17-88.56,12.17S64.32,378.31,98.93,346.51Z" transform="translate(-7.49 -6.99)"/>
    <path class="b" d="M90.13,246.65c-3,24.58-2.37,15.27-2.76,33.71-.55,8.46,1,16.84,1.18,23.17.85,6.26,1.73,10.4,1.74,10.4-29.05-6.34-61.21-20.34-82.8-33.75A291.44,291.44,0,0,1,90.13,246.65Z" transform="translate(-7.49 -6.99)"/>
    <path class="b" d="M132.75,155.92a51.92,51.92,0,0,0-6.57,8.25c-10.21,14.16-20.73,30.6-27.05,49.89C80.06,196.83,58.9,170.39,44.3,143.52,75.54,142.78,109.2,148.24,132.75,155.92Z" transform="translate(-7.49 -6.99)"/>
    <path class="b" d="M215,98.47C183.71,110.59,171.1,120.85,156.6,132c-13.88-45.24-12.17-88.57-12.17-88.57S183.33,64,215,98.47Z" transform="translate(-7.49 -6.99)"/>
    <path class="b" d="M314.85,89.67C272.23,84.52,270,87.84,258,88.08c-6.26.85-10.4,1.74-10.4,1.74C253.73,61.56,267.26,29.67,281.32,7A292.27,292.27,0,0,1,314.85,89.67Z" transform="translate(-7.49 -6.99)"/>
    <path class="b" d="M405.58,132.29c-8.22-8.59-37.54-26.88-58.13-33.62C363.89,80.48,390.39,58.83,418,43.83,418.73,75.52,413,109.56,405.58,132.29Z" transform="translate(-7.49 -6.99)"/>
    <path class="b" d="M463,214.53c-5.36-13.83-4.24-11.77-14.15-30.68-10.68-16-1.53-4.48-19.37-27.72C474.75,142.25,518.08,144,518.08,144S497.56,182.82,463,214.53Z" transform="translate(-7.49 -6.99)"/>
    <path class="b" d="M471.83,314.38c3-24.57,2.38-15.26,2.78-33.7.54-8.46-1.06-16.84-1.19-23.17-.84-6.26-1.73-10.4-1.74-10.4,29.24,6.38,61.48,20.52,82.8,33.75A292,292,0,0,1,471.83,314.38Z" transform="translate(-7.49 -6.99)"/>
    <path class="a" d="M517.64,417.46c-31.21.83-65.22-4.78-88.36-12.38,8.65-8.3,26.88-37.64,33.54-58.09C481.05,363.47,502.67,389.88,517.64,417.46Z" transform="translate(-7.49 -6.99)"/>
    <path class="a" d="M417.59,517.63s-38.8-20.45-70.59-55c13.79-5.38,11.8-4.22,30.61-14.15,16.14-10.64,4.57-1.52,27.82-19.4C419.23,474.27,417.59,517.63,417.59,517.63Z" transform="translate(-7.49 -6.99)"/>
    <path class="a" d="M314.38,471.23c-6.31,29.11-20.33,61.25-33.66,82.52,0,.12-.12.12-.12.23a288.72,288.72,0,0,1-33.42-82.63c16,1.87,26.3,2.69,33.54,2.8,12,.36,15.78-1,23.26-1.17C310.29,472.17,314.38,471.23,314.38,471.23Z" transform="translate(-7.49 -6.99)"/>
    <path class="a" d="M156.38,428.75c8.32,8.69,37.7,26.93,58.14,33.62-17.23,19.08-43.66,40.23-70.54,54.84C143.24,485.51,149,451.48,156.38,428.75Z" transform="translate(-7.49 -6.99)"/>
    <path class="a" d="M98.93,346.51c5.36,13.83,4.24,11.76,14.16,30.68,10.67,16.05,1.52,4.48,19.36,27.72-45.23,13.88-88.56,12.17-88.56,12.17S64.32,378.31,98.93,346.51Z" transform="translate(-7.49 -6.99)"/>
    <path class="a" d="M90.13,246.65c-3,24.58-2.37,15.27-2.76,33.71-.55,8.46,1,16.84,1.18,23.17.85,6.26,1.73,10.4,1.74,10.4-29.05-6.34-61.21-20.34-82.8-33.75A291.44,291.44,0,0,1,90.13,246.65Z" transform="translate(-7.49 -6.99)"/>
    <path class="a" d="M132.75,155.92a51.92,51.92,0,0,0-6.57,8.25c-10.21,14.16-20.73,30.6-27.05,49.89C80.06,196.83,58.9,170.39,44.3,143.52,75.54,142.78,109.2,148.24,132.75,155.92Z" transform="translate(-7.49 -6.99)"/>
    <path class="a" d="M215,98.47C183.71,110.59,171.1,120.85,156.6,132c-13.88-45.24-12.17-88.57-12.17-88.57S183.33,64,215,98.47Z" transform="translate(-7.49 -6.99)"/>
    <path class="a" d="M314.85,89.62c-16.36-2-26.88-2.69-34.13-2.81C269,86.58,265.3,88,257.93,88.1c-6.2.82-10.4,1.75-10.4,1.75,6.08-27.93,19.4-59.37,33.19-81.93.24-.35.35-.58.59-.93A291.2,291.2,0,0,1,314.85,89.62Z" transform="translate(-7.49 -6.99)"/>
    <path class="a" d="M405.55,132.28c-8.18-8.53-37.52-26.88-58.09-33.66,16.48-18.12,42.89-39.74,70.48-54.82C418.76,75.48,413,109.6,405.55,132.28Z" transform="translate(-7.49 -6.99)"/>
    <path class="a" d="M518.11,144s-20.58,38.81-55.06,70.6c-5.37-13.92-4.21-11.81-14.14-30.74-10.75-16-1.52-4.45-19.4-27.71C474.74,142.21,518.11,144,518.11,144Z" transform="translate(-7.49 -6.99)"/>
    <path class="a" d="M474.62,280.72c.47-8.53-1.05-16.83-1.17-23.26-.93-6.19-1.75-10.4-1.75-10.4,29.22,6.43,61.48,20.57,82.75,33.77a288.21,288.21,0,0,1-82.63,33.55C474.86,289.83,474.16,299.07,474.62,280.72Z" transform="translate(-7.49 -6.99)"/>
    <path class="a" d="M405.43,429c13.8,45.23,12.16,88.59,12.16,88.59s-38.8-20.45-70.59-55c13.79-5.38,11.8-4.22,30.61-14.15C393.75,437.8,382.18,446.92,405.43,429Z" transform="translate(-7.49 -6.99)"/>
    <path class="a" d="M405.55,132.28c-8.18-8.53-37.52-26.88-58.09-33.66,16.48-18.12,42.89-39.74,70.48-54.82C418.76,75.48,413,109.6,405.55,132.28Z" transform="translate(-7.49 -6.99)"/>
    <path class="a" d="M517.64,417.46c-31.21.83-65.22-4.78-88.36-12.38,8.65-8.3,26.88-37.64,33.54-58.09C481.05,363.47,502.67,389.88,517.64,417.46Z" transform="translate(-7.49 -6.99)"/>
    <path class="a" d="M448.91,183.83c-10.75-16-1.52-4.45-19.4-27.71,45.23-13.91,88.6-12.15,88.6-12.15s-20.58,38.81-55.06,70.6C457.68,200.65,458.84,202.76,448.91,183.83Z" transform="translate(-7.49 -6.99)"/>
    <path class="a" d="M474.62,280.72c.47-8.53-1.05-16.83-1.17-23.26-.93-6.19-1.75-10.4-1.75-10.4,29.22,6.43,61.48,20.57,82.75,33.77a288.21,288.21,0,0,1-82.63,33.55C474.86,289.83,474.16,299.07,474.62,280.72Z" transform="translate(-7.49 -6.99)"/>
</svg>
