<svg xmlns="http://www.w3.org/2000/svg" viewBox="0 0 541.91 561.24"><defs><style>.a{fill:#efefef;}.b,.e,.h,.i{fill:none;}.b,.e,.f,.g,.h{stroke:#464646;stroke-miterlimit:10;}.b,.h{stroke-width:4.18px;}.c{isolation:isolate;}.d{fill:#d3d3d3;}.e,.g{stroke-width:4.12px;}.f{fill:#dfffff;stroke-width:3.84px;}.g{fill:#fff;}.h{stroke-linecap:round;}</style></defs><title>computer_bg</title><polygon class="a" points="373.26 507.2 49.71 320.68 194.8 236.41 518.36 422.93 373.26 507.2"/><path class="b" d="M525.64,203.62,525,420.9a1.83,1.83,0,0,1-2.74,1.58l-320.34-185a1.84,1.84,0,0,1-.92-1.59l.62-217.28a1.83,1.83,0,0,1,2.74-1.58L524.72,202A1.84,1.84,0,0,1,525.64,203.62Z" transform="translate(-7.91 -0.86)"/><path class="b" d="M526.54,202,545,191.32a1.82,1.82,0,0,1,2.74,1.58l-.62,217.27a1.84,1.84,0,0,1-.91,1.57l-18.44,10.71a1.82,1.82,0,0,1-2.74-1.58l.62-217.26A1.8,1.8,0,0,1,526.54,202Z" transform="translate(-7.91 -0.86)"/><path class="b" d="M204.37,13.92,222.83,3.2a1.84,1.84,0,0,1,1.83,0L545,188.15a1.82,1.82,0,0,1,0,3.15L526.55,202a1.82,1.82,0,0,1-1.83,0L204.38,17.08A1.83,1.83,0,0,1,204.37,13.92Z" transform="translate(-7.91 -0.86)"/><g class="c"><path class="b" d="M522.84,426.07,335,535.25a1.8,1.8,0,0,1-1.82,0L12.8,350.3a1.83,1.83,0,0,1,0-3.16L200.66,238a1.84,1.84,0,0,1,1.83,0l320.35,185A1.82,1.82,0,0,1,522.84,426.07Z" transform="translate(-7.91 -0.86)"/><path class="b" d="M525.55,427.67,525.49,449a1.8,1.8,0,0,1-.9,1.57L336.74,559.74a1.82,1.82,0,0,1-2.74-1.58l.06-21.33a1.84,1.84,0,0,1,.91-1.58L522.81,426.09A1.82,1.82,0,0,1,525.55,427.67Z" transform="translate(-7.91 -0.86)"/><path class="b" d="M334.06,536.84,334,558.19a1.83,1.83,0,0,1-2.74,1.57L10.91,374.81a1.84,1.84,0,0,1-.91-1.59l.06-21.35a1.82,1.82,0,0,1,2.74-1.57l320.35,185A1.84,1.84,0,0,1,334.06,536.84Z" transform="translate(-7.91 -0.86)"/></g><path class="d" d="M204.66,458.27l-72.09-41.62a2.35,2.35,0,0,1,.12-4.14l30-15.19a13,13,0,0,1,13,0l55.79,32.22a9,9,0,0,1,0,15.65Z" transform="translate(-7.91 -0.86)"/><path class="b" d="M193.24,279.24l-19-10.95c-1.38-.8-1.2-2.19.39-3.11l18.19-10.5a6,6,0,0,1,5.38-.22l19,11c1.38.79,1.21,2.18-.38,3.1L198.61,279A6,6,0,0,1,193.24,279.24Z" transform="translate(-7.91 -0.86)"/><path class="b" d="M227.18,298.83l-19-10.95c-1.38-.8-1.21-2.18.38-3.1l18.2-10.51a5.94,5.94,0,0,1,5.37-.22l19,10.95c1.38.8,1.21,2.18-.38,3.1l-18.2,10.51A5.94,5.94,0,0,1,227.18,298.83Z" transform="translate(-7.91 -0.86)"/><path class="b" d="M261.11,318.42l-19-10.95c-1.37-.79-1.2-2.18.39-3.1l18.2-10.5a6,6,0,0,1,5.37-.23l19,10.95c1.38.8,1.2,2.19-.39,3.11l-18.19,10.5A6,6,0,0,1,261.11,318.42Z" transform="translate(-7.91 -0.86)"/><path class="b" d="M295.05,338l-19-10.95c-1.38-.8-1.2-2.19.39-3.11l18.19-10.5a6,6,0,0,1,5.38-.22l19,10.95c1.37.79,1.2,2.18-.39,3.1l-18.2,10.51A6,6,0,0,1,295.05,338Z" transform="translate(-7.91 -0.86)"/><path class="b" d="M329,357.61l-19-10.95c-1.38-.79-1.21-2.18.38-3.1l18.2-10.51a5.94,5.94,0,0,1,5.37-.22l19,10.95c1.38.8,1.21,2.19-.38,3.1l-18.2,10.51A5.94,5.94,0,0,1,329,357.61Z" transform="translate(-7.91 -0.86)"/><path class="b" d="M362.92,377.21l-19-11c-1.38-.79-1.21-2.18.38-3.1l18.2-10.5a6,6,0,0,1,5.37-.23l19,10.95c1.38.8,1.2,2.19-.39,3.11L368.3,377A6,6,0,0,1,362.92,377.21Z" transform="translate(-7.91 -0.86)"/><path class="b" d="M396.86,396.8l-19-10.95c-1.37-.8-1.2-2.19.39-3.1l18.2-10.51a5.94,5.94,0,0,1,5.37-.22l19,11c1.37.79,1.2,2.18-.39,3.1l-18.2,10.51A6,6,0,0,1,396.86,396.8Z" transform="translate(-7.91 -0.86)"/><path class="b" d="M430.8,416.39l-19-10.95c-1.38-.79-1.2-2.18.39-3.1l18.19-10.51a6,6,0,0,1,5.38-.22l19,10.95c1.38.8,1.21,2.19-.38,3.1l-18.2,10.51A5.94,5.94,0,0,1,430.8,416.39Z" transform="translate(-7.91 -0.86)"/><path class="b" d="M464.74,436l-19-11c-1.38-.79-1.21-2.18.38-3.1l18.2-10.5a6,6,0,0,1,5.37-.23l19,11c1.38.79,1.21,2.18-.39,3.1l-18.19,10.5A6,6,0,0,1,464.74,436Z" transform="translate(-7.91 -0.86)"/><path class="b" d="M159.8,298.54l-19-11c-1.37-.79-1.2-2.18.39-3.1L159.42,274a6,6,0,0,1,5.37-.22l19,10.95c1.37.8,1.2,2.19-.39,3.1l-18.2,10.51A5.94,5.94,0,0,1,159.8,298.54Z" transform="translate(-7.91 -0.86)"/><path class="b" d="M193.74,318.14l-19-10.95c-1.38-.8-1.2-2.19.39-3.11l18.19-10.5a6,6,0,0,1,5.38-.23l19,11c1.38.79,1.21,2.18-.38,3.1l-18.2,10.5A6,6,0,0,1,193.74,318.14Z" transform="translate(-7.91 -0.86)"/><path class="b" d="M227.68,337.73l-19-11c-1.38-.8-1.21-2.19.38-3.1l18.2-10.51a5.94,5.94,0,0,1,5.37-.22l19,10.95c1.38.79,1.21,2.18-.38,3.1l-18.2,10.51A6,6,0,0,1,227.68,337.73Z" transform="translate(-7.91 -0.86)"/><path class="b" d="M261.61,357.32l-19-10.95c-1.37-.79-1.2-2.18.39-3.1l18.2-10.51a6,6,0,0,1,5.37-.22l19,10.95c1.38.8,1.2,2.19-.39,3.1L267,357.1A6,6,0,0,1,261.61,357.32Z" transform="translate(-7.91 -0.86)"/><path class="b" d="M295.55,376.92l-19-10.95c-1.38-.8-1.2-2.19.39-3.11l18.19-10.5a6,6,0,0,1,5.38-.23l19,11c1.38.79,1.21,2.18-.38,3.1l-18.2,10.5A6,6,0,0,1,295.55,376.92Z" transform="translate(-7.91 -0.86)"/><path class="b" d="M329.49,396.51l-19-10.95c-1.38-.8-1.21-2.18.38-3.1L329.1,372a5.94,5.94,0,0,1,5.37-.22l19,10.95c1.38.79,1.21,2.18-.38,3.1l-18.2,10.51A5.94,5.94,0,0,1,329.49,396.51Z" transform="translate(-7.91 -0.86)"/><path class="b" d="M363.42,416.1l-19-11c-1.38-.79-1.21-2.18.38-3.1L363,391.54a6,6,0,0,1,5.37-.22l19,10.95c1.38.8,1.2,2.19-.39,3.11l-18.19,10.5A6,6,0,0,1,363.42,416.1Z" transform="translate(-7.91 -0.86)"/><path class="b" d="M397.36,435.7l-19-10.95c-1.37-.8-1.2-2.19.39-3.11L397,411.14a6,6,0,0,1,5.38-.22l19,10.95c1.37.79,1.2,2.18-.39,3.1l-18.2,10.5A6,6,0,0,1,397.36,435.7Z" transform="translate(-7.91 -0.86)"/><path class="b" d="M431.3,455.29l-19-11c-1.38-.8-1.2-2.18.39-3.1l18.19-10.51a5.94,5.94,0,0,1,5.37-.22l19,10.95c1.38.8,1.21,2.18-.38,3.1l-18.2,10.51A5.94,5.94,0,0,1,431.3,455.29Z" transform="translate(-7.91 -0.86)"/><path class="b" d="M126.36,317.85l-19-11c-1.38-.8-1.21-2.19.38-3.11l18.2-10.5a5.94,5.94,0,0,1,5.37-.22l19,10.95c1.38.79,1.2,2.18-.39,3.1l-18.19,10.51A6,6,0,0,1,126.36,317.85Z" transform="translate(-7.91 -0.86)"/><path class="b" d="M160.3,337.44l-19-10.95c-1.37-.79-1.2-2.18.39-3.1l18.19-10.51a6,6,0,0,1,5.38-.22l19,10.95c1.37.8,1.2,2.18-.39,3.1l-18.2,10.51A5.94,5.94,0,0,1,160.3,337.44Z" transform="translate(-7.91 -0.86)"/><path class="b" d="M194.24,357l-19-11c-1.38-.79-1.21-2.18.39-3.1l18.19-10.5a6,6,0,0,1,5.37-.23l19,10.95c1.38.8,1.21,2.19-.38,3.11l-18.2,10.5A6,6,0,0,1,194.24,357Z" transform="translate(-7.91 -0.86)"/><path class="b" d="M228.17,376.63l-19-10.95c-1.38-.8-1.21-2.19.38-3.1l18.2-10.51a5.94,5.94,0,0,1,5.37-.22l19,10.95c1.38.79,1.2,2.18-.39,3.1l-18.19,10.51A6,6,0,0,1,228.17,376.63Z" transform="translate(-7.91 -0.86)"/><path class="b" d="M262.11,396.22l-19-11c-1.37-.79-1.2-2.18.39-3.1l18.2-10.51a6,6,0,0,1,5.37-.22l19,10.95c1.37.8,1.2,2.19-.39,3.1L267.48,396A5.94,5.94,0,0,1,262.11,396.22Z" transform="translate(-7.91 -0.86)"/><path class="b" d="M296.05,415.82l-19-11c-1.38-.79-1.2-2.18.39-3.1l18.19-10.5A6,6,0,0,1,301,391l19,11c1.38.79,1.21,2.18-.38,3.1l-18.2,10.5A6,6,0,0,1,296.05,415.82Z" transform="translate(-7.91 -0.86)"/><path class="b" d="M330,435.41l-19-11c-1.38-.8-1.21-2.19.38-3.1l18.2-10.51a5.94,5.94,0,0,1,5.37-.22l19,10.95c1.38.79,1.21,2.18-.38,3.1l-18.2,10.51A6,6,0,0,1,330,435.41Z" transform="translate(-7.91 -0.86)"/><path class="b" d="M363.92,455l-19-10.95c-1.37-.79-1.2-2.18.39-3.1l18.2-10.51a6,6,0,0,1,5.37-.22l19,10.95c1.38.8,1.2,2.19-.39,3.1L369.3,454.78A6,6,0,0,1,363.92,455Z" transform="translate(-7.91 -0.86)"/><path class="b" d="M397.86,474.6l-19-11c-1.38-.8-1.2-2.19.39-3.11L397.47,450a6,6,0,0,1,5.38-.23l19,11c1.37.79,1.2,2.18-.39,3.1l-18.2,10.5A6,6,0,0,1,397.86,474.6Z" transform="translate(-7.91 -0.86)"/><path class="b" d="M92.93,337.15,74,326.2c-1.38-.79-1.21-2.18.38-3.1l18.2-10.51a6,6,0,0,1,5.37-.22l19,10.95c1.38.8,1.21,2.19-.38,3.1L98.3,336.93A5.94,5.94,0,0,1,92.93,337.15Z" transform="translate(-7.91 -0.86)"/><path class="b" d="M126.86,356.75l-19-10.95c-1.37-.8-1.2-2.19.39-3.11l18.2-10.5a6,6,0,0,1,5.37-.23l19,11c1.38.79,1.2,2.18-.39,3.1l-18.19,10.5A6,6,0,0,1,126.86,356.75Z" transform="translate(-7.91 -0.86)"/><path class="b" d="M160.8,376.34l-19-10.95c-1.38-.8-1.2-2.18.39-3.1l18.19-10.51a6,6,0,0,1,5.38-.22l19,10.95c1.37.79,1.2,2.18-.39,3.1l-18.2,10.51A5.94,5.94,0,0,1,160.8,376.34Z" transform="translate(-7.91 -0.86)"/><path class="b" d="M260.78,434.06l-82.61-47.69c-2.7-1.56-2.36-4.29.76-6.09l12.65-7.3c3.12-1.81,7.84-2,10.55-.44l82.6,47.69c2.71,1.56,2.37,4.29-.75,6.09l-12.65,7.31C268.21,435.43,263.48,435.62,260.78,434.06Z" transform="translate(-7.91 -0.86)"/><path class="b" d="M296.55,454.71l-19-10.95c-1.38-.79-1.2-2.18.39-3.1l18.19-10.5a6,6,0,0,1,5.38-.23l19,10.95c1.38.8,1.21,2.19-.38,3.11l-18.2,10.5A5.94,5.94,0,0,1,296.55,454.71Z" transform="translate(-7.91 -0.86)"/><path class="b" d="M330.49,474.31l-19-10.95c-1.38-.8-1.21-2.19.38-3.11l18.2-10.5a5.94,5.94,0,0,1,5.37-.22l19,11c1.38.79,1.2,2.18-.39,3.1l-18.19,10.51A6,6,0,0,1,330.49,474.31Z" transform="translate(-7.91 -0.86)"/><path class="b" d="M364.42,493.9l-19-10.95c-1.37-.79-1.2-2.18.39-3.1L364,469.34a5.94,5.94,0,0,1,5.37-.22l19,10.95c1.37.8,1.2,2.19-.39,3.1L369.8,493.68A6,6,0,0,1,364.42,493.9Z" transform="translate(-7.91 -0.86)"/><path class="b" d="M199.19,455.11,133,416.9a2.62,2.62,0,0,1,.13-4.61l29.53-15a13,13,0,0,1,13,0l55.79,32.22a9,9,0,0,1,0,15.65L210.33,455.5A11.85,11.85,0,0,1,199.19,455.11Z" transform="translate(-7.91 -0.86)"/><path class="e" d="M502.54,216.38,502,391a4,4,0,0,1-6.07,3.49L217.9,234a4,4,0,0,1-2-3.51l.53-174.63a4,4,0,0,1,6.06-3.49l278,160.53A4,4,0,0,1,502.54,216.38Z" transform="translate(-7.91 -0.86)"/><path class="f" d="M355.18,120.42l18.53,10.69c1.58.91,2.86-.06,2.86-2.16h0a6.88,6.88,0,0,0-2.86-5.48l-18.53-10.69c-1.58-.91-2.87.06-2.87,2.16h0A6.89,6.89,0,0,0,355.18,120.42Z" transform="translate(-7.91 -0.86)"/><path class="g" d="M415.67,189.69h0c0,3-2.14,4.27-4.77,2.75L232.55,87.36c-2.63-1.52-4.77-.29-4.77,2.75V213.36a10.55,10.55,0,0,0,4.77,8.26l243.94,143c2.63,1.52,4.77.29,4.77-2.76V227.55a10.55,10.55,0,0,0-4.77-8.26l-56.05-32.36C417.8,185.41,415.67,186.64,415.67,189.69Z" transform="translate(-7.91 -0.86)"/><path class="h" d="M428.19,205.18a11.84,11.84,0,0,0,5.37,9.29c3,1.71,5.36.33,5.36-3.1a11.86,11.86,0,0,0-5.36-9.29C430.59,200.37,428.19,201.76,428.19,205.18Z" transform="translate(-7.91 -0.86)"/><path class="i" d="M445.48,215.16a11.89,11.89,0,0,0,5.37,9.3c3,1.71,5.37.32,5.37-3.1a11.89,11.89,0,0,0-5.37-9.3C447.89,210.35,445.48,211.74,445.48,215.16Z" transform="translate(-7.91 -0.86)"/><path class="b" d="M445.48,215.16a11.89,11.89,0,0,0,5.37,9.3c3,1.71,5.37.32,5.37-3.1a11.89,11.89,0,0,0-5.37-9.3C447.89,210.35,445.48,211.74,445.48,215.16Z" transform="translate(-7.91 -0.86)"/><path class="h" d="M462.77,225.14a11.87,11.87,0,0,0,5.37,9.3c3,1.71,5.37.32,5.37-3.1a11.87,11.87,0,0,0-5.37-9.29C465.18,220.34,462.77,221.72,462.77,225.14Z" transform="translate(-7.91 -0.86)"/></svg>