<svg xmlns="http://www.w3.org/2000/svg" viewBox="0 0 279 278.31" width="30px">
    <ellipse cx="139.04" cy="139.47" rx="139.04" ry="138.84" fill="#fff"/>
    <path d="M139.5 0a139.51 139.51 0 00-44.1 271.87c7 1.29 9.53-3 9.53-6.71 0-3.33-.13-14.32-.19-26-38.81 8.44-47-16.46-47-16.46-6.35-16.1-15.49-20.39-15.49-20.39-12.66-8.66 1-8.48 1-8.48 14 1 21.38 14.37 21.38 14.37 12.44 21.33 32.63 15.16 40.6 11.6 1.25-9 4.86-15.17 8.85-18.66-31-3.52-63.56-15.49-63.56-68.94A54 54 0 0164.9 94.76c-1.45-3.52-6.23-17.7 1.35-36.92 0 0 11.71-3.75 38.37 14.3a132.19 132.19 0 0169.87 0c26.62-18.05 38.32-14.3 38.32-14.3 7.59 19.22 2.82 33.4 1.37 36.92a53.9 53.9 0 0114.36 37.44c0 53.58-32.64 65.38-63.7 68.83 5 4.33 9.46 12.82 9.46 25.84 0 18.66-.16 33.68-.16 38.28 0 3.71 2.51 8.06 9.58 6.69A139.52 139.52 0 00139.54-.01z" fill="#232323" fill-rule="evenodd"/>
</svg>
