<svg xmlns="http://www.w3.org/2000/svg" viewBox="0 0 99 99" width="30px">
    <defs>
        <style>
            .a{fill:#fff}
        </style>
    </defs>
    <circle class="a" cx="1008.44" cy="1055.34" r="49.5" transform="rotate(-67.5 -223.7 1270)"/>
    <path fill="#232323" d="M18.29 28.44H80.7v42.12H18.29z"/>
    <path class="a" d="M80.71 72.1H18.29a1.54 1.54 0 01-1.54-1.54V28.44a1.54 1.54 0 011.54-1.54h62.42a1.54 1.54 0 011.54 1.54v42.12a1.54 1.54 0 01-1.54 1.54zm-60.87-3.08h59.32v-39H19.84z"/>
    <path class="a" d="M49.5 55.46a8.58 8.58 0 01-5.75-2.2L17.26 29.59a1.54 1.54 0 011-2.69h62.42a1.54 1.54 0 011 2.69L55.2 53.26a8.6 8.6 0 01-5.7 2.2zM22.34 29.98l23.47 21a5.53 5.53 0 007.38 0l23.47-21zm31.88 22.13z"/>
    <path class="a" d="M80.71 71.82H18.29a1.55 1.55 0 01-1-2.7l23.25-20.77a1.54 1.54 0 112 2.3L22.32 68.73h54.32L56.41 50.65a1.544 1.544 0 112.06-2.3l23.24 20.77a1.54 1.54 0 01-1 2.7z"/>
</svg>