<svg xmlns="http://www.w3.org/2000/svg" viewBox="0 0 522.93 549.05" width="30px">
    <title>
        Click for night mode!
    </title>
    <path d="M522.93 391.28C479 484.56 384.33 549.05 274.42 549.05A274.65 274.65 
                0 010 274.49C0 122.93 122.82 0 274.42 0A280 280 0 01319 3.62c-95.44 25.92-165.8 
                112.87-165.8 216.54a224.41 224.41 0 00369.73 171.12z"/>
    <path d="M364.55 226.97l91.53 15.06-91.53 15.09-15.07 91.53-15.08-91.53-91.53-15.07 
                91.53-15.08 15.08-91.54 15.07 91.54zM471.33 109.3l45.77 7.54-45.77 7.53-7.54 
                45.77-7.54-45.77-45.76-7.53 45.76-7.54 7.54-45.77 7.54 45.77z"/>
</svg>
